G04 ================== begin FILE IDENTIFICATION RECORD ==================*
G04 Layout Name:  D:/Projects/PCB/FSCV Board V2/PCBEditor/V7/fscvmotherboardv2.brd*
G04 Film Name:    13_SILKSCREEN_BOTTOM*
G04 File Format:  Gerber RS274X*
G04 File Origin:  Cadence Allegro 23.1-S002*
G04 Origin Date:  Thu Mar 14 18:46:53 2024*
G04 *
G04 Layer:  BOARD GEOMETRY/SILKSCREEN_BOTTOM*
G04 Layer:  REF DES/SILKSCREEN_BOTTOM*
G04 Layer:  PACKAGE GEOMETRY/SILKSCREEN_BOTTOM*
G04 Layer:  DEVICE TYPE/SILKSCREEN_BOTTOM*
G04 Layer:  COMPONENT VALUE/SILKSCREEN_BOTTOM*
G04 Layer:  DRAWING FORMAT/OUTLINE*
G04 Layer:  DRAWING FORMAT/TITLE_BLOCK*
G04 Layer:  DRAWING FORMAT/TITLE_DATA*
G04 Layer:  DRAWING FORMAT/REVISION_BLOCK*
G04 Layer:  DRAWING FORMAT/REVISION_DATA*
G04 Layer:  BOARD GEOMETRY/DESIGN_OUTLINE*
G04 *
G04 Offset:    (0.0000 0.0000)*
G04 Mirror:    No*
G04 Mode:      Positive*
G04 Rotation:  0*
G04 FullContactRelief:  No*
G04 UndefLineWidth:     0.1000*
G04 ================== end FILE IDENTIFICATION RECORD ====================*
%FSLAX25Y25*MOMM*%
%IR0*IPPOS*OFA0.00000B0.00000*MIA0B0*SFA1.00000B1.00000*%
%ADD10C,.1*%
%ADD11C,.2*%
%ADD12C,.4*%
%ADD13C,.127*%
%ADD14C,.1524*%
G75*
%LPD*%
G75*
G36*
G01X-10053500Y3740500D02*
G03I-20000J0D01*
G37*
G36*
G01X-6530000Y4450000D02*
G03I-20000J0D01*
G37*
G36*
G01X-6103500Y3440500D02*
G03I-20000J0D01*
G37*
G36*
G01D02*
G03I-20000J0D01*
G37*
G36*
G01X-4441000Y3511500D02*
G03I-20000J0D01*
G37*
G36*
G01X-4130000Y4450000D02*
G03I-20000J0D01*
G37*
G36*
G01X-3050500Y3227000D02*
G03I-20000J0D01*
G37*
G36*
G01X-2030000Y4450000D02*
G03I-20000J0D01*
G37*
G36*
G01X-1272500Y3227000D02*
G03I-20000J0D01*
G37*
G36*
G01X-480000Y4450000D02*
G03I-20000J0D01*
G37*
G36*
G01X220000Y-2050000D02*
G03I-20000J0D01*
G37*
G36*
G01X1470000Y-4850000D02*
G03I-20000J0D01*
G37*
G54D10*
G01X-10148260Y-2623000D02*
Y-2750000D01*
G01X-10111260Y-2623000D02*
X-10185260D01*
G01X-10258500D02*
X-10297100D01*
G01X-10277800D02*
Y-2750000D01*
G01X-10258500D02*
X-10297100D01*
G01X-10367120D02*
X-10407340Y-2623000D01*
X-10447560Y-2750000D01*
G01X-10433080Y-2705550D02*
X-10381600D01*
G01X-10666420Y-2750000D02*
X-10653550Y-2747880D01*
X-10642290Y-2739420D01*
X-10632640Y-2726720D01*
X-10626200Y-2711900D01*
X-10622980Y-2694970D01*
Y-2678030D01*
X-10626200Y-2661100D01*
X-10632640Y-2646280D01*
X-10642290Y-2633580D01*
X-10653550Y-2625120D01*
X-10666420Y-2623000D01*
X-10679290Y-2625120D01*
X-10690550Y-2633580D01*
X-10700200Y-2646280D01*
X-10706640Y-2661100D01*
X-10709860Y-2678030D01*
Y-2694970D01*
X-10706640Y-2711900D01*
X-10700200Y-2726720D01*
X-10690550Y-2739420D01*
X-10679290Y-2747880D01*
X-10666420Y-2750000D01*
G01X-10760570Y-2623000D02*
Y-2714020D01*
X-10767000Y-2733070D01*
X-10779870Y-2745770D01*
X-10795960Y-2750000D01*
X-10812050Y-2745770D01*
X-10824920Y-2733070D01*
X-10831350Y-2714020D01*
Y-2623000D01*
G01X-10925500D02*
Y-2750000D01*
G01X-10888500Y-2623000D02*
X-10962500D01*
G01X-10114480Y-1433070D02*
X-10127350Y-1443650D01*
X-10141830Y-1450000D01*
X-10154690D01*
X-10167560Y-1443650D01*
X-10177220Y-1433070D01*
X-10182040Y-1418250D01*
X-10178830Y-1403440D01*
X-10170780Y-1390730D01*
X-10156300Y-1382270D01*
X-10137000Y-1378030D01*
X-10125740Y-1369570D01*
X-10120910Y-1354750D01*
X-10124130Y-1339930D01*
X-10132170Y-1329350D01*
X-10143430Y-1323000D01*
X-10154690D01*
X-10165960Y-1327230D01*
X-10175610Y-1337820D01*
G01X-10309970Y-1450000D02*
X-10245630D01*
Y-1323000D01*
X-10309970D01*
G01X-10284230Y-1384380D02*
X-10245630D01*
G01X-10370340Y-1450000D02*
Y-1323000D01*
X-10444340Y-1450000D01*
Y-1323000D01*
G01X-10503100Y-1433070D02*
X-10515970Y-1443650D01*
X-10530450Y-1450000D01*
X-10543310D01*
X-10556180Y-1443650D01*
X-10565840Y-1433070D01*
X-10570660Y-1418250D01*
X-10567450Y-1403440D01*
X-10559400Y-1390730D01*
X-10544920Y-1382270D01*
X-10525620Y-1378030D01*
X-10514360Y-1369570D01*
X-10509530Y-1354750D01*
X-10512750Y-1339930D01*
X-10520790Y-1329350D01*
X-10532050Y-1323000D01*
X-10543310D01*
X-10554580Y-1327230D01*
X-10564230Y-1337820D01*
G01X-10666420Y-1450000D02*
X-10653550Y-1447880D01*
X-10642290Y-1439420D01*
X-10632640Y-1426720D01*
X-10626200Y-1411900D01*
X-10622980Y-1394970D01*
Y-1378030D01*
X-10626200Y-1361100D01*
X-10632640Y-1346280D01*
X-10642290Y-1333580D01*
X-10653550Y-1325120D01*
X-10666420Y-1323000D01*
X-10679290Y-1325120D01*
X-10690550Y-1333580D01*
X-10700200Y-1346280D01*
X-10706640Y-1361100D01*
X-10709860Y-1378030D01*
Y-1394970D01*
X-10706640Y-1411900D01*
X-10700200Y-1426720D01*
X-10690550Y-1439420D01*
X-10679290Y-1447880D01*
X-10666420Y-1450000D01*
G01X-10763790D02*
Y-1323000D01*
X-10804000D01*
X-10816870Y-1329350D01*
X-10824920Y-1337820D01*
X-10828130Y-1354750D01*
X-10824920Y-1371680D01*
X-10815260Y-1382270D01*
X-10804000Y-1388620D01*
X-10763790D01*
G01X-10804000D02*
X-10828130Y-1450000D01*
G01X-9766090Y-5200000D02*
Y-5073000D01*
X-9804690D01*
X-9817560Y-5079350D01*
X-9827220Y-5094170D01*
X-9830430Y-5111100D01*
X-9827220Y-5128030D01*
X-9819170Y-5140730D01*
X-9804690Y-5147090D01*
X-9766090D01*
G01X-9927800Y-5200000D02*
X-9918150Y-5197880D01*
X-9908500Y-5189420D01*
X-9902060Y-5174600D01*
X-9898840Y-5157670D01*
X-9902060Y-5140730D01*
X-9908500Y-5125920D01*
X-9918150Y-5117450D01*
X-9927800Y-5115340D01*
X-9937450Y-5117450D01*
X-9947100Y-5125920D01*
X-9953540Y-5140730D01*
X-9955150Y-5157670D01*
X-9953540Y-5174600D01*
X-9947100Y-5189420D01*
X-9937450Y-5197880D01*
X-9927800Y-5200000D01*
G01X-10017120Y-5115340D02*
X-10036430Y-5200000D01*
X-10057340Y-5115340D01*
X-10078250Y-5200000D01*
X-10097560Y-5115340D01*
G01X-10162750Y-5142850D02*
X-10214230D01*
X-10209400Y-5128030D01*
X-10201360Y-5119570D01*
X-10190100Y-5115340D01*
X-10178840Y-5117450D01*
X-10169180Y-5123800D01*
X-10162750Y-5138620D01*
X-10159530Y-5151320D01*
Y-5164020D01*
X-10162750Y-5176720D01*
X-10170790Y-5189420D01*
X-10180450Y-5197880D01*
X-10191710Y-5200000D01*
X-10202970Y-5195770D01*
X-10214230Y-5183070D01*
G01X-10293900Y-5200000D02*
Y-5115340D01*
G01Y-5132270D02*
X-10301940Y-5123800D01*
X-10309990Y-5117450D01*
X-10321250Y-5115340D01*
X-10329290Y-5117450D01*
X-10338940Y-5123800D01*
G01X-10540110Y-5180950D02*
X-10549760Y-5191540D01*
X-10561020Y-5197880D01*
X-10575500Y-5200000D01*
X-10589980Y-5195770D01*
X-10601240Y-5187300D01*
X-10609280Y-5172490D01*
X-10610890Y-5155550D01*
X-10607670Y-5138620D01*
X-10599630Y-5128030D01*
X-10588370Y-5119570D01*
X-10577110Y-5117450D01*
X-10565850Y-5119570D01*
X-10551370Y-5128030D01*
X-10556200Y-5073000D01*
X-10599630D01*
G01X-10664820D02*
X-10705040Y-5200000D01*
X-10745260Y-5073000D01*
G01X-10258550Y-3199130D02*
X-10278030D01*
Y-3222750D01*
X-10272180Y-3230630D01*
X-10265370Y-3235880D01*
X-10255630Y-3238500D01*
X-10245890Y-3235880D01*
X-10239080Y-3230630D01*
X-10233240Y-3222750D01*
X-10229340Y-3213570D01*
X-10227390Y-3203070D01*
Y-3193880D01*
X-10229340Y-3186010D01*
X-10233240Y-3176820D01*
X-10239080Y-3168950D01*
X-10244920Y-3163700D01*
X-10252710Y-3159760D01*
X-10259530D01*
X-10267310Y-3162380D01*
X-10273160Y-3167630D01*
G01X-10309060Y-3238500D02*
Y-3159760D01*
X-10353840Y-3238500D01*
Y-3159760D01*
G01X-10388770Y-3238500D02*
Y-3159760D01*
X-10408240D01*
X-10416030Y-3163700D01*
X-10421870Y-3168950D01*
X-10426740Y-3176820D01*
X-10430640Y-3186010D01*
X-10431610Y-3199130D01*
X-10430640Y-3212250D01*
X-10426740Y-3221440D01*
X-10421870Y-3229320D01*
X-10416030Y-3234560D01*
X-10408240Y-3238500D01*
X-10388770D01*
G01X-10488930D02*
Y-3159760D01*
X-10477250Y-3175510D01*
G01Y-3238500D02*
X-10500610D01*
G01X-9925710Y151740D02*
Y73000D01*
G01X-9903320Y151740D02*
X-9948100D01*
G01X-9984980Y73000D02*
Y151740D01*
X-10008340D01*
X-10016130Y147800D01*
X-10021980Y138620D01*
X-10023920Y128120D01*
X-10021980Y117620D01*
X-10017110Y109740D01*
X-10008340Y105810D01*
X-9984980D01*
G01X-10083190Y73000D02*
Y151740D01*
X-10071510Y135990D01*
G01Y73000D02*
X-10094870D01*
G01X-9725400Y2583910D02*
X-9712700Y2575870D01*
X-9704230Y2566220D01*
X-9700000Y2554960D01*
X-9704230Y2542090D01*
X-9712700Y2532440D01*
X-9725400Y2522780D01*
X-9742330Y2519570D01*
X-9827000D01*
G01Y2422200D02*
X-9700000D01*
G01X-9827000Y2459200D02*
Y2385200D01*
G01X-9700000Y2332880D02*
X-9827000Y2292660D01*
X-9700000Y2252440D01*
G01X-9744450Y2266920D02*
Y2318400D01*
G01X-9763500Y2153470D02*
Y2121290D01*
X-9725400D01*
X-9712700Y2130950D01*
X-9704230Y2142210D01*
X-9700000Y2158290D01*
X-9704230Y2174380D01*
X-9712700Y2185640D01*
X-9725400Y2195290D01*
X-9740220Y2201730D01*
X-9757150Y2204950D01*
X-9771970D01*
X-9784660Y2201730D01*
X-9799490Y2195290D01*
X-9812180Y2185640D01*
X-9820650Y2175990D01*
X-9827000Y2163120D01*
Y2151860D01*
X-9822770Y2138990D01*
X-9814300Y2129340D01*
G01X-9117690Y-2644170D02*
X-9127350Y-2631470D01*
X-9138610Y-2625120D01*
X-9151480Y-2623000D01*
X-9167560Y-2627230D01*
X-9178830Y-2637820D01*
X-9182040Y-2650510D01*
X-9180430Y-2663220D01*
X-9174000Y-2673800D01*
X-9141830Y-2694970D01*
X-9127350Y-2709780D01*
X-9117690Y-2730950D01*
X-9114480Y-2750000D01*
X-9182040D01*
G01X-9237580Y-2623000D02*
X-9277800Y-2750000D01*
X-9318020Y-2623000D01*
G01X-9375170Y-2750000D02*
Y-2623000D01*
X-9415380D01*
X-9428250Y-2629350D01*
X-9436300Y-2637820D01*
X-9439510Y-2654750D01*
X-9436300Y-2671680D01*
X-9426640Y-2682270D01*
X-9415380Y-2688620D01*
X-9375170D01*
G01X-9415380D02*
X-9439510Y-2750000D01*
G01X-9504710D02*
Y-2623000D01*
X-9543310D01*
X-9556180Y-2629350D01*
X-9565840Y-2644170D01*
X-9569050Y-2661100D01*
X-9565840Y-2678030D01*
X-9557790Y-2690730D01*
X-9543310Y-2697090D01*
X-9504710D01*
G01X-9632640Y-2733070D02*
X-9645510Y-2743650D01*
X-9659990Y-2750000D01*
X-9672850D01*
X-9685720Y-2743650D01*
X-9695380Y-2733070D01*
X-9700200Y-2718250D01*
X-9696990Y-2703440D01*
X-9688940Y-2690730D01*
X-9674460Y-2682270D01*
X-9655160Y-2678030D01*
X-9643900Y-2669570D01*
X-9639070Y-2654750D01*
X-9642290Y-2639930D01*
X-9650330Y-2629350D01*
X-9661590Y-2623000D01*
X-9672850D01*
X-9684120Y-2627230D01*
X-9693770Y-2637820D01*
G01X-9208040Y-1323000D02*
X-9248260Y-1450000D01*
X-9288480Y-1323000D01*
G01X-9345630Y-1450000D02*
Y-1323000D01*
X-9385840D01*
X-9398710Y-1329350D01*
X-9406760Y-1337820D01*
X-9409970Y-1354750D01*
X-9406760Y-1371680D01*
X-9397100Y-1382270D01*
X-9385840Y-1388620D01*
X-9345630D01*
G01X-9385840D02*
X-9409970Y-1450000D01*
G01X-9475170D02*
Y-1323000D01*
X-9513770D01*
X-9526640Y-1329350D01*
X-9536300Y-1344170D01*
X-9539510Y-1361100D01*
X-9536300Y-1378030D01*
X-9528250Y-1390730D01*
X-9513770Y-1397090D01*
X-9475170D01*
G01X-9603100Y-1433070D02*
X-9615970Y-1443650D01*
X-9630450Y-1450000D01*
X-9643310D01*
X-9656180Y-1443650D01*
X-9665840Y-1433070D01*
X-9670660Y-1418250D01*
X-9667450Y-1403440D01*
X-9659400Y-1390730D01*
X-9644920Y-1382270D01*
X-9625620Y-1378030D01*
X-9614360Y-1369570D01*
X-9609530Y-1354750D01*
X-9612750Y-1339930D01*
X-9620790Y-1329350D01*
X-9632050Y-1323000D01*
X-9643310D01*
X-9654580Y-1327230D01*
X-9664230Y-1337820D01*
G01X-7812870Y-3100000D02*
Y-2973000D01*
X-7845040D01*
X-7857910Y-2979350D01*
X-7867560Y-2987820D01*
X-7875610Y-3000510D01*
X-7882040Y-3015340D01*
X-7883650Y-3036500D01*
X-7882040Y-3057670D01*
X-7875610Y-3072490D01*
X-7867560Y-3085190D01*
X-7857910Y-3093650D01*
X-7845040Y-3100000D01*
X-7812870D01*
G01X-7953670Y-3042850D02*
X-8005150D01*
X-8000320Y-3028030D01*
X-7992280Y-3019570D01*
X-7981020Y-3015340D01*
X-7969760Y-3017450D01*
X-7960100Y-3023800D01*
X-7953670Y-3038620D01*
X-7950450Y-3051320D01*
Y-3064020D01*
X-7953670Y-3076720D01*
X-7961710Y-3089420D01*
X-7971370Y-3097880D01*
X-7982630Y-3100000D01*
X-7993890Y-3095770D01*
X-8005150Y-3083070D01*
G01X-8078380Y-3100000D02*
Y-2973000D01*
G01Y-3036500D02*
X-8086430Y-3023800D01*
X-8096080Y-3017450D01*
X-8105730Y-3015340D01*
X-8120210Y-3019570D01*
X-8129860Y-3028030D01*
X-8136300Y-3042850D01*
Y-3059780D01*
X-8133080Y-3076720D01*
X-8126640Y-3089420D01*
X-8115380Y-3097880D01*
X-8105730Y-3100000D01*
X-8096080Y-3097880D01*
X-8086430Y-3091540D01*
X-8078380Y-3080950D01*
G01X-8209530Y-3015340D02*
Y-3074600D01*
X-8215970Y-3089420D01*
X-8225620Y-3097880D01*
X-8236880Y-3100000D01*
X-8248140Y-3097880D01*
X-8257790Y-3089420D01*
X-8264230Y-3074600D01*
G01Y-3100000D02*
Y-3015340D01*
G01X-8343900Y-3131750D02*
X-8355160Y-3140220D01*
X-8368030Y-3142330D01*
X-8379290Y-3140220D01*
X-8388940Y-3129630D01*
X-8395380Y-3114820D01*
Y-3015340D01*
G01Y-3032270D02*
X-8388940Y-3023800D01*
X-8379290Y-3017450D01*
X-8368030Y-3015340D01*
X-8355160Y-3019570D01*
X-8347120Y-3028030D01*
X-8340680Y-3042850D01*
X-8337460Y-3057670D01*
X-8339070Y-3070370D01*
X-8345510Y-3085190D01*
X-8355160Y-3095770D01*
X-8368030Y-3100000D01*
X-8377680Y-3097880D01*
X-8388940Y-3089420D01*
X-8395380Y-3080950D01*
G01X-8660890Y-2983580D02*
X-8651240Y-2977230D01*
X-8639980Y-2973000D01*
X-8627110D01*
X-8612630Y-2979350D01*
X-8601370Y-2989930D01*
X-8593330Y-3002630D01*
X-8586890Y-3023800D01*
X-8585280Y-3042850D01*
X-8588500Y-3061900D01*
X-8593330Y-3074600D01*
X-8602980Y-3087300D01*
X-8614240Y-3095770D01*
X-8625500Y-3100000D01*
X-8636760D01*
X-8648020Y-3095770D01*
X-8657670Y-3089420D01*
X-8665720Y-3080950D01*
G01X-8727690Y-3100000D02*
Y-2973000D01*
G01Y-3034380D02*
X-8735740Y-3023800D01*
X-8743780Y-3017450D01*
X-8756650Y-3015340D01*
X-8766300Y-3017450D01*
X-8777560Y-3025920D01*
X-8782390Y-3038620D01*
Y-3100000D01*
G01X-8913540D02*
Y-3015340D01*
G01Y-3030150D02*
X-8907100Y-3021680D01*
X-8897450Y-3017450D01*
X-8886190Y-3015340D01*
X-8874930Y-3019570D01*
X-8865280Y-3028030D01*
X-8858840Y-3040730D01*
X-8855620Y-3057670D01*
X-8858840Y-3074600D01*
X-8865280Y-3087300D01*
X-8874930Y-3095770D01*
X-8886190Y-3100000D01*
X-8897450Y-3097880D01*
X-8907100Y-3091540D01*
X-8913540Y-3083070D01*
G01X-8986770Y-3100000D02*
Y-3015340D01*
G01Y-3036500D02*
X-8993210Y-3025920D01*
X-9002860Y-3017450D01*
X-9015730Y-3015340D01*
X-9026990Y-3017450D01*
X-9036640Y-3025920D01*
X-9041470Y-3040730D01*
Y-3100000D01*
G01X-9116310D02*
Y-3015340D01*
G01Y-3036500D02*
X-9122750Y-3025920D01*
X-9132400Y-3017450D01*
X-9145270Y-3015340D01*
X-9156530Y-3017450D01*
X-9166180Y-3025920D01*
X-9171010Y-3040730D01*
Y-3100000D01*
G01X-9249070Y-3042850D02*
X-9300550D01*
X-9295720Y-3028030D01*
X-9287680Y-3019570D01*
X-9276420Y-3015340D01*
X-9265160Y-3017450D01*
X-9255500Y-3023800D01*
X-9249070Y-3038620D01*
X-9245850Y-3051320D01*
Y-3064020D01*
X-9249070Y-3076720D01*
X-9257110Y-3089420D01*
X-9266770Y-3097880D01*
X-9278030Y-3100000D01*
X-9289290Y-3095770D01*
X-9300550Y-3083070D01*
G01X-9402740Y-3100000D02*
Y-2973000D01*
G01X-8907790Y-3834250D02*
X-8913630Y-3843440D01*
X-8921420Y-3848690D01*
X-8930180Y-3850000D01*
X-8937970Y-3848690D01*
X-8945760Y-3842130D01*
X-8950630Y-3834250D01*
X-8951600Y-3826380D01*
X-8949660Y-3817190D01*
X-8942840Y-3810630D01*
X-8936030Y-3808000D01*
X-8927260D01*
G01X-8936030D02*
X-8941870Y-3804070D01*
X-8946740Y-3797510D01*
X-8948680Y-3789630D01*
X-8946740Y-3781760D01*
X-8941870Y-3775200D01*
X-8933100Y-3771260D01*
X-8924340Y-3772570D01*
X-8915580Y-3777820D01*
G01X-9007950Y-3852620D02*
X-9006000Y-3851310D01*
Y-3848690D01*
X-9007950Y-3847380D01*
X-9009900Y-3848690D01*
Y-3851310D01*
X-9007950Y-3852620D01*
G01X-9065270Y-3834250D02*
X-9071110Y-3843440D01*
X-9078900Y-3848690D01*
X-9087660Y-3850000D01*
X-9095450Y-3848690D01*
X-9103240Y-3842130D01*
X-9108110Y-3834250D01*
X-9109080Y-3826380D01*
X-9107140Y-3817190D01*
X-9100320Y-3810630D01*
X-9093510Y-3808000D01*
X-9084740D01*
G01X-9093510D02*
X-9099350Y-3804070D01*
X-9104220Y-3797510D01*
X-9106160Y-3789630D01*
X-9104220Y-3781760D01*
X-9099350Y-3775200D01*
X-9090580Y-3771260D01*
X-9081820Y-3772570D01*
X-9073060Y-3777820D01*
G01X-9141090Y-3771260D02*
X-9165430Y-3850000D01*
X-9189770Y-3771260D01*
G01X-9036710Y-546760D02*
Y-625500D01*
G01X-9014320Y-546760D02*
X-9059100D01*
G01X-9095980Y-625500D02*
Y-546760D01*
X-9119340D01*
X-9127130Y-550700D01*
X-9132980Y-559880D01*
X-9134920Y-570380D01*
X-9132980Y-580880D01*
X-9128110Y-588760D01*
X-9119340Y-592690D01*
X-9095980D01*
G01X-9175690Y-559880D02*
X-9181530Y-552010D01*
X-9188350Y-548070D01*
X-9196140Y-546760D01*
X-9205870Y-549380D01*
X-9212690Y-555950D01*
X-9214640Y-563820D01*
X-9213660Y-571700D01*
X-9209770Y-578260D01*
X-9190300Y-591380D01*
X-9181530Y-600570D01*
X-9175690Y-613690D01*
X-9173740Y-625500D01*
X-9214640D01*
G01X-7317690Y3900000D02*
Y4027000D01*
X-7378830D01*
G01X-7356300Y3965620D02*
X-7317690D01*
G01X-7444020Y3916930D02*
X-7456890Y3906350D01*
X-7471370Y3900000D01*
X-7484230D01*
X-7497100Y3906350D01*
X-7506760Y3916930D01*
X-7511580Y3931750D01*
X-7508370Y3946560D01*
X-7500320Y3959270D01*
X-7485840Y3967730D01*
X-7466540Y3971970D01*
X-7455280Y3980430D01*
X-7450450Y3995250D01*
X-7453670Y4010070D01*
X-7461710Y4020650D01*
X-7472970Y4027000D01*
X-7484230D01*
X-7495500Y4022770D01*
X-7505150Y4012180D01*
G01X-7642730Y4016420D02*
X-7633080Y4022770D01*
X-7621820Y4027000D01*
X-7608950D01*
X-7594470Y4020650D01*
X-7583210Y4010070D01*
X-7575170Y3997370D01*
X-7568730Y3976200D01*
X-7567120Y3957150D01*
X-7570340Y3938100D01*
X-7575170Y3925400D01*
X-7584820Y3912700D01*
X-7596080Y3904230D01*
X-7607340Y3900000D01*
X-7618600D01*
X-7629860Y3904230D01*
X-7639510Y3910580D01*
X-7647560Y3919050D01*
G01X-7696660Y4027000D02*
X-7736880Y3900000D01*
X-7777100Y4027000D01*
G01X-8031350Y4016420D02*
X-8021700Y4022770D01*
X-8010440Y4027000D01*
X-7997570D01*
X-7983090Y4020650D01*
X-7971830Y4010070D01*
X-7963790Y3997370D01*
X-7957350Y3976200D01*
X-7955740Y3957150D01*
X-7958960Y3938100D01*
X-7963790Y3925400D01*
X-7973440Y3912700D01*
X-7984700Y3904230D01*
X-7995960Y3900000D01*
X-8007220D01*
X-8018480Y3904230D01*
X-8028130Y3910580D01*
X-8036180Y3919050D01*
G01X-8098150Y3900000D02*
Y4027000D01*
G01Y3965620D02*
X-8106200Y3976200D01*
X-8114240Y3982550D01*
X-8127110Y3984660D01*
X-8136760Y3982550D01*
X-8148020Y3974080D01*
X-8152850Y3961380D01*
Y3900000D01*
G01X-8284000D02*
Y3984660D01*
G01Y3969850D02*
X-8277560Y3978320D01*
X-8267910Y3982550D01*
X-8256650Y3984660D01*
X-8245390Y3980430D01*
X-8235740Y3971970D01*
X-8229300Y3959270D01*
X-8226080Y3942330D01*
X-8229300Y3925400D01*
X-8235740Y3912700D01*
X-8245390Y3904230D01*
X-8256650Y3900000D01*
X-8267910Y3902120D01*
X-8277560Y3908460D01*
X-8284000Y3916930D01*
G01X-8357230Y3900000D02*
Y3984660D01*
G01Y3963500D02*
X-8363670Y3974080D01*
X-8373320Y3982550D01*
X-8386190Y3984660D01*
X-8397450Y3982550D01*
X-8407100Y3974080D01*
X-8411930Y3959270D01*
Y3900000D01*
G01X-8486770D02*
Y3984660D01*
G01Y3963500D02*
X-8493210Y3974080D01*
X-8502860Y3982550D01*
X-8515730Y3984660D01*
X-8526990Y3982550D01*
X-8536640Y3974080D01*
X-8541470Y3959270D01*
Y3900000D01*
G01X-8619530Y3957150D02*
X-8671010D01*
X-8666180Y3971970D01*
X-8658140Y3980430D01*
X-8646880Y3984660D01*
X-8635620Y3982550D01*
X-8625960Y3976200D01*
X-8619530Y3961380D01*
X-8616310Y3948680D01*
Y3935980D01*
X-8619530Y3923280D01*
X-8627570Y3910580D01*
X-8637230Y3902120D01*
X-8648490Y3900000D01*
X-8659750Y3904230D01*
X-8671010Y3916930D01*
G01X-8773200Y3900000D02*
Y4027000D01*
G01X-8878610Y3914810D02*
X-8886650Y3906350D01*
X-8897910Y3900000D01*
X-8907570D01*
X-8917220Y3904230D01*
X-8923650Y3910580D01*
X-8926870Y3919050D01*
X-8925260Y3931750D01*
X-8918830Y3938100D01*
X-8889870Y3950800D01*
X-8883440Y3965620D01*
X-8886650Y3976200D01*
X-8893090Y3982550D01*
X-8902740Y3984660D01*
X-8912390Y3982550D01*
X-8922040Y3976200D01*
G01X-7914480Y-1700000D02*
Y-1573000D01*
G01X-7982040D02*
Y-1700000D01*
G01Y-1636500D02*
X-7914480D01*
G01X-8045630Y-1700000D02*
Y-1573000D01*
X-8084230D01*
X-8097100Y-1579350D01*
X-8106760Y-1594170D01*
X-8109970Y-1611100D01*
X-8106760Y-1628030D01*
X-8098710Y-1640730D01*
X-8084230Y-1647090D01*
X-8045630D01*
G01X-8176770Y-1700000D02*
Y-1573000D01*
X-8237910D01*
G01X-8215380Y-1634380D02*
X-8176770D01*
G01X-8466420Y-1700000D02*
X-8453550Y-1697880D01*
X-8442290Y-1689420D01*
X-8432640Y-1676720D01*
X-8426200Y-1661900D01*
X-8422980Y-1644970D01*
Y-1628030D01*
X-8426200Y-1611100D01*
X-8432640Y-1596280D01*
X-8442290Y-1583580D01*
X-8453550Y-1575120D01*
X-8466420Y-1573000D01*
X-8479290Y-1575120D01*
X-8490550Y-1583580D01*
X-8500200Y-1596280D01*
X-8506640Y-1611100D01*
X-8509860Y-1628030D01*
Y-1644970D01*
X-8506640Y-1661900D01*
X-8500200Y-1676720D01*
X-8490550Y-1689420D01*
X-8479290Y-1697880D01*
X-8466420Y-1700000D01*
G01X-8560570Y-1573000D02*
Y-1664020D01*
X-8567000Y-1683070D01*
X-8579870Y-1695770D01*
X-8595960Y-1700000D01*
X-8612050Y-1695770D01*
X-8624920Y-1683070D01*
X-8631350Y-1664020D01*
Y-1573000D01*
G01X-8725500D02*
Y-1700000D01*
G01X-8688500Y-1573000D02*
X-8762500D01*
G01X-8468500Y-6673750D02*
X-8491870D01*
G01X-8479210Y-6656690D02*
Y-6690820D01*
G01X-8536530Y-6688190D02*
X-8542370Y-6694750D01*
X-8549190Y-6698690D01*
X-8557950Y-6700000D01*
X-8566710Y-6697380D01*
X-8573530Y-6692130D01*
X-8578400Y-6682940D01*
X-8579370Y-6672440D01*
X-8577420Y-6661940D01*
X-8572550Y-6655380D01*
X-8565740Y-6650130D01*
X-8558920Y-6648820D01*
X-8552110Y-6650130D01*
X-8543350Y-6655380D01*
X-8546270Y-6621260D01*
X-8572550D01*
G01X-8612350D02*
X-8636690Y-6700000D01*
X-8661030Y-6621260D01*
G01X-8312870Y4150000D02*
Y4277000D01*
X-8345040D01*
X-8357910Y4270650D01*
X-8367560Y4262180D01*
X-8375610Y4249490D01*
X-8382040Y4234660D01*
X-8383650Y4213500D01*
X-8382040Y4192330D01*
X-8375610Y4177510D01*
X-8367560Y4164810D01*
X-8357910Y4156350D01*
X-8345040Y4150000D01*
X-8312870D01*
G01X-7967550Y-4897250D02*
X-7992870D01*
G01X-8037530Y-4911690D02*
X-8043370Y-4918250D01*
X-8050190Y-4922190D01*
X-8058950Y-4923500D01*
X-8067710Y-4920880D01*
X-8074530Y-4915630D01*
X-8079400Y-4906440D01*
X-8080370Y-4895940D01*
X-8078420Y-4885440D01*
X-8073550Y-4878880D01*
X-8066740Y-4873630D01*
X-8059920Y-4872320D01*
X-8053110Y-4873630D01*
X-8044350Y-4878880D01*
X-8047270Y-4844760D01*
X-8073550D01*
G01X-8113350D02*
X-8137690Y-4923500D01*
X-8162030Y-4844760D01*
G01X-7214480Y4766930D02*
X-7227350Y4756350D01*
X-7241830Y4750000D01*
X-7254690D01*
X-7267560Y4756350D01*
X-7277220Y4766930D01*
X-7282040Y4781750D01*
X-7278830Y4796560D01*
X-7270780Y4809270D01*
X-7256300Y4817730D01*
X-7237000Y4821970D01*
X-7225740Y4830430D01*
X-7220910Y4845250D01*
X-7224130Y4860070D01*
X-7232170Y4870650D01*
X-7243430Y4877000D01*
X-7254690D01*
X-7265960Y4872770D01*
X-7275610Y4862180D01*
G01X-7409970Y4750000D02*
X-7345630D01*
Y4877000D01*
X-7409970D01*
G01X-7384230Y4815620D02*
X-7345630D01*
G01X-7470340Y4750000D02*
Y4877000D01*
X-7544340Y4750000D01*
Y4877000D01*
G01X-7603100Y4766930D02*
X-7615970Y4756350D01*
X-7630450Y4750000D01*
X-7643310D01*
X-7656180Y4756350D01*
X-7665840Y4766930D01*
X-7670660Y4781750D01*
X-7667450Y4796560D01*
X-7659400Y4809270D01*
X-7644920Y4817730D01*
X-7625620Y4821970D01*
X-7614360Y4830430D01*
X-7609530Y4845250D01*
X-7612750Y4860070D01*
X-7620790Y4870650D01*
X-7632050Y4877000D01*
X-7643310D01*
X-7654580Y4872770D01*
X-7664230Y4862180D01*
G01X-7766420Y4750000D02*
X-7753550Y4752120D01*
X-7742290Y4760580D01*
X-7732640Y4773280D01*
X-7726200Y4788100D01*
X-7722980Y4805030D01*
Y4821970D01*
X-7726200Y4838900D01*
X-7732640Y4853720D01*
X-7742290Y4866420D01*
X-7753550Y4874880D01*
X-7766420Y4877000D01*
X-7779290Y4874880D01*
X-7790550Y4866420D01*
X-7800200Y4853720D01*
X-7806640Y4838900D01*
X-7809860Y4821970D01*
Y4805030D01*
X-7806640Y4788100D01*
X-7800200Y4773280D01*
X-7790550Y4760580D01*
X-7779290Y4752120D01*
X-7766420Y4750000D01*
G01X-7863790D02*
Y4877000D01*
X-7904000D01*
X-7916870Y4870650D01*
X-7924920Y4862180D01*
X-7928130Y4845250D01*
X-7924920Y4828320D01*
X-7915260Y4817730D01*
X-7904000Y4811380D01*
X-7863790D01*
G01X-7904000D02*
X-7928130Y4750000D01*
G01X-7883650Y4266420D02*
X-7874000Y4272770D01*
X-7862740Y4277000D01*
X-7849870D01*
X-7835390Y4270650D01*
X-7824130Y4260070D01*
X-7816090Y4247370D01*
X-7809650Y4226200D01*
X-7808040Y4207150D01*
X-7811260Y4188100D01*
X-7816090Y4175400D01*
X-7825740Y4162700D01*
X-7837000Y4154230D01*
X-7848260Y4150000D01*
X-7859520D01*
X-7870780Y4154230D01*
X-7880430Y4160580D01*
X-7888480Y4169050D01*
G01X-7298320Y3215180D02*
X-7294380Y3209340D01*
X-7291760Y3202520D01*
Y3194730D01*
X-7295700Y3185970D01*
X-7302260Y3179160D01*
X-7310130Y3174290D01*
X-7323260Y3170390D01*
X-7335070Y3169420D01*
X-7346880Y3171370D01*
X-7354750Y3174290D01*
X-7362630Y3180130D01*
X-7367880Y3186940D01*
X-7370500Y3193760D01*
Y3200580D01*
X-7367880Y3207390D01*
X-7363940Y3213230D01*
X-7358690Y3218100D01*
G01X-7354750Y3251080D02*
X-7363940Y3256920D01*
X-7369190Y3264710D01*
X-7370500Y3273470D01*
X-7369190Y3281260D01*
X-7362630Y3289050D01*
X-7354750Y3293920D01*
X-7346880Y3294890D01*
X-7337690Y3292950D01*
X-7331130Y3286130D01*
X-7328500Y3279320D01*
Y3270550D01*
G01Y3279320D02*
X-7324570Y3285160D01*
X-7318010Y3290030D01*
X-7310130Y3291970D01*
X-7302260Y3290030D01*
X-7295700Y3285160D01*
X-7291760Y3276390D01*
X-7293070Y3267630D01*
X-7298320Y3258870D01*
G01X-7370500Y3351240D02*
X-7369190Y3358060D01*
X-7365250Y3365840D01*
X-7358690Y3370710D01*
X-7349500Y3372660D01*
X-7340320Y3370710D01*
X-7332440Y3364870D01*
X-7328500Y3356110D01*
Y3346370D01*
X-7325880Y3340530D01*
X-7319320Y3335660D01*
X-7310130Y3333710D01*
X-7300950Y3336640D01*
X-7294380Y3343450D01*
X-7291760Y3351240D01*
X-7294380Y3359030D01*
X-7300950Y3365840D01*
X-7310130Y3368770D01*
X-7319320Y3366820D01*
X-7325880Y3361950D01*
X-7328500Y3356110D01*
Y3346370D01*
X-7332440Y3337610D01*
X-7340320Y3331770D01*
X-7349500Y3329820D01*
X-7358690Y3331770D01*
X-7365250Y3336640D01*
X-7369190Y3344420D01*
X-7370500Y3351240D01*
G01X-7361130Y4217730D02*
X-7367560Y4224080D01*
X-7372390Y4234660D01*
X-7375610Y4249490D01*
X-7372390Y4262180D01*
X-7365960Y4270650D01*
X-7354690Y4277000D01*
X-7311260D01*
Y4150000D01*
X-7364350D01*
X-7375610Y4158460D01*
X-7382040Y4171170D01*
X-7385260Y4185980D01*
X-7382040Y4200800D01*
X-7372390Y4213500D01*
X-7361130Y4217730D01*
X-7311260D01*
G01X-6808040Y4150000D02*
X-6848260Y4277000D01*
X-6888480Y4150000D01*
G01X-6874000Y4194450D02*
X-6822520D01*
G01X-6366550Y-6173750D02*
X-6391870D01*
G01X-6457950Y-6200000D02*
Y-6121260D01*
X-6446270Y-6137010D01*
G01Y-6200000D02*
X-6469630D01*
G01X-6536690Y-6202620D02*
X-6534740Y-6201310D01*
Y-6198690D01*
X-6536690Y-6197380D01*
X-6538640Y-6198690D01*
Y-6201310D01*
X-6536690Y-6202620D01*
G01X-6596930Y-6167190D02*
X-6603750Y-6158000D01*
X-6609590Y-6152760D01*
X-6617380Y-6150130D01*
X-6624190Y-6152760D01*
X-6629060Y-6158000D01*
X-6632960Y-6165880D01*
X-6633930Y-6175070D01*
X-6632960Y-6182940D01*
X-6629060Y-6190820D01*
X-6623220Y-6197380D01*
X-6616400Y-6200000D01*
X-6608610Y-6197380D01*
X-6601800Y-6189500D01*
X-6597900Y-6177690D01*
X-6596930Y-6164570D01*
X-6598880Y-6147510D01*
X-6601800Y-6138320D01*
X-6606670Y-6129130D01*
X-6613480Y-6122570D01*
X-6620300Y-6121260D01*
X-6627110Y-6123880D01*
X-6631980Y-6130450D01*
G01X-6672750Y-6188190D02*
X-6678590Y-6194750D01*
X-6685410Y-6198690D01*
X-6694170Y-6200000D01*
X-6702930Y-6197380D01*
X-6709750Y-6192130D01*
X-6714620Y-6182940D01*
X-6715590Y-6172440D01*
X-6713640Y-6161940D01*
X-6708770Y-6155380D01*
X-6701960Y-6150130D01*
X-6695140Y-6148820D01*
X-6688330Y-6150130D01*
X-6679570Y-6155380D01*
X-6682490Y-6121260D01*
X-6708770D01*
G01X-6748570D02*
X-6772910Y-6200000D01*
X-6797250Y-6121260D01*
G01X-6118500Y-7123750D02*
X-6141870D01*
G01X-6129210Y-7106690D02*
Y-7140820D01*
G01X-6207950Y-7150000D02*
Y-7071260D01*
X-6196270Y-7087010D01*
G01Y-7150000D02*
X-6219630D01*
G01X-6286690Y-7152620D02*
X-6284740Y-7151310D01*
Y-7148690D01*
X-6286690Y-7147380D01*
X-6288640Y-7148690D01*
Y-7151310D01*
X-6286690Y-7152620D01*
G01X-6346930Y-7117190D02*
X-6353750Y-7108000D01*
X-6359590Y-7102760D01*
X-6367380Y-7100130D01*
X-6374190Y-7102760D01*
X-6379060Y-7108000D01*
X-6382960Y-7115880D01*
X-6383930Y-7125070D01*
X-6382960Y-7132940D01*
X-6379060Y-7140820D01*
X-6373220Y-7147380D01*
X-6366400Y-7150000D01*
X-6358610Y-7147380D01*
X-6351800Y-7139500D01*
X-6347900Y-7127690D01*
X-6346930Y-7114570D01*
X-6348880Y-7097510D01*
X-6351800Y-7088320D01*
X-6356670Y-7079130D01*
X-6363480Y-7072570D01*
X-6370300Y-7071260D01*
X-6377110Y-7073880D01*
X-6381980Y-7080450D01*
G01X-6422750Y-7138190D02*
X-6428590Y-7144750D01*
X-6435410Y-7148690D01*
X-6444170Y-7150000D01*
X-6452930Y-7147380D01*
X-6459750Y-7142130D01*
X-6464620Y-7132940D01*
X-6465590Y-7122440D01*
X-6463640Y-7111940D01*
X-6458770Y-7105380D01*
X-6451960Y-7100130D01*
X-6445140Y-7098820D01*
X-6438330Y-7100130D01*
X-6429570Y-7105380D01*
X-6432490Y-7071260D01*
X-6458770D01*
G01X-6498570D02*
X-6522910Y-7150000D01*
X-6547250Y-7071260D01*
G01X-6208290Y3659740D02*
Y3603310D01*
X-6212180Y3591500D01*
X-6219970Y3583620D01*
X-6229710Y3581000D01*
X-6239450Y3583620D01*
X-6247240Y3591500D01*
X-6251130Y3603310D01*
Y3659740D01*
G01X-6289950Y3646620D02*
X-6295790Y3654490D01*
X-6302610Y3658430D01*
X-6310400Y3659740D01*
X-6320130Y3657120D01*
X-6326950Y3650550D01*
X-6328900Y3642680D01*
X-6327920Y3634800D01*
X-6324030Y3628240D01*
X-6304560Y3615120D01*
X-6295790Y3605930D01*
X-6289950Y3592810D01*
X-6288000Y3581000D01*
X-6328900D01*
G01X-6387190Y3659740D02*
X-6379400Y3657120D01*
X-6373560Y3650550D01*
X-6369660Y3642680D01*
X-6366740Y3632180D01*
X-6365770Y3620370D01*
X-6366740Y3608560D01*
X-6369660Y3598060D01*
X-6373560Y3590180D01*
X-6379400Y3583620D01*
X-6387190Y3581000D01*
X-6394980Y3583620D01*
X-6400820Y3590180D01*
X-6404720Y3598060D01*
X-6407640Y3608560D01*
X-6408610Y3620370D01*
X-6407640Y3632180D01*
X-6404720Y3642680D01*
X-6400820Y3650550D01*
X-6394980Y3657120D01*
X-6387190Y3659740D01*
G01X-6105740Y1270000D02*
Y1348740D01*
X-6129100D01*
X-6136890Y1344800D01*
X-6142740Y1335620D01*
X-6144680Y1325120D01*
X-6142740Y1314620D01*
X-6137870Y1306740D01*
X-6129100Y1302810D01*
X-6105740D01*
G01X-6203950Y1270000D02*
Y1348740D01*
X-6192270Y1332990D01*
G01Y1270000D02*
X-6215630D01*
G01X-5808040Y627000D02*
X-5848260Y500000D01*
X-5888480Y627000D01*
G01X-5944020Y516930D02*
X-5956890Y506350D01*
X-5971370Y500000D01*
X-5984230D01*
X-5997100Y506350D01*
X-6006760Y516930D01*
X-6011580Y531750D01*
X-6008370Y546560D01*
X-6000320Y559270D01*
X-5985840Y567730D01*
X-5966540Y571970D01*
X-5955280Y580430D01*
X-5950450Y595250D01*
X-5953670Y610070D01*
X-5961710Y620650D01*
X-5972970Y627000D01*
X-5984230D01*
X-5995500Y622770D01*
X-6005150Y612180D01*
G01X-5912870Y4150000D02*
Y4277000D01*
X-5945040D01*
X-5957910Y4270650D01*
X-5967560Y4262180D01*
X-5975610Y4249490D01*
X-5982040Y4234660D01*
X-5983650Y4213500D01*
X-5982040Y4192330D01*
X-5975610Y4177510D01*
X-5967560Y4164810D01*
X-5957910Y4156350D01*
X-5945040Y4150000D01*
X-5912870D01*
G01X-5864680Y3122820D02*
X-5868620Y3128660D01*
X-5871240Y3135480D01*
Y3143270D01*
X-5867300Y3152030D01*
X-5860740Y3158840D01*
X-5852870Y3163710D01*
X-5839740Y3167610D01*
X-5827930Y3168580D01*
X-5816120Y3166630D01*
X-5808250Y3163710D01*
X-5800370Y3157870D01*
X-5795120Y3151060D01*
X-5792500Y3144240D01*
Y3137420D01*
X-5795120Y3130610D01*
X-5799060Y3124770D01*
X-5804310Y3119900D01*
G01X-5808250Y3086920D02*
X-5799060Y3081080D01*
X-5793810Y3073290D01*
X-5792500Y3064530D01*
X-5793810Y3056740D01*
X-5800370Y3048950D01*
X-5808250Y3044080D01*
X-5816120Y3043110D01*
X-5825310Y3045050D01*
X-5831870Y3051870D01*
X-5834500Y3058680D01*
Y3067450D01*
G01Y3058680D02*
X-5838430Y3052840D01*
X-5844990Y3047970D01*
X-5852870Y3046030D01*
X-5860740Y3047970D01*
X-5867300Y3052840D01*
X-5871240Y3061610D01*
X-5869930Y3070370D01*
X-5864680Y3079130D01*
G01X-5801680Y3003310D02*
X-5795120Y2996500D01*
X-5792500Y2988710D01*
X-5795120Y2980920D01*
X-5803000Y2974100D01*
X-5814810Y2969230D01*
X-5826620Y2967290D01*
X-5841060D01*
X-5852870Y2969230D01*
X-5863370Y2974100D01*
X-5868620Y2979940D01*
X-5871240Y2986760D01*
X-5868620Y2994550D01*
X-5863370Y3000390D01*
X-5855490Y3004290D01*
X-5844990Y3006230D01*
X-5835810Y3004290D01*
X-5826620Y2999420D01*
X-5821370Y2993580D01*
X-5820060Y2986760D01*
X-5822680Y2978970D01*
X-5829240Y2973130D01*
X-5841060Y2967290D01*
G01X-5258040Y-7673000D02*
X-5298260Y-7800000D01*
X-5338480Y-7673000D01*
G01X-5427800Y-7800000D02*
X-5414930Y-7797880D01*
X-5403670Y-7789420D01*
X-5394020Y-7776720D01*
X-5387580Y-7761900D01*
X-5384360Y-7744970D01*
Y-7728030D01*
X-5387580Y-7711100D01*
X-5394020Y-7696280D01*
X-5403670Y-7683580D01*
X-5414930Y-7675120D01*
X-5427800Y-7673000D01*
X-5440670Y-7675120D01*
X-5451930Y-7683580D01*
X-5461580Y-7696280D01*
X-5468020Y-7711100D01*
X-5471240Y-7728030D01*
Y-7744970D01*
X-5468020Y-7761900D01*
X-5461580Y-7776720D01*
X-5451930Y-7789420D01*
X-5440670Y-7797880D01*
X-5427800Y-7800000D01*
G01X-5521950Y-7673000D02*
Y-7764020D01*
X-5528380Y-7783070D01*
X-5541250Y-7795770D01*
X-5557340Y-7800000D01*
X-5573430Y-7795770D01*
X-5586300Y-7783070D01*
X-5592730Y-7764020D01*
Y-7673000D01*
G01X-5686880D02*
Y-7800000D01*
G01X-5649880Y-7673000D02*
X-5723880D01*
G01X-5275370Y-111760D02*
X-5299710Y-190500D01*
X-5324050Y-111760D01*
G01X-5357030Y-190500D02*
Y-111760D01*
X-5376500D01*
X-5384290Y-115700D01*
X-5390130Y-120950D01*
X-5395000Y-128820D01*
X-5398900Y-138010D01*
X-5399870Y-151130D01*
X-5398900Y-164250D01*
X-5395000Y-173440D01*
X-5390130Y-181320D01*
X-5384290Y-186560D01*
X-5376500Y-190500D01*
X-5357030D01*
G01X-5435770D02*
Y-111760D01*
X-5455240D01*
X-5463030Y-115700D01*
X-5468870Y-120950D01*
X-5473740Y-128820D01*
X-5477640Y-138010D01*
X-5478610Y-151130D01*
X-5477640Y-164250D01*
X-5473740Y-173440D01*
X-5468870Y-181320D01*
X-5463030Y-186560D01*
X-5455240Y-190500D01*
X-5435770D01*
G01X-5506720Y-216750D02*
X-5565140D01*
G01X-5602990Y-111760D02*
X-5626350D01*
G01X-5614670D02*
Y-190500D01*
G01X-5602990D02*
X-5626350D01*
G01X-5693410Y-111760D02*
Y-190500D01*
G01X-5671020Y-111760D02*
X-5715800D01*
G01X-5597740Y825500D02*
Y904240D01*
X-5621100D01*
X-5628890Y900300D01*
X-5634740Y891120D01*
X-5636680Y880620D01*
X-5634740Y870120D01*
X-5629870Y862240D01*
X-5621100Y858310D01*
X-5597740D01*
G01X-5677450Y891120D02*
X-5683290Y898990D01*
X-5690110Y902930D01*
X-5697900Y904240D01*
X-5707630Y901620D01*
X-5714450Y895050D01*
X-5716400Y887180D01*
X-5715420Y879300D01*
X-5711530Y872740D01*
X-5692060Y859620D01*
X-5683290Y850430D01*
X-5677450Y837310D01*
X-5675500Y825500D01*
X-5716400D01*
G01X-5594820Y1778000D02*
Y1856740D01*
X-5639600Y1778000D01*
Y1856740D01*
G01X-5674530Y1789810D02*
X-5680370Y1783250D01*
X-5687190Y1779310D01*
X-5695950Y1778000D01*
X-5704710Y1780620D01*
X-5711530Y1785870D01*
X-5716400Y1795060D01*
X-5717370Y1805560D01*
X-5715420Y1816060D01*
X-5710550Y1822620D01*
X-5703740Y1827870D01*
X-5696920Y1829180D01*
X-5690110Y1827870D01*
X-5681350Y1822620D01*
X-5684270Y1856740D01*
X-5710550D01*
G01X-5635820Y3172680D02*
X-5631880Y3166840D01*
X-5629260Y3160020D01*
Y3152230D01*
X-5633200Y3143470D01*
X-5639760Y3136660D01*
X-5647630Y3131790D01*
X-5660760Y3127890D01*
X-5672570Y3126920D01*
X-5684380Y3128870D01*
X-5692250Y3131790D01*
X-5700130Y3137630D01*
X-5705380Y3144440D01*
X-5708000Y3151260D01*
Y3158080D01*
X-5705380Y3164890D01*
X-5701440Y3170730D01*
X-5696190Y3175600D01*
G01X-5708000Y3241680D02*
X-5629260D01*
X-5685690Y3205660D01*
Y3254340D01*
G01X-5629260Y3308740D02*
X-5631880Y3300950D01*
X-5638450Y3295110D01*
X-5646320Y3291210D01*
X-5656820Y3288290D01*
X-5668630Y3287320D01*
X-5680440Y3288290D01*
X-5690940Y3291210D01*
X-5698820Y3295110D01*
X-5705380Y3300950D01*
X-5708000Y3308740D01*
X-5705380Y3316530D01*
X-5698820Y3322370D01*
X-5690940Y3326270D01*
X-5680440Y3329190D01*
X-5668630Y3330160D01*
X-5656820Y3329190D01*
X-5646320Y3326270D01*
X-5638450Y3322370D01*
X-5631880Y3316530D01*
X-5629260Y3308740D01*
G01X-4933650Y4866420D02*
X-4924000Y4872770D01*
X-4912740Y4877000D01*
X-4899870D01*
X-4885390Y4870650D01*
X-4874130Y4860070D01*
X-4866090Y4847370D01*
X-4859650Y4826200D01*
X-4858040Y4807150D01*
X-4861260Y4788100D01*
X-4866090Y4775400D01*
X-4875740Y4762700D01*
X-4887000Y4754230D01*
X-4898260Y4750000D01*
X-4909520D01*
X-4920780Y4754230D01*
X-4930430Y4760580D01*
X-4938480Y4769050D01*
G01X-4994020Y4750000D02*
Y4877000D01*
G01X-5061580D02*
Y4750000D01*
G01Y4813500D02*
X-4994020D01*
G01X-5286880Y4750000D02*
X-5274010Y4752120D01*
X-5262750Y4760580D01*
X-5253100Y4773280D01*
X-5246660Y4788100D01*
X-5243440Y4805030D01*
Y4821970D01*
X-5246660Y4838900D01*
X-5253100Y4853720D01*
X-5262750Y4866420D01*
X-5274010Y4874880D01*
X-5286880Y4877000D01*
X-5299750Y4874880D01*
X-5311010Y4866420D01*
X-5320660Y4853720D01*
X-5327100Y4838900D01*
X-5330320Y4821970D01*
Y4805030D01*
X-5327100Y4788100D01*
X-5320660Y4773280D01*
X-5311010Y4760580D01*
X-5299750Y4752120D01*
X-5286880Y4750000D01*
G01X-5381030Y4877000D02*
Y4785980D01*
X-5387460Y4766930D01*
X-5400330Y4754230D01*
X-5416420Y4750000D01*
X-5432510Y4754230D01*
X-5445380Y4766930D01*
X-5451810Y4785980D01*
Y4877000D01*
G01X-5545960D02*
Y4750000D01*
G01X-5508960Y4877000D02*
X-5582960D01*
G01X-5308040Y627000D02*
X-5348260Y500000D01*
X-5388480Y627000D01*
G01X-5442410Y500000D02*
Y627000D01*
X-5474580D01*
X-5487450Y620650D01*
X-5497100Y612180D01*
X-5505150Y599490D01*
X-5511580Y584660D01*
X-5513190Y563500D01*
X-5511580Y542330D01*
X-5505150Y527510D01*
X-5497100Y514810D01*
X-5487450Y506350D01*
X-5474580Y500000D01*
X-5442410D01*
G01X-5483650Y4266420D02*
X-5474000Y4272770D01*
X-5462740Y4277000D01*
X-5449870D01*
X-5435390Y4270650D01*
X-5424130Y4260070D01*
X-5416090Y4247370D01*
X-5409650Y4226200D01*
X-5408040Y4207150D01*
X-5411260Y4188100D01*
X-5416090Y4175400D01*
X-5425740Y4162700D01*
X-5437000Y4154230D01*
X-5448260Y4150000D01*
X-5459520D01*
X-5470780Y4154230D01*
X-5480430Y4160580D01*
X-5488480Y4169050D01*
G01X-2378960Y-723000D02*
X-2417560D01*
G01X-2398260D02*
Y-850000D01*
G01X-2378960D02*
X-2417560D01*
G01X-2500450D02*
Y-765340D01*
G01Y-786500D02*
X-2506890Y-775920D01*
X-2516540Y-767450D01*
X-2529410Y-765340D01*
X-2540670Y-767450D01*
X-2550320Y-775920D01*
X-2555150Y-790730D01*
Y-850000D01*
G01X-2686300Y-723000D02*
Y-850000D01*
G01Y-830950D02*
X-2679860Y-841540D01*
X-2670210Y-847880D01*
X-2658950Y-850000D01*
X-2646080Y-845770D01*
X-2636430Y-835190D01*
X-2629990Y-822490D01*
X-2628380Y-807670D01*
X-2629990Y-792850D01*
X-2636430Y-780150D01*
X-2646080Y-769570D01*
X-2658950Y-765340D01*
X-2670210Y-767450D01*
X-2678250Y-771680D01*
X-2686300Y-780150D01*
G01X-2786880Y-765340D02*
Y-850000D01*
G01Y-731470D02*
X-2783660Y-729350D01*
Y-725120D01*
X-2786880Y-723000D01*
X-2790100Y-725120D01*
Y-729350D01*
X-2786880Y-731470D01*
G01X-2887460Y-765340D02*
X-2916420Y-850000D01*
X-2945380Y-765340D01*
G01X-3045960D02*
Y-850000D01*
G01Y-731470D02*
X-3042740Y-729350D01*
Y-725120D01*
X-3045960Y-723000D01*
X-3049180Y-725120D01*
Y-729350D01*
X-3045960Y-731470D01*
G01X-3204460Y-723000D02*
Y-850000D01*
G01Y-830950D02*
X-3198020Y-841540D01*
X-3188370Y-847880D01*
X-3177110Y-850000D01*
X-3164240Y-845770D01*
X-3154590Y-835190D01*
X-3148150Y-822490D01*
X-3146540Y-807670D01*
X-3148150Y-792850D01*
X-3154590Y-780150D01*
X-3164240Y-769570D01*
X-3177110Y-765340D01*
X-3188370Y-767450D01*
X-3196410Y-771680D01*
X-3204460Y-780150D01*
G01X-3277690Y-765340D02*
Y-824600D01*
X-3284130Y-839420D01*
X-3293780Y-847880D01*
X-3305040Y-850000D01*
X-3316300Y-847880D01*
X-3325950Y-839420D01*
X-3332390Y-824600D01*
G01Y-850000D02*
Y-765340D01*
G01X-3463540Y-850000D02*
Y-765340D01*
G01Y-780150D02*
X-3457100Y-771680D01*
X-3447450Y-767450D01*
X-3436190Y-765340D01*
X-3424930Y-769570D01*
X-3415280Y-778030D01*
X-3408840Y-790730D01*
X-3405620Y-807670D01*
X-3408840Y-824600D01*
X-3415280Y-837300D01*
X-3424930Y-845770D01*
X-3436190Y-850000D01*
X-3447450Y-847880D01*
X-3457100Y-841540D01*
X-3463540Y-833070D01*
G01X-3564120Y-850000D02*
Y-723000D01*
G01X-3823200D02*
Y-850000D01*
G01X-3786200Y-723000D02*
X-3860200D01*
G01X-3930220Y-850000D02*
Y-765340D01*
G01Y-782270D02*
X-3938260Y-773800D01*
X-3946310Y-767450D01*
X-3957570Y-765340D01*
X-3965610Y-767450D01*
X-3975260Y-773800D01*
G01X-4111240Y-850000D02*
Y-765340D01*
G01Y-780150D02*
X-4104800Y-771680D01*
X-4095150Y-767450D01*
X-4083890Y-765340D01*
X-4072630Y-769570D01*
X-4062980Y-778030D01*
X-4056540Y-790730D01*
X-4053320Y-807670D01*
X-4056540Y-824600D01*
X-4062980Y-837300D01*
X-4072630Y-845770D01*
X-4083890Y-850000D01*
X-4095150Y-847880D01*
X-4104800Y-841540D01*
X-4111240Y-833070D01*
G01X-4184470Y-850000D02*
Y-765340D01*
G01Y-786500D02*
X-4190910Y-775920D01*
X-4200560Y-767450D01*
X-4213430Y-765340D01*
X-4224690Y-767450D01*
X-4234340Y-775920D01*
X-4239170Y-790730D01*
Y-850000D01*
G01X-4317230Y-835190D02*
X-4325270Y-843650D01*
X-4336530Y-850000D01*
X-4346190D01*
X-4355840Y-845770D01*
X-4362270Y-839420D01*
X-4365490Y-830950D01*
X-4363880Y-818250D01*
X-4357450Y-811900D01*
X-4328490Y-799200D01*
X-4322060Y-784380D01*
X-4325270Y-773800D01*
X-4331710Y-767450D01*
X-4341360Y-765340D01*
X-4351010Y-767450D01*
X-4360660Y-773800D01*
G01X-4470900Y-765340D02*
Y-850000D01*
G01Y-731470D02*
X-4467680Y-729350D01*
Y-725120D01*
X-4470900Y-723000D01*
X-4474120Y-725120D01*
Y-729350D01*
X-4470900Y-731470D01*
G01X-4576310Y-835190D02*
X-4584350Y-843650D01*
X-4595610Y-850000D01*
X-4605270D01*
X-4614920Y-845770D01*
X-4621350Y-839420D01*
X-4624570Y-830950D01*
X-4622960Y-818250D01*
X-4616530Y-811900D01*
X-4587570Y-799200D01*
X-4581140Y-784380D01*
X-4584350Y-773800D01*
X-4590790Y-767450D01*
X-4600440Y-765340D01*
X-4610090Y-767450D01*
X-4619740Y-773800D01*
G01X-4729980Y-723000D02*
Y-850000D01*
G01X-4707460Y-765340D02*
X-4752500D01*
G01X-4859520Y-850000D02*
X-4849870Y-847880D01*
X-4840220Y-839420D01*
X-4833780Y-824600D01*
X-4830560Y-807670D01*
X-4833780Y-790730D01*
X-4840220Y-775920D01*
X-4849870Y-767450D01*
X-4859520Y-765340D01*
X-4869170Y-767450D01*
X-4878820Y-775920D01*
X-4885260Y-790730D01*
X-4886870Y-807670D01*
X-4885260Y-824600D01*
X-4878820Y-839420D01*
X-4869170Y-847880D01*
X-4859520Y-850000D01*
G01X-4966540D02*
Y-765340D01*
G01Y-782270D02*
X-4974580Y-773800D01*
X-4982630Y-767450D01*
X-4993890Y-765340D01*
X-5001930Y-767450D01*
X-5011580Y-773800D01*
G01X-5094470Y-835190D02*
X-5102510Y-843650D01*
X-5113770Y-850000D01*
X-5123430D01*
X-5133080Y-845770D01*
X-5139510Y-839420D01*
X-5142730Y-830950D01*
X-5141120Y-818250D01*
X-5134690Y-811900D01*
X-5105730Y-799200D01*
X-5099300Y-784380D01*
X-5102510Y-773800D01*
X-5108950Y-767450D01*
X-5118600Y-765340D01*
X-5128250Y-767450D01*
X-5137900Y-773800D01*
G01X-5086820Y1270000D02*
Y1348740D01*
X-5131600Y1270000D01*
Y1348740D01*
G01X-5167500Y1280500D02*
X-5175290Y1273940D01*
X-5184060Y1270000D01*
X-5191840D01*
X-5199630Y1273940D01*
X-5205480Y1280500D01*
X-5208400Y1289690D01*
X-5206450Y1298870D01*
X-5201580Y1306740D01*
X-5192820Y1312000D01*
X-5181130Y1314620D01*
X-5174320Y1319870D01*
X-5171400Y1329050D01*
X-5173350Y1338240D01*
X-5178210Y1344800D01*
X-5185030Y1348740D01*
X-5191840D01*
X-5198660Y1346120D01*
X-5204500Y1339550D01*
G01X-4778960Y-7023000D02*
X-4817560D01*
G01X-4798260D02*
Y-7150000D01*
G01X-4778960D02*
X-4817560D01*
G01X-4890800D02*
Y-7023000D01*
X-4964800Y-7150000D01*
Y-7023000D01*
G01X-5020340Y-7150000D02*
Y-7023000D01*
X-5094340Y-7150000D01*
Y-7023000D01*
G01X-4758040Y627000D02*
X-4798260Y500000D01*
X-4838480Y627000D01*
G01X-4940670Y567730D02*
X-4947100Y574080D01*
X-4951930Y584660D01*
X-4955150Y599490D01*
X-4951930Y612180D01*
X-4945500Y620650D01*
X-4934230Y627000D01*
X-4890800D01*
Y500000D01*
X-4943890D01*
X-4955150Y508460D01*
X-4961580Y521170D01*
X-4964800Y535980D01*
X-4961580Y550800D01*
X-4951930Y563500D01*
X-4940670Y567730D01*
X-4890800D01*
G01X-4832820Y1333500D02*
Y1412240D01*
X-4877600Y1333500D01*
Y1412240D01*
G01X-4912530Y1345310D02*
X-4918370Y1338750D01*
X-4925190Y1334810D01*
X-4933950Y1333500D01*
X-4942710Y1336120D01*
X-4949530Y1341370D01*
X-4954400Y1350560D01*
X-4955370Y1361060D01*
X-4953420Y1371560D01*
X-4948550Y1378120D01*
X-4941740Y1383370D01*
X-4934920Y1384680D01*
X-4928110Y1383370D01*
X-4919350Y1378120D01*
X-4922270Y1412240D01*
X-4948550D01*
G01X-4961130Y4217730D02*
X-4967560Y4224080D01*
X-4972390Y4234660D01*
X-4975610Y4249490D01*
X-4972390Y4262180D01*
X-4965960Y4270650D01*
X-4954690Y4277000D01*
X-4911260D01*
Y4150000D01*
X-4964350D01*
X-4975610Y4158460D01*
X-4982040Y4171170D01*
X-4985260Y4185980D01*
X-4982040Y4200800D01*
X-4972390Y4213500D01*
X-4961130Y4217730D01*
X-4911260D01*
G01X-2217690Y-3000000D02*
Y-2873000D01*
X-2278830D01*
G01X-2256300Y-2934380D02*
X-2217690D01*
G01X-2344020Y-2983070D02*
X-2356890Y-2993650D01*
X-2371370Y-3000000D01*
X-2384230D01*
X-2397100Y-2993650D01*
X-2406760Y-2983070D01*
X-2411580Y-2968250D01*
X-2408370Y-2953440D01*
X-2400320Y-2940730D01*
X-2385840Y-2932270D01*
X-2366540Y-2928030D01*
X-2355280Y-2919570D01*
X-2350450Y-2904750D01*
X-2353670Y-2889930D01*
X-2361710Y-2879350D01*
X-2372970Y-2873000D01*
X-2384230D01*
X-2395500Y-2877230D01*
X-2405150Y-2887820D01*
G01X-2542730Y-2883580D02*
X-2533080Y-2877230D01*
X-2521820Y-2873000D01*
X-2508950D01*
X-2494470Y-2879350D01*
X-2483210Y-2889930D01*
X-2475170Y-2902630D01*
X-2468730Y-2923800D01*
X-2467120Y-2942850D01*
X-2470340Y-2961900D01*
X-2475170Y-2974600D01*
X-2484820Y-2987300D01*
X-2496080Y-2995770D01*
X-2507340Y-3000000D01*
X-2518600D01*
X-2529860Y-2995770D01*
X-2539510Y-2989420D01*
X-2547560Y-2980950D01*
G01X-2596660Y-2873000D02*
X-2636880Y-3000000D01*
X-2677100Y-2873000D01*
G01X-2854130Y-3000000D02*
Y-2873000D01*
X-2895960Y-2978830D01*
X-2937790Y-2873000D01*
Y-3000000D01*
G01X-3025500D02*
X-3015850Y-2997880D01*
X-3006200Y-2989420D01*
X-2999760Y-2974600D01*
X-2996540Y-2957670D01*
X-2999760Y-2940730D01*
X-3006200Y-2925920D01*
X-3015850Y-2917450D01*
X-3025500Y-2915340D01*
X-3035150Y-2917450D01*
X-3044800Y-2925920D01*
X-3051240Y-2940730D01*
X-3052850Y-2957670D01*
X-3051240Y-2974600D01*
X-3044800Y-2989420D01*
X-3035150Y-2997880D01*
X-3025500Y-3000000D01*
G01X-3155040Y-2873000D02*
Y-3000000D01*
G01X-3132520Y-2915340D02*
X-3177560D01*
G01X-3257230Y-3000000D02*
Y-2873000D01*
G01Y-2934380D02*
X-3265280Y-2923800D01*
X-3273320Y-2917450D01*
X-3286190Y-2915340D01*
X-3295840Y-2917450D01*
X-3307100Y-2925920D01*
X-3311930Y-2938620D01*
Y-3000000D01*
G01X-3389990Y-2942850D02*
X-3441470D01*
X-3436640Y-2928030D01*
X-3428600Y-2919570D01*
X-3417340Y-2915340D01*
X-3406080Y-2917450D01*
X-3396420Y-2923800D01*
X-3389990Y-2938620D01*
X-3386770Y-2951320D01*
Y-2964020D01*
X-3389990Y-2976720D01*
X-3398030Y-2989420D01*
X-3407690Y-2997880D01*
X-3418950Y-3000000D01*
X-3430210Y-2995770D01*
X-3441470Y-2983070D01*
G01X-3521140Y-3000000D02*
Y-2915340D01*
G01Y-2932270D02*
X-3529180Y-2923800D01*
X-3537230Y-2917450D01*
X-3548490Y-2915340D01*
X-3556530Y-2917450D01*
X-3566180Y-2923800D01*
G01X-3815610Y-2932270D02*
X-3822040Y-2925920D01*
X-3826870Y-2915340D01*
X-3830090Y-2900510D01*
X-3826870Y-2887820D01*
X-3820440Y-2879350D01*
X-3809170Y-2873000D01*
X-3765740D01*
Y-3000000D01*
X-3818830D01*
X-3830090Y-2991540D01*
X-3836520Y-2978830D01*
X-3839740Y-2964020D01*
X-3836520Y-2949200D01*
X-3826870Y-2936500D01*
X-3815610Y-2932270D01*
X-3765740D01*
G01X-3932280Y-3000000D02*
X-3922630Y-2997880D01*
X-3912980Y-2989420D01*
X-3906540Y-2974600D01*
X-3903320Y-2957670D01*
X-3906540Y-2940730D01*
X-3912980Y-2925920D01*
X-3922630Y-2917450D01*
X-3932280Y-2915340D01*
X-3941930Y-2917450D01*
X-3951580Y-2925920D01*
X-3958020Y-2940730D01*
X-3959630Y-2957670D01*
X-3958020Y-2974600D01*
X-3951580Y-2989420D01*
X-3941930Y-2997880D01*
X-3932280Y-3000000D01*
G01X-4090780D02*
Y-2915340D01*
G01Y-2930150D02*
X-4084340Y-2921680D01*
X-4074690Y-2917450D01*
X-4063430Y-2915340D01*
X-4052170Y-2919570D01*
X-4042520Y-2928030D01*
X-4036080Y-2940730D01*
X-4032860Y-2957670D01*
X-4036080Y-2974600D01*
X-4042520Y-2987300D01*
X-4052170Y-2995770D01*
X-4063430Y-3000000D01*
X-4074690Y-2997880D01*
X-4084340Y-2991540D01*
X-4090780Y-2983070D01*
G01X-4168840Y-3000000D02*
Y-2915340D01*
G01Y-2932270D02*
X-4176880Y-2923800D01*
X-4184930Y-2917450D01*
X-4196190Y-2915340D01*
X-4204230Y-2917450D01*
X-4213880Y-2923800D01*
G01X-4349860Y-2873000D02*
Y-3000000D01*
G01Y-2980950D02*
X-4343420Y-2991540D01*
X-4333770Y-2997880D01*
X-4322510Y-3000000D01*
X-4309640Y-2995770D01*
X-4299990Y-2985190D01*
X-4293550Y-2972490D01*
X-4291940Y-2957670D01*
X-4293550Y-2942850D01*
X-4299990Y-2930150D01*
X-4309640Y-2919570D01*
X-4322510Y-2915340D01*
X-4333770Y-2917450D01*
X-4341810Y-2921680D01*
X-4349860Y-2930150D01*
G01X-4539760Y-2873000D02*
X-4579980Y-3000000D01*
X-4620200Y-2873000D01*
G01X-4678950Y-2894170D02*
X-4688610Y-2881470D01*
X-4699870Y-2875120D01*
X-4712740Y-2873000D01*
X-4728820Y-2877230D01*
X-4740090Y-2887820D01*
X-4743300Y-2900510D01*
X-4741690Y-2913220D01*
X-4735260Y-2923800D01*
X-4703090Y-2944970D01*
X-4688610Y-2959780D01*
X-4678950Y-2980950D01*
X-4675740Y-3000000D01*
X-4743300D01*
G01X-4568790Y3730740D02*
Y3674310D01*
X-4572680Y3662500D01*
X-4580470Y3654620D01*
X-4590210Y3652000D01*
X-4599950Y3654620D01*
X-4607740Y3662500D01*
X-4611630Y3674310D01*
Y3730740D01*
G01X-4668950Y3652000D02*
Y3730740D01*
X-4657270Y3714990D01*
G01Y3652000D02*
X-4680630D01*
G01X-4747690D02*
X-4754510Y3653310D01*
X-4762290Y3657250D01*
X-4767160Y3663810D01*
X-4769110Y3673000D01*
X-4767160Y3682180D01*
X-4761320Y3690060D01*
X-4752560Y3694000D01*
X-4742820D01*
X-4736980Y3696620D01*
X-4732110Y3703180D01*
X-4730160Y3712370D01*
X-4733090Y3721550D01*
X-4739900Y3728120D01*
X-4747690Y3730740D01*
X-4755480Y3728120D01*
X-4762290Y3721550D01*
X-4765220Y3712370D01*
X-4763270Y3703180D01*
X-4758400Y3696620D01*
X-4752560Y3694000D01*
X-4742820D01*
X-4734060Y3690060D01*
X-4728220Y3682180D01*
X-4726270Y3673000D01*
X-4728220Y3663810D01*
X-4733090Y3657250D01*
X-4740870Y3653310D01*
X-4747690Y3652000D01*
G01X-4278960Y-7673000D02*
X-4317560D01*
G01X-4298260D02*
Y-7800000D01*
G01X-4278960D02*
X-4317560D01*
G01X-4427800D02*
X-4414930Y-7797880D01*
X-4403670Y-7789420D01*
X-4394020Y-7776720D01*
X-4387580Y-7761900D01*
X-4384360Y-7744970D01*
Y-7728030D01*
X-4387580Y-7711100D01*
X-4394020Y-7696280D01*
X-4403670Y-7683580D01*
X-4414930Y-7675120D01*
X-4427800Y-7673000D01*
X-4440670Y-7675120D01*
X-4451930Y-7683580D01*
X-4461580Y-7696280D01*
X-4468020Y-7711100D01*
X-4471240Y-7728030D01*
Y-7744970D01*
X-4468020Y-7761900D01*
X-4461580Y-7776720D01*
X-4451930Y-7789420D01*
X-4440670Y-7797880D01*
X-4427800Y-7800000D01*
G01X-4592730Y-7683580D02*
X-4583080Y-7677230D01*
X-4571820Y-7673000D01*
X-4558950D01*
X-4544470Y-7679350D01*
X-4533210Y-7689930D01*
X-4525170Y-7702630D01*
X-4518730Y-7723800D01*
X-4517120Y-7742850D01*
X-4520340Y-7761900D01*
X-4525170Y-7774600D01*
X-4534820Y-7787300D01*
X-4546080Y-7795770D01*
X-4557340Y-7800000D01*
X-4568600D01*
X-4579860Y-7795770D01*
X-4589510Y-7789420D01*
X-4597560Y-7780950D01*
G01X-4359740Y1750000D02*
Y1828740D01*
X-4383100D01*
X-4390890Y1824800D01*
X-4396740Y1815620D01*
X-4398680Y1805120D01*
X-4396740Y1794620D01*
X-4391870Y1786740D01*
X-4383100Y1782810D01*
X-4359740D01*
G01X-4457950Y1750000D02*
Y1828740D01*
X-4446270Y1812990D01*
G01Y1750000D02*
X-4469630D01*
G01X-4408040Y4150000D02*
X-4448260Y4277000D01*
X-4488480Y4150000D01*
G01X-4474000Y4194450D02*
X-4422520D01*
G01X-4324820Y825500D02*
Y904240D01*
X-4369600Y825500D01*
Y904240D01*
G01X-4405500Y836000D02*
X-4413290Y829440D01*
X-4422060Y825500D01*
X-4429840D01*
X-4437630Y829440D01*
X-4443480Y836000D01*
X-4446400Y845190D01*
X-4444450Y854370D01*
X-4439580Y862240D01*
X-4430820Y867500D01*
X-4419130Y870120D01*
X-4412320Y875370D01*
X-4409400Y884550D01*
X-4411350Y893740D01*
X-4416210Y900300D01*
X-4423030Y904240D01*
X-4429840D01*
X-4436660Y901620D01*
X-4442500Y895050D01*
G01X-4202180Y3080320D02*
X-4206120Y3086160D01*
X-4208740Y3092980D01*
Y3100770D01*
X-4204800Y3109530D01*
X-4198240Y3116340D01*
X-4190370Y3121210D01*
X-4177240Y3125110D01*
X-4165430Y3126080D01*
X-4153620Y3124130D01*
X-4145750Y3121210D01*
X-4137870Y3115370D01*
X-4132620Y3108560D01*
X-4130000Y3101740D01*
Y3094920D01*
X-4132620Y3088110D01*
X-4136560Y3082270D01*
X-4141810Y3077400D01*
G01X-4130000Y3011320D02*
X-4208740D01*
X-4152310Y3047340D01*
Y2998660D01*
G01X-4130000Y2944260D02*
X-4208740D01*
X-4192990Y2955940D01*
G01X-4130000D02*
Y2932580D01*
G01X-3559740Y3200000D02*
Y3278740D01*
X-3584080D01*
X-3591870Y3274800D01*
X-3596740Y3269550D01*
X-3598680Y3259050D01*
X-3596740Y3248560D01*
X-3590890Y3242000D01*
X-3584080Y3238060D01*
X-3559740D01*
G01X-3584080D02*
X-3598680Y3200000D01*
G01X-3677420D02*
X-3638480D01*
Y3278740D01*
X-3677420D01*
G01X-3661840Y3240680D02*
X-3638480D01*
G01X-3716240Y3200000D02*
X-3757140Y3278740D01*
G01X-3716240D02*
X-3757140Y3200000D01*
G01X-3815430Y3278740D02*
Y3200000D01*
G01X-3793040Y3278740D02*
X-3837820D01*
G01X-3970960Y3200000D02*
X-3972910Y3217060D01*
X-3975830Y3231490D01*
X-3979730Y3244620D01*
X-3984590Y3259050D01*
X-3992380Y3278740D01*
X-3953440D01*
G01X-4051650Y3200000D02*
X-4058470Y3201310D01*
X-4066250Y3205250D01*
X-4071120Y3211810D01*
X-4073070Y3221000D01*
X-4071120Y3230180D01*
X-4065280Y3238060D01*
X-4056520Y3242000D01*
X-4046780D01*
X-4040940Y3244620D01*
X-4036070Y3251180D01*
X-4034120Y3260370D01*
X-4037050Y3269550D01*
X-4043860Y3276120D01*
X-4051650Y3278740D01*
X-4059440Y3276120D01*
X-4066250Y3269550D01*
X-4069180Y3260370D01*
X-4067230Y3251180D01*
X-4062360Y3244620D01*
X-4056520Y3242000D01*
X-4046780D01*
X-4038020Y3238060D01*
X-4032180Y3230180D01*
X-4030230Y3221000D01*
X-4032180Y3211810D01*
X-4037050Y3205250D01*
X-4044830Y3201310D01*
X-4051650Y3200000D01*
G01X-3819740Y1333500D02*
Y1412240D01*
X-3843100D01*
X-3850890Y1408300D01*
X-3856740Y1399120D01*
X-3858680Y1388620D01*
X-3856740Y1378120D01*
X-3851870Y1370240D01*
X-3843100Y1366310D01*
X-3819740D01*
G01X-3899450Y1399120D02*
X-3905290Y1406990D01*
X-3912110Y1410930D01*
X-3919900Y1412240D01*
X-3929630Y1409620D01*
X-3936450Y1403050D01*
X-3938400Y1395180D01*
X-3937420Y1387300D01*
X-3933530Y1380740D01*
X-3914060Y1367620D01*
X-3905290Y1358430D01*
X-3899450Y1345310D01*
X-3897500Y1333500D01*
X-3938400D01*
G01X-1916090Y-6800000D02*
Y-6673000D01*
X-1954690D01*
X-1967560Y-6679350D01*
X-1977220Y-6694170D01*
X-1980430Y-6711100D01*
X-1977220Y-6728030D01*
X-1969170Y-6740730D01*
X-1954690Y-6747090D01*
X-1916090D01*
G01X-2053670Y-6785190D02*
X-2061710Y-6793650D01*
X-2072970Y-6800000D01*
X-2082630D01*
X-2092280Y-6795770D01*
X-2098710Y-6789420D01*
X-2101930Y-6780950D01*
X-2100320Y-6768250D01*
X-2093890Y-6761900D01*
X-2064930Y-6749200D01*
X-2058500Y-6734380D01*
X-2061710Y-6723800D01*
X-2068150Y-6717450D01*
X-2077800Y-6715340D01*
X-2087450Y-6717450D01*
X-2097100Y-6723800D01*
G01X-2183210Y-6742850D02*
X-2234690D01*
X-2229860Y-6728030D01*
X-2221820Y-6719570D01*
X-2210560Y-6715340D01*
X-2199300Y-6717450D01*
X-2189640Y-6723800D01*
X-2183210Y-6738620D01*
X-2179990Y-6751320D01*
Y-6764020D01*
X-2183210Y-6776720D01*
X-2191250Y-6789420D01*
X-2200910Y-6797880D01*
X-2212170Y-6800000D01*
X-2223430Y-6795770D01*
X-2234690Y-6783070D01*
G01X-2309530Y-6715340D02*
Y-6774600D01*
X-2315970Y-6789420D01*
X-2325620Y-6797880D01*
X-2336880Y-6800000D01*
X-2348140Y-6797880D01*
X-2357790Y-6789420D01*
X-2364230Y-6774600D01*
G01Y-6800000D02*
Y-6715340D01*
G01X-2495380Y-6673000D02*
Y-6800000D01*
G01Y-6780950D02*
X-2488940Y-6791540D01*
X-2479290Y-6797880D01*
X-2468030Y-6800000D01*
X-2455160Y-6795770D01*
X-2445510Y-6785190D01*
X-2439070Y-6772490D01*
X-2437460Y-6757670D01*
X-2439070Y-6742850D01*
X-2445510Y-6730150D01*
X-2455160Y-6719570D01*
X-2468030Y-6715340D01*
X-2479290Y-6717450D01*
X-2487330Y-6721680D01*
X-2495380Y-6730150D01*
G01X-2595960Y-6800000D02*
X-2586310Y-6797880D01*
X-2576660Y-6789420D01*
X-2570220Y-6774600D01*
X-2567000Y-6757670D01*
X-2570220Y-6740730D01*
X-2576660Y-6725920D01*
X-2586310Y-6717450D01*
X-2595960Y-6715340D01*
X-2605610Y-6717450D01*
X-2615260Y-6725920D01*
X-2621700Y-6740730D01*
X-2623310Y-6757670D01*
X-2621700Y-6774600D01*
X-2615260Y-6789420D01*
X-2605610Y-6797880D01*
X-2595960Y-6800000D01*
G01X-2822870D02*
Y-6673000D01*
X-2863080D01*
X-2875950Y-6679350D01*
X-2884000Y-6687820D01*
X-2887210Y-6704750D01*
X-2884000Y-6721680D01*
X-2874340Y-6732270D01*
X-2863080Y-6738620D01*
X-2822870D01*
G01X-2863080D02*
X-2887210Y-6800000D01*
G01X-2960450Y-6742850D02*
X-3011930D01*
X-3007100Y-6728030D01*
X-2999060Y-6719570D01*
X-2987800Y-6715340D01*
X-2976540Y-6717450D01*
X-2966880Y-6723800D01*
X-2960450Y-6738620D01*
X-2957230Y-6751320D01*
Y-6764020D01*
X-2960450Y-6776720D01*
X-2968490Y-6789420D01*
X-2978150Y-6797880D01*
X-2989410Y-6800000D01*
X-3000670Y-6795770D01*
X-3011930Y-6783070D01*
G01X-3089990Y-6785190D02*
X-3098030Y-6793650D01*
X-3109290Y-6800000D01*
X-3118950D01*
X-3128600Y-6795770D01*
X-3135030Y-6789420D01*
X-3138250Y-6780950D01*
X-3136640Y-6768250D01*
X-3130210Y-6761900D01*
X-3101250Y-6749200D01*
X-3094820Y-6734380D01*
X-3098030Y-6723800D01*
X-3104470Y-6717450D01*
X-3114120Y-6715340D01*
X-3123770Y-6717450D01*
X-3133420Y-6723800D01*
G01X-3243660Y-6715340D02*
Y-6800000D01*
G01Y-6681470D02*
X-3240440Y-6679350D01*
Y-6675120D01*
X-3243660Y-6673000D01*
X-3246880Y-6675120D01*
Y-6679350D01*
X-3243660Y-6681470D01*
G01X-3349070Y-6785190D02*
X-3357110Y-6793650D01*
X-3368370Y-6800000D01*
X-3378030D01*
X-3387680Y-6795770D01*
X-3394110Y-6789420D01*
X-3397330Y-6780950D01*
X-3395720Y-6768250D01*
X-3389290Y-6761900D01*
X-3360330Y-6749200D01*
X-3353900Y-6734380D01*
X-3357110Y-6723800D01*
X-3363550Y-6717450D01*
X-3373200Y-6715340D01*
X-3382850Y-6717450D01*
X-3392500Y-6723800D01*
G01X-3502740Y-6673000D02*
Y-6800000D01*
G01X-3480220Y-6715340D02*
X-3525260D01*
G01X-3632280Y-6800000D02*
X-3622630Y-6797880D01*
X-3612980Y-6789420D01*
X-3606540Y-6774600D01*
X-3603320Y-6757670D01*
X-3606540Y-6740730D01*
X-3612980Y-6725920D01*
X-3622630Y-6717450D01*
X-3632280Y-6715340D01*
X-3641930Y-6717450D01*
X-3651580Y-6725920D01*
X-3658020Y-6740730D01*
X-3659630Y-6757670D01*
X-3658020Y-6774600D01*
X-3651580Y-6789420D01*
X-3641930Y-6797880D01*
X-3632280Y-6800000D01*
G01X-3739300D02*
Y-6715340D01*
G01Y-6732270D02*
X-3747340Y-6723800D01*
X-3755390Y-6717450D01*
X-3766650Y-6715340D01*
X-3774690Y-6717450D01*
X-3784340Y-6723800D01*
G01X-3829600Y-2587400D02*
Y-2720400D01*
G01X-3256800D02*
X-3829600D01*
G01X-3256800Y-2303200D02*
Y-2587400D01*
X-3829600D01*
Y-2019100D01*
X-3256800D01*
Y-2303200D01*
G01X-3604680Y-7620000D02*
X-3565740D01*
Y-7541260D01*
X-3604680D01*
G01X-3589100Y-7579320D02*
X-3565740D01*
G01X-3643500Y-7620000D02*
X-3684400Y-7541260D01*
G01X-3643500D02*
X-3684400Y-7620000D01*
G01X-3742690Y-7541260D02*
Y-7620000D01*
G01X-3720300Y-7541260D02*
X-3765080D01*
G01X-3344740Y-2690000D02*
Y-2626500D01*
X-3375900Y-2690000D01*
Y-2626500D01*
G01X-3416200Y-2690000D02*
Y-2661430D01*
X-3402650Y-2626500D01*
G01X-3429750D02*
X-3416200Y-2661430D01*
G01X-3457180Y-2626500D02*
Y-2672010D01*
X-3459890Y-2681540D01*
X-3465310Y-2687880D01*
X-3472080Y-2690000D01*
X-3478850Y-2687880D01*
X-3484270Y-2681540D01*
X-3486980Y-2672010D01*
Y-2626500D01*
G01X-3568260Y-2690000D02*
Y-2626500D01*
X-3599420Y-2690000D01*
Y-2626500D01*
G01X-3622790Y-2690000D02*
X-3639720Y-2626500D01*
X-3656650Y-2690000D01*
G01X-3650560Y-2667780D02*
X-3628880D01*
G01X-3680020Y-2690000D02*
Y-2626500D01*
X-3711180Y-2690000D01*
Y-2626500D01*
G01X-3751480Y-2690000D02*
X-3746060Y-2688940D01*
X-3741320Y-2684710D01*
X-3737260Y-2678360D01*
X-3734550Y-2670950D01*
X-3733190Y-2662480D01*
Y-2654020D01*
X-3734550Y-2645550D01*
X-3737260Y-2638140D01*
X-3741320Y-2631790D01*
X-3746060Y-2627560D01*
X-3751480Y-2626500D01*
X-3756900Y-2627560D01*
X-3761640Y-2631790D01*
X-3765700Y-2638140D01*
X-3768410Y-2645550D01*
X-3769770Y-2654020D01*
Y-2662480D01*
X-3768410Y-2670950D01*
X-3765700Y-2678360D01*
X-3761640Y-2684710D01*
X-3756900Y-2688940D01*
X-3751480Y-2690000D01*
G01X-3668000Y-2207400D02*
G03X-3661800Y-2241200I192872J17910D01*
G03X-3650000Y-2269400I117788J32718D01*
G03X-3632900Y-2291400I86469J49564D01*
G03X-3610900Y-2306900I60305J62231D01*
G03X-3602300Y-2310700I51833J105676D01*
G03X-3595100Y-2312900I18029J46123D01*
G03X-3586900Y-2314300I14876J62419D01*
G03X-3574800Y-2315200I26781J278267D01*
G01X-3553200Y-2316300D01*
X-3554700Y-2309700D01*
G03X-3563400Y-2284300I-142749J-34704D01*
G03X-3575600Y-2264800I-73827J-32623D01*
G03X-3594000Y-2248100I-74224J-63294D01*
G03X-3621600Y-2231100I-158341J-226167D01*
G02X-3631500Y-2225400I84178J157651D01*
G02X-3639700Y-2219700I55570J88692D01*
G02X-3647100Y-2213500I58472J77305D01*
G02X-3654400Y-2206100I89526J95617D01*
G03X-3659600Y-2200400I-550558J-497042D01*
G03X-3664100Y-2195700I-288418J-271641D01*
G03X-3668000Y-2191600I-926802J-877687D01*
G03X-3668600Y-2191300I-768J-786D01*
G03X-3669000Y-2191600I-78J-312D01*
G03X-3668800Y-2196000I367055J14480D01*
G03X-3668500Y-2201200I153002J6218D01*
G03X-3668000Y-2207400I310759J21941D01*
G01X-3559740Y1300000D02*
Y1378740D01*
X-3583100D01*
X-3590890Y1374800D01*
X-3596740Y1365620D01*
X-3598680Y1355120D01*
X-3596740Y1344620D01*
X-3591870Y1336740D01*
X-3583100Y1332810D01*
X-3559740D01*
G01X-3639450Y1365620D02*
X-3645290Y1373490D01*
X-3652110Y1377430D01*
X-3659900Y1378740D01*
X-3669630Y1376120D01*
X-3676450Y1369550D01*
X-3678400Y1361680D01*
X-3677420Y1353800D01*
X-3673530Y1347240D01*
X-3654060Y1334120D01*
X-3645290Y1324930D01*
X-3639450Y1311810D01*
X-3637500Y1300000D01*
X-3678400D01*
G01X-3581700Y-2337200D02*
Y-2348500D01*
X-3499100Y-2349700D01*
Y-2324600D01*
X-3581700Y-2325800D01*
Y-2337200D01*
G01X-3626500Y-2155500D02*
G03X-3632000Y-2173800I147843J-54410D01*
G03X-3634800Y-2191300I115121J-27393D01*
G03Y-2206200I89224J-7450D01*
G03X-3631500Y-2215400I18703J1517D01*
G03X-3629100Y-2217900I8979J6218D01*
G03X-3623600Y-2221700I76215J104430D01*
G03X-3616900Y-2225900I78437J117682D01*
G03X-3609600Y-2230000I89840J151411D01*
G02X-3594300Y-2239300I-70262J-132828D01*
G02X-3579600Y-2250700I-99961J-144075D01*
G02X-3567200Y-2262600I-101182J-117844D01*
G02X-3559100Y-2273600I-46045J-42388D01*
G02X-3556700Y-2278200I-37405J-22442D01*
G02X-3554200Y-2284400I-111781J-48677D01*
G02X-3551900Y-2291100I-122693J-45863D01*
G02X-3550200Y-2297200I-82706J-26336D01*
G03X-3548900Y-2302800I305348J67934D01*
G03X-3547600Y-2307700I180376J45232D01*
G03X-3546400Y-2311700I297081J86944D01*
G03X-3545900Y-2312600I2023J535D01*
G03X-3545400Y-2312500I216J221D01*
G03X-3543700Y-2308600I-149717J67582D01*
G03X-3541900Y-2303600I-102764J39819D01*
G03X-3539800Y-2297600I-218041J79682D01*
G03X-3537300Y-2288900I-133938J43197D01*
G03X-3536000Y-2281700I-60205J14588D01*
G03X-3535500Y-2274700I-56463J7551D01*
G03X-3535800Y-2266400I-107252J279D01*
G03X-3540000Y-2246400I-74148J-5130D01*
G03X-3549600Y-2227700I-78179J-28321D01*
G03X-3566600Y-2207200I-122596J-84366D01*
G03X-3594600Y-2180600I-444634J-439999D01*
G02X-3599200Y-2176100I40461J45961D01*
G02X-3604200Y-2170200I93342J84172D01*
G02X-3608800Y-2164100I96960J77902D01*
G02X-3612300Y-2158500I53946J37610D01*
G03X-3615200Y-2153700I-124651J-72034D01*
G03X-3617900Y-2149600I-70646J-43584D01*
G03X-3620300Y-2146300I-89214J-62360D01*
G03X-3621200Y-2145800I-954J-657D01*
G03X-3622100Y-2146300I11J-1081D01*
G03X-3623500Y-2148700I31361J-19902D01*
G03X-3625000Y-2151800I33810J-18272D01*
G03X-3626500Y-2155500I61345J-27024D01*
G01X-3568300Y-2116700D02*
G03X-3572200Y-2126500I48795J-25094D01*
G03X-3577300Y-2145200I524414J-153068D01*
G03X-3581800Y-2164100I551604J-141320D01*
G03X-3582800Y-2174000I45345J-9581D01*
G03X-3582200Y-2178100I13500J-118D01*
G03X-3580300Y-2182200I16219J5026D01*
G03X-3576600Y-2186800I28482J19121D01*
G03X-3570200Y-2193500I139688J127027D01*
G02X-3558000Y-2206500I-136465J-140291D01*
G02X-3547100Y-2220600I-147709J-125449D01*
G02X-3538400Y-2234400I-136832J-95906D01*
G02X-3532900Y-2246500I-65180J-36927D01*
G02X-3529700Y-2259100I-65115J-23244D01*
G02X-3528700Y-2273000I-91567J-13574D01*
G02X-3529800Y-2287000I-93691J318D01*
G02X-3532900Y-2299800I-71949J10650D01*
G03X-3534500Y-2304600I158343J-55448D01*
G03X-3535700Y-2308800I88313J-27504D01*
G03X-3536600Y-2312300I145706J-39333D01*
G03X-3536400Y-2313000I728J-170D01*
G03X-3533700Y-2313400I1604J1515D01*
G03X-3521500Y-2305700I-263550J431088D01*
G03X-3509600Y-2297400I-124438J191092D01*
G03X-3501200Y-2290200I-46301J62517D01*
G03X-3492400Y-2279900I-59518J59759D01*
G03X-3486600Y-2269500I-41933J30203D01*
G03X-3483400Y-2258200I-46265J19205D01*
G03X-3482400Y-2245200I-73960J12228D01*
G03X-3484400Y-2230400I-60983J-706D01*
G03X-3490100Y-2214500I-95242J-25172D01*
G03X-3499200Y-2198200I-109345J-50355D01*
G03X-3511400Y-2182100I-136336J-90638D01*
G02X-3530100Y-2159900I1418193J1213580D01*
G02X-3542900Y-2143800I382441J317190D01*
G02X-3551900Y-2131300I215606J164726D01*
G02X-3557500Y-2121600I66803J45033D01*
G03X-3559800Y-2117000I-304436J-149343D01*
G03X-3561800Y-2113100I-159921J-79548D01*
G03X-3563700Y-2109800I-494619J-282584D01*
G03X-3564000Y-2109600I-319J-154D01*
G03X-3564300Y-2109800I31J-371D01*
G03X-3565500Y-2111700I108806J-70049D01*
G03X-3566800Y-2114000I57242J-33872D01*
G03X-3568300Y-2116700I106525J-60947D01*
G01X-3564700Y-2360300D02*
G03X-3564400Y-2365400I40496J-177D01*
G01X-3555500Y-2435700D01*
X-3546600Y-2505300D01*
G03X-3545400Y-2512100I73222J9416D01*
G03X-3544500Y-2514400I9158J2257D01*
G03X-3543200Y-2516000I4213J2095D01*
G03X-3541300Y-2516900I3053J3989D01*
G03X-3538600Y-2517200I2683J11845D01*
G03X-3536500Y-2517100I-1327J49968D01*
G03X-3534700Y-2517000I-538J25926D01*
G03X-3533200Y-2516800I-3591J32661D01*
G03X-3533000Y-2516500I-76J267D01*
G02X-3532800Y-2512400I37091J246D01*
G01X-3524900Y-2441400D01*
X-3517100Y-2371700D01*
G02X-3516100Y-2364900I104609J-11910D01*
G01X-3515000Y-2358700D01*
X-3539900D01*
G03X-3549400Y-2358800I-540J-399965D01*
G03X-3557400Y-2359100I3595J-202672D01*
G03X-3564100Y-2359600I28983J-433516D01*
G03X-3564700Y-2360300I79J-675D01*
G01X-3491300Y-2188100D02*
G03X-3491700Y-2192000I17970J-3814D01*
G03X-3491100Y-2195900I17691J726D01*
G03X-3489600Y-2200000I22865J6041D01*
G03X-3487000Y-2205100I57902J26306D01*
G02X-3475900Y-2234300I-82732J-48159D01*
G02X-3476700Y-2262400I-62389J-12285D01*
G02X-3489500Y-2287900I-64169J16248D01*
G02X-3513500Y-2309800I-84596J68608D01*
G01X-3522300Y-2315700D01*
X-3512400Y-2315600D01*
G03X-3500900Y-2314700I-341J78276D01*
G03X-3488400Y-2312100I-17961J117700D01*
G03X-3476400Y-2308300I-29105J112758D01*
G03X-3466500Y-2303500I-24320J62769D01*
G03X-3454100Y-2293800I-29866J50955D01*
G03X-3445100Y-2281400I-37896J36971D01*
G03X-3439700Y-2266400I-51443J26992D01*
G03X-3437900Y-2248900I-83077J17388D01*
G03X-3438800Y-2235500I-99173J69D01*
G03X-3441600Y-2223900I-62507J-8950D01*
G03X-3446700Y-2212000I-72492J-24025D01*
G03X-3455100Y-2197900I-170775J-92186D01*
G02X-3461900Y-2187100I257988J169978D01*
G02X-3467200Y-2177500I144407J85987D01*
G02X-3471500Y-2168200I128684J65143D01*
G02X-3475400Y-2158300I151302J65322D01*
G03X-3476500Y-2157000I-2177J-727D01*
G03X-3477900Y-2157200I-570J-1007D01*
G03X-3479800Y-2160100I10332J-8841D01*
G03X-3483500Y-2167400I268852J-140855D01*
G03X-3486100Y-2173100I128431J-62026D01*
G03X-3488500Y-2179100I145379J-61631D01*
G03X-3490400Y-2184400I128087J-48909D01*
G03X-3491300Y-2188100I26869J-8495D01*
G01X-3322150Y-7059080D02*
X-3312500Y-7052730D01*
X-3301240Y-7048500D01*
X-3288370D01*
X-3273890Y-7054850D01*
X-3262630Y-7065430D01*
X-3254590Y-7078130D01*
X-3248150Y-7099300D01*
X-3246540Y-7118350D01*
X-3249760Y-7137400D01*
X-3254590Y-7150100D01*
X-3264240Y-7162800D01*
X-3275500Y-7171270D01*
X-3286760Y-7175500D01*
X-3298020D01*
X-3309280Y-7171270D01*
X-3318930Y-7164920D01*
X-3326980Y-7156450D01*
G01X-3374470Y-7175500D02*
Y-7048500D01*
X-3416300Y-7154330D01*
X-3458130Y-7048500D01*
Y-7175500D01*
G01X-2261130Y-3232270D02*
X-2267560Y-3225920D01*
X-2272390Y-3215340D01*
X-2275610Y-3200510D01*
X-2272390Y-3187820D01*
X-2265960Y-3179350D01*
X-2254690Y-3173000D01*
X-2211260D01*
Y-3300000D01*
X-2264350D01*
X-2275610Y-3291540D01*
X-2282040Y-3278830D01*
X-2285260Y-3264020D01*
X-2282040Y-3249200D01*
X-2272390Y-3236500D01*
X-2261130Y-3232270D01*
X-2211260D01*
G01X-2377800Y-3300000D02*
X-2368150Y-3297880D01*
X-2358500Y-3289420D01*
X-2352060Y-3274600D01*
X-2348840Y-3257670D01*
X-2352060Y-3240730D01*
X-2358500Y-3225920D01*
X-2368150Y-3217450D01*
X-2377800Y-3215340D01*
X-2387450Y-3217450D01*
X-2397100Y-3225920D01*
X-2403540Y-3240730D01*
X-2405150Y-3257670D01*
X-2403540Y-3274600D01*
X-2397100Y-3289420D01*
X-2387450Y-3297880D01*
X-2377800Y-3300000D01*
G01X-2536300D02*
Y-3215340D01*
G01Y-3230150D02*
X-2529860Y-3221680D01*
X-2520210Y-3217450D01*
X-2508950Y-3215340D01*
X-2497690Y-3219570D01*
X-2488040Y-3228030D01*
X-2481600Y-3240730D01*
X-2478380Y-3257670D01*
X-2481600Y-3274600D01*
X-2488040Y-3287300D01*
X-2497690Y-3295770D01*
X-2508950Y-3300000D01*
X-2520210Y-3297880D01*
X-2529860Y-3291540D01*
X-2536300Y-3283070D01*
G01X-2614360Y-3300000D02*
Y-3215340D01*
G01Y-3232270D02*
X-2622400Y-3223800D01*
X-2630450Y-3217450D01*
X-2641710Y-3215340D01*
X-2649750Y-3217450D01*
X-2659400Y-3223800D01*
G01X-2795380Y-3173000D02*
Y-3300000D01*
G01Y-3280950D02*
X-2788940Y-3291540D01*
X-2779290Y-3297880D01*
X-2768030Y-3300000D01*
X-2755160Y-3295770D01*
X-2745510Y-3285190D01*
X-2739070Y-3272490D01*
X-2737460Y-3257670D01*
X-2739070Y-3242850D01*
X-2745510Y-3230150D01*
X-2755160Y-3219570D01*
X-2768030Y-3215340D01*
X-2779290Y-3217450D01*
X-2787330Y-3221680D01*
X-2795380Y-3230150D01*
G01X-2988500Y-3300000D02*
Y-3173000D01*
X-3062500Y-3300000D01*
Y-3173000D01*
G01X-3155040Y-3300000D02*
X-3145390Y-3297880D01*
X-3135740Y-3289420D01*
X-3129300Y-3274600D01*
X-3126080Y-3257670D01*
X-3129300Y-3240730D01*
X-3135740Y-3225920D01*
X-3145390Y-3217450D01*
X-3155040Y-3215340D01*
X-3164690Y-3217450D01*
X-3174340Y-3225920D01*
X-3180780Y-3240730D01*
X-3182390Y-3257670D01*
X-3180780Y-3274600D01*
X-3174340Y-3289420D01*
X-3164690Y-3297880D01*
X-3155040Y-3300000D01*
G01X-3414120Y-3304230D02*
X-3410900Y-3302120D01*
Y-3297880D01*
X-3414120Y-3295770D01*
X-3417340Y-3297880D01*
Y-3302120D01*
X-3414120Y-3304230D01*
G01Y-3247090D02*
X-3410900Y-3244970D01*
Y-3240730D01*
X-3414120Y-3238620D01*
X-3417340Y-3240730D01*
Y-3244970D01*
X-3414120Y-3247090D01*
G01X-3306820Y100000D02*
Y178740D01*
X-3351600Y100000D01*
Y178740D01*
G01X-3407950Y100000D02*
Y178740D01*
X-3396270Y162990D01*
G01Y100000D02*
X-3419630D01*
G01X-3306820Y600000D02*
Y678740D01*
X-3351600Y600000D01*
Y678740D01*
G01X-3419630Y600000D02*
Y678740D01*
X-3383610Y622310D01*
X-3432290D01*
G01X-3293320Y3498680D02*
X-3289380Y3492840D01*
X-3286760Y3486020D01*
Y3478230D01*
X-3290700Y3469470D01*
X-3297260Y3462660D01*
X-3305130Y3457790D01*
X-3318260Y3453890D01*
X-3330070Y3452920D01*
X-3341880Y3454870D01*
X-3349750Y3457790D01*
X-3357630Y3463630D01*
X-3362880Y3470440D01*
X-3365500Y3477260D01*
Y3484080D01*
X-3362880Y3490890D01*
X-3358940Y3496730D01*
X-3353690Y3501600D01*
G01X-3365500Y3567680D02*
X-3286760D01*
X-3343190Y3531660D01*
Y3580340D01*
G01X-3353690Y3613320D02*
X-3360250Y3619160D01*
X-3364190Y3625980D01*
X-3365500Y3634740D01*
X-3362880Y3643500D01*
X-3357630Y3650320D01*
X-3348440Y3655190D01*
X-3337940Y3656160D01*
X-3327440Y3654210D01*
X-3320880Y3649340D01*
X-3315630Y3642530D01*
X-3314320Y3635710D01*
X-3315630Y3628900D01*
X-3320880Y3620140D01*
X-3286760Y3623060D01*
Y3649340D01*
G01X-3256800Y-2587400D02*
Y-2720400D01*
G01X-3019550Y-7580630D02*
X-3039030D01*
Y-7604250D01*
X-3033180Y-7612130D01*
X-3026370Y-7617380D01*
X-3016630Y-7620000D01*
X-3006890Y-7617380D01*
X-3000080Y-7612130D01*
X-2994240Y-7604250D01*
X-2990340Y-7595070D01*
X-2988390Y-7584570D01*
Y-7575380D01*
X-2990340Y-7567510D01*
X-2994240Y-7558320D01*
X-3000080Y-7550450D01*
X-3005920Y-7545200D01*
X-3013710Y-7541260D01*
X-3020530D01*
X-3028310Y-7543880D01*
X-3034160Y-7549130D01*
G01X-3070060Y-7620000D02*
Y-7541260D01*
X-3114840Y-7620000D01*
Y-7541260D01*
G01X-3149770Y-7620000D02*
Y-7541260D01*
X-3169240D01*
X-3177030Y-7545200D01*
X-3182870Y-7550450D01*
X-3187740Y-7558320D01*
X-3191640Y-7567510D01*
X-3192610Y-7580630D01*
X-3191640Y-7593750D01*
X-3187740Y-7602940D01*
X-3182870Y-7610820D01*
X-3177030Y-7616060D01*
X-3169240Y-7620000D01*
X-3149770D01*
G01X-3056820Y850000D02*
Y928740D01*
X-3101600Y850000D01*
Y928740D01*
G01X-3136530Y865750D02*
X-3142370Y856560D01*
X-3150160Y851310D01*
X-3158920Y850000D01*
X-3166710Y851310D01*
X-3174500Y857870D01*
X-3179370Y865750D01*
X-3180340Y873620D01*
X-3178400Y882810D01*
X-3171580Y889370D01*
X-3164770Y892000D01*
X-3156000D01*
G01X-3164770D02*
X-3170610Y895930D01*
X-3175480Y902490D01*
X-3177420Y910370D01*
X-3175480Y918240D01*
X-3170610Y924800D01*
X-3161840Y928740D01*
X-3153080Y927430D01*
X-3144320Y922180D01*
G01X-3059740Y1750000D02*
Y1828740D01*
X-3083100D01*
X-3090890Y1824800D01*
X-3096740Y1815620D01*
X-3098680Y1805120D01*
X-3096740Y1794620D01*
X-3091870Y1786740D01*
X-3083100Y1782810D01*
X-3059740D01*
G01X-3157950Y1750000D02*
Y1828740D01*
X-3146270Y1812990D01*
G01Y1750000D02*
X-3169630D01*
G01X-2660710Y4815620D02*
X-2666550Y4823490D01*
X-2673370Y4827430D01*
X-2681160Y4828740D01*
X-2690890Y4826120D01*
X-2697710Y4819550D01*
X-2699660Y4811680D01*
X-2698680Y4803800D01*
X-2694790Y4797240D01*
X-2675320Y4784120D01*
X-2666550Y4774930D01*
X-2660710Y4761810D01*
X-2658760Y4750000D01*
X-2699660D01*
G01X-2733610Y4828740D02*
X-2757950Y4750000D01*
X-2782290Y4828740D01*
G01X-2817220Y4750000D02*
Y4828740D01*
X-2841560D01*
X-2849350Y4824800D01*
X-2854220Y4819550D01*
X-2856160Y4809050D01*
X-2854220Y4798560D01*
X-2848370Y4792000D01*
X-2841560Y4788060D01*
X-2817220D01*
G01X-2841560D02*
X-2856160Y4750000D01*
G01X-2895960D02*
Y4828740D01*
X-2919320D01*
X-2927110Y4824800D01*
X-2932960Y4815620D01*
X-2934900Y4805120D01*
X-2932960Y4794620D01*
X-2928090Y4786740D01*
X-2919320Y4782810D01*
X-2895960D01*
G01X-2973720Y4760500D02*
X-2981510Y4753940D01*
X-2990280Y4750000D01*
X-2998060D01*
X-3005850Y4753940D01*
X-3011700Y4760500D01*
X-3014620Y4769690D01*
X-3012670Y4778870D01*
X-3007800Y4786740D01*
X-2999040Y4792000D01*
X-2987350Y4794620D01*
X-2980540Y4799870D01*
X-2977620Y4809050D01*
X-2979570Y4818240D01*
X-2984430Y4824800D01*
X-2991250Y4828740D01*
X-2998060D01*
X-3004880Y4826120D01*
X-3010720Y4819550D01*
G01X-2556820Y350000D02*
Y428740D01*
X-2601600Y350000D01*
Y428740D01*
G01X-2639450Y415620D02*
X-2645290Y423490D01*
X-2652110Y427430D01*
X-2659900Y428740D01*
X-2669630Y426120D01*
X-2676450Y419550D01*
X-2678400Y411680D01*
X-2677420Y403800D01*
X-2673530Y397240D01*
X-2654060Y384120D01*
X-2645290Y374930D01*
X-2639450Y361810D01*
X-2637500Y350000D01*
X-2678400D01*
G01X-2508040Y4150000D02*
X-2548260Y4277000D01*
X-2588480Y4150000D01*
G01X-2574000Y4194450D02*
X-2522520D01*
G01X-2690670Y4217730D02*
X-2697100Y4224080D01*
X-2701930Y4234660D01*
X-2705150Y4249490D01*
X-2701930Y4262180D01*
X-2695500Y4270650D01*
X-2684230Y4277000D01*
X-2640800D01*
Y4150000D01*
X-2693890D01*
X-2705150Y4158460D01*
X-2711580Y4171170D01*
X-2714800Y4185980D01*
X-2711580Y4200800D01*
X-2701930Y4213500D01*
X-2690670Y4217730D01*
X-2640800D01*
G01X-2546820Y1333500D02*
Y1412240D01*
X-2591600Y1333500D01*
Y1412240D01*
G01X-2626530Y1345310D02*
X-2632370Y1338750D01*
X-2639190Y1334810D01*
X-2647950Y1333500D01*
X-2656710Y1336120D01*
X-2663530Y1341370D01*
X-2668400Y1350560D01*
X-2669370Y1361060D01*
X-2667420Y1371560D01*
X-2662550Y1378120D01*
X-2655740Y1383370D01*
X-2648920Y1384680D01*
X-2642110Y1383370D01*
X-2633350Y1378120D01*
X-2636270Y1412240D01*
X-2662550D01*
G01X-2033650Y-7683580D02*
X-2024000Y-7677230D01*
X-2012740Y-7673000D01*
X-1999870D01*
X-1985390Y-7679350D01*
X-1974130Y-7689930D01*
X-1966090Y-7702630D01*
X-1959650Y-7723800D01*
X-1958040Y-7742850D01*
X-1961260Y-7761900D01*
X-1966090Y-7774600D01*
X-1975740Y-7787300D01*
X-1987000Y-7795770D01*
X-1998260Y-7800000D01*
X-2009520D01*
X-2020780Y-7795770D01*
X-2030430Y-7789420D01*
X-2038480Y-7780950D01*
G01X-2085970Y-7800000D02*
Y-7673000D01*
X-2127800Y-7778830D01*
X-2169630Y-7673000D01*
Y-7800000D01*
G01X-2367580Y-7673000D02*
X-2406180D01*
G01X-2386880D02*
Y-7800000D01*
G01X-2367580D02*
X-2406180D01*
G01X-2479420D02*
Y-7673000D01*
X-2553420Y-7800000D01*
Y-7673000D01*
G01X-2204870Y4828740D02*
X-2229210Y4750000D01*
X-2253550Y4828740D01*
G01X-2288480Y4750000D02*
Y4828740D01*
X-2312820D01*
X-2320610Y4824800D01*
X-2325480Y4819550D01*
X-2327420Y4809050D01*
X-2325480Y4798560D01*
X-2319630Y4792000D01*
X-2312820Y4788060D01*
X-2288480D01*
G01X-2312820D02*
X-2327420Y4750000D01*
G01X-2367220D02*
Y4828740D01*
X-2390580D01*
X-2398370Y4824800D01*
X-2404220Y4815620D01*
X-2406160Y4805120D01*
X-2404220Y4794620D01*
X-2399350Y4786740D01*
X-2390580Y4782810D01*
X-2367220D01*
G01X-2444980Y4760500D02*
X-2452770Y4753940D01*
X-2461540Y4750000D01*
X-2469320D01*
X-2477110Y4753940D01*
X-2482960Y4760500D01*
X-2485880Y4769690D01*
X-2483930Y4778870D01*
X-2479060Y4786740D01*
X-2470300Y4792000D01*
X-2458610Y4794620D01*
X-2451800Y4799870D01*
X-2448880Y4809050D01*
X-2450830Y4818240D01*
X-2455690Y4824800D01*
X-2462510Y4828740D01*
X-2469320D01*
X-2476140Y4826120D01*
X-2481980Y4819550D01*
G01X-2251290Y3065240D02*
Y3008810D01*
X-2255180Y2997000D01*
X-2262970Y2989120D01*
X-2272710Y2986500D01*
X-2282450Y2989120D01*
X-2290240Y2997000D01*
X-2294130Y3008810D01*
Y3065240D01*
G01X-2332950Y3052120D02*
X-2338790Y3059990D01*
X-2345610Y3063930D01*
X-2353400Y3065240D01*
X-2363130Y3062620D01*
X-2369950Y3056050D01*
X-2371900Y3048180D01*
X-2370920Y3040300D01*
X-2367030Y3033740D01*
X-2347560Y3020620D01*
X-2338790Y3011430D01*
X-2332950Y2998310D01*
X-2331000Y2986500D01*
X-2371900D01*
G01X-2411690Y3052120D02*
X-2417530Y3059990D01*
X-2424350Y3063930D01*
X-2432140Y3065240D01*
X-2441870Y3062620D01*
X-2448690Y3056050D01*
X-2450640Y3048180D01*
X-2449660Y3040300D01*
X-2445770Y3033740D01*
X-2426300Y3020620D01*
X-2417530Y3011430D01*
X-2411690Y2998310D01*
X-2409740Y2986500D01*
X-2450640D01*
G01X-1850180Y3486320D02*
X-1854120Y3492160D01*
X-1856740Y3498980D01*
Y3506770D01*
X-1852800Y3515530D01*
X-1846240Y3522340D01*
X-1838370Y3527210D01*
X-1825240Y3531110D01*
X-1813430Y3532080D01*
X-1801620Y3530130D01*
X-1793750Y3527210D01*
X-1785870Y3521370D01*
X-1780620Y3514560D01*
X-1778000Y3507740D01*
Y3500920D01*
X-1780620Y3494110D01*
X-1784560Y3488270D01*
X-1789810Y3483400D01*
G01X-1778000Y3417320D02*
X-1856740D01*
X-1800310Y3453340D01*
Y3404660D01*
G01X-1778000Y3338580D02*
X-1856740D01*
X-1800310Y3374600D01*
Y3325920D01*
G01X-1515320Y3498680D02*
X-1511380Y3492840D01*
X-1508760Y3486020D01*
Y3478230D01*
X-1512700Y3469470D01*
X-1519260Y3462660D01*
X-1527130Y3457790D01*
X-1540260Y3453890D01*
X-1552070Y3452920D01*
X-1563880Y3454870D01*
X-1571750Y3457790D01*
X-1579630Y3463630D01*
X-1584880Y3470440D01*
X-1587500Y3477260D01*
Y3484080D01*
X-1584880Y3490890D01*
X-1580940Y3496730D01*
X-1575690Y3501600D01*
G01X-1587500Y3567680D02*
X-1508760D01*
X-1565190Y3531660D01*
Y3580340D01*
G01X-1587500Y3632790D02*
X-1570440Y3634740D01*
X-1556010Y3637660D01*
X-1542880Y3641560D01*
X-1528450Y3646420D01*
X-1508760Y3654210D01*
Y3615270D01*
G01X-1110710Y4815620D02*
X-1116550Y4823490D01*
X-1123370Y4827430D01*
X-1131160Y4828740D01*
X-1140890Y4826120D01*
X-1147710Y4819550D01*
X-1149660Y4811680D01*
X-1148680Y4803800D01*
X-1144790Y4797240D01*
X-1125320Y4784120D01*
X-1116550Y4774930D01*
X-1110710Y4761810D01*
X-1108760Y4750000D01*
X-1149660D01*
G01X-1183610Y4828740D02*
X-1207950Y4750000D01*
X-1232290Y4828740D01*
G01X-1267220Y4750000D02*
Y4828740D01*
X-1291560D01*
X-1299350Y4824800D01*
X-1304220Y4819550D01*
X-1306160Y4809050D01*
X-1304220Y4798560D01*
X-1298370Y4792000D01*
X-1291560Y4788060D01*
X-1267220D01*
G01X-1291560D02*
X-1306160Y4750000D01*
G01X-1345960D02*
Y4828740D01*
X-1369320D01*
X-1377110Y4824800D01*
X-1382960Y4815620D01*
X-1384900Y4805120D01*
X-1382960Y4794620D01*
X-1378090Y4786740D01*
X-1369320Y4782810D01*
X-1345960D01*
G01X-1423720Y4760500D02*
X-1431510Y4753940D01*
X-1440280Y4750000D01*
X-1448060D01*
X-1455850Y4753940D01*
X-1461700Y4760500D01*
X-1464620Y4769690D01*
X-1462670Y4778870D01*
X-1457800Y4786740D01*
X-1449040Y4792000D01*
X-1437350Y4794620D01*
X-1430540Y4799870D01*
X-1427620Y4809050D01*
X-1429570Y4818240D01*
X-1434430Y4824800D01*
X-1441250Y4828740D01*
X-1448060D01*
X-1454880Y4826120D01*
X-1460720Y4819550D01*
G01X-1348740Y236470D02*
Y213110D01*
G01Y224790D02*
X-1270000D01*
G01Y236470D02*
Y213110D01*
G01Y165520D02*
X-1348740D01*
Y141180D01*
X-1344800Y133390D01*
X-1339550Y128520D01*
X-1329050Y126580D01*
X-1318560Y128520D01*
X-1312000Y134370D01*
X-1308060Y141180D01*
Y165520D01*
G01Y141180D02*
X-1270000Y126580D01*
G01Y47840D02*
Y86780D01*
X-1348740D01*
Y47840D01*
G01X-1310680Y63420D02*
Y86780D01*
G01X-1270000Y7070D02*
X-1348740D01*
Y-29930D01*
G01X-1310680Y-16300D02*
Y7070D01*
G01X-1243750Y-60960D02*
Y-119380D01*
G01X-1348740Y-157230D02*
Y-180590D01*
G01Y-168910D02*
X-1270000D01*
G01Y-157230D02*
Y-180590D01*
G01X-1312000Y-255440D02*
X-1315930Y-259330D01*
X-1322490Y-262250D01*
X-1331680Y-264200D01*
X-1339550Y-262250D01*
X-1344800Y-258360D01*
X-1348740Y-251540D01*
Y-225260D01*
X-1270000D01*
Y-257390D01*
X-1275250Y-264200D01*
X-1283120Y-268100D01*
X-1292310Y-270040D01*
X-1301490Y-268100D01*
X-1309370Y-262250D01*
X-1312000Y-255440D01*
Y-225260D01*
G01X-1270000Y-305940D02*
X-1348740Y-346840D01*
G01Y-305940D02*
X-1270000Y-346840D01*
G01X-1243750Y-375920D02*
Y-434340D01*
G01X-1281810Y-462450D02*
X-1275250Y-468290D01*
X-1271310Y-475110D01*
X-1270000Y-483870D01*
X-1272620Y-492630D01*
X-1277870Y-499450D01*
X-1287060Y-504320D01*
X-1297560Y-505290D01*
X-1308060Y-503340D01*
X-1314620Y-498470D01*
X-1319870Y-491660D01*
X-1321180Y-484840D01*
X-1319870Y-478030D01*
X-1314620Y-469270D01*
X-1348740Y-472190D01*
Y-498470D01*
G01X-1302810Y-544110D02*
X-1312000Y-550930D01*
X-1317240Y-556770D01*
X-1319870Y-564560D01*
X-1317240Y-571370D01*
X-1312000Y-576240D01*
X-1304120Y-580140D01*
X-1294930Y-581110D01*
X-1287060Y-580140D01*
X-1279180Y-576240D01*
X-1272620Y-570400D01*
X-1270000Y-563580D01*
X-1272620Y-555790D01*
X-1280500Y-548980D01*
X-1292310Y-545080D01*
X-1305430Y-544110D01*
X-1322490Y-546060D01*
X-1331680Y-548980D01*
X-1340870Y-553850D01*
X-1347430Y-560660D01*
X-1348740Y-567480D01*
X-1346120Y-574290D01*
X-1339550Y-579160D01*
G01X-1033650Y4266420D02*
X-1024000Y4272770D01*
X-1012740Y4277000D01*
X-999870D01*
X-985390Y4270650D01*
X-974130Y4260070D01*
X-966090Y4247370D01*
X-959650Y4226200D01*
X-958040Y4207150D01*
X-961260Y4188100D01*
X-966090Y4175400D01*
X-975740Y4162700D01*
X-987000Y4154230D01*
X-998260Y4150000D01*
X-1009520D01*
X-1020780Y4154230D01*
X-1030430Y4160580D01*
X-1038480Y4169050D01*
G01X-1092410Y4150000D02*
Y4277000D01*
X-1124580D01*
X-1137450Y4270650D01*
X-1147100Y4262180D01*
X-1155150Y4249490D01*
X-1161580Y4234660D01*
X-1163190Y4213500D01*
X-1161580Y4192330D01*
X-1155150Y4177510D01*
X-1147100Y4164810D01*
X-1137450Y4156350D01*
X-1124580Y4150000D01*
X-1092410D01*
G01X-509740Y-7850000D02*
Y-7771260D01*
X-534080D01*
X-541870Y-7775200D01*
X-546740Y-7780450D01*
X-548680Y-7790950D01*
X-546740Y-7801440D01*
X-540890Y-7808000D01*
X-534080Y-7811940D01*
X-509740D01*
G01X-534080D02*
X-548680Y-7850000D01*
G01X-627420D02*
X-588480D01*
Y-7771260D01*
X-627420D01*
G01X-611840Y-7809320D02*
X-588480D01*
G01X-666240Y-7850000D02*
X-707140Y-7771260D01*
G01X-666240D02*
X-707140Y-7850000D01*
G01X-765430Y-7771260D02*
Y-7850000D01*
G01X-743040Y-7771260D02*
X-787820D01*
G01X-903440Y-7850000D02*
Y-7771260D01*
X-926800D01*
X-934590Y-7775200D01*
X-940440Y-7784380D01*
X-942380Y-7794880D01*
X-940440Y-7805380D01*
X-935570Y-7813260D01*
X-926800Y-7817190D01*
X-903440D01*
G01X-982180Y-7850000D02*
Y-7771260D01*
X-1006520D01*
X-1014310Y-7775200D01*
X-1019180Y-7780450D01*
X-1021120Y-7790950D01*
X-1019180Y-7801440D01*
X-1013330Y-7808000D01*
X-1006520Y-7811940D01*
X-982180D01*
G01X-1006520D02*
X-1021120Y-7850000D01*
G01X-773290Y3065240D02*
Y3008810D01*
X-777180Y2997000D01*
X-784970Y2989120D01*
X-794710Y2986500D01*
X-804450Y2989120D01*
X-812240Y2997000D01*
X-816130Y3008810D01*
Y3065240D01*
G01X-854950Y3052120D02*
X-860790Y3059990D01*
X-867610Y3063930D01*
X-875400Y3065240D01*
X-885130Y3062620D01*
X-891950Y3056050D01*
X-893900Y3048180D01*
X-892920Y3040300D01*
X-889030Y3033740D01*
X-869560Y3020620D01*
X-860790Y3011430D01*
X-854950Y2998310D01*
X-853000Y2986500D01*
X-893900D01*
G01X-930770Y3002250D02*
X-936610Y2993060D01*
X-944400Y2987810D01*
X-953160Y2986500D01*
X-960950Y2987810D01*
X-968740Y2994370D01*
X-973610Y3002250D01*
X-974580Y3010120D01*
X-972640Y3019310D01*
X-965820Y3025870D01*
X-959010Y3028500D01*
X-950240D01*
G01X-959010D02*
X-964850Y3032430D01*
X-969720Y3038990D01*
X-971660Y3046870D01*
X-969720Y3054740D01*
X-964850Y3061300D01*
X-956080Y3065240D01*
X-947320Y3063930D01*
X-938560Y3058680D01*
G01X-654870Y4828740D02*
X-679210Y4750000D01*
X-703550Y4828740D01*
G01X-738480Y4750000D02*
Y4828740D01*
X-762820D01*
X-770610Y4824800D01*
X-775480Y4819550D01*
X-777420Y4809050D01*
X-775480Y4798560D01*
X-769630Y4792000D01*
X-762820Y4788060D01*
X-738480D01*
G01X-762820D02*
X-777420Y4750000D01*
G01X-817220D02*
Y4828740D01*
X-840580D01*
X-848370Y4824800D01*
X-854220Y4815620D01*
X-856160Y4805120D01*
X-854220Y4794620D01*
X-849350Y4786740D01*
X-840580Y4782810D01*
X-817220D01*
G01X-894980Y4760500D02*
X-902770Y4753940D01*
X-911540Y4750000D01*
X-919320D01*
X-927110Y4753940D01*
X-932960Y4760500D01*
X-935880Y4769690D01*
X-933930Y4778870D01*
X-929060Y4786740D01*
X-920300Y4792000D01*
X-908610Y4794620D01*
X-901800Y4799870D01*
X-898880Y4809050D01*
X-900830Y4818240D01*
X-905690Y4824800D01*
X-912510Y4828740D01*
X-919320D01*
X-926140Y4826120D01*
X-931980Y4819550D01*
G01X190260Y-7850000D02*
Y-7771260D01*
X165920D01*
X158130Y-7775200D01*
X153260Y-7780450D01*
X151320Y-7790950D01*
X153260Y-7801440D01*
X159110Y-7808000D01*
X165920Y-7811940D01*
X190260D01*
G01X165920D02*
X151320Y-7850000D01*
G01X72580D02*
X111520D01*
Y-7771260D01*
X72580D01*
G01X88160Y-7809320D02*
X111520D01*
G01X33760Y-7850000D02*
X-7140Y-7771260D01*
G01X33760D02*
X-7140Y-7850000D01*
G01X-65430Y-7771260D02*
Y-7850000D01*
G01X-43040Y-7771260D02*
X-87820D01*
G01X-201490Y-7834250D02*
X-207330Y-7843440D01*
X-215120Y-7848690D01*
X-223880Y-7850000D01*
X-231670Y-7848690D01*
X-239460Y-7842130D01*
X-244330Y-7834250D01*
X-245300Y-7826380D01*
X-243360Y-7817190D01*
X-236540Y-7810630D01*
X-229730Y-7808000D01*
X-220960D01*
G01X-229730D02*
X-235570Y-7804070D01*
X-240440Y-7797510D01*
X-242380Y-7789630D01*
X-240440Y-7781760D01*
X-235570Y-7775200D01*
X-226800Y-7771260D01*
X-218040Y-7772570D01*
X-209280Y-7777820D01*
G01X-313330Y-7850000D02*
Y-7771260D01*
X-277310Y-7827690D01*
X-325990D01*
G01X-205740Y-5415030D02*
Y-5438390D01*
G01Y-5426710D02*
X-127000D01*
G01Y-5415030D02*
Y-5438390D01*
G01Y-5485980D02*
X-205740D01*
Y-5510320D01*
X-201800Y-5518110D01*
X-196550Y-5522980D01*
X-186050Y-5524920D01*
X-175560Y-5522980D01*
X-169000Y-5517130D01*
X-165060Y-5510320D01*
Y-5485980D01*
G01Y-5510320D02*
X-127000Y-5524920D01*
G01Y-5603660D02*
Y-5564720D01*
X-205740D01*
Y-5603660D01*
G01X-167680Y-5588080D02*
Y-5564720D01*
G01X-127000Y-5644430D02*
X-205740D01*
Y-5681430D01*
G01X-167680Y-5667800D02*
Y-5644430D01*
G01X-100750Y-5712460D02*
Y-5770880D01*
G01X-205740Y-5808730D02*
Y-5832090D01*
G01Y-5820410D02*
X-127000D01*
G01Y-5808730D02*
Y-5832090D01*
G01X-169000Y-5906940D02*
X-172930Y-5910830D01*
X-179490Y-5913750D01*
X-188680Y-5915700D01*
X-196550Y-5913750D01*
X-201800Y-5909860D01*
X-205740Y-5903040D01*
Y-5876760D01*
X-127000D01*
Y-5908890D01*
X-132250Y-5915700D01*
X-140120Y-5919600D01*
X-149310Y-5921540D01*
X-158490Y-5919600D01*
X-166370Y-5913750D01*
X-169000Y-5906940D01*
Y-5876760D01*
G01X-127000Y-5957440D02*
X-205740Y-5998340D01*
G01Y-5957440D02*
X-127000Y-5998340D01*
G01X-100750Y-6027420D02*
Y-6085840D01*
G01X-142750Y-6113950D02*
X-133560Y-6119790D01*
X-128310Y-6127580D01*
X-127000Y-6136340D01*
X-128310Y-6144130D01*
X-134870Y-6151920D01*
X-142750Y-6156790D01*
X-150620Y-6157760D01*
X-159810Y-6155820D01*
X-166370Y-6149000D01*
X-169000Y-6142190D01*
Y-6133420D01*
G01Y-6142190D02*
X-172930Y-6148030D01*
X-179490Y-6152900D01*
X-187370Y-6154840D01*
X-195240Y-6152900D01*
X-201800Y-6148030D01*
X-205740Y-6139260D01*
X-204430Y-6130500D01*
X-199180Y-6121740D01*
G01X-127000Y-6225790D02*
X-205740D01*
X-149310Y-6189770D01*
Y-6238450D01*
G01X-54820Y-1835320D02*
X-50880Y-1841160D01*
X-48260Y-1847980D01*
Y-1855770D01*
X-52200Y-1864530D01*
X-58760Y-1871340D01*
X-66630Y-1876210D01*
X-79760Y-1880110D01*
X-91570Y-1881080D01*
X-103380Y-1879130D01*
X-111250Y-1876210D01*
X-119130Y-1870370D01*
X-124380Y-1863560D01*
X-127000Y-1856740D01*
Y-1849920D01*
X-124380Y-1843110D01*
X-120440Y-1837270D01*
X-115190Y-1832400D01*
G01Y-1799420D02*
X-121750Y-1793580D01*
X-125690Y-1786760D01*
X-127000Y-1778000D01*
X-124380Y-1769240D01*
X-119130Y-1762420D01*
X-109940Y-1757550D01*
X-99440Y-1756580D01*
X-88940Y-1758530D01*
X-82380Y-1763400D01*
X-77130Y-1770210D01*
X-75820Y-1777030D01*
X-77130Y-1783840D01*
X-82380Y-1792600D01*
X-48260Y-1789680D01*
Y-1763400D01*
G01X-111250Y-1720680D02*
X-120440Y-1714840D01*
X-125690Y-1707050D01*
X-127000Y-1698290D01*
X-125690Y-1690500D01*
X-119130Y-1682710D01*
X-111250Y-1677840D01*
X-103380Y-1676870D01*
X-94190Y-1678810D01*
X-87630Y-1685630D01*
X-85000Y-1692440D01*
Y-1701210D01*
G01Y-1692440D02*
X-81070Y-1686600D01*
X-74510Y-1681730D01*
X-66630Y-1679790D01*
X-58760Y-1681730D01*
X-52200Y-1686600D01*
X-48260Y-1695370D01*
X-49570Y-1704130D01*
X-54820Y-1712890D01*
G01X-72180Y3422820D02*
X-76120Y3428660D01*
X-78740Y3435480D01*
Y3443270D01*
X-74800Y3452030D01*
X-68240Y3458840D01*
X-60370Y3463710D01*
X-47240Y3467610D01*
X-35430Y3468580D01*
X-23620Y3466630D01*
X-15750Y3463710D01*
X-7870Y3457870D01*
X-2620Y3451060D01*
X0Y3444240D01*
Y3437420D01*
X-2620Y3430610D01*
X-6560Y3424770D01*
X-11810Y3419900D01*
G01X0Y3353820D02*
X-78740D01*
X-22310Y3389840D01*
Y3341160D01*
G01X-32810Y3305260D02*
X-42000Y3298440D01*
X-47240Y3292600D01*
X-49870Y3284810D01*
X-47240Y3278000D01*
X-42000Y3273130D01*
X-34120Y3269230D01*
X-24930Y3268260D01*
X-17060Y3269230D01*
X-9180Y3273130D01*
X-2620Y3278970D01*
X0Y3285790D01*
X-2620Y3293580D01*
X-10500Y3300390D01*
X-22310Y3304290D01*
X-35430Y3305260D01*
X-52490Y3303310D01*
X-61680Y3300390D01*
X-70870Y3295520D01*
X-77430Y3288710D01*
X-78740Y3281890D01*
X-76120Y3275080D01*
X-69550Y3270210D01*
G01X-15240Y172970D02*
Y149610D01*
G01Y161290D02*
X63500D01*
G01Y172970D02*
Y149610D01*
G01Y102020D02*
X-15240D01*
Y77680D01*
X-11300Y69890D01*
X-6050Y65020D01*
X4450Y63080D01*
X14940Y65020D01*
X21500Y70870D01*
X25440Y77680D01*
Y102020D01*
G01Y77680D02*
X63500Y63080D01*
G01Y-15660D02*
Y23280D01*
X-15240D01*
Y-15660D01*
G01X22820Y-80D02*
Y23280D01*
G01X63500Y-56430D02*
X-15240D01*
Y-93430D01*
G01X22820Y-79800D02*
Y-56430D01*
G01X89750Y-124460D02*
Y-182880D01*
G01X-15240Y-220730D02*
Y-244090D01*
G01Y-232410D02*
X63500D01*
G01Y-220730D02*
Y-244090D01*
G01X21500Y-318940D02*
X17570Y-322830D01*
X11010Y-325750D01*
X1820Y-327700D01*
X-6050Y-325750D01*
X-11300Y-321860D01*
X-15240Y-315040D01*
Y-288760D01*
X63500D01*
Y-320890D01*
X58250Y-327700D01*
X50380Y-331600D01*
X41190Y-333540D01*
X32010Y-331600D01*
X24130Y-325750D01*
X21500Y-318940D01*
Y-288760D01*
G01X63500Y-369440D02*
X-15240Y-410340D01*
G01Y-369440D02*
X63500Y-410340D01*
G01X89750Y-439420D02*
Y-497840D01*
G01X63500Y-525950D02*
X-15240D01*
Y-545420D01*
X-11300Y-553210D01*
X-6050Y-559050D01*
X1820Y-563920D01*
X11010Y-567820D01*
X24130Y-568790D01*
X37250Y-567820D01*
X46440Y-563920D01*
X54320Y-559050D01*
X59560Y-553210D01*
X63500Y-545420D01*
Y-525950D01*
G01X323680Y-2421680D02*
X317840Y-2425620D01*
X311020Y-2428240D01*
X303230D01*
X294470Y-2424300D01*
X287660Y-2417740D01*
X282790Y-2409870D01*
X278890Y-2396740D01*
X277920Y-2384930D01*
X279870Y-2373120D01*
X282790Y-2365250D01*
X288630Y-2357370D01*
X295440Y-2352120D01*
X302260Y-2349500D01*
X309080D01*
X315890Y-2352120D01*
X321730Y-2356060D01*
X326600Y-2361310D01*
G01X359580D02*
X365420Y-2354750D01*
X372240Y-2350810D01*
X381000Y-2349500D01*
X389760Y-2352120D01*
X396580Y-2357370D01*
X401450Y-2366560D01*
X402420Y-2377060D01*
X400470Y-2387560D01*
X395600Y-2394120D01*
X388790Y-2399370D01*
X381970Y-2400680D01*
X375160Y-2399370D01*
X366400Y-2394120D01*
X369320Y-2428240D01*
X395600D01*
G01X441240Y-2415120D02*
X447080Y-2422990D01*
X453900Y-2426930D01*
X461690Y-2428240D01*
X471420Y-2425620D01*
X478240Y-2419050D01*
X480190Y-2411180D01*
X479210Y-2403300D01*
X475320Y-2396740D01*
X455850Y-2383620D01*
X447080Y-2374430D01*
X441240Y-2361310D01*
X439290Y-2349500D01*
X480190D01*
G01X238760Y3982970D02*
Y3959610D01*
G01Y3971290D02*
X317500D01*
G01Y3982970D02*
Y3959610D01*
G01Y3912020D02*
X238760D01*
Y3887680D01*
X242700Y3879890D01*
X247950Y3875020D01*
X258450Y3873080D01*
X268940Y3875020D01*
X275500Y3880870D01*
X279440Y3887680D01*
Y3912020D01*
G01Y3887680D02*
X317500Y3873080D01*
G01Y3794340D02*
Y3833280D01*
X238760D01*
Y3794340D01*
G01X276820Y3809920D02*
Y3833280D01*
G01X317500Y3753570D02*
X238760D01*
Y3716570D01*
G01X276820Y3730200D02*
Y3753570D01*
G01X343750Y3685540D02*
Y3627120D01*
G01X238760Y3589270D02*
Y3565910D01*
G01Y3577590D02*
X317500D01*
G01Y3589270D02*
Y3565910D01*
G01X275500Y3491060D02*
X271570Y3487170D01*
X265010Y3484250D01*
X255820Y3482300D01*
X247950Y3484250D01*
X242700Y3488140D01*
X238760Y3494960D01*
Y3521240D01*
X317500D01*
Y3489110D01*
X312250Y3482300D01*
X304380Y3478400D01*
X295190Y3476460D01*
X286010Y3478400D01*
X278130Y3484250D01*
X275500Y3491060D01*
Y3521240D01*
G01X317500Y3440560D02*
X238760Y3399660D01*
G01Y3440560D02*
X317500Y3399660D01*
G01X343750Y3370580D02*
Y3312160D01*
G01X317500Y3264580D02*
X300440Y3262630D01*
X286010Y3259710D01*
X272880Y3255810D01*
X258450Y3250950D01*
X238760Y3243160D01*
Y3282100D01*
G01X317500Y3183890D02*
X316190Y3177070D01*
X312250Y3169290D01*
X305690Y3164420D01*
X296500Y3162470D01*
X287320Y3164420D01*
X279440Y3170260D01*
X275500Y3179020D01*
Y3188760D01*
X272880Y3194600D01*
X266320Y3199470D01*
X257130Y3201420D01*
X247950Y3198490D01*
X241380Y3191680D01*
X238760Y3183890D01*
X241380Y3176100D01*
X247950Y3169290D01*
X257130Y3166360D01*
X266320Y3168310D01*
X272880Y3173180D01*
X275500Y3179020D01*
Y3188760D01*
X279440Y3197520D01*
X287320Y3203360D01*
X296500Y3205310D01*
X305690Y3203360D01*
X312250Y3198490D01*
X316190Y3190710D01*
X317500Y3183890D01*
G01X452290Y-1729740D02*
Y-1673310D01*
X456180Y-1661500D01*
X463970Y-1653620D01*
X473710Y-1651000D01*
X483450Y-1653620D01*
X491240Y-1661500D01*
X495130Y-1673310D01*
Y-1729740D01*
G01X533950Y-1716620D02*
X539790Y-1724490D01*
X546610Y-1728430D01*
X554400Y-1729740D01*
X564130Y-1727120D01*
X570950Y-1720550D01*
X572900Y-1712680D01*
X571920Y-1704800D01*
X568030Y-1698240D01*
X548560Y-1685120D01*
X539790Y-1675930D01*
X533950Y-1662810D01*
X532000Y-1651000D01*
X572900D01*
G01X609770Y-1662810D02*
X615610Y-1656250D01*
X622430Y-1652310D01*
X631190Y-1651000D01*
X639950Y-1653620D01*
X646770Y-1658870D01*
X651640Y-1668060D01*
X652610Y-1678560D01*
X650660Y-1689060D01*
X645790Y-1695620D01*
X638980Y-1700870D01*
X632160Y-1702180D01*
X625350Y-1700870D01*
X616590Y-1695620D01*
X619510Y-1729740D01*
X645790D01*
G01X1040260Y-350000D02*
Y-271260D01*
X1015920D01*
X1008130Y-275200D01*
X1003260Y-280450D01*
X1001320Y-290950D01*
X1003260Y-301440D01*
X1009110Y-308000D01*
X1015920Y-311940D01*
X1040260D01*
G01X1015920D02*
X1001320Y-350000D01*
G01X922580D02*
X961520D01*
Y-271260D01*
X922580D01*
G01X938160Y-309320D02*
X961520D01*
G01X883760Y-350000D02*
X842860Y-271260D01*
G01X883760D02*
X842860Y-350000D01*
G01X784570Y-271260D02*
Y-350000D01*
G01X806960Y-271260D02*
X762180D01*
G01X627090Y-350000D02*
Y-271260D01*
X638770Y-287010D01*
G01Y-350000D02*
X615410D01*
G01X566850Y-284380D02*
X561010Y-276510D01*
X554190Y-272570D01*
X546400Y-271260D01*
X536670Y-273880D01*
X529850Y-280450D01*
X527900Y-288320D01*
X528880Y-296200D01*
X532770Y-302760D01*
X552240Y-315880D01*
X561010Y-325070D01*
X566850Y-338190D01*
X568800Y-350000D01*
X527900D01*
G01X1000760Y3665470D02*
Y3642110D01*
G01Y3653790D02*
X1079500D01*
G01Y3665470D02*
Y3642110D01*
G01Y3594520D02*
X1000760D01*
Y3570180D01*
X1004700Y3562390D01*
X1009950Y3557520D01*
X1020450Y3555580D01*
X1030940Y3557520D01*
X1037500Y3563370D01*
X1041440Y3570180D01*
Y3594520D01*
G01Y3570180D02*
X1079500Y3555580D01*
G01Y3476840D02*
Y3515780D01*
X1000760D01*
Y3476840D01*
G01X1038820Y3492420D02*
Y3515780D01*
G01X1079500Y3436070D02*
X1000760D01*
Y3399070D01*
G01X1038820Y3412700D02*
Y3436070D01*
G01X1105750Y3368040D02*
Y3309620D01*
G01X1000760Y3271770D02*
Y3248410D01*
G01Y3260090D02*
X1079500D01*
G01Y3271770D02*
Y3248410D01*
G01X1037500Y3173560D02*
X1033570Y3169670D01*
X1027010Y3166750D01*
X1017820Y3164800D01*
X1009950Y3166750D01*
X1004700Y3170640D01*
X1000760Y3177460D01*
Y3203740D01*
X1079500D01*
Y3171610D01*
X1074250Y3164800D01*
X1066380Y3160900D01*
X1057190Y3158960D01*
X1048010Y3160900D01*
X1040130Y3166750D01*
X1037500Y3173560D01*
Y3203740D01*
G01X1079500Y3123060D02*
X1000760Y3082160D01*
G01Y3123060D02*
X1079500Y3082160D01*
G01X1105750Y3053080D02*
Y2994660D01*
G01X1079500Y2945130D02*
X1000760D01*
X1016510Y2956810D01*
G01X1079500D02*
Y2933450D01*
G01X1013880Y2884890D02*
X1006010Y2879050D01*
X1002070Y2872230D01*
X1000760Y2864440D01*
X1003380Y2854710D01*
X1009950Y2847890D01*
X1017820Y2845940D01*
X1025700Y2846920D01*
X1032260Y2850810D01*
X1045380Y2870280D01*
X1054570Y2879050D01*
X1067690Y2884890D01*
X1079500Y2886840D01*
Y2845940D01*
G01X1215180Y-4629320D02*
X1219120Y-4635160D01*
X1221740Y-4641980D01*
Y-4649770D01*
X1217800Y-4658530D01*
X1211240Y-4665340D01*
X1203370Y-4670210D01*
X1190240Y-4674110D01*
X1178430Y-4675080D01*
X1166620Y-4673130D01*
X1158750Y-4670210D01*
X1150870Y-4664370D01*
X1145620Y-4657560D01*
X1143000Y-4650740D01*
Y-4643920D01*
X1145620Y-4637110D01*
X1149560Y-4631270D01*
X1154810Y-4626400D01*
G01Y-4593420D02*
X1148250Y-4587580D01*
X1144310Y-4580760D01*
X1143000Y-4572000D01*
X1145620Y-4563240D01*
X1150870Y-4556420D01*
X1160060Y-4551550D01*
X1170560Y-4550580D01*
X1181060Y-4552530D01*
X1187620Y-4557400D01*
X1192870Y-4564210D01*
X1194180Y-4571030D01*
X1192870Y-4577840D01*
X1187620Y-4586600D01*
X1221740Y-4583680D01*
Y-4557400D01*
G01X1154810Y-4514680D02*
X1148250Y-4508840D01*
X1144310Y-4502020D01*
X1143000Y-4493260D01*
X1145620Y-4484500D01*
X1150870Y-4477680D01*
X1160060Y-4472810D01*
X1170560Y-4471840D01*
X1181060Y-4473790D01*
X1187620Y-4478660D01*
X1192870Y-4485470D01*
X1194180Y-4492290D01*
X1192870Y-4499100D01*
X1187620Y-4507860D01*
X1221740Y-4504940D01*
Y-4478660D01*
G01X1840260Y-350000D02*
Y-271260D01*
X1815920D01*
X1808130Y-275200D01*
X1803260Y-280450D01*
X1801320Y-290950D01*
X1803260Y-301440D01*
X1809110Y-308000D01*
X1815920Y-311940D01*
X1840260D01*
G01X1815920D02*
X1801320Y-350000D01*
G01X1722580D02*
X1761520D01*
Y-271260D01*
X1722580D01*
G01X1738160Y-309320D02*
X1761520D01*
G01X1683760Y-350000D02*
X1642860Y-271260D01*
G01X1683760D02*
X1642860Y-350000D01*
G01X1584570Y-271260D02*
Y-350000D01*
G01X1606960Y-271260D02*
X1562180D01*
G01X1448510Y-338190D02*
X1442670Y-344750D01*
X1435850Y-348690D01*
X1427090Y-350000D01*
X1418330Y-347380D01*
X1411510Y-342130D01*
X1406640Y-332940D01*
X1405670Y-322440D01*
X1407620Y-311940D01*
X1412490Y-305380D01*
X1419300Y-300130D01*
X1426120Y-298820D01*
X1432930Y-300130D01*
X1441690Y-305380D01*
X1438770Y-271260D01*
X1412490D01*
G01X1366850Y-317190D02*
X1360030Y-308000D01*
X1354190Y-302760D01*
X1346400Y-300130D01*
X1339590Y-302760D01*
X1334720Y-308000D01*
X1330820Y-315880D01*
X1329850Y-325070D01*
X1330820Y-332940D01*
X1334720Y-340820D01*
X1340560Y-347380D01*
X1347380Y-350000D01*
X1355170Y-347380D01*
X1361980Y-339500D01*
X1365880Y-327690D01*
X1366850Y-314570D01*
X1364900Y-297510D01*
X1361980Y-288320D01*
X1357110Y-279130D01*
X1350300Y-272570D01*
X1343480Y-271260D01*
X1336670Y-273880D01*
X1331800Y-280450D01*
G01X1840260Y1300000D02*
Y1378740D01*
X1815920D01*
X1808130Y1374800D01*
X1803260Y1369550D01*
X1801320Y1359050D01*
X1803260Y1348560D01*
X1809110Y1342000D01*
X1815920Y1338060D01*
X1840260D01*
G01X1815920D02*
X1801320Y1300000D01*
G01X1722580D02*
X1761520D01*
Y1378740D01*
X1722580D01*
G01X1738160Y1340680D02*
X1761520D01*
G01X1683760Y1300000D02*
X1642860Y1378740D01*
G01X1683760D02*
X1642860Y1300000D01*
G01X1584570Y1378740D02*
Y1300000D01*
G01X1606960Y1378740D02*
X1562180D01*
G01X1448510Y1300000D02*
Y1378740D01*
X1429040D01*
X1421250Y1374800D01*
X1415410Y1369550D01*
X1410540Y1361680D01*
X1406640Y1352490D01*
X1405670Y1339370D01*
X1406640Y1326250D01*
X1410540Y1317060D01*
X1415410Y1309180D01*
X1421250Y1303940D01*
X1429040Y1300000D01*
X1448510D01*
G01X1593680Y-5215680D02*
X1587840Y-5219620D01*
X1581020Y-5222240D01*
X1573230D01*
X1564470Y-5218300D01*
X1557660Y-5211740D01*
X1552790Y-5203870D01*
X1548890Y-5190740D01*
X1547920Y-5178930D01*
X1549870Y-5167120D01*
X1552790Y-5159250D01*
X1558630Y-5151370D01*
X1565440Y-5146120D01*
X1572260Y-5143500D01*
X1579080D01*
X1585890Y-5146120D01*
X1591730Y-5150060D01*
X1596600Y-5155310D01*
G01X1629580D02*
X1635420Y-5148750D01*
X1642240Y-5144810D01*
X1651000Y-5143500D01*
X1659760Y-5146120D01*
X1666580Y-5151370D01*
X1671450Y-5160560D01*
X1672420Y-5171060D01*
X1670470Y-5181560D01*
X1665600Y-5188120D01*
X1658790Y-5193370D01*
X1651970Y-5194680D01*
X1645160Y-5193370D01*
X1636400Y-5188120D01*
X1639320Y-5222240D01*
X1665600D01*
G01X1741420Y-5143500D02*
Y-5222240D01*
X1705400Y-5165810D01*
X1754080D01*
G01X1658790Y-4523740D02*
Y-4467310D01*
X1662680Y-4455500D01*
X1670470Y-4447620D01*
X1680210Y-4445000D01*
X1689950Y-4447620D01*
X1697740Y-4455500D01*
X1701630Y-4467310D01*
Y-4523740D01*
G01X1740450Y-4510620D02*
X1746290Y-4518490D01*
X1753110Y-4522430D01*
X1760900Y-4523740D01*
X1770630Y-4521120D01*
X1777450Y-4514550D01*
X1779400Y-4506680D01*
X1778420Y-4498800D01*
X1774530Y-4492240D01*
X1755060Y-4479120D01*
X1746290Y-4469930D01*
X1740450Y-4456810D01*
X1738500Y-4445000D01*
X1779400D01*
G01X1819190Y-4477810D02*
X1826010Y-4487000D01*
X1831850Y-4492240D01*
X1839640Y-4494870D01*
X1846450Y-4492240D01*
X1851320Y-4487000D01*
X1855220Y-4479120D01*
X1856190Y-4469930D01*
X1855220Y-4462060D01*
X1851320Y-4454180D01*
X1845480Y-4447620D01*
X1838660Y-4445000D01*
X1830870Y-4447620D01*
X1824060Y-4455500D01*
X1820160Y-4467310D01*
X1819190Y-4480430D01*
X1821140Y-4497490D01*
X1824060Y-4506680D01*
X1828930Y-4515870D01*
X1835740Y-4522430D01*
X1842560Y-4523740D01*
X1849370Y-4521120D01*
X1854240Y-4514550D01*
G01X1635760Y-3065530D02*
Y-3088890D01*
G01Y-3077210D02*
X1714500D01*
G01Y-3065530D02*
Y-3088890D01*
G01X1672500Y-3163740D02*
X1668570Y-3167630D01*
X1662010Y-3170550D01*
X1652820Y-3172500D01*
X1644950Y-3170550D01*
X1639700Y-3166660D01*
X1635760Y-3159840D01*
Y-3133560D01*
X1714500D01*
Y-3165690D01*
X1709250Y-3172500D01*
X1701380Y-3176400D01*
X1692190Y-3178340D01*
X1683010Y-3176400D01*
X1675130Y-3170550D01*
X1672500Y-3163740D01*
Y-3133560D01*
G01X1714500Y-3214240D02*
X1635760Y-3255140D01*
G01Y-3214240D02*
X1714500Y-3255140D01*
G01X1740750Y-3284220D02*
Y-3342640D01*
G01X1714500Y-3372700D02*
X1635760D01*
Y-3396060D01*
X1639700Y-3403850D01*
X1648880Y-3409700D01*
X1659380Y-3411640D01*
X1669880Y-3409700D01*
X1677760Y-3404830D01*
X1681690Y-3396060D01*
Y-3372700D01*
G01X1714500Y-3451440D02*
X1635760D01*
Y-3475780D01*
X1639700Y-3483570D01*
X1644950Y-3488440D01*
X1655450Y-3490380D01*
X1665940Y-3488440D01*
X1672500Y-3482590D01*
X1676440Y-3475780D01*
Y-3451440D01*
G01Y-3475780D02*
X1714500Y-3490380D01*
G01X-16600000Y11690000D02*
Y-16250000D01*
G01D02*
X26580000D01*
Y11690000D01*
X-16600000D01*
G01X25310000Y7880000D02*
Y-15488000D01*
X-15330000D01*
G01Y10928000D02*
Y-15488000D01*
G01Y10928000D02*
X-15076000D01*
G01D02*
X25310000D01*
G01X-11200000Y-8015000D02*
Y5100000D01*
X3800000D01*
Y-8015000D01*
X-11200000D01*
G01X12610000Y8642000D02*
Y7880000D01*
G01Y10928000D02*
Y8642000D01*
G01Y9404000D02*
X25310000D01*
G01X12610000Y10166000D02*
X25310000D01*
G01X12768750Y9658000D02*
Y9912000D01*
X12848120D01*
X12873520Y9899290D01*
X12889400Y9882370D01*
X12895750Y9848500D01*
X12889400Y9814630D01*
X12870350Y9793470D01*
X12848120Y9780760D01*
X12768750D01*
G01X12848120D02*
X12895750Y9658000D01*
G01X13149750D02*
X13022750D01*
Y9912000D01*
X13149750D01*
G01X13098950Y9789240D02*
X13022750D01*
G01X13260870Y9912000D02*
X13340250Y9658000D01*
X13419630Y9912000D01*
G01X13626000Y8642000D02*
Y7880000D01*
G01Y8642000D02*
Y10166000D01*
G01X14642000Y-10916000D02*
Y-15488000D01*
G01X20992000Y-14726000D02*
X14642000D01*
G01X25310000Y-13710000D02*
X14642000D01*
G01X25310000Y-12186000D02*
X14642000D01*
G01Y-10916000D02*
X25300230D01*
X25310000Y-10906230D01*
G01X14797570Y-15073140D02*
X14822980Y-15094300D01*
X14851550Y-15107000D01*
X14876950D01*
X14902350Y-15094300D01*
X14921400Y-15073140D01*
X14930930Y-15043500D01*
X14924580Y-15013870D01*
X14908700Y-14988470D01*
X14880120Y-14971530D01*
X14842030Y-14963070D01*
X14819800Y-14946140D01*
X14810270Y-14916500D01*
X14816630Y-14886870D01*
X14832500Y-14865710D01*
X14854720Y-14853000D01*
X14876950D01*
X14899180Y-14861460D01*
X14918230Y-14882630D01*
G01X15188100Y-14874170D02*
X15169050Y-14861460D01*
X15146830Y-14853000D01*
X15121430D01*
X15092850Y-14865710D01*
X15070630Y-14886870D01*
X15054750Y-14912270D01*
X15042050Y-14954600D01*
X15038870Y-14992700D01*
X15045230Y-15030800D01*
X15054750Y-15056200D01*
X15073800Y-15081610D01*
X15096030Y-15098540D01*
X15118250Y-15107000D01*
X15140470D01*
X15162700Y-15098540D01*
X15181750Y-15085840D01*
X15197630Y-15068910D01*
G01X15292870Y-15107000D02*
X15372250Y-14853000D01*
X15451630Y-15107000D01*
G01X15423050Y-15018100D02*
X15321450D01*
G01X15562750Y-14853000D02*
Y-15107000D01*
X15689750D01*
G01X15943750D02*
X15816750D01*
Y-14853000D01*
X15943750D01*
G01X15892950Y-14975760D02*
X15816750D01*
G01X14797570Y-14057140D02*
X14822980Y-14078300D01*
X14851550Y-14091000D01*
X14876950D01*
X14902350Y-14078300D01*
X14921400Y-14057140D01*
X14930930Y-14027500D01*
X14924580Y-13997870D01*
X14908700Y-13972470D01*
X14880120Y-13955530D01*
X14842030Y-13947070D01*
X14819800Y-13930140D01*
X14810270Y-13900500D01*
X14816630Y-13870870D01*
X14832500Y-13849710D01*
X14854720Y-13837000D01*
X14876950D01*
X14899180Y-13845460D01*
X14918230Y-13866630D01*
G01X15080150Y-13837000D02*
X15156340D01*
G01X15118250D02*
Y-14091000D01*
G01X15080150D02*
X15156340D01*
G01X15311920Y-13837000D02*
X15432580D01*
X15311920Y-14091000D01*
X15432580D01*
G01X15689750D02*
X15562750D01*
Y-13837000D01*
X15689750D01*
G01X15638950Y-13959760D02*
X15562750D01*
G01X15429400Y9658000D02*
Y9912000D01*
X15492900D01*
X15518300Y9899290D01*
X15537350Y9882370D01*
X15553230Y9856970D01*
X15565930Y9827330D01*
X15569100Y9785000D01*
X15565930Y9742660D01*
X15553230Y9713030D01*
X15537350Y9687630D01*
X15518300Y9670700D01*
X15492900Y9658000D01*
X15429400D01*
G01X15816750D02*
X15689750D01*
Y9912000D01*
X15816750D01*
G01X15765950Y9789240D02*
X15689750D01*
G01X15940570Y9691860D02*
X15965980Y9670700D01*
X15994550Y9658000D01*
X16019950D01*
X16045350Y9670700D01*
X16064400Y9691860D01*
X16073930Y9721500D01*
X16067580Y9751130D01*
X16051700Y9776530D01*
X16023120Y9793470D01*
X15985030Y9801930D01*
X15962800Y9818860D01*
X15953270Y9848500D01*
X15959630Y9878130D01*
X15975500Y9899290D01*
X15997720Y9912000D01*
X16019950D01*
X16042180Y9903540D01*
X16061230Y9882370D01*
G01X16331100Y9890830D02*
X16312050Y9903540D01*
X16289830Y9912000D01*
X16264430D01*
X16235850Y9899290D01*
X16213630Y9878130D01*
X16197750Y9852730D01*
X16185050Y9810400D01*
X16181870Y9772300D01*
X16188230Y9734200D01*
X16197750Y9708800D01*
X16216800Y9683390D01*
X16239030Y9666460D01*
X16261250Y9658000D01*
X16283470D01*
X16305700Y9666460D01*
X16324750Y9679160D01*
X16340630Y9696090D01*
G01X16451750Y9658000D02*
Y9912000D01*
X16531120D01*
X16556520Y9899290D01*
X16572400Y9882370D01*
X16578750Y9848500D01*
X16572400Y9814630D01*
X16553350Y9793470D01*
X16531120Y9780760D01*
X16451750D01*
G01X16531120D02*
X16578750Y9658000D01*
G01X16731150Y9912000D02*
X16807340D01*
G01X16769250D02*
Y9658000D01*
G01X16731150D02*
X16807340D01*
G01X16959750D02*
Y9912000D01*
X17035950D01*
X17061350Y9899290D01*
X17080400Y9869670D01*
X17086750Y9835800D01*
X17080400Y9801930D01*
X17064520Y9776530D01*
X17035950Y9763830D01*
X16959750D01*
G01X17277250Y9912000D02*
Y9658000D01*
G01X17204230Y9912000D02*
X17350270D01*
G01X17493150D02*
X17569340D01*
G01X17531250D02*
Y9658000D01*
G01X17493150D02*
X17569340D01*
G01X17785250D02*
X17759850Y9662230D01*
X17737630Y9679160D01*
X17718570Y9704560D01*
X17705870Y9734200D01*
X17699520Y9768070D01*
Y9801930D01*
X17705870Y9835800D01*
X17718570Y9865440D01*
X17737630Y9890830D01*
X17759850Y9907770D01*
X17785250Y9912000D01*
X17810650Y9907770D01*
X17832870Y9890830D01*
X17851930Y9865440D01*
X17864630Y9835800D01*
X17870980Y9801930D01*
Y9768070D01*
X17864630Y9734200D01*
X17851930Y9704560D01*
X17832870Y9679160D01*
X17810650Y9662230D01*
X17785250Y9658000D01*
G01X17966230D02*
Y9912000D01*
X18112270Y9658000D01*
Y9912000D01*
G01X15912000Y-14726000D02*
Y-13710000D01*
G01X16200920Y-14091000D02*
Y-13837000D01*
X16321580D01*
G01X16277120Y-13959760D02*
X16200920D01*
G01X16448570Y-14057140D02*
X16473980Y-14078300D01*
X16502550Y-14091000D01*
X16527950D01*
X16553350Y-14078300D01*
X16572400Y-14057140D01*
X16581930Y-14027500D01*
X16575580Y-13997870D01*
X16559700Y-13972470D01*
X16531120Y-13955530D01*
X16493030Y-13947070D01*
X16470800Y-13930140D01*
X16461270Y-13900500D01*
X16467630Y-13870870D01*
X16483500Y-13849710D01*
X16505720Y-13837000D01*
X16527950D01*
X16550180Y-13845460D01*
X16569230Y-13866630D01*
G01X16839100Y-13858170D02*
X16820050Y-13845460D01*
X16797830Y-13837000D01*
X16772430D01*
X16743850Y-13849710D01*
X16721630Y-13870870D01*
X16705750Y-13896270D01*
X16693050Y-13938600D01*
X16689870Y-13976700D01*
X16696230Y-14014800D01*
X16705750Y-14040200D01*
X16724800Y-14065610D01*
X16747030Y-14082540D01*
X16769250Y-14091000D01*
X16791470D01*
X16813700Y-14082540D01*
X16832750Y-14069840D01*
X16848630Y-14052910D01*
G01X16940700Y-14091000D02*
Y-13837000D01*
X17023250Y-14048670D01*
X17105800Y-13837000D01*
Y-14091000D01*
G01X17458230D02*
Y-13837000D01*
X17604270Y-14091000D01*
Y-13837000D01*
G01X17785250Y-14091000D02*
X17759850Y-14086770D01*
X17737630Y-14069840D01*
X17718570Y-14044440D01*
X17705870Y-14014800D01*
X17699520Y-13980930D01*
Y-13947070D01*
X17705870Y-13913200D01*
X17718570Y-13883560D01*
X17737630Y-13858170D01*
X17759850Y-13841230D01*
X17785250Y-13837000D01*
X17810650Y-13841230D01*
X17832870Y-13858170D01*
X17851930Y-13883560D01*
X17864630Y-13913200D01*
X17870980Y-13947070D01*
Y-13980930D01*
X17864630Y-14014800D01*
X17851930Y-14044440D01*
X17832870Y-14069840D01*
X17810650Y-14086770D01*
X17785250Y-14091000D01*
G01X16928000Y-14726000D02*
Y-15488000D01*
G01X17022230Y-11650000D02*
Y-11396000D01*
X17168270Y-11650000D01*
Y-11396000D01*
G01X17349250Y-11650000D02*
Y-11535700D01*
X17285750Y-11396000D01*
G01X17412750D02*
X17349250Y-11535700D01*
G01X17533400Y-11396000D02*
Y-11578030D01*
X17546100Y-11616140D01*
X17571500Y-11641540D01*
X17603250Y-11650000D01*
X17635000Y-11641540D01*
X17660400Y-11616140D01*
X17673100Y-11578030D01*
Y-11396000D01*
G01X18038230Y-11650000D02*
Y-11396000D01*
X18184270Y-11650000D01*
Y-11396000D01*
G01X18285870Y-11650000D02*
X18365250Y-11396000D01*
X18444630Y-11650000D01*
G01X18416050Y-11561100D02*
X18314450D01*
G01X18546230Y-11650000D02*
Y-11396000D01*
X18692270Y-11650000D01*
Y-11396000D01*
G01X18873250Y-11650000D02*
X18847850Y-11645770D01*
X18825630Y-11628840D01*
X18806570Y-11603440D01*
X18793870Y-11573800D01*
X18787520Y-11539930D01*
Y-11506070D01*
X18793870Y-11472200D01*
X18806570Y-11442560D01*
X18825630Y-11417170D01*
X18847850Y-11400230D01*
X18873250Y-11396000D01*
X18898650Y-11400230D01*
X18920870Y-11417170D01*
X18939930Y-11442560D01*
X18952630Y-11472200D01*
X18958980Y-11506070D01*
Y-11539930D01*
X18952630Y-11573800D01*
X18939930Y-11603440D01*
X18920870Y-11628840D01*
X18898650Y-11645770D01*
X18873250Y-11650000D01*
G01X19444750D02*
X19317750D01*
Y-11396000D01*
X19444750D01*
G01X19393950Y-11518760D02*
X19317750D01*
G01X19571750Y-11396000D02*
Y-11650000D01*
X19698750D01*
G01X19952750D02*
X19825750D01*
Y-11396000D01*
X19952750D01*
G01X19901950Y-11518760D02*
X19825750D01*
G01X20213100Y-11417170D02*
X20194050Y-11404460D01*
X20171830Y-11396000D01*
X20146430D01*
X20117850Y-11408710D01*
X20095630Y-11429870D01*
X20079750Y-11455270D01*
X20067050Y-11497600D01*
X20063870Y-11535700D01*
X20070230Y-11573800D01*
X20079750Y-11599200D01*
X20098800Y-11624610D01*
X20121030Y-11641540D01*
X20143250Y-11650000D01*
X20165470D01*
X20187700Y-11641540D01*
X20206750Y-11628840D01*
X20222630Y-11611910D01*
G01X20397250Y-11396000D02*
Y-11650000D01*
G01X20324230Y-11396000D02*
X20470270D01*
G01X20587750Y-11650000D02*
Y-11396000D01*
X20667120D01*
X20692520Y-11408710D01*
X20708400Y-11425630D01*
X20714750Y-11459500D01*
X20708400Y-11493370D01*
X20689350Y-11514530D01*
X20667120Y-11527240D01*
X20587750D01*
G01X20667120D02*
X20714750Y-11650000D01*
G01X20905250D02*
X20879850Y-11645770D01*
X20857630Y-11628840D01*
X20838570Y-11603440D01*
X20825870Y-11573800D01*
X20819520Y-11539930D01*
Y-11506070D01*
X20825870Y-11472200D01*
X20838570Y-11442560D01*
X20857630Y-11417170D01*
X20879850Y-11400230D01*
X20905250Y-11396000D01*
X20930650Y-11400230D01*
X20952870Y-11417170D01*
X20971930Y-11442560D01*
X20984630Y-11472200D01*
X20990980Y-11506070D01*
Y-11539930D01*
X20984630Y-11573800D01*
X20971930Y-11603440D01*
X20952870Y-11628840D01*
X20930650Y-11645770D01*
X20905250Y-11650000D01*
G01X21086230D02*
Y-11396000D01*
X21232270Y-11650000D01*
Y-11396000D01*
G01X21375150D02*
X21451340D01*
G01X21413250D02*
Y-11650000D01*
G01X21375150D02*
X21451340D01*
G01X21737100Y-11417170D02*
X21718050Y-11404460D01*
X21695830Y-11396000D01*
X21670430D01*
X21641850Y-11408710D01*
X21619630Y-11429870D01*
X21603750Y-11455270D01*
X21591050Y-11497600D01*
X21587870Y-11535700D01*
X21594230Y-11573800D01*
X21603750Y-11599200D01*
X21622800Y-11624610D01*
X21645030Y-11641540D01*
X21667250Y-11650000D01*
X21689470D01*
X21711700Y-11641540D01*
X21730750Y-11628840D01*
X21746630Y-11611910D01*
G01X21854570Y-11616140D02*
X21879980Y-11637300D01*
X21908550Y-11650000D01*
X21933950D01*
X21959350Y-11637300D01*
X21978400Y-11616140D01*
X21987930Y-11586500D01*
X21981580Y-11556870D01*
X21965700Y-11531470D01*
X21937120Y-11514530D01*
X21899030Y-11506070D01*
X21876800Y-11489140D01*
X21867270Y-11459500D01*
X21873630Y-11429870D01*
X21889500Y-11408710D01*
X21911720Y-11396000D01*
X21933950D01*
X21956180Y-11404460D01*
X21975230Y-11425630D01*
G01X22365750Y-11396000D02*
Y-11650000D01*
X22492750D01*
G01X22603870D02*
X22683250Y-11396000D01*
X22762630Y-11650000D01*
G01X22734050Y-11561100D02*
X22632450D01*
G01X22962650Y-11514530D02*
X22975350Y-11501830D01*
X22984870Y-11480670D01*
X22991230Y-11451030D01*
X22984870Y-11425630D01*
X22972180Y-11408710D01*
X22949950Y-11396000D01*
X22864230D01*
Y-11650000D01*
X22969000D01*
X22991230Y-11633070D01*
X23003930Y-11607670D01*
X23010270Y-11578030D01*
X23003930Y-11548410D01*
X22984870Y-11523000D01*
X22962650Y-11514530D01*
X22864230D01*
G01X17634920Y-13000000D02*
Y-12746000D01*
X17755580D01*
G01X17711120Y-12868760D02*
X17634920D01*
G01X17882570Y-12966140D02*
X17907980Y-12987300D01*
X17936550Y-13000000D01*
X17961950D01*
X17987350Y-12987300D01*
X18006400Y-12966140D01*
X18015930Y-12936500D01*
X18009580Y-12906870D01*
X17993700Y-12881470D01*
X17965120Y-12864530D01*
X17927030Y-12856070D01*
X17904800Y-12839140D01*
X17895270Y-12809500D01*
X17901630Y-12779870D01*
X17917500Y-12758710D01*
X17939720Y-12746000D01*
X17961950D01*
X17984180Y-12754460D01*
X18003230Y-12775630D01*
G01X18273100Y-12767170D02*
X18254050Y-12754460D01*
X18231830Y-12746000D01*
X18206430D01*
X18177850Y-12758710D01*
X18155630Y-12779870D01*
X18139750Y-12805270D01*
X18127050Y-12847600D01*
X18123870Y-12885700D01*
X18130230Y-12923800D01*
X18139750Y-12949200D01*
X18158800Y-12974610D01*
X18181030Y-12991540D01*
X18203250Y-13000000D01*
X18225470D01*
X18247700Y-12991540D01*
X18266750Y-12978840D01*
X18282630Y-12961910D01*
G01X18377870Y-12746000D02*
X18457250Y-13000000D01*
X18536630Y-12746000D01*
G01X18882700Y-13000000D02*
Y-12746000D01*
X18965250Y-12957670D01*
X19047800Y-12746000D01*
Y-13000000D01*
G01X19219250D02*
X19193850Y-12995770D01*
X19171630Y-12978840D01*
X19152570Y-12953440D01*
X19139870Y-12923800D01*
X19133520Y-12889930D01*
Y-12856070D01*
X19139870Y-12822200D01*
X19152570Y-12792560D01*
X19171630Y-12767170D01*
X19193850Y-12750230D01*
X19219250Y-12746000D01*
X19244650Y-12750230D01*
X19266870Y-12767170D01*
X19285930Y-12792560D01*
X19298630Y-12822200D01*
X19304980Y-12856070D01*
Y-12889930D01*
X19298630Y-12923800D01*
X19285930Y-12953440D01*
X19266870Y-12978840D01*
X19244650Y-12995770D01*
X19219250Y-13000000D01*
G01X19473250Y-12746000D02*
Y-13000000D01*
G01X19400230Y-12746000D02*
X19546270D01*
G01X19660570Y-13000000D02*
Y-12746000D01*
G01X19793930D02*
Y-13000000D01*
G01Y-12873000D02*
X19660570D01*
G01X20044750Y-13000000D02*
X19917750D01*
Y-12746000D01*
X20044750D01*
G01X19993950Y-12868760D02*
X19917750D01*
G01X20171750Y-13000000D02*
Y-12746000D01*
X20251120D01*
X20276520Y-12758710D01*
X20292400Y-12775630D01*
X20298750Y-12809500D01*
X20292400Y-12843370D01*
X20273350Y-12864530D01*
X20251120Y-12877240D01*
X20171750D01*
G01X20251120D02*
X20298750Y-13000000D01*
G01X20514650Y-12864530D02*
X20527350Y-12851830D01*
X20536870Y-12830670D01*
X20543230Y-12801030D01*
X20536870Y-12775630D01*
X20524180Y-12758710D01*
X20501950Y-12746000D01*
X20416230D01*
Y-13000000D01*
X20521000D01*
X20543230Y-12983070D01*
X20555930Y-12957670D01*
X20562270Y-12928030D01*
X20555930Y-12898410D01*
X20536870Y-12873000D01*
X20514650Y-12864530D01*
X20416230D01*
G01X20743250Y-13000000D02*
X20717850Y-12995770D01*
X20695630Y-12978840D01*
X20676570Y-12953440D01*
X20663870Y-12923800D01*
X20657520Y-12889930D01*
Y-12856070D01*
X20663870Y-12822200D01*
X20676570Y-12792560D01*
X20695630Y-12767170D01*
X20717850Y-12750230D01*
X20743250Y-12746000D01*
X20768650Y-12750230D01*
X20790870Y-12767170D01*
X20809930Y-12792560D01*
X20822630Y-12822200D01*
X20828980Y-12856070D01*
Y-12889930D01*
X20822630Y-12923800D01*
X20809930Y-12953440D01*
X20790870Y-12978840D01*
X20768650Y-12995770D01*
X20743250Y-13000000D01*
G01X20917870D02*
X20997250Y-12746000D01*
X21076630Y-13000000D01*
G01X21048050Y-12911100D02*
X20946450D01*
G01X21187750Y-13000000D02*
Y-12746000D01*
X21267120D01*
X21292520Y-12758710D01*
X21308400Y-12775630D01*
X21314750Y-12809500D01*
X21308400Y-12843370D01*
X21289350Y-12864530D01*
X21267120Y-12877240D01*
X21187750D01*
G01X21267120D02*
X21314750Y-13000000D01*
G01X21435400D02*
Y-12746000D01*
X21498900D01*
X21524300Y-12758710D01*
X21543350Y-12775630D01*
X21559230Y-12801030D01*
X21571930Y-12830670D01*
X21575100Y-12873000D01*
X21571930Y-12915340D01*
X21559230Y-12944970D01*
X21543350Y-12970370D01*
X21524300Y-12987300D01*
X21498900Y-13000000D01*
X21435400D01*
G01X21933870Y-12746000D02*
X22013250Y-13000000D01*
X22092630Y-12746000D01*
G01X22206920Y-12788330D02*
X22225980Y-12762940D01*
X22248200Y-12750230D01*
X22273600Y-12746000D01*
X22305350Y-12754460D01*
X22327580Y-12775630D01*
X22333930Y-12801030D01*
X22330750Y-12826440D01*
X22318050Y-12847600D01*
X22254550Y-12889930D01*
X22225980Y-12919570D01*
X22206920Y-12961910D01*
X22200570Y-13000000D01*
X22333930D01*
G01X18102750Y10420000D02*
Y10674000D01*
X18182120D01*
X18207520Y10661290D01*
X18223400Y10644370D01*
X18229750Y10610500D01*
X18223400Y10576630D01*
X18204350Y10555470D01*
X18182120Y10542760D01*
X18102750D01*
G01X18182120D02*
X18229750Y10420000D01*
G01X18483750D02*
X18356750D01*
Y10674000D01*
X18483750D01*
G01X18432950Y10551240D02*
X18356750D01*
G01X18594870Y10674000D02*
X18674250Y10420000D01*
X18753630Y10674000D01*
G01X18890150D02*
X18966340D01*
G01X18928250D02*
Y10420000D01*
G01X18890150D02*
X18966340D01*
G01X19115570Y10453860D02*
X19140980Y10432700D01*
X19169550Y10420000D01*
X19194950D01*
X19220350Y10432700D01*
X19239400Y10453860D01*
X19248930Y10483500D01*
X19242580Y10513130D01*
X19226700Y10538530D01*
X19198120Y10555470D01*
X19160030Y10563930D01*
X19137800Y10580860D01*
X19128270Y10610500D01*
X19134630Y10640130D01*
X19150500Y10661290D01*
X19172720Y10674000D01*
X19194950D01*
X19217180Y10665540D01*
X19236230Y10644370D01*
G01X19398150Y10674000D02*
X19474340D01*
G01X19436250D02*
Y10420000D01*
G01X19398150D02*
X19474340D01*
G01X19690250D02*
X19664850Y10424230D01*
X19642630Y10441160D01*
X19623570Y10466560D01*
X19610870Y10496200D01*
X19604520Y10530070D01*
Y10563930D01*
X19610870Y10597800D01*
X19623570Y10627440D01*
X19642630Y10652830D01*
X19664850Y10669770D01*
X19690250Y10674000D01*
X19715650Y10669770D01*
X19737870Y10652830D01*
X19756930Y10627440D01*
X19769630Y10597800D01*
X19775980Y10563930D01*
Y10530070D01*
X19769630Y10496200D01*
X19756930Y10466560D01*
X19737870Y10441160D01*
X19715650Y10424230D01*
X19690250Y10420000D01*
G01X19871230D02*
Y10674000D01*
X20017270Y10420000D01*
Y10674000D01*
G01X20131570Y10453860D02*
X20156980Y10432700D01*
X20185550Y10420000D01*
X20210950D01*
X20236350Y10432700D01*
X20255400Y10453860D01*
X20264930Y10483500D01*
X20258580Y10513130D01*
X20242700Y10538530D01*
X20214120Y10555470D01*
X20176030Y10563930D01*
X20153800Y10580860D01*
X20144270Y10610500D01*
X20150630Y10640130D01*
X20166500Y10661290D01*
X20188720Y10674000D01*
X20210950D01*
X20233180Y10665540D01*
X20252230Y10644370D01*
G01X18960000Y-14726000D02*
Y-13710000D01*
G01X19239400Y-14091000D02*
Y-13837000D01*
X19302900D01*
X19328300Y-13849710D01*
X19347350Y-13866630D01*
X19363230Y-13892030D01*
X19375930Y-13921670D01*
X19379100Y-13964000D01*
X19375930Y-14006340D01*
X19363230Y-14035970D01*
X19347350Y-14061370D01*
X19328300Y-14078300D01*
X19302900Y-14091000D01*
X19239400D01*
G01X19468000Y-13837000D02*
X19512450Y-14091000D01*
X19563250Y-13837000D01*
X19614050Y-14091000D01*
X19658500Y-13837000D01*
G01X19836300Y-13964000D02*
X19899800D01*
Y-14040200D01*
X19880750Y-14065610D01*
X19858520Y-14082540D01*
X19826780Y-14091000D01*
X19795030Y-14082540D01*
X19772800Y-14065610D01*
X19753750Y-14040200D01*
X19741050Y-14010570D01*
X19734700Y-13976700D01*
Y-13947070D01*
X19741050Y-13921670D01*
X19753750Y-13892030D01*
X19772800Y-13866630D01*
X19791850Y-13849710D01*
X19817250Y-13837000D01*
X19839470D01*
X19864870Y-13845460D01*
X19883930Y-13862400D01*
G01X20252230Y-14091000D02*
Y-13837000D01*
X20398270Y-14091000D01*
Y-13837000D01*
G01X20579250Y-14091000D02*
X20553850Y-14086770D01*
X20531630Y-14069840D01*
X20512570Y-14044440D01*
X20499870Y-14014800D01*
X20493520Y-13980930D01*
Y-13947070D01*
X20499870Y-13913200D01*
X20512570Y-13883560D01*
X20531630Y-13858170D01*
X20553850Y-13841230D01*
X20579250Y-13837000D01*
X20604650Y-13841230D01*
X20626870Y-13858170D01*
X20645930Y-13883560D01*
X20658630Y-13913200D01*
X20664980Y-13947070D01*
Y-13980930D01*
X20658630Y-14014800D01*
X20645930Y-14044440D01*
X20626870Y-14069840D01*
X20604650Y-14086770D01*
X20579250Y-14091000D01*
G01X20484000Y8642000D02*
Y7880000D01*
G01Y8388000D02*
Y9404000D01*
G01D02*
Y10166000D01*
G01X20992000Y-15488000D02*
Y-14726000D01*
X25310000D01*
G01X21144400Y9658000D02*
Y9912000D01*
X21207900D01*
X21233300Y9899290D01*
X21252350Y9882370D01*
X21268230Y9856970D01*
X21280930Y9827330D01*
X21284100Y9785000D01*
X21280930Y9742660D01*
X21268230Y9713030D01*
X21252350Y9687630D01*
X21233300Y9670700D01*
X21207900Y9658000D01*
X21144400D01*
G01X21388870D02*
X21468250Y9912000D01*
X21547630Y9658000D01*
G01X21519050Y9746900D02*
X21417450D01*
G01X21722250Y9912000D02*
Y9658000D01*
G01X21649230Y9912000D02*
X21795270D01*
G01X22039750Y9658000D02*
X21912750D01*
Y9912000D01*
X22039750D01*
G01X21988950Y9789240D02*
X21912750D01*
G01X21274570Y-15073140D02*
X21299980Y-15094300D01*
X21328550Y-15107000D01*
X21353950D01*
X21379350Y-15094300D01*
X21398400Y-15073140D01*
X21407930Y-15043500D01*
X21401580Y-15013870D01*
X21385700Y-14988470D01*
X21357120Y-14971530D01*
X21319030Y-14963070D01*
X21296800Y-14946140D01*
X21287270Y-14916500D01*
X21293630Y-14886870D01*
X21309500Y-14865710D01*
X21331720Y-14853000D01*
X21353950D01*
X21376180Y-14861460D01*
X21395230Y-14882630D01*
G01X21528570Y-15107000D02*
Y-14853000D01*
G01X21661930D02*
Y-15107000D01*
G01Y-14980000D02*
X21528570D01*
G01X21912750Y-15107000D02*
X21785750D01*
Y-14853000D01*
X21912750D01*
G01X21861950Y-14975760D02*
X21785750D01*
G01X22166750Y-15107000D02*
X22039750D01*
Y-14853000D01*
X22166750D01*
G01X22115950Y-14975760D02*
X22039750D01*
G01X22357250Y-14853000D02*
Y-15107000D01*
G01X22284230Y-14853000D02*
X22430270D01*
G01X22770000Y8642000D02*
Y7880000D01*
G01Y8642000D02*
Y9404000D01*
G01D02*
Y10166000D01*
G01X23039870Y9658000D02*
X23119250Y9912000D01*
X23198630Y9658000D01*
G01X23170050Y9746900D02*
X23068450D01*
G01X23309750Y9658000D02*
Y9912000D01*
X23385950D01*
X23411350Y9899290D01*
X23430400Y9869670D01*
X23436750Y9835800D01*
X23430400Y9801930D01*
X23414520Y9776530D01*
X23385950Y9763830D01*
X23309750D01*
G01X23563750Y9658000D02*
Y9912000D01*
X23639950D01*
X23665350Y9899290D01*
X23684400Y9869670D01*
X23690750Y9835800D01*
X23684400Y9801930D01*
X23668520Y9776530D01*
X23639950Y9763830D01*
X23563750D01*
G01X23817750Y9658000D02*
Y9912000D01*
X23897120D01*
X23922520Y9899290D01*
X23938400Y9882370D01*
X23944750Y9848500D01*
X23938400Y9814630D01*
X23919350Y9793470D01*
X23897120Y9780760D01*
X23817750D01*
G01X23897120D02*
X23944750Y9658000D01*
G01X24135250D02*
X24109850Y9662230D01*
X24087630Y9679160D01*
X24068570Y9704560D01*
X24055870Y9734200D01*
X24049520Y9768070D01*
Y9801930D01*
X24055870Y9835800D01*
X24068570Y9865440D01*
X24087630Y9890830D01*
X24109850Y9907770D01*
X24135250Y9912000D01*
X24160650Y9907770D01*
X24182870Y9890830D01*
X24201930Y9865440D01*
X24214630Y9835800D01*
X24220980Y9801930D01*
Y9768070D01*
X24214630Y9734200D01*
X24201930Y9704560D01*
X24182870Y9679160D01*
X24160650Y9662230D01*
X24135250Y9658000D01*
G01X24309870Y9912000D02*
X24389250Y9658000D01*
X24468630Y9912000D01*
G01X24706750Y9658000D02*
X24579750D01*
Y9912000D01*
X24706750D01*
G01X24655950Y9789240D02*
X24579750D01*
G01X24827400Y9658000D02*
Y9912000D01*
X24890900D01*
X24916300Y9899290D01*
X24935350Y9882370D01*
X24951230Y9856970D01*
X24963930Y9827330D01*
X24967100Y9785000D01*
X24963930Y9742660D01*
X24951230Y9713030D01*
X24935350Y9687630D01*
X24916300Y9670700D01*
X24890900Y9658000D01*
X24827400D01*
G01X25310000Y10928000D02*
Y7880000D01*
G54D11*
G01X-10900000Y-1150000D02*
X-7800000D01*
Y-2900000D01*
X-11050000D01*
Y-1150000D01*
X-10900000D01*
G01X-10960500Y1019500D02*
Y3594500D01*
G01X-10030500Y1019500D02*
X-10960500D01*
G01Y3594500D02*
X-10343500D01*
G01X-10731000Y-2463500D02*
G03I-10000J0D01*
G01Y-1955500D02*
G03I-10000J0D01*
G01X-10030500Y3594500D02*
X-10343500D01*
G01X-10030500Y3086500D02*
Y1019500D01*
G01Y3594500D02*
Y3086500D01*
G01X-9601500Y-2463500D02*
G03I-10000J0D01*
G01Y-1955500D02*
G03I-10000J0D01*
G01X-8950000Y5000000D02*
X-250000D01*
Y4100000D01*
X-8950000D01*
Y5000000D01*
G01X-8572000Y-2209500D02*
G03I-10000J0D01*
G01X-6400000Y-200000D02*
Y-650000D01*
X-2400000D01*
Y-200000D01*
G01X-6400000D02*
Y1915050D01*
X-6385520D01*
G01D02*
X-2415050D01*
X-2400000Y1900000D01*
Y-200000D01*
G01X-5850000Y-7950000D02*
X-1900000D01*
Y-6850000D01*
G01D02*
X-5850000D01*
Y-7950000D01*
G01X-5720050Y-7365000D02*
G03I-10000J0D01*
G01X-5212050D02*
G03I-10000J0D01*
G01X-4704050D02*
G03I-10000J0D01*
G01X-4602000Y190500D02*
G03I-10000J0D01*
G01X-3928000Y3386500D02*
G03I-10000J0D01*
G01X-2544080Y-7365000D02*
G03I-10000J0D01*
G01X-880000Y-7726000D02*
G03I-10000J0D01*
G01X-181500D02*
G03I-10000J0D01*
G01X644000Y-233000D02*
G03I-10000J0D01*
G01X1469500D02*
G03I-10000J0D01*
G01Y529000D02*
G03I-10000J0D01*
G01X2850000Y-7380000D02*
Y-7490000D01*
X2625000D01*
Y-7790000D01*
X3800000D01*
Y-1810000D01*
X2625000D01*
Y-2110000D01*
X2850000D01*
Y-2220000D01*
G01Y-695000D02*
Y-805000D01*
X2625000D01*
Y-1105000D01*
X3800000D01*
Y4875000D01*
X2625000D01*
Y4575000D01*
X2850000D01*
Y4465000D01*
G01X3017500Y-1740000D02*
G03I-10000J0D01*
G01Y4945000D02*
G03I-10000J0D01*
G54D12*
G01X-9842500Y-6952730D02*
G03I-20000J0D01*
G54D13*
G01X-10632500Y-6633730D02*
X-10972500D01*
Y-5733730D01*
X-10632500D01*
G01X-10653500Y-2498500D02*
X-10333500D01*
Y-2073500D01*
X-10653500D01*
Y-2498500D01*
G01Y-1990500D02*
X-10333500D01*
Y-1565500D01*
X-10653500D01*
Y-1990500D01*
G01X-10273000Y-3500000D02*
G03I-127000J0D01*
G01X-10022500Y-6633730D02*
X-10312500D01*
G01Y-5733730D02*
X-10022500D01*
G01X-9969500Y-127000D02*
G03I-127000J0D01*
G01X-9702500Y-5733730D02*
X-9492500D01*
Y-6053730D01*
X-9547500D01*
Y-6398730D01*
X-9597500D01*
Y-6633730D01*
X-9702500D01*
G01X-9524000Y-2498500D02*
X-9204000D01*
Y-2073500D01*
X-9524000D01*
Y-2498500D01*
G01Y-1990500D02*
X-9204000D01*
Y-1565500D01*
X-9524000D01*
Y-1990500D01*
G01X-9080500Y-825500D02*
G03I-127000J0D01*
G01X-8890000Y-4064000D02*
G03I-127000J0D01*
G01X-8473000Y-6900000D02*
G03I-127000J0D01*
G01X-8137500Y4337500D02*
Y4657500D01*
X-8562500D01*
Y4337500D01*
X-8137500D01*
G01X-8494500Y-2244500D02*
X-8174500D01*
Y-1819500D01*
X-8494500D01*
Y-2244500D01*
G01X-7873000Y-5200000D02*
G03I-127000J0D01*
G01X-7637500Y4337500D02*
Y4657500D01*
X-8062500D01*
Y4337500D01*
X-7637500D01*
G01X-7137500D02*
Y4657500D01*
X-7562500D01*
Y4337500D01*
X-7137500D01*
G01X-6637500D02*
Y4657500D01*
X-7062500D01*
Y4337500D01*
X-6637500D01*
G01X-6623000Y-6400000D02*
G03I-127000J0D01*
G01X-6423000Y-7400000D02*
G03I-127000J0D01*
G01X-5737500Y4337500D02*
Y4657500D01*
X-6162500D01*
Y4337500D01*
X-5737500D01*
G01X-5693000Y78000D02*
Y398000D01*
X-6118000D01*
Y78000D01*
X-5693000D01*
G01X-5665050Y-7252500D02*
Y-7572500D01*
X-5240050D01*
Y-7252500D01*
X-5665050D01*
G01X-5237500Y4337500D02*
Y4657500D01*
X-5662500D01*
Y4337500D01*
X-5237500D01*
G01X-5185000Y78000D02*
Y398000D01*
X-5610000D01*
Y78000D01*
X-5185000D01*
G01X-5157050Y-7252500D02*
Y-7572500D01*
X-4732050D01*
Y-7252500D01*
X-5157050D01*
G01X-4677000Y78000D02*
Y398000D01*
X-5102000D01*
Y78000D01*
X-4677000D01*
G01X-4737500Y4337500D02*
Y4657500D01*
X-5162500D01*
Y4337500D01*
X-4737500D01*
G01X-4649050Y-7252500D02*
Y-7572500D01*
X-4224050D01*
Y-7252500D01*
X-4649050D01*
G01X-4237500Y4337500D02*
Y4657500D01*
X-4662500D01*
Y4337500D01*
X-4237500D01*
G01X-4025000Y3521500D02*
X-4035000D01*
Y3971500D01*
X-3941500D01*
G01X-2865500Y-7491000D02*
X-3865500D01*
Y-7241000D01*
X-2865500D01*
Y-7491000D01*
G01X-3678500Y3971500D02*
X-3585000D01*
Y3521500D01*
X-3595000D01*
G01X-2637500Y4337500D02*
Y4657500D01*
X-3062500D01*
Y4337500D01*
X-2637500D01*
G01X-2137500D02*
Y4657500D01*
X-2562500D01*
Y4337500D01*
X-2137500D01*
G01X-2489080Y-7252500D02*
Y-7572500D01*
X-2064080D01*
Y-7252500D01*
X-2489080D01*
G01X-1087500Y4337500D02*
Y4657500D01*
X-1512500D01*
Y4337500D01*
X-1087500D01*
G01X-889000Y-190500D02*
G03I-127000J0D01*
G01X-977000Y-7591000D02*
X-987000D01*
Y-7141000D01*
X-893500D01*
G01X-587500Y4337500D02*
Y4657500D01*
X-1012500D01*
Y4337500D01*
X-587500D01*
G01X-630500Y-7141000D02*
X-537000D01*
Y-7591000D01*
X-547000D01*
G01X-127000Y-190500D02*
G03I-127000J0D01*
G01X-278500Y-7591000D02*
X-288500D01*
Y-7141000D01*
X-195000D01*
G01X0Y-6477000D02*
G03I-127000J0D01*
G01X68000Y-7141000D02*
X161500D01*
Y-7591000D01*
X151500D01*
G01X367500Y-2076000D02*
X527500D01*
G01X367500Y-1769000D02*
X527500D01*
G01X635000Y3492500D02*
G03I-127000J0D01*
G01X547000Y-98000D02*
X537000D01*
Y352000D01*
X630500D01*
G01X952500Y3048000D02*
G03I-127000J0D01*
G01X893500Y352000D02*
X987000D01*
Y-98000D01*
X977000D01*
G01X1372500D02*
X1362500D01*
Y352000D01*
X1456000D01*
G01X1372500Y664000D02*
X1362500D01*
Y1114000D01*
X1456000D01*
G01X1777000Y-3700000D02*
G03I-127000J0D01*
G01X1637500Y-4870000D02*
X1797500D01*
G01X1637500Y-4563000D02*
X1797500D01*
G01X1719000Y352000D02*
X1812500D01*
Y-98000D01*
X1802500D01*
G01X1719000Y1114000D02*
X1812500D01*
Y664000D01*
X1802500D01*
G54D14*
G01X-6363070Y2793600D02*
X-6799930D01*
G01Y3479400D02*
X-6363070D01*
G01X-4700570Y2814600D02*
X-5137430D01*
G01Y3500400D02*
X-4700570D01*
G01X-2344070Y3188100D02*
X-2780930D01*
G01Y3873900D02*
X-2344070D01*
G01X-566070Y3188100D02*
X-1002930D01*
G01Y3873900D02*
X-566070D01*
M02*
