G04 ================== begin FILE IDENTIFICATION RECORD ==================*
G04 Layout Name:  D:/Projects/PCB/FSCV Board V2/PCBEditor/V7/fscvmotherboardv2.brd*
G04 Film Name:    4_PASTEMASK_TOP*
G04 File Format:  Gerber RS274X*
G04 File Origin:  Cadence Allegro 23.1-S002*
G04 Origin Date:  Thu Mar 14 18:46:54 2024*
G04 *
G04 Layer:  VIA CLASS/PASTEMASK_TOP*
G04 Layer:  PIN/PASTEMASK_TOP*
G04 Layer:  PACKAGE GEOMETRY/PASTEMASK_TOP*
G04 Layer:  DRAWING FORMAT/TITLE_DATA*
G04 Layer:  DRAWING FORMAT/TITLE_BLOCK*
G04 Layer:  DRAWING FORMAT/REVISION_DATA*
G04 Layer:  DRAWING FORMAT/REVISION_BLOCK*
G04 Layer:  DRAWING FORMAT/OUTLINE*
G04 Layer:  BOARD GEOMETRY/DESIGN_OUTLINE*
G04 *
G04 Offset:    (0.0000 0.0000)*
G04 Mirror:    No*
G04 Mode:      Positive*
G04 Rotation:  0*
G04 FullContactRelief:  No*
G04 UndefLineWidth:     0.1000*
G04 ================== end FILE IDENTIFICATION RECORD ====================*
%FSLAX25Y25*MOMM*%
%IR0*IPPOS*OFA0.00000B0.00000*MIA0B0*SFA1.00000B1.00000*%
%ADD15R,1.42X.92*%
%ADD11R,.92X1.42*%
%ADD19R,1.8052X.6121*%
%ADD22R,1.4041X.3548*%
%ADD14R,.2794X1.4041*%
%ADD12R,1.4549X.558*%
%ADD17R,1.6764X.3556*%
%AMMACRO18*
4,1,40,.5815,-.275,
-.5815,-.275,
-.588198,-.2744,
-.594691,-.272646,
-.60078,-.269791,
-.60628,-.265922,
-.611026,-.261157,
-.614872,-.25564,
-.617701,-.249539,
-.619428,-.243039,
-.62,-.2365,
-.62,.2365,
-.6194,.243198,
-.617646,.249691,
-.614791,.25578,
-.610922,.26128,
-.606157,.266026,
-.60064,.269872,
-.594539,.272701,
-.588039,.274428,
-.5815,.275,
.5815,.275,
.588198,.2744,
.594691,.272646,
.60078,.269791,
.60628,.265922,
.611026,.261157,
.614872,.25564,
.617701,.249539,
.619428,.243039,
.62,.2365,
.62,-.2365,
.6194,-.243198,
.617646,-.249691,
.614791,-.25578,
.610922,-.26128,
.606157,-.266026,
.60064,-.269872,
.594539,-.272701,
.588039,-.274428,
.5815,-.275,
0.0*
%
%ADD18MACRO18*%
%ADD10R,1.02X1.47*%
%ADD16R,1.47X1.02*%
%ADD20R,1.6002X1.412*%
%ADD13R,2.286X2.286*%
%ADD21R,.9779X.508*%
%ADD23C,.1*%
G75*
%LPD*%
G75*
G54D10*
X-10748000Y-4572000D03*
Y-4318000D03*
X-10588000Y-4572000D03*
Y-4318000D03*
X-9298940Y63500D03*
X-9138940D03*
X-9175000Y2959500D03*
Y3209500D03*
X-9015000Y2959500D03*
Y3209500D03*
X-8843000Y-4922500D03*
X-8683000D03*
X-8200000Y1959500D03*
Y2659500D03*
X-8040000Y1959500D03*
Y2659500D03*
X-7647940Y63500D03*
X-7509500Y-6794500D03*
Y-5715000D03*
X-7487940Y63500D03*
X-7349500Y-6794500D03*
Y-5715000D03*
G54D20*
X-8200000Y2200000D03*
Y2419000D03*
G54D11*
X-10577500Y698500D03*
X-10377500D03*
X-10133000D03*
X-9933000D03*
X-9775000Y1450000D03*
X-9575000D03*
X-7529500Y-7429500D03*
Y-6350000D03*
X-7329500Y-7429500D03*
Y-6350000D03*
X-735000Y-6477000D03*
X-535000D03*
X1106500Y-4064000D03*
X1306500D03*
G54D21*
X-7566020Y-6127500D03*
Y-6032500D03*
Y-5937500D03*
X-7292980Y-6127500D03*
Y-5937500D03*
G54D12*
X-10368640Y-4572000D03*
Y-4445000D03*
Y-4318000D03*
Y-4191000D03*
X-9824360Y-4572000D03*
Y-4445000D03*
Y-4318000D03*
Y-4191000D03*
G54D13*
X-10096500Y-4381500D03*
G54D22*
X-5800000Y-5507400D03*
Y-5442400D03*
Y-5377400D03*
Y-5312400D03*
Y-5247400D03*
Y-5182400D03*
Y-5117400D03*
Y-5052400D03*
Y-4987400D03*
Y-4922400D03*
Y-3596200D03*
Y-3531200D03*
Y-3466200D03*
Y-3401200D03*
Y-3336200D03*
Y-3271200D03*
Y-3206200D03*
Y-3141200D03*
Y-3076200D03*
Y-3011200D03*
Y-1685000D03*
Y-1620000D03*
Y-1555000D03*
Y-1490000D03*
Y-1425000D03*
Y-1360000D03*
Y-1295000D03*
Y-1230000D03*
Y-1165000D03*
Y-1100000D03*
X-5210000Y-5507400D03*
Y-5442400D03*
Y-5377400D03*
Y-5312400D03*
Y-5247400D03*
Y-5182400D03*
Y-5117400D03*
Y-5052400D03*
Y-4987400D03*
Y-4922400D03*
Y-3596200D03*
Y-3531200D03*
Y-3466200D03*
Y-3401200D03*
Y-3336200D03*
Y-3271200D03*
Y-3206200D03*
Y-3141200D03*
Y-3076200D03*
Y-3011200D03*
Y-1685000D03*
Y-1620000D03*
Y-1555000D03*
Y-1490000D03*
Y-1425000D03*
Y-1295000D03*
Y-1360000D03*
Y-1230000D03*
Y-1165000D03*
Y-1100000D03*
X-3874000Y-5507400D03*
Y-5442400D03*
Y-5377400D03*
Y-5312400D03*
Y-5247400D03*
Y-5182400D03*
Y-5117400D03*
Y-5052400D03*
Y-4987400D03*
Y-4922400D03*
Y-3596200D03*
Y-3531200D03*
Y-3466200D03*
Y-3401200D03*
Y-3336200D03*
Y-3271200D03*
Y-3206200D03*
Y-3141200D03*
Y-3076200D03*
Y-3011200D03*
Y-1685000D03*
Y-1620000D03*
Y-1555000D03*
Y-1490000D03*
Y-1425000D03*
Y-1360000D03*
Y-1295000D03*
Y-1230000D03*
Y-1165000D03*
Y-1100000D03*
X-3284000Y-5507400D03*
Y-5442400D03*
Y-5377400D03*
Y-5312400D03*
Y-5247400D03*
Y-5182400D03*
Y-5117400D03*
Y-5052400D03*
Y-4987400D03*
Y-4922400D03*
Y-3596200D03*
Y-3531200D03*
Y-3466200D03*
Y-3401200D03*
Y-3336200D03*
Y-3271200D03*
Y-3206200D03*
Y-3141200D03*
Y-3076200D03*
Y-3011200D03*
Y-1685000D03*
Y-1620000D03*
Y-1555000D03*
Y-1490000D03*
Y-1425000D03*
Y-1295000D03*
Y-1360000D03*
Y-1230000D03*
Y-1165000D03*
Y-1100000D03*
X-1948000Y-5507400D03*
Y-5442400D03*
Y-5377400D03*
Y-5312400D03*
Y-5247400D03*
Y-5182400D03*
Y-5117400D03*
Y-5052400D03*
Y-4987400D03*
Y-4922400D03*
Y-3596200D03*
Y-3531200D03*
Y-3466200D03*
Y-3401200D03*
Y-3336200D03*
Y-3271200D03*
Y-3206200D03*
Y-3141200D03*
Y-3076200D03*
Y-3011200D03*
Y-1685000D03*
Y-1620000D03*
Y-1555000D03*
Y-1490000D03*
Y-1425000D03*
Y-1360000D03*
Y-1295000D03*
Y-1230000D03*
Y-1165000D03*
Y-1100000D03*
X-1358000Y-5507400D03*
Y-5442400D03*
Y-5377400D03*
Y-5312400D03*
Y-5247400D03*
Y-5182400D03*
Y-5117400D03*
Y-5052400D03*
Y-4987400D03*
Y-4922400D03*
Y-3596200D03*
Y-3531200D03*
Y-3466200D03*
Y-3401200D03*
Y-3336200D03*
Y-3271200D03*
Y-3206200D03*
Y-3141200D03*
Y-3076200D03*
Y-3011200D03*
Y-1685000D03*
Y-1620000D03*
Y-1555000D03*
Y-1490000D03*
Y-1425000D03*
Y-1295000D03*
Y-1360000D03*
Y-1230000D03*
Y-1165000D03*
Y-1100000D03*
X-22000Y-5507400D03*
Y-5442400D03*
Y-5377400D03*
Y-5312400D03*
Y-5247400D03*
Y-5182400D03*
Y-5117400D03*
Y-5052400D03*
Y-4987400D03*
Y-4922400D03*
Y-3596200D03*
Y-3531200D03*
Y-3466200D03*
Y-3401200D03*
Y-3336200D03*
Y-3271200D03*
Y-3206200D03*
Y-3141200D03*
Y-3076200D03*
Y-3011200D03*
Y815000D03*
Y880000D03*
Y945000D03*
Y1010000D03*
Y1075000D03*
Y1140000D03*
Y1205000D03*
Y1270000D03*
Y1335000D03*
Y1400000D03*
X568000Y-5507400D03*
Y-5442400D03*
Y-5377400D03*
Y-5312400D03*
Y-5247400D03*
Y-5182400D03*
Y-5117400D03*
Y-5052400D03*
Y-4987400D03*
Y-4922400D03*
Y-3596200D03*
Y-3531200D03*
Y-3466200D03*
Y-3401200D03*
Y-3336200D03*
Y-3271200D03*
Y-3206200D03*
Y-3141200D03*
Y-3076200D03*
Y-3011200D03*
Y815000D03*
Y880000D03*
Y945000D03*
Y1010000D03*
Y1075000D03*
Y1140000D03*
Y1205000D03*
Y1270000D03*
Y1335000D03*
Y1400000D03*
G54D23*
G01X-16600000Y11690000D02*
Y-16250000D01*
G01D02*
X26580000D01*
Y11690000D01*
X-16600000D01*
G01X25310000Y7880000D02*
Y-15488000D01*
X-15330000D01*
G01Y10928000D02*
Y-15488000D01*
G01Y10928000D02*
X-15076000D01*
G01D02*
X25310000D01*
G01X-11200000Y-8015000D02*
Y5100000D01*
X3800000D01*
Y-8015000D01*
X-11200000D01*
G01X12610000Y8642000D02*
Y7880000D01*
G01Y10928000D02*
Y8642000D01*
G01Y9404000D02*
X25310000D01*
G01X12610000Y10166000D02*
X25310000D01*
G01X12768750Y9658000D02*
Y9912000D01*
X12848120D01*
X12873520Y9899290D01*
X12889400Y9882370D01*
X12895750Y9848500D01*
X12889400Y9814630D01*
X12870350Y9793470D01*
X12848120Y9780760D01*
X12768750D01*
G01X12848120D02*
X12895750Y9658000D01*
G01X13149750D02*
X13022750D01*
Y9912000D01*
X13149750D01*
G01X13098950Y9789240D02*
X13022750D01*
G01X13260870Y9912000D02*
X13340250Y9658000D01*
X13419630Y9912000D01*
G01X13626000Y8642000D02*
Y7880000D01*
G01Y8642000D02*
Y10166000D01*
G01X14642000Y-10916000D02*
Y-15488000D01*
G01X20992000Y-14726000D02*
X14642000D01*
G01X25310000Y-13710000D02*
X14642000D01*
G01X25310000Y-12186000D02*
X14642000D01*
G01Y-10916000D02*
X25300230D01*
X25310000Y-10906230D01*
G01X14797570Y-15073140D02*
X14822980Y-15094300D01*
X14851550Y-15107000D01*
X14876950D01*
X14902350Y-15094300D01*
X14921400Y-15073140D01*
X14930930Y-15043500D01*
X14924580Y-15013870D01*
X14908700Y-14988470D01*
X14880120Y-14971530D01*
X14842030Y-14963070D01*
X14819800Y-14946140D01*
X14810270Y-14916500D01*
X14816630Y-14886870D01*
X14832500Y-14865710D01*
X14854720Y-14853000D01*
X14876950D01*
X14899180Y-14861460D01*
X14918230Y-14882630D01*
G01X15188100Y-14874170D02*
X15169050Y-14861460D01*
X15146830Y-14853000D01*
X15121430D01*
X15092850Y-14865710D01*
X15070630Y-14886870D01*
X15054750Y-14912270D01*
X15042050Y-14954600D01*
X15038870Y-14992700D01*
X15045230Y-15030800D01*
X15054750Y-15056200D01*
X15073800Y-15081610D01*
X15096030Y-15098540D01*
X15118250Y-15107000D01*
X15140470D01*
X15162700Y-15098540D01*
X15181750Y-15085840D01*
X15197630Y-15068910D01*
G01X15292870Y-15107000D02*
X15372250Y-14853000D01*
X15451630Y-15107000D01*
G01X15423050Y-15018100D02*
X15321450D01*
G01X15562750Y-14853000D02*
Y-15107000D01*
X15689750D01*
G01X15943750D02*
X15816750D01*
Y-14853000D01*
X15943750D01*
G01X15892950Y-14975760D02*
X15816750D01*
G01X14797570Y-14057140D02*
X14822980Y-14078300D01*
X14851550Y-14091000D01*
X14876950D01*
X14902350Y-14078300D01*
X14921400Y-14057140D01*
X14930930Y-14027500D01*
X14924580Y-13997870D01*
X14908700Y-13972470D01*
X14880120Y-13955530D01*
X14842030Y-13947070D01*
X14819800Y-13930140D01*
X14810270Y-13900500D01*
X14816630Y-13870870D01*
X14832500Y-13849710D01*
X14854720Y-13837000D01*
X14876950D01*
X14899180Y-13845460D01*
X14918230Y-13866630D01*
G01X15080150Y-13837000D02*
X15156340D01*
G01X15118250D02*
Y-14091000D01*
G01X15080150D02*
X15156340D01*
G01X15311920Y-13837000D02*
X15432580D01*
X15311920Y-14091000D01*
X15432580D01*
G01X15689750D02*
X15562750D01*
Y-13837000D01*
X15689750D01*
G01X15638950Y-13959760D02*
X15562750D01*
G01X15429400Y9658000D02*
Y9912000D01*
X15492900D01*
X15518300Y9899290D01*
X15537350Y9882370D01*
X15553230Y9856970D01*
X15565930Y9827330D01*
X15569100Y9785000D01*
X15565930Y9742660D01*
X15553230Y9713030D01*
X15537350Y9687630D01*
X15518300Y9670700D01*
X15492900Y9658000D01*
X15429400D01*
G01X15816750D02*
X15689750D01*
Y9912000D01*
X15816750D01*
G01X15765950Y9789240D02*
X15689750D01*
G01X15940570Y9691860D02*
X15965980Y9670700D01*
X15994550Y9658000D01*
X16019950D01*
X16045350Y9670700D01*
X16064400Y9691860D01*
X16073930Y9721500D01*
X16067580Y9751130D01*
X16051700Y9776530D01*
X16023120Y9793470D01*
X15985030Y9801930D01*
X15962800Y9818860D01*
X15953270Y9848500D01*
X15959630Y9878130D01*
X15975500Y9899290D01*
X15997720Y9912000D01*
X16019950D01*
X16042180Y9903540D01*
X16061230Y9882370D01*
G01X16331100Y9890830D02*
X16312050Y9903540D01*
X16289830Y9912000D01*
X16264430D01*
X16235850Y9899290D01*
X16213630Y9878130D01*
X16197750Y9852730D01*
X16185050Y9810400D01*
X16181870Y9772300D01*
X16188230Y9734200D01*
X16197750Y9708800D01*
X16216800Y9683390D01*
X16239030Y9666460D01*
X16261250Y9658000D01*
X16283470D01*
X16305700Y9666460D01*
X16324750Y9679160D01*
X16340630Y9696090D01*
G01X16451750Y9658000D02*
Y9912000D01*
X16531120D01*
X16556520Y9899290D01*
X16572400Y9882370D01*
X16578750Y9848500D01*
X16572400Y9814630D01*
X16553350Y9793470D01*
X16531120Y9780760D01*
X16451750D01*
G01X16531120D02*
X16578750Y9658000D01*
G01X16731150Y9912000D02*
X16807340D01*
G01X16769250D02*
Y9658000D01*
G01X16731150D02*
X16807340D01*
G01X16959750D02*
Y9912000D01*
X17035950D01*
X17061350Y9899290D01*
X17080400Y9869670D01*
X17086750Y9835800D01*
X17080400Y9801930D01*
X17064520Y9776530D01*
X17035950Y9763830D01*
X16959750D01*
G01X17277250Y9912000D02*
Y9658000D01*
G01X17204230Y9912000D02*
X17350270D01*
G01X17493150D02*
X17569340D01*
G01X17531250D02*
Y9658000D01*
G01X17493150D02*
X17569340D01*
G01X17785250D02*
X17759850Y9662230D01*
X17737630Y9679160D01*
X17718570Y9704560D01*
X17705870Y9734200D01*
X17699520Y9768070D01*
Y9801930D01*
X17705870Y9835800D01*
X17718570Y9865440D01*
X17737630Y9890830D01*
X17759850Y9907770D01*
X17785250Y9912000D01*
X17810650Y9907770D01*
X17832870Y9890830D01*
X17851930Y9865440D01*
X17864630Y9835800D01*
X17870980Y9801930D01*
Y9768070D01*
X17864630Y9734200D01*
X17851930Y9704560D01*
X17832870Y9679160D01*
X17810650Y9662230D01*
X17785250Y9658000D01*
G01X17966230D02*
Y9912000D01*
X18112270Y9658000D01*
Y9912000D01*
G01X15912000Y-14726000D02*
Y-13710000D01*
G01X16200920Y-14091000D02*
Y-13837000D01*
X16321580D01*
G01X16277120Y-13959760D02*
X16200920D01*
G01X16448570Y-14057140D02*
X16473980Y-14078300D01*
X16502550Y-14091000D01*
X16527950D01*
X16553350Y-14078300D01*
X16572400Y-14057140D01*
X16581930Y-14027500D01*
X16575580Y-13997870D01*
X16559700Y-13972470D01*
X16531120Y-13955530D01*
X16493030Y-13947070D01*
X16470800Y-13930140D01*
X16461270Y-13900500D01*
X16467630Y-13870870D01*
X16483500Y-13849710D01*
X16505720Y-13837000D01*
X16527950D01*
X16550180Y-13845460D01*
X16569230Y-13866630D01*
G01X16839100Y-13858170D02*
X16820050Y-13845460D01*
X16797830Y-13837000D01*
X16772430D01*
X16743850Y-13849710D01*
X16721630Y-13870870D01*
X16705750Y-13896270D01*
X16693050Y-13938600D01*
X16689870Y-13976700D01*
X16696230Y-14014800D01*
X16705750Y-14040200D01*
X16724800Y-14065610D01*
X16747030Y-14082540D01*
X16769250Y-14091000D01*
X16791470D01*
X16813700Y-14082540D01*
X16832750Y-14069840D01*
X16848630Y-14052910D01*
G01X16940700Y-14091000D02*
Y-13837000D01*
X17023250Y-14048670D01*
X17105800Y-13837000D01*
Y-14091000D01*
G01X17458230D02*
Y-13837000D01*
X17604270Y-14091000D01*
Y-13837000D01*
G01X17785250Y-14091000D02*
X17759850Y-14086770D01*
X17737630Y-14069840D01*
X17718570Y-14044440D01*
X17705870Y-14014800D01*
X17699520Y-13980930D01*
Y-13947070D01*
X17705870Y-13913200D01*
X17718570Y-13883560D01*
X17737630Y-13858170D01*
X17759850Y-13841230D01*
X17785250Y-13837000D01*
X17810650Y-13841230D01*
X17832870Y-13858170D01*
X17851930Y-13883560D01*
X17864630Y-13913200D01*
X17870980Y-13947070D01*
Y-13980930D01*
X17864630Y-14014800D01*
X17851930Y-14044440D01*
X17832870Y-14069840D01*
X17810650Y-14086770D01*
X17785250Y-14091000D01*
G01X16928000Y-14726000D02*
Y-15488000D01*
G01X17022230Y-11650000D02*
Y-11396000D01*
X17168270Y-11650000D01*
Y-11396000D01*
G01X17349250Y-11650000D02*
Y-11535700D01*
X17285750Y-11396000D01*
G01X17412750D02*
X17349250Y-11535700D01*
G01X17533400Y-11396000D02*
Y-11578030D01*
X17546100Y-11616140D01*
X17571500Y-11641540D01*
X17603250Y-11650000D01*
X17635000Y-11641540D01*
X17660400Y-11616140D01*
X17673100Y-11578030D01*
Y-11396000D01*
G01X18038230Y-11650000D02*
Y-11396000D01*
X18184270Y-11650000D01*
Y-11396000D01*
G01X18285870Y-11650000D02*
X18365250Y-11396000D01*
X18444630Y-11650000D01*
G01X18416050Y-11561100D02*
X18314450D01*
G01X18546230Y-11650000D02*
Y-11396000D01*
X18692270Y-11650000D01*
Y-11396000D01*
G01X18873250Y-11650000D02*
X18847850Y-11645770D01*
X18825630Y-11628840D01*
X18806570Y-11603440D01*
X18793870Y-11573800D01*
X18787520Y-11539930D01*
Y-11506070D01*
X18793870Y-11472200D01*
X18806570Y-11442560D01*
X18825630Y-11417170D01*
X18847850Y-11400230D01*
X18873250Y-11396000D01*
X18898650Y-11400230D01*
X18920870Y-11417170D01*
X18939930Y-11442560D01*
X18952630Y-11472200D01*
X18958980Y-11506070D01*
Y-11539930D01*
X18952630Y-11573800D01*
X18939930Y-11603440D01*
X18920870Y-11628840D01*
X18898650Y-11645770D01*
X18873250Y-11650000D01*
G01X19444750D02*
X19317750D01*
Y-11396000D01*
X19444750D01*
G01X19393950Y-11518760D02*
X19317750D01*
G01X19571750Y-11396000D02*
Y-11650000D01*
X19698750D01*
G01X19952750D02*
X19825750D01*
Y-11396000D01*
X19952750D01*
G01X19901950Y-11518760D02*
X19825750D01*
G01X20213100Y-11417170D02*
X20194050Y-11404460D01*
X20171830Y-11396000D01*
X20146430D01*
X20117850Y-11408710D01*
X20095630Y-11429870D01*
X20079750Y-11455270D01*
X20067050Y-11497600D01*
X20063870Y-11535700D01*
X20070230Y-11573800D01*
X20079750Y-11599200D01*
X20098800Y-11624610D01*
X20121030Y-11641540D01*
X20143250Y-11650000D01*
X20165470D01*
X20187700Y-11641540D01*
X20206750Y-11628840D01*
X20222630Y-11611910D01*
G01X20397250Y-11396000D02*
Y-11650000D01*
G01X20324230Y-11396000D02*
X20470270D01*
G01X20587750Y-11650000D02*
Y-11396000D01*
X20667120D01*
X20692520Y-11408710D01*
X20708400Y-11425630D01*
X20714750Y-11459500D01*
X20708400Y-11493370D01*
X20689350Y-11514530D01*
X20667120Y-11527240D01*
X20587750D01*
G01X20667120D02*
X20714750Y-11650000D01*
G01X20905250D02*
X20879850Y-11645770D01*
X20857630Y-11628840D01*
X20838570Y-11603440D01*
X20825870Y-11573800D01*
X20819520Y-11539930D01*
Y-11506070D01*
X20825870Y-11472200D01*
X20838570Y-11442560D01*
X20857630Y-11417170D01*
X20879850Y-11400230D01*
X20905250Y-11396000D01*
X20930650Y-11400230D01*
X20952870Y-11417170D01*
X20971930Y-11442560D01*
X20984630Y-11472200D01*
X20990980Y-11506070D01*
Y-11539930D01*
X20984630Y-11573800D01*
X20971930Y-11603440D01*
X20952870Y-11628840D01*
X20930650Y-11645770D01*
X20905250Y-11650000D01*
G01X21086230D02*
Y-11396000D01*
X21232270Y-11650000D01*
Y-11396000D01*
G01X21375150D02*
X21451340D01*
G01X21413250D02*
Y-11650000D01*
G01X21375150D02*
X21451340D01*
G01X21737100Y-11417170D02*
X21718050Y-11404460D01*
X21695830Y-11396000D01*
X21670430D01*
X21641850Y-11408710D01*
X21619630Y-11429870D01*
X21603750Y-11455270D01*
X21591050Y-11497600D01*
X21587870Y-11535700D01*
X21594230Y-11573800D01*
X21603750Y-11599200D01*
X21622800Y-11624610D01*
X21645030Y-11641540D01*
X21667250Y-11650000D01*
X21689470D01*
X21711700Y-11641540D01*
X21730750Y-11628840D01*
X21746630Y-11611910D01*
G01X21854570Y-11616140D02*
X21879980Y-11637300D01*
X21908550Y-11650000D01*
X21933950D01*
X21959350Y-11637300D01*
X21978400Y-11616140D01*
X21987930Y-11586500D01*
X21981580Y-11556870D01*
X21965700Y-11531470D01*
X21937120Y-11514530D01*
X21899030Y-11506070D01*
X21876800Y-11489140D01*
X21867270Y-11459500D01*
X21873630Y-11429870D01*
X21889500Y-11408710D01*
X21911720Y-11396000D01*
X21933950D01*
X21956180Y-11404460D01*
X21975230Y-11425630D01*
G01X22365750Y-11396000D02*
Y-11650000D01*
X22492750D01*
G01X22603870D02*
X22683250Y-11396000D01*
X22762630Y-11650000D01*
G01X22734050Y-11561100D02*
X22632450D01*
G01X22962650Y-11514530D02*
X22975350Y-11501830D01*
X22984870Y-11480670D01*
X22991230Y-11451030D01*
X22984870Y-11425630D01*
X22972180Y-11408710D01*
X22949950Y-11396000D01*
X22864230D01*
Y-11650000D01*
X22969000D01*
X22991230Y-11633070D01*
X23003930Y-11607670D01*
X23010270Y-11578030D01*
X23003930Y-11548410D01*
X22984870Y-11523000D01*
X22962650Y-11514530D01*
X22864230D01*
G01X17634920Y-13000000D02*
Y-12746000D01*
X17755580D01*
G01X17711120Y-12868760D02*
X17634920D01*
G01X17882570Y-12966140D02*
X17907980Y-12987300D01*
X17936550Y-13000000D01*
X17961950D01*
X17987350Y-12987300D01*
X18006400Y-12966140D01*
X18015930Y-12936500D01*
X18009580Y-12906870D01*
X17993700Y-12881470D01*
X17965120Y-12864530D01*
X17927030Y-12856070D01*
X17904800Y-12839140D01*
X17895270Y-12809500D01*
X17901630Y-12779870D01*
X17917500Y-12758710D01*
X17939720Y-12746000D01*
X17961950D01*
X17984180Y-12754460D01*
X18003230Y-12775630D01*
G01X18273100Y-12767170D02*
X18254050Y-12754460D01*
X18231830Y-12746000D01*
X18206430D01*
X18177850Y-12758710D01*
X18155630Y-12779870D01*
X18139750Y-12805270D01*
X18127050Y-12847600D01*
X18123870Y-12885700D01*
X18130230Y-12923800D01*
X18139750Y-12949200D01*
X18158800Y-12974610D01*
X18181030Y-12991540D01*
X18203250Y-13000000D01*
X18225470D01*
X18247700Y-12991540D01*
X18266750Y-12978840D01*
X18282630Y-12961910D01*
G01X18377870Y-12746000D02*
X18457250Y-13000000D01*
X18536630Y-12746000D01*
G01X18882700Y-13000000D02*
Y-12746000D01*
X18965250Y-12957670D01*
X19047800Y-12746000D01*
Y-13000000D01*
G01X19219250D02*
X19193850Y-12995770D01*
X19171630Y-12978840D01*
X19152570Y-12953440D01*
X19139870Y-12923800D01*
X19133520Y-12889930D01*
Y-12856070D01*
X19139870Y-12822200D01*
X19152570Y-12792560D01*
X19171630Y-12767170D01*
X19193850Y-12750230D01*
X19219250Y-12746000D01*
X19244650Y-12750230D01*
X19266870Y-12767170D01*
X19285930Y-12792560D01*
X19298630Y-12822200D01*
X19304980Y-12856070D01*
Y-12889930D01*
X19298630Y-12923800D01*
X19285930Y-12953440D01*
X19266870Y-12978840D01*
X19244650Y-12995770D01*
X19219250Y-13000000D01*
G01X19473250Y-12746000D02*
Y-13000000D01*
G01X19400230Y-12746000D02*
X19546270D01*
G01X19660570Y-13000000D02*
Y-12746000D01*
G01X19793930D02*
Y-13000000D01*
G01Y-12873000D02*
X19660570D01*
G01X20044750Y-13000000D02*
X19917750D01*
Y-12746000D01*
X20044750D01*
G01X19993950Y-12868760D02*
X19917750D01*
G01X20171750Y-13000000D02*
Y-12746000D01*
X20251120D01*
X20276520Y-12758710D01*
X20292400Y-12775630D01*
X20298750Y-12809500D01*
X20292400Y-12843370D01*
X20273350Y-12864530D01*
X20251120Y-12877240D01*
X20171750D01*
G01X20251120D02*
X20298750Y-13000000D01*
G01X20514650Y-12864530D02*
X20527350Y-12851830D01*
X20536870Y-12830670D01*
X20543230Y-12801030D01*
X20536870Y-12775630D01*
X20524180Y-12758710D01*
X20501950Y-12746000D01*
X20416230D01*
Y-13000000D01*
X20521000D01*
X20543230Y-12983070D01*
X20555930Y-12957670D01*
X20562270Y-12928030D01*
X20555930Y-12898410D01*
X20536870Y-12873000D01*
X20514650Y-12864530D01*
X20416230D01*
G01X20743250Y-13000000D02*
X20717850Y-12995770D01*
X20695630Y-12978840D01*
X20676570Y-12953440D01*
X20663870Y-12923800D01*
X20657520Y-12889930D01*
Y-12856070D01*
X20663870Y-12822200D01*
X20676570Y-12792560D01*
X20695630Y-12767170D01*
X20717850Y-12750230D01*
X20743250Y-12746000D01*
X20768650Y-12750230D01*
X20790870Y-12767170D01*
X20809930Y-12792560D01*
X20822630Y-12822200D01*
X20828980Y-12856070D01*
Y-12889930D01*
X20822630Y-12923800D01*
X20809930Y-12953440D01*
X20790870Y-12978840D01*
X20768650Y-12995770D01*
X20743250Y-13000000D01*
G01X20917870D02*
X20997250Y-12746000D01*
X21076630Y-13000000D01*
G01X21048050Y-12911100D02*
X20946450D01*
G01X21187750Y-13000000D02*
Y-12746000D01*
X21267120D01*
X21292520Y-12758710D01*
X21308400Y-12775630D01*
X21314750Y-12809500D01*
X21308400Y-12843370D01*
X21289350Y-12864530D01*
X21267120Y-12877240D01*
X21187750D01*
G01X21267120D02*
X21314750Y-13000000D01*
G01X21435400D02*
Y-12746000D01*
X21498900D01*
X21524300Y-12758710D01*
X21543350Y-12775630D01*
X21559230Y-12801030D01*
X21571930Y-12830670D01*
X21575100Y-12873000D01*
X21571930Y-12915340D01*
X21559230Y-12944970D01*
X21543350Y-12970370D01*
X21524300Y-12987300D01*
X21498900Y-13000000D01*
X21435400D01*
G01X21933870Y-12746000D02*
X22013250Y-13000000D01*
X22092630Y-12746000D01*
G01X22206920Y-12788330D02*
X22225980Y-12762940D01*
X22248200Y-12750230D01*
X22273600Y-12746000D01*
X22305350Y-12754460D01*
X22327580Y-12775630D01*
X22333930Y-12801030D01*
X22330750Y-12826440D01*
X22318050Y-12847600D01*
X22254550Y-12889930D01*
X22225980Y-12919570D01*
X22206920Y-12961910D01*
X22200570Y-13000000D01*
X22333930D01*
G01X18102750Y10420000D02*
Y10674000D01*
X18182120D01*
X18207520Y10661290D01*
X18223400Y10644370D01*
X18229750Y10610500D01*
X18223400Y10576630D01*
X18204350Y10555470D01*
X18182120Y10542760D01*
X18102750D01*
G01X18182120D02*
X18229750Y10420000D01*
G01X18483750D02*
X18356750D01*
Y10674000D01*
X18483750D01*
G01X18432950Y10551240D02*
X18356750D01*
G01X18594870Y10674000D02*
X18674250Y10420000D01*
X18753630Y10674000D01*
G01X18890150D02*
X18966340D01*
G01X18928250D02*
Y10420000D01*
G01X18890150D02*
X18966340D01*
G01X19115570Y10453860D02*
X19140980Y10432700D01*
X19169550Y10420000D01*
X19194950D01*
X19220350Y10432700D01*
X19239400Y10453860D01*
X19248930Y10483500D01*
X19242580Y10513130D01*
X19226700Y10538530D01*
X19198120Y10555470D01*
X19160030Y10563930D01*
X19137800Y10580860D01*
X19128270Y10610500D01*
X19134630Y10640130D01*
X19150500Y10661290D01*
X19172720Y10674000D01*
X19194950D01*
X19217180Y10665540D01*
X19236230Y10644370D01*
G01X19398150Y10674000D02*
X19474340D01*
G01X19436250D02*
Y10420000D01*
G01X19398150D02*
X19474340D01*
G01X19690250D02*
X19664850Y10424230D01*
X19642630Y10441160D01*
X19623570Y10466560D01*
X19610870Y10496200D01*
X19604520Y10530070D01*
Y10563930D01*
X19610870Y10597800D01*
X19623570Y10627440D01*
X19642630Y10652830D01*
X19664850Y10669770D01*
X19690250Y10674000D01*
X19715650Y10669770D01*
X19737870Y10652830D01*
X19756930Y10627440D01*
X19769630Y10597800D01*
X19775980Y10563930D01*
Y10530070D01*
X19769630Y10496200D01*
X19756930Y10466560D01*
X19737870Y10441160D01*
X19715650Y10424230D01*
X19690250Y10420000D01*
G01X19871230D02*
Y10674000D01*
X20017270Y10420000D01*
Y10674000D01*
G01X20131570Y10453860D02*
X20156980Y10432700D01*
X20185550Y10420000D01*
X20210950D01*
X20236350Y10432700D01*
X20255400Y10453860D01*
X20264930Y10483500D01*
X20258580Y10513130D01*
X20242700Y10538530D01*
X20214120Y10555470D01*
X20176030Y10563930D01*
X20153800Y10580860D01*
X20144270Y10610500D01*
X20150630Y10640130D01*
X20166500Y10661290D01*
X20188720Y10674000D01*
X20210950D01*
X20233180Y10665540D01*
X20252230Y10644370D01*
G01X18960000Y-14726000D02*
Y-13710000D01*
G01X19239400Y-14091000D02*
Y-13837000D01*
X19302900D01*
X19328300Y-13849710D01*
X19347350Y-13866630D01*
X19363230Y-13892030D01*
X19375930Y-13921670D01*
X19379100Y-13964000D01*
X19375930Y-14006340D01*
X19363230Y-14035970D01*
X19347350Y-14061370D01*
X19328300Y-14078300D01*
X19302900Y-14091000D01*
X19239400D01*
G01X19468000Y-13837000D02*
X19512450Y-14091000D01*
X19563250Y-13837000D01*
X19614050Y-14091000D01*
X19658500Y-13837000D01*
G01X19836300Y-13964000D02*
X19899800D01*
Y-14040200D01*
X19880750Y-14065610D01*
X19858520Y-14082540D01*
X19826780Y-14091000D01*
X19795030Y-14082540D01*
X19772800Y-14065610D01*
X19753750Y-14040200D01*
X19741050Y-14010570D01*
X19734700Y-13976700D01*
Y-13947070D01*
X19741050Y-13921670D01*
X19753750Y-13892030D01*
X19772800Y-13866630D01*
X19791850Y-13849710D01*
X19817250Y-13837000D01*
X19839470D01*
X19864870Y-13845460D01*
X19883930Y-13862400D01*
G01X20252230Y-14091000D02*
Y-13837000D01*
X20398270Y-14091000D01*
Y-13837000D01*
G01X20579250Y-14091000D02*
X20553850Y-14086770D01*
X20531630Y-14069840D01*
X20512570Y-14044440D01*
X20499870Y-14014800D01*
X20493520Y-13980930D01*
Y-13947070D01*
X20499870Y-13913200D01*
X20512570Y-13883560D01*
X20531630Y-13858170D01*
X20553850Y-13841230D01*
X20579250Y-13837000D01*
X20604650Y-13841230D01*
X20626870Y-13858170D01*
X20645930Y-13883560D01*
X20658630Y-13913200D01*
X20664980Y-13947070D01*
Y-13980930D01*
X20658630Y-14014800D01*
X20645930Y-14044440D01*
X20626870Y-14069840D01*
X20604650Y-14086770D01*
X20579250Y-14091000D01*
G01X20484000Y8642000D02*
Y7880000D01*
G01Y8388000D02*
Y9404000D01*
G01D02*
Y10166000D01*
G01X20992000Y-15488000D02*
Y-14726000D01*
X25310000D01*
G01X21144400Y9658000D02*
Y9912000D01*
X21207900D01*
X21233300Y9899290D01*
X21252350Y9882370D01*
X21268230Y9856970D01*
X21280930Y9827330D01*
X21284100Y9785000D01*
X21280930Y9742660D01*
X21268230Y9713030D01*
X21252350Y9687630D01*
X21233300Y9670700D01*
X21207900Y9658000D01*
X21144400D01*
G01X21388870D02*
X21468250Y9912000D01*
X21547630Y9658000D01*
G01X21519050Y9746900D02*
X21417450D01*
G01X21722250Y9912000D02*
Y9658000D01*
G01X21649230Y9912000D02*
X21795270D01*
G01X22039750Y9658000D02*
X21912750D01*
Y9912000D01*
X22039750D01*
G01X21988950Y9789240D02*
X21912750D01*
G01X21274570Y-15073140D02*
X21299980Y-15094300D01*
X21328550Y-15107000D01*
X21353950D01*
X21379350Y-15094300D01*
X21398400Y-15073140D01*
X21407930Y-15043500D01*
X21401580Y-15013870D01*
X21385700Y-14988470D01*
X21357120Y-14971530D01*
X21319030Y-14963070D01*
X21296800Y-14946140D01*
X21287270Y-14916500D01*
X21293630Y-14886870D01*
X21309500Y-14865710D01*
X21331720Y-14853000D01*
X21353950D01*
X21376180Y-14861460D01*
X21395230Y-14882630D01*
G01X21528570Y-15107000D02*
Y-14853000D01*
G01X21661930D02*
Y-15107000D01*
G01Y-14980000D02*
X21528570D01*
G01X21912750Y-15107000D02*
X21785750D01*
Y-14853000D01*
X21912750D01*
G01X21861950Y-14975760D02*
X21785750D01*
G01X22166750Y-15107000D02*
X22039750D01*
Y-14853000D01*
X22166750D01*
G01X22115950Y-14975760D02*
X22039750D01*
G01X22357250Y-14853000D02*
Y-15107000D01*
G01X22284230Y-14853000D02*
X22430270D01*
G01X22770000Y8642000D02*
Y7880000D01*
G01Y8642000D02*
Y9404000D01*
G01D02*
Y10166000D01*
G01X23039870Y9658000D02*
X23119250Y9912000D01*
X23198630Y9658000D01*
G01X23170050Y9746900D02*
X23068450D01*
G01X23309750Y9658000D02*
Y9912000D01*
X23385950D01*
X23411350Y9899290D01*
X23430400Y9869670D01*
X23436750Y9835800D01*
X23430400Y9801930D01*
X23414520Y9776530D01*
X23385950Y9763830D01*
X23309750D01*
G01X23563750Y9658000D02*
Y9912000D01*
X23639950D01*
X23665350Y9899290D01*
X23684400Y9869670D01*
X23690750Y9835800D01*
X23684400Y9801930D01*
X23668520Y9776530D01*
X23639950Y9763830D01*
X23563750D01*
G01X23817750Y9658000D02*
Y9912000D01*
X23897120D01*
X23922520Y9899290D01*
X23938400Y9882370D01*
X23944750Y9848500D01*
X23938400Y9814630D01*
X23919350Y9793470D01*
X23897120Y9780760D01*
X23817750D01*
G01X23897120D02*
X23944750Y9658000D01*
G01X24135250D02*
X24109850Y9662230D01*
X24087630Y9679160D01*
X24068570Y9704560D01*
X24055870Y9734200D01*
X24049520Y9768070D01*
Y9801930D01*
X24055870Y9835800D01*
X24068570Y9865440D01*
X24087630Y9890830D01*
X24109850Y9907770D01*
X24135250Y9912000D01*
X24160650Y9907770D01*
X24182870Y9890830D01*
X24201930Y9865440D01*
X24214630Y9835800D01*
X24220980Y9801930D01*
Y9768070D01*
X24214630Y9734200D01*
X24201930Y9704560D01*
X24182870Y9679160D01*
X24160650Y9662230D01*
X24135250Y9658000D01*
G01X24309870Y9912000D02*
X24389250Y9658000D01*
X24468630Y9912000D01*
G01X24706750Y9658000D02*
X24579750D01*
Y9912000D01*
X24706750D01*
G01X24655950Y9789240D02*
X24579750D01*
G01X24827400Y9658000D02*
Y9912000D01*
X24890900D01*
X24916300Y9899290D01*
X24935350Y9882370D01*
X24951230Y9856970D01*
X24963930Y9827330D01*
X24967100Y9785000D01*
X24963930Y9742660D01*
X24951230Y9713030D01*
X24935350Y9687630D01*
X24916300Y9670700D01*
X24890900Y9658000D01*
X24827400D01*
G01X25310000Y10928000D02*
Y7880000D01*
G54D14*
X-9825000Y1929410D03*
Y2689590D03*
X-9725000Y1929410D03*
X-9775000D03*
Y2689590D03*
X-9725000D03*
X-9675000Y1929410D03*
Y2689590D03*
X-9575000Y1929410D03*
X-9625000D03*
Y2689590D03*
X-9575000D03*
X-9525000Y1929410D03*
Y2689590D03*
X-9475000Y1929410D03*
Y2689590D03*
X-9375000Y1929410D03*
X-9425000D03*
Y2689590D03*
X-9375000D03*
X-9325000Y1929410D03*
Y2689590D03*
X-9225000Y1929410D03*
X-9275000D03*
Y2689590D03*
X-9225000D03*
X-9175000Y1929410D03*
Y2689590D03*
X-9125000Y1929410D03*
Y2689590D03*
X-9025000Y1929410D03*
X-9075000D03*
Y2689590D03*
X-9025000D03*
X-8975000Y1929410D03*
Y2689590D03*
X-8925000Y1929410D03*
Y2689590D03*
X-8825000Y1929410D03*
X-8875000D03*
Y2689590D03*
X-8825000D03*
X-8775000Y1929410D03*
Y2689590D03*
X-8675000Y1929410D03*
X-8725000D03*
Y2689590D03*
X-8675000D03*
X-8625000Y1929410D03*
Y2689590D03*
X-8575000Y1929410D03*
Y2689590D03*
X-8475000Y1929410D03*
X-8525000D03*
Y2689590D03*
X-8475000D03*
G54D15*
X-9700000Y1040000D03*
Y1240000D03*
X-9398000Y3011500D03*
Y3211500D03*
X-8953500Y1233500D03*
Y1433500D03*
X-8318500Y916000D03*
Y1116000D03*
X-7112000Y-6132500D03*
Y-5932500D03*
X-7048500Y-7212000D03*
Y-7012000D03*
X-1016000Y154000D03*
Y354000D03*
X-254000Y154000D03*
Y354000D03*
X508000Y3837000D03*
Y4037000D03*
X1206500Y3202000D03*
Y3402000D03*
G54D16*
X-9652000Y3031500D03*
Y3191500D03*
X-9588500Y-4334500D03*
Y-4174500D03*
X-9080500Y-5302000D03*
Y-5142000D03*
X-9017000Y-7446000D03*
Y-7286000D03*
X-8445500Y-5367000D03*
Y-5207000D03*
X-8332500Y-7461500D03*
Y-7301500D03*
X-7810500Y-7192000D03*
Y-7032000D03*
Y-6112500D03*
Y-5952500D03*
X-6076500Y-5342400D03*
Y-5182400D03*
Y-3431200D03*
Y-3271200D03*
Y-1520000D03*
Y-1360000D03*
X-4933500Y-5182400D03*
Y-5022400D03*
Y-3271200D03*
Y-3111200D03*
Y-1360000D03*
Y-1200000D03*
X-4150500Y-5342400D03*
Y-5182400D03*
Y-3431200D03*
Y-3271200D03*
Y-1520000D03*
Y-1360000D03*
X-3007500Y-5182400D03*
Y-5022400D03*
Y-3271200D03*
Y-3111200D03*
Y-1360000D03*
Y-1200000D03*
X-2224500Y-5342400D03*
Y-5182400D03*
Y-3431200D03*
Y-3271200D03*
Y-1520000D03*
Y-1360000D03*
X-1081500Y-5182400D03*
Y-5022400D03*
Y-3271200D03*
Y-3111200D03*
Y-1360000D03*
Y-1200000D03*
X-298500Y-5342400D03*
Y-5182400D03*
Y-3431200D03*
Y-3271200D03*
Y980000D03*
Y1140000D03*
X844500Y-5182400D03*
Y-5022400D03*
Y-3271200D03*
Y-3111200D03*
Y1140000D03*
Y1300000D03*
G54D17*
X-9298940Y277500D03*
Y342500D03*
Y407500D03*
Y472500D03*
Y537500D03*
Y602500D03*
Y667500D03*
Y732500D03*
Y797500D03*
Y862500D03*
Y927500D03*
Y992500D03*
X-8735060Y277500D03*
Y342500D03*
Y407500D03*
Y472500D03*
Y537500D03*
Y602500D03*
Y667500D03*
Y732500D03*
Y797500D03*
Y862500D03*
Y927500D03*
Y992500D03*
X-7647940Y277500D03*
Y342500D03*
Y407500D03*
Y472500D03*
Y537500D03*
Y602500D03*
Y667500D03*
Y732500D03*
Y797500D03*
Y862500D03*
Y927500D03*
Y992500D03*
X-7084060Y277500D03*
Y342500D03*
Y407500D03*
Y472500D03*
Y537500D03*
Y602500D03*
Y667500D03*
Y732500D03*
Y797500D03*
Y862500D03*
Y927500D03*
Y992500D03*
G54D18*
X-8881500Y-5302000D03*
Y-5207000D03*
Y-5112000D03*
X-8644500Y-5302000D03*
Y-5207000D03*
Y-5112000D03*
G54D19*
X-8797550Y-7491500D03*
Y-7396500D03*
Y-7301500D03*
X-8567450Y-7491500D03*
Y-7301500D03*
X-7544550Y-7207000D03*
Y-7112000D03*
Y-7017000D03*
X-7314450Y-7207000D03*
Y-7017000D03*
M02*
