G04 ================== begin FILE IDENTIFICATION RECORD ==================*
G04 Layout Name:  D:/Projects/PCB/FSCV Board V2/PCBEditor/V7/fscvmotherboardv2.brd*
G04 Film Name:    7_GROUND_PLANE*
G04 File Format:  Gerber RS274X*
G04 File Origin:  Cadence Allegro 23.1-S002*
G04 Origin Date:  Thu Mar 14 18:46:53 2024*
G04 *
G04 Layer:  VIA CLASS/GND*
G04 Layer:  PIN/GND*
G04 Layer:  MANUFACTURING/XSECTION_CHART*
G04 Layer:  ETCH/GND*
G04 Layer:  DRAWING FORMAT/TITLE_DATA*
G04 Layer:  DRAWING FORMAT/TITLE_BLOCK*
G04 Layer:  DRAWING FORMAT/REVISION_DATA*
G04 Layer:  DRAWING FORMAT/REVISION_BLOCK*
G04 Layer:  DRAWING FORMAT/OUTLINE*
G04 Layer:  BOARD GEOMETRY/DESIGN_OUTLINE*
G04 *
G04 Offset:    (0.0000 0.0000)*
G04 Mirror:    No*
G04 Mode:      Positive*
G04 Rotation:  0*
G04 FullContactRelief:  No*
G04 UndefLineWidth:     0.1000*
G04 ================== end FILE IDENTIFICATION RECORD ====================*
%FSLAX25Y25*MOMM*%
%IR0*IPPOS*OFA0.00000B0.00000*MIA0B0*SFA1.00000B1.00000*%
%ADD18C,.5*%
%ADD11C,.6*%
%ADD17C,.35*%
%ADD14C,.85*%
%ADD22C,1.4001*%
%ADD15C,1.53*%
%ADD13C,1.7001*%
%ADD16C,1.8001*%
%ADD10C,4.6*%
%ADD19C,1.37*%
%ADD20C,1.308*%
%ADD12C,1.65*%
%ADD23C,1.318*%
%ADD21R,1.308X1.308*%
%ADD24C,.1*%
%ADD25C,.15*%
%ADD35C,.6044*%
%ADD32C,.7544*%
%ADD31C,.8544*%
%ADD29C,1.1044*%
%ADD36C,1.6244*%
%ADD34C,2.0546*%
%ADD30C,1.5624*%
%ADD26C,1.9044*%
%ADD27C,1.6546*%
%ADD28C,1.7844*%
%ADD33C,1.9546*%
G75*
%LPD*%
G75*
G36*
G01X-10999990Y4522070D02*
G02X-10982420Y4529020I10159J2D01*
G03X-10800000Y4449980I182420J170988D01*
G03X-10549980Y4700000I0J250020D01*
G03X-10629020Y4882420I-250028J0D01*
G02X-10622070Y4899990I6948J7411D01*
G01X922070D01*
G02X929020Y4882420I2J-10159D01*
G03X849980Y4700000I170988J-182420D01*
G03X1350020I250020J0D01*
G03X1270980Y4882420I-250028J0D01*
G02X1277930Y4899990I6948J7411D01*
G01X3599990D01*
Y4698620D01*
G03Y4541380I10J-78620D01*
G01Y-771380D01*
G03Y-928620I10J-78620D01*
G01Y-1986380D01*
G03Y-2143620I10J-78620D01*
G01Y-7456380D01*
G03Y-7613620I10J-78620D01*
G01Y-7814990D01*
X1277930D01*
G02X1270980Y-7797420I-2J10159D01*
G03X1350020Y-7615000I-170988J182420D01*
G03X849980I-250020J0D01*
G03X929020Y-7797420I250028J0D01*
G02X922070Y-7814990I-6948J-7411D01*
G01X-10622070D01*
G02X-10629020Y-7797420I-2J10159D01*
G03X-10549980Y-7615000I-170988J182420D01*
G03X-10800000Y-7364980I-250020J0D01*
G03X-10982420Y-7444020I0J-250028D01*
G02X-10999990Y-7437070I-7411J6948D01*
G01Y4522070D01*
G37*
G36*
G01X9868800Y-3735520D02*
Y-3840520D01*
X9932300D01*
Y-8640520D01*
X9868800D01*
Y-8745520D01*
X10249800D01*
Y-8640520D01*
X10186300D01*
Y-3840520D01*
X10249800D01*
Y-3735520D01*
X9868800D01*
G37*
%LPC*%
G75*
G36*
G01X-3443620Y-7431400D02*
Y-7300600D01*
G02X-3430900Y-7287880I12720J0D01*
G01X-3300100D01*
G02X-3287380Y-7300600I0J-12720D01*
G01Y-7431400D01*
G02X-3300100Y-7444120I-12720J0D01*
G01X-3430900D01*
G02X-3443620Y-7431400I0J12720D01*
G37*
G54D35*
X1843000Y-4870000D03*
X641750Y-2088750D03*
X-9461500Y-127000D03*
X-9017000D03*
X-8509000D03*
X-8445500Y-190500D03*
X-8382000Y-127000D03*
X-8318500Y-190500D03*
X-8191500D03*
X-8255000Y-127000D03*
X-8128000D03*
X-8064500Y-190500D03*
X-8001000Y-127000D03*
X-7937500Y-190500D03*
X-8572500Y-70000D03*
X-9779000Y190500D03*
X-9652000D03*
X-9525000D03*
X-9080500D03*
X-8572500D03*
X-8445500D03*
X-8318500D03*
X-8191500D03*
X-9715500Y254000D03*
X-9589740D03*
X-8509000Y317500D03*
X-8382000D03*
X-8255000D03*
X-8064500D03*
X-8128000Y381000D03*
X-8001000D03*
X-7937500Y444500D03*
X-9652000Y508000D03*
X-9525000D03*
X-2222500D03*
X-930000Y530000D03*
X-9779000Y635000D03*
X-9715500Y571500D03*
X-9589740D03*
X-9461500D03*
X-9080500D03*
X-2159000D03*
X-2095500Y635000D03*
X-930000Y610000D03*
X-9080500Y698500D03*
X-2032000D03*
X-920000Y680000D03*
X-820000Y761000D03*
X-2857500Y3183260D03*
X-2267500D03*
X-1079500D03*
X-489500D03*
X-2857500Y3878740D03*
X-2267500D03*
X-1079500D03*
X-489500D03*
G54D32*
X2286000Y-7175500D03*
X3175000Y-7000000D03*
X2540000Y-6921500D03*
X3175000Y-6840000D03*
X2540000Y-6731000D03*
X3175000Y-6600000D03*
X2540000Y-6520000D03*
X3302000D03*
X3210000Y-6440000D03*
X1079500Y-6350000D03*
X3340000Y-6360000D03*
X2540000Y-6286500D03*
X3175000Y-6280000D03*
X-2820000Y-6190000D03*
X1016000Y-6223000D03*
X-2984500Y-6159500D03*
X-825500Y-6180000D03*
X3175000Y-6120000D03*
X3302000Y-5880000D03*
X3175000Y-5800000D03*
X1016000Y-5715000D03*
X3300000Y-5720000D03*
X3180000Y-5610000D03*
X-2984500Y-5524500D03*
X-825500D03*
X3290000Y-5560000D03*
X-2820000Y-5450000D03*
X1968500Y-4000500D03*
X2080640Y-3985640D03*
X2680000Y-3800000D03*
X-7683500Y-3746500D03*
X-6477000D03*
X2603500Y-3720000D03*
Y-3560000D03*
X2476500Y-3480000D03*
X2540000Y-3400000D03*
X-7494000Y-2223500D03*
X-5905500D03*
X3238500Y-2159000D03*
X2984500Y-1841500D03*
X2857500Y-1714500D03*
X3302000Y-1587500D03*
X2984500Y-1397000D03*
X-7683500Y-1271000D03*
X2857500Y-1270000D03*
X-698500Y-1143000D03*
X-7683500Y-1079500D03*
X-635000D03*
X-571500Y-1016000D03*
X-7683500Y-952500D03*
X-6096000D03*
X-6159500Y-889000D03*
X2413000Y-900000D03*
X2603500Y-825500D03*
X-6150000Y-762000D03*
X3238500Y-635000D03*
X2610000Y-580000D03*
X2603500Y-475000D03*
Y-315000D03*
X3302000Y-190500D03*
X2603500Y-75000D03*
X2669060Y85000D03*
X3120000D03*
Y245000D03*
X3211250Y281250D03*
X3175000Y405000D03*
X3120000Y485000D03*
X3190000Y550000D03*
X3120000Y645000D03*
X-2622750Y742750D03*
X3175000Y805000D03*
X3111500Y889000D03*
X2444750Y984250D03*
X2603500Y952500D03*
X3175000Y965000D03*
X3120000Y1125000D03*
X3238500Y1206500D03*
X3175000Y1285000D03*
X3143250Y1365250D03*
X2020000Y1470000D03*
X-2603500Y1778000D03*
X-2667000Y1905000D03*
X3150000Y1970000D03*
X-2540000Y2032000D03*
X3220000Y2085000D03*
X-2984500Y2095500D03*
X3120000Y2165000D03*
X3340000Y2245000D03*
X3230000Y2325000D03*
X-4727480Y2413000D03*
X-6413500Y2476500D03*
X-5270000D03*
X2349500D03*
X-6600000Y2520000D03*
X2476500Y2540000D03*
X3175000Y2565000D03*
X-6590000Y2710000D03*
X-5016500Y2650000D03*
X2540000Y2667000D03*
X3330000Y2710000D03*
X-6286500Y2730500D03*
X3238500Y2725000D03*
X-7185940Y2840000D03*
X-6876500Y2781260D03*
X-5214000Y2802260D03*
X-4624000D03*
X1180250Y2820250D03*
X2470470Y2809530D03*
X3175000Y2805000D03*
X3250000Y2885000D03*
X2260000Y2970000D03*
X3120000Y2965000D03*
X-7000000Y3039000D03*
X3175000Y3045000D03*
X-5330000Y3060000D03*
X2370000Y3092060D03*
X-6731000Y3177770D03*
X-6413500Y3175000D03*
X-825500D03*
X2667000Y3160000D03*
X-5080000Y3255000D03*
X-4727480D03*
X2510000Y3220000D03*
X-6420000Y3330000D03*
X3175000Y3285000D03*
X2413000Y3410000D03*
X2512850Y3456150D03*
X3175000Y3445000D03*
X-6876500Y3491740D03*
X-6540500Y3492500D03*
X-6286500Y3491740D03*
X-5214000Y3512740D03*
X-4624000D03*
X-2540000Y3492500D03*
X1493000Y3525000D03*
X2603500D03*
X3120000D03*
X-2400000Y3628500D03*
X190500Y3619500D03*
X1651000D03*
X-7000000Y3700000D03*
X-6604000Y3740000D03*
X-6477000D03*
X-5016500Y3720000D03*
X-883000Y3689000D03*
X-698500Y3683000D03*
X952500D03*
X-5715000Y3810000D03*
X-1524000D03*
X3302000Y3765000D03*
X-1270000Y3831530D03*
X-762000Y3873500D03*
X2413000D03*
X2667000D03*
X3240000Y3830000D03*
X3160000Y3910000D03*
X2540000Y4000500D03*
X3175000Y4005000D03*
X3239700Y4085000D03*
X-2540000Y4127500D03*
X2032000D03*
X2286000D03*
X-2400000Y4180000D03*
X3175000Y4165000D03*
X2413000Y4254500D03*
X2667000Y4245000D03*
X3115290D03*
X2400000Y4350000D03*
X3247000Y4325000D03*
X-3810000Y4381500D03*
X2603500Y4405000D03*
X-3810000Y4699000D03*
X-63500D03*
X190500Y4762500D03*
G54D31*
X-647000Y-7416000D03*
X51500D03*
X-8332500Y-7200500D03*
X-5651500Y-6985000D03*
X-7349500Y-6671000D03*
X3125000Y-6680000D03*
X-735000Y-6598000D03*
X-10472500Y-6583730D03*
X-9862500D03*
X-7349500Y-5591500D03*
X-5679790Y-5442400D03*
X-5330200D03*
X-3753800D03*
X-3404210D03*
X-1827800D03*
X-1478210D03*
X200000D03*
X380000D03*
X-5679790Y-5312400D03*
X-5330200D03*
X-4933500Y-5288400D03*
X-3753800Y-5312400D03*
X-3404210D03*
X-3007500Y-5288400D03*
X-1827800Y-5312400D03*
X-1478210D03*
X-1081500Y-5288400D03*
X98210Y-5312400D03*
X447800D03*
X844500Y-5288400D03*
X-8445500Y-5106000D03*
X-6076500Y-5076400D03*
X-5679790Y-5117400D03*
X-5330200D03*
X-4150500Y-5076400D03*
X-3753800Y-5117400D03*
X-3404210D03*
X-2224500Y-5076400D03*
X-1827800Y-5117400D03*
X-1478210D03*
X-298500Y-5076400D03*
X98210Y-5117400D03*
X447800D03*
X-5679790Y-4987400D03*
X-5330200D03*
X-3753800D03*
X-3404210D03*
X-2068210D03*
X-1478210D03*
X98210D03*
X447800D03*
X1465000Y-4889500D03*
X-6286430Y-4635570D03*
X1220000Y-4410000D03*
X3125000Y-4440000D03*
X-9461500Y-4334500D03*
X-3870000Y-4300000D03*
X-2603500D03*
X1010500Y-4064000D03*
X-5679790Y-3531200D03*
X-5330200D03*
X-3753790D03*
X-3404200D03*
X-1827790D03*
X-1478200D03*
X98210D03*
X447800D03*
X-5679790Y-3401200D03*
X-5330200D03*
X-4933500Y-3377200D03*
X-3753790Y-3401200D03*
X-3404200D03*
X-3007500Y-3377200D03*
X-1827790Y-3401200D03*
X-1478200D03*
X-1081500Y-3377200D03*
X98210Y-3401200D03*
X447800D03*
X844500Y-3377200D03*
X3125000Y-3320000D03*
X2272700Y-3238500D03*
X-6076500Y-3165200D03*
X-5679790Y-3206200D03*
X-5330200D03*
X-4150500Y-3165200D03*
X-3753790Y-3206200D03*
X-3404200D03*
X-2224500Y-3165200D03*
X-1827790Y-3206200D03*
X-1478210D03*
X-298500Y-3165200D03*
X98210Y-3206200D03*
X447800D03*
X2675000Y-3160000D03*
X-5679790Y-3076200D03*
X-5330200D03*
X-3753790D03*
X-3404200D03*
X-1810000D03*
X-1478210D03*
X98210D03*
X447800D03*
X216500Y-2222500D03*
X2807500Y-2205000D03*
X-5679790Y-1620000D03*
X-5330200D03*
X-3753790D03*
X-3404200D03*
X-2082140D03*
X-1492140D03*
X97500Y-1591500D03*
X-5679790Y-1490000D03*
X-5330200D03*
X-3753790D03*
X-3404200D03*
X-1810000D03*
X-1478210D03*
X-4933500Y-1466000D03*
X-3007500D03*
X-1081500D03*
X-5679790Y-1295000D03*
X-5330200D03*
X-3753790D03*
X-3404200D03*
X-2068200D03*
X-1478200D03*
X-6076500Y-1254000D03*
X-4150500D03*
X-2224500D03*
X-5679790Y-1165000D03*
X-5330200D03*
X-3753790D03*
X-3404200D03*
X-2068200D03*
X-1478200D03*
X-6032500Y-571500D03*
X2510000Y-280000D03*
X-6032500Y-190500D03*
X1702500Y-223000D03*
X-9298940Y-60000D03*
X-7647940D03*
X3125000Y-75000D03*
X-890000Y354000D03*
X-375000D03*
X-8890000Y381000D03*
X952500Y635000D03*
X-10577500Y819500D03*
X-10133000D03*
X-8318500Y820000D03*
X98210Y880000D03*
X688200D03*
X-9700000Y944000D03*
X2222500Y952500D03*
X98210Y1010000D03*
X688200D03*
X844500Y1034000D03*
X3238500Y1045000D03*
X-298500Y1246000D03*
X98210Y1205000D03*
X688200D03*
X2675000D03*
X98210Y1335000D03*
X688200D03*
X-9110000Y1520000D03*
X-9700000Y1586000D03*
X2603500Y2005000D03*
X-5490500Y3048000D03*
X-7153000Y3063000D03*
X3125000Y3125000D03*
X-9398000Y3307500D03*
X-9175000Y3333000D03*
X-6010000Y3275000D03*
X-4347500Y3296000D03*
X-3134000Y3392500D03*
X-1356000Y3365500D03*
X2667000Y3365000D03*
X1206500Y3498000D03*
X-3580000Y3546500D03*
X-1991000Y3604500D03*
X-213000D03*
X318500Y3872500D03*
G54D29*
X-5515050Y-7365000D03*
X-5390050D03*
X-5007050D03*
X-4882050D03*
X-4499050D03*
X-4374050D03*
X-2339080D03*
X-2214080D03*
X-10541000Y-2348500D03*
X-9411500D03*
X-10541000Y-2223500D03*
X-9411500D03*
X-8382000Y-2094500D03*
Y-1969500D03*
X-10541000Y-1840500D03*
X-9411500D03*
X-10541000Y-1715500D03*
X-9411500D03*
X-5968000Y190500D03*
X-5843000D03*
X-5460000D03*
X-5335000D03*
X-4952000D03*
X-4827000D03*
X-8412500Y4450000D03*
X-8287500D03*
X-7912500D03*
X-7787500D03*
X-7412500D03*
X-7287500D03*
X-6912500D03*
X-6787500D03*
X-6012500D03*
X-5887500D03*
X-5512500D03*
X-5387500D03*
X-5012500D03*
X-4887500D03*
X-4512500D03*
X-4387500D03*
X-2912500D03*
X-2787500D03*
X-2412500D03*
X-2287500D03*
X-1362500D03*
X-1237500D03*
X-862500D03*
X-737500D03*
G54D36*
X-5588000Y-391500D03*
X-5334000D03*
X-3111500Y127000D03*
Y381000D03*
X-2857500D03*
X-3111500Y635000D03*
X-5651500Y1079500D03*
X-4381500D03*
X-3111500D03*
X-5905500Y1333500D03*
X-5651500D03*
X-5397500D03*
X-4635500D03*
X-4381500D03*
X-4127500D03*
X-3365500D03*
X-3111500D03*
X-2857500D03*
X-5651500Y1587500D03*
X-4381500D03*
X-3111500D03*
G54D34*
X-10022500Y-6183730D03*
G54D30*
X-3619500Y-7366000D03*
X-3111500D03*
G54D26*
X-10343500Y3086500D03*
X-10597500D03*
X-10343500Y2832500D03*
X-10597500D03*
X-10343500Y2578500D03*
X-10597500D03*
X-10343500Y2324500D03*
X-10597500D03*
X-10343500Y2070500D03*
X-10597500D03*
X-10343500Y1816500D03*
X-10597500D03*
X-10343500Y1562500D03*
X-10597500D03*
G54D27*
X2900000Y-7630000D03*
Y-1970000D03*
Y-945000D03*
Y4715000D03*
G54D28*
X-6550000Y-7400000D03*
X-8600000Y-6900000D03*
X-127000Y-6477000D03*
X-6750000Y-6400000D03*
X-8000000Y-5200000D03*
X-9017000Y-4064000D03*
X1650000Y-3700000D03*
X-10400000Y-3500000D03*
X-9207500Y-825500D03*
X-10096500Y-127000D03*
X-1016000Y-190500D03*
X-254000D03*
X825500Y3048000D03*
X508000Y3492500D03*
G54D33*
X-10472500Y-6183730D03*
%LPD*%
G75*
G36*
G01X9360800Y-8745520D02*
Y-8640520D01*
X10884800D01*
Y-8745520D01*
X9360800D01*
G37*
G36*
G01Y-7410520D02*
Y-7305520D01*
X10884800D01*
Y-7410520D01*
X9360800D01*
G37*
G36*
G01Y-5175520D02*
Y-5070520D01*
X10884800D01*
Y-5175520D01*
X9360800D01*
G37*
G36*
G01Y-3840520D02*
Y-3735520D01*
X10884800D01*
Y-3840520D01*
X9360800D01*
G37*
G54D10*
X-10800000Y-7615000D03*
Y4700000D03*
X1100000Y-7615000D03*
Y4700000D03*
G54D20*
X-3619500Y-7366000D03*
X-3111500D03*
G54D11*
X-10849000Y-4572000D03*
Y-4318000D03*
X-10577500Y819500D03*
X-10472500Y-6583730D03*
Y-5443730D03*
X-10133000Y819500D03*
X-10150000Y1150000D03*
X-10096500Y-4545800D03*
X-9862500Y-6583730D03*
Y-5443730D03*
X-9700000Y944000D03*
Y1586000D03*
X-9652000Y3292500D03*
X-9588500Y-4073500D03*
X-9461500Y-4334500D03*
X-9460000Y1350000D03*
X-9398000Y3307500D03*
X-9298940Y-60000D03*
X-9172420Y472500D03*
X-9175000Y3333000D03*
X-9080500Y-5041000D03*
X-9138940Y-60000D03*
X-9110000Y1520000D03*
X-9017000Y-7547000D03*
X-9015000Y3333000D03*
X-8890000Y381000D03*
X-8735060Y1060280D03*
X-8560000Y2310000D03*
X-8445500Y-5468000D03*
Y-5106000D03*
X-8332500Y-7562500D03*
Y-7200500D03*
X-8318500Y820000D03*
X-8040000Y2309500D03*
X-7810500Y-7293000D03*
Y-5851500D03*
X-7781760Y472500D03*
X-7625500Y-7429500D03*
Y-6350000D03*
X-7647940Y-60000D03*
X-7610500Y-6794500D03*
Y-5715000D03*
X-7487940Y-60000D03*
X-7349500Y-6671000D03*
Y-5591500D03*
X-7153000Y3063000D03*
Y3435000D03*
X-7084060Y1060280D03*
X-6950240Y342500D03*
X-6731000Y3048000D03*
X-6286430Y-4635570D03*
X-6076500Y-5076400D03*
Y-3165200D03*
Y-1626000D03*
Y-1254000D03*
X-6020000Y-5460000D03*
Y-3540000D03*
X-6032500Y-571500D03*
Y-190500D03*
X-6010000Y3275000D03*
X-5950000Y-2470000D03*
X-5840000Y3070000D03*
X-5651500Y-6985000D03*
X-5679790Y-5442400D03*
Y-5312400D03*
Y-5117400D03*
Y-4987400D03*
Y-3531200D03*
Y-3401200D03*
Y-3206200D03*
Y-3076200D03*
Y-1620000D03*
Y-1490000D03*
Y-1295000D03*
Y-1165000D03*
X-5490500Y3048000D03*
Y3456000D03*
X-5330200Y-5442400D03*
Y-5312400D03*
Y-5117400D03*
Y-4987400D03*
Y-3531200D03*
Y-3401200D03*
Y-3206200D03*
Y-3076200D03*
Y-1620000D03*
Y-1490000D03*
Y-1295000D03*
Y-1165000D03*
X-5250000Y2050000D03*
X-5075470Y-5329470D03*
X-5080000Y3080000D03*
X-5016500Y-3492500D03*
Y-1524000D03*
X-4933500Y-5288400D03*
Y-4916400D03*
Y-3377200D03*
Y-3005200D03*
Y-1466000D03*
Y-1094000D03*
X-4347500Y2924000D03*
Y3296000D03*
X-4150500Y-5448400D03*
Y-5076400D03*
Y-3537200D03*
Y-3165200D03*
Y-1626000D03*
Y-1254000D03*
X-3870000Y-4300000D03*
X-3753800Y-5442400D03*
Y-5312400D03*
Y-5117400D03*
Y-4987400D03*
X-3753790Y-3531200D03*
Y-3401200D03*
Y-3206200D03*
Y-3076200D03*
Y-1620000D03*
Y-1490000D03*
Y-1295000D03*
Y-1165000D03*
X-3720000Y1110000D03*
X-3580000Y3546500D03*
X-3460000Y-5220000D03*
X-3404210Y-5442400D03*
Y-5312400D03*
Y-5117400D03*
Y-4987400D03*
X-3404200Y-3531200D03*
Y-3401200D03*
Y-3206200D03*
Y-3076200D03*
Y-1620000D03*
Y-1490000D03*
Y-1295000D03*
Y-1165000D03*
X-3093370Y-3474370D03*
X-3111500Y-1524000D03*
X-3134000Y3392500D03*
Y3764500D03*
X-3007500Y-5288400D03*
Y-4916400D03*
Y-3377200D03*
Y-3005200D03*
Y-1466000D03*
Y-1094000D03*
X-2620000Y-4940000D03*
X-2603500Y-4300000D03*
X-2224500Y-5448400D03*
Y-5076400D03*
Y-3537200D03*
Y-3165200D03*
Y-1626000D03*
Y-1254000D03*
X-2120000Y-320000D03*
X-2140000Y3563500D03*
X-2068210Y-4987400D03*
X-2082140Y-1620000D03*
X-2068200Y-1295000D03*
Y-1165000D03*
X-1991000Y3232500D03*
Y3604500D03*
X-1820000Y-5740000D03*
X-1827800Y-5442400D03*
Y-5312400D03*
Y-5117400D03*
X-1827790Y-3531200D03*
Y-3401200D03*
Y-3206200D03*
X-1810000Y-3076200D03*
Y-1490000D03*
X-1587500Y-1397000D03*
X-1492140Y-1620000D03*
X-1478210Y-5442400D03*
Y-5312400D03*
Y-5117400D03*
Y-4987400D03*
X-1478200Y-3531200D03*
Y-3401200D03*
X-1478210Y-3206200D03*
Y-3076200D03*
Y-1490000D03*
X-1478200Y-1295000D03*
Y-1165000D03*
X-1356000Y3365500D03*
Y3764500D03*
X-1206500Y-5334000D03*
X-1209620Y-3429000D03*
X-1081500Y-5288400D03*
Y-4916400D03*
Y-3377200D03*
Y-3005200D03*
Y-1466000D03*
Y-1094000D03*
X-890000Y354000D03*
X-735000Y-6598000D03*
X-710000Y-4880000D03*
X-670000Y3490000D03*
X-647000Y-7416000D03*
X-630000Y-70000D03*
X-375000Y354000D03*
X-298500Y-5448400D03*
Y-5076400D03*
Y-3537200D03*
Y-3165200D03*
Y874000D03*
Y1246000D03*
X-213000Y3232500D03*
Y3604500D03*
X10000Y-5730000D03*
X51500Y-7416000D03*
X98210Y-5312400D03*
Y-5117400D03*
Y-4987400D03*
Y-3531200D03*
Y-3401200D03*
Y-3206200D03*
Y-3076200D03*
X97500Y-1953500D03*
Y-1591500D03*
X98210Y880000D03*
Y1010000D03*
Y1205000D03*
Y1335000D03*
X200000Y-5442400D03*
X216500Y-2222500D03*
X318500Y3872500D03*
X380000Y-5442400D03*
X447800Y-5312400D03*
Y-5117400D03*
Y-4987400D03*
Y-3531200D03*
Y-3401200D03*
Y-3206200D03*
Y-3076200D03*
X444500Y1075000D03*
X578500Y-2222500D03*
X688200Y880000D03*
Y1010000D03*
Y1205000D03*
Y1335000D03*
X734530Y-5361460D03*
X762000Y-3429000D03*
X844500Y-5288400D03*
Y-4916400D03*
Y-3377200D03*
Y-3005200D03*
Y1034000D03*
Y1406000D03*
X952500Y635000D03*
X1010500Y-4064000D03*
X1220000Y-4410000D03*
X1206500Y3498000D03*
X1367500Y-4747500D03*
X1470000Y-5750000D03*
X1465000Y-4889500D03*
X1702500Y-223000D03*
X1853000Y-5016500D03*
X2222500Y952500D03*
X2272700Y-3238500D03*
X2510000Y-280000D03*
X2603500Y2005000D03*
Y3285000D03*
X2675000Y-3160000D03*
Y-2920000D03*
Y-155000D03*
Y1205000D03*
X2667000Y3365000D03*
X2807500Y-2205000D03*
X3125000Y-6680000D03*
Y-4440000D03*
Y-3320000D03*
Y-75000D03*
Y3125000D03*
X3238500Y-6760000D03*
Y1045000D03*
Y1445000D03*
Y3205000D03*
G54D21*
X-3365500Y-7366000D03*
G54D12*
X-10597500Y1562500D03*
Y1816500D03*
Y2070500D03*
Y2324500D03*
Y2578500D03*
Y2832500D03*
Y3086500D03*
X-10343500Y1562500D03*
Y1816500D03*
Y2070500D03*
Y2324500D03*
Y2578500D03*
Y2832500D03*
Y3086500D03*
G54D13*
X-10472500Y-6183730D03*
G54D22*
X2900000Y-7630000D03*
Y-1970000D03*
Y-945000D03*
Y4715000D03*
G54D23*
X3600000Y-7535000D03*
Y-2065000D03*
Y-850000D03*
Y4620000D03*
G54D14*
X-10541000Y-2348500D03*
Y-2223500D03*
Y-1840500D03*
Y-1715500D03*
X-9411500Y-2348500D03*
Y-2223500D03*
Y-1840500D03*
Y-1715500D03*
X-8382000Y-2094500D03*
Y-1969500D03*
X-8412500Y4450000D03*
X-8287500D03*
X-7912500D03*
X-7787500D03*
X-7412500D03*
X-7287500D03*
X-6912500D03*
X-6787500D03*
X-5968000Y190500D03*
X-6012500Y4450000D03*
X-5887500D03*
X-5843000Y190500D03*
X-5515050Y-7365000D03*
X-5512500Y4450000D03*
X-5460000Y190500D03*
X-5390050Y-7365000D03*
X-5335000Y190500D03*
X-5387500Y4450000D03*
X-5007050Y-7365000D03*
X-5012500Y4450000D03*
X-4952000Y190500D03*
X-4882050Y-7365000D03*
X-4887500Y4450000D03*
X-4827000Y190500D03*
X-4499050Y-7365000D03*
X-4512500Y4450000D03*
X-4374050Y-7365000D03*
X-4387500Y4450000D03*
X-2912500D03*
X-2787500D03*
X-2412500D03*
X-2339080Y-7365000D03*
X-2287500Y4450000D03*
X-2214080Y-7365000D03*
X-1362500Y4450000D03*
X-1237500D03*
X-862500D03*
X-737500D03*
G54D24*
G01X7405000Y-9729240D02*
X7557400D01*
G01X7608200D02*
X7760600D01*
G01X7811400D02*
X7963800D01*
G01X8014600D02*
X8167000D01*
G01X8217800D02*
X8370200D01*
G01X8421000D02*
X8573400D01*
G01X8624200D02*
X8776600D01*
G01X8827400D02*
X8979800D01*
G01X9030600D02*
X9183000D01*
G01X9233800D02*
X9386200D01*
G01X9437000D02*
X9589400D01*
G01X9640200D02*
X9792600D01*
G01X9843400D02*
X9995800D01*
G01X10046600D02*
X10199000D01*
G01X10249800D02*
X10402200D01*
G01X10453000D02*
X10605400D01*
G01X10656200D02*
X10808600D01*
G01X10859400D02*
X11011800D01*
G01X11062600D02*
X11215000D01*
G01X11265800D02*
X11418200D01*
G01X11469000D02*
X11621400D01*
G01X11672200D02*
X11824600D01*
G01X11875400D02*
X12027800D01*
G01X12078600D02*
X12231000D01*
G01X12281800D02*
X12434200D01*
G01X12485000D02*
X12637400D01*
G01X12688200D02*
X12840600D01*
G01X7526920Y-9661510D02*
Y-9458310D01*
X7577720D01*
X7598040Y-9468470D01*
X7613280Y-9482020D01*
X7625980Y-9502330D01*
X7636140Y-9526050D01*
X7638680Y-9559910D01*
X7636140Y-9593780D01*
X7625980Y-9617490D01*
X7613280Y-9637810D01*
X7598040Y-9651350D01*
X7577720Y-9661510D01*
X7526920D01*
G01X7836800D02*
X7735200D01*
Y-9458310D01*
X7836800D01*
G01X7796160Y-9556520D02*
X7735200D01*
G01X7935860Y-9634420D02*
X7956180Y-9651350D01*
X7979040Y-9661510D01*
X7999360D01*
X8019680Y-9651350D01*
X8034920Y-9634420D01*
X8042540Y-9610710D01*
X8037460Y-9587010D01*
X8024760Y-9566680D01*
X8001900Y-9553140D01*
X7971420Y-9546360D01*
X7953640Y-9532820D01*
X7946020Y-9509110D01*
X7951100Y-9485400D01*
X7963800Y-9468470D01*
X7981580Y-9458310D01*
X7999360D01*
X8017140Y-9465080D01*
X8032380Y-9482020D01*
G01X8161920Y-9458310D02*
X8222880D01*
G01X8192400D02*
Y-9661510D01*
G01X8161920D02*
X8222880D01*
G01X8410840Y-9559910D02*
X8461640D01*
Y-9620870D01*
X8446400Y-9641190D01*
X8428620Y-9654740D01*
X8403220Y-9661510D01*
X8377820Y-9654740D01*
X8360040Y-9641190D01*
X8344800Y-9620870D01*
X8334640Y-9597160D01*
X8329560Y-9570070D01*
Y-9546360D01*
X8334640Y-9526050D01*
X8344800Y-9502330D01*
X8360040Y-9482020D01*
X8375280Y-9468470D01*
X8395600Y-9458310D01*
X8413380D01*
X8433700Y-9465080D01*
X8448940Y-9478630D01*
G01X8540380Y-9661510D02*
Y-9458310D01*
X8657220Y-9661510D01*
Y-9458310D01*
G01X9061080Y-9475250D02*
X9045840Y-9465080D01*
X9028060Y-9458310D01*
X9007740D01*
X8984880Y-9468470D01*
X8967100Y-9485400D01*
X8954400Y-9505730D01*
X8944240Y-9539590D01*
X8941700Y-9570070D01*
X8946780Y-9600550D01*
X8954400Y-9620870D01*
X8969640Y-9641190D01*
X8987420Y-9654740D01*
X9005200Y-9661510D01*
X9022980D01*
X9040760Y-9654740D01*
X9056000Y-9644580D01*
X9068700Y-9631040D01*
G01X9157600Y-9661510D02*
Y-9458310D01*
X9221100D01*
X9241420Y-9468470D01*
X9254120Y-9482020D01*
X9259200Y-9509110D01*
X9254120Y-9536210D01*
X9238880Y-9553140D01*
X9221100Y-9563300D01*
X9157600D01*
G01X9221100D02*
X9259200Y-9661510D01*
G01X9411600D02*
X9391280Y-9658120D01*
X9373500Y-9644580D01*
X9358260Y-9624260D01*
X9348100Y-9600550D01*
X9343020Y-9573460D01*
Y-9546360D01*
X9348100Y-9519270D01*
X9358260Y-9495560D01*
X9373500Y-9475250D01*
X9391280Y-9461700D01*
X9411600Y-9458310D01*
X9431920Y-9461700D01*
X9449700Y-9475250D01*
X9464940Y-9495560D01*
X9475100Y-9519270D01*
X9480180Y-9546360D01*
Y-9573460D01*
X9475100Y-9600550D01*
X9464940Y-9624260D01*
X9449700Y-9644580D01*
X9431920Y-9658120D01*
X9411600Y-9661510D01*
G01X9561460Y-9634420D02*
X9581780Y-9651350D01*
X9604640Y-9661510D01*
X9624960D01*
X9645280Y-9651350D01*
X9660520Y-9634420D01*
X9668140Y-9610710D01*
X9663060Y-9587010D01*
X9650360Y-9566680D01*
X9627500Y-9553140D01*
X9597020Y-9546360D01*
X9579240Y-9532820D01*
X9571620Y-9509110D01*
X9576700Y-9485400D01*
X9589400Y-9468470D01*
X9607180Y-9458310D01*
X9624960D01*
X9642740Y-9465080D01*
X9657980Y-9482020D01*
G01X9764660Y-9634420D02*
X9784980Y-9651350D01*
X9807840Y-9661510D01*
X9828160D01*
X9848480Y-9651350D01*
X9863720Y-9634420D01*
X9871340Y-9610710D01*
X9866260Y-9587010D01*
X9853560Y-9566680D01*
X9830700Y-9553140D01*
X9800220Y-9546360D01*
X9782440Y-9532820D01*
X9774820Y-9509110D01*
X9779900Y-9485400D01*
X9792600Y-9468470D01*
X9810380Y-9458310D01*
X9828160D01*
X9845940Y-9465080D01*
X9861180Y-9482020D01*
G01X10171060Y-9634420D02*
X10191380Y-9651350D01*
X10214240Y-9661510D01*
X10234560D01*
X10254880Y-9651350D01*
X10270120Y-9634420D01*
X10277740Y-9610710D01*
X10272660Y-9587010D01*
X10259960Y-9566680D01*
X10237100Y-9553140D01*
X10206620Y-9546360D01*
X10188840Y-9532820D01*
X10181220Y-9509110D01*
X10186300Y-9485400D01*
X10199000Y-9468470D01*
X10216780Y-9458310D01*
X10234560D01*
X10252340Y-9465080D01*
X10267580Y-9482020D01*
G01X10478400Y-9661510D02*
X10376800D01*
Y-9458310D01*
X10478400D01*
G01X10437760Y-9556520D02*
X10376800D01*
G01X10686680Y-9475250D02*
X10671440Y-9465080D01*
X10653660Y-9458310D01*
X10633340D01*
X10610480Y-9468470D01*
X10592700Y-9485400D01*
X10580000Y-9505730D01*
X10569840Y-9539590D01*
X10567300Y-9570070D01*
X10572380Y-9600550D01*
X10580000Y-9620870D01*
X10595240Y-9641190D01*
X10613020Y-9654740D01*
X10630800Y-9661510D01*
X10648580D01*
X10666360Y-9654740D01*
X10681600Y-9644580D01*
X10694300Y-9631040D01*
G01X10834000Y-9458310D02*
Y-9661510D01*
G01X10775580Y-9458310D02*
X10892420D01*
G01X11006720D02*
X11067680D01*
G01X11037200D02*
Y-9661510D01*
G01X11006720D02*
X11067680D01*
G01X11240400D02*
X11220080Y-9658120D01*
X11202300Y-9644580D01*
X11187060Y-9624260D01*
X11176900Y-9600550D01*
X11171820Y-9573460D01*
Y-9546360D01*
X11176900Y-9519270D01*
X11187060Y-9495560D01*
X11202300Y-9475250D01*
X11220080Y-9461700D01*
X11240400Y-9458310D01*
X11260720Y-9461700D01*
X11278500Y-9475250D01*
X11293740Y-9495560D01*
X11303900Y-9519270D01*
X11308980Y-9546360D01*
Y-9573460D01*
X11303900Y-9600550D01*
X11293740Y-9624260D01*
X11278500Y-9644580D01*
X11260720Y-9658120D01*
X11240400Y-9661510D01*
G01X11385180D02*
Y-9458310D01*
X11502020Y-9661510D01*
Y-9458310D01*
G01X11905880Y-9475250D02*
X11890640Y-9465080D01*
X11872860Y-9458310D01*
X11852540D01*
X11829680Y-9468470D01*
X11811900Y-9485400D01*
X11799200Y-9505730D01*
X11789040Y-9539590D01*
X11786500Y-9570070D01*
X11791580Y-9600550D01*
X11799200Y-9620870D01*
X11814440Y-9641190D01*
X11832220Y-9654740D01*
X11850000Y-9661510D01*
X11867780D01*
X11885560Y-9654740D01*
X11900800Y-9644580D01*
X11913500Y-9631040D01*
G01X11999860Y-9661510D02*
Y-9458310D01*
G01X12106540D02*
Y-9661510D01*
G01Y-9559910D02*
X11999860D01*
G01X12192900Y-9661510D02*
X12256400Y-9458310D01*
X12319900Y-9661510D01*
G01X12297040Y-9590390D02*
X12215760D01*
G01X12408800Y-9661510D02*
Y-9458310D01*
X12472300D01*
X12492620Y-9468470D01*
X12505320Y-9482020D01*
X12510400Y-9509110D01*
X12505320Y-9536210D01*
X12490080Y-9553140D01*
X12472300Y-9563300D01*
X12408800D01*
G01X12472300D02*
X12510400Y-9661510D01*
G01X12662800Y-9458310D02*
Y-9661510D01*
G01X12604380Y-9458310D02*
X12721220D01*
G01X7887600Y-9824070D02*
Y-10027270D01*
G01X7829180Y-9824070D02*
X7946020D01*
G01X8090800Y-10027270D02*
X8070480Y-10023880D01*
X8052700Y-10010340D01*
X8037460Y-9990020D01*
X8027300Y-9966310D01*
X8022220Y-9939220D01*
Y-9912120D01*
X8027300Y-9885030D01*
X8037460Y-9861320D01*
X8052700Y-9841010D01*
X8070480Y-9827460D01*
X8090800Y-9824070D01*
X8111120Y-9827460D01*
X8128900Y-9841010D01*
X8144140Y-9861320D01*
X8154300Y-9885030D01*
X8159380Y-9912120D01*
Y-9939220D01*
X8154300Y-9966310D01*
X8144140Y-9990020D01*
X8128900Y-10010340D01*
X8111120Y-10023880D01*
X8090800Y-10027270D01*
G01X8294000Y-9824070D02*
Y-10027270D01*
G01X8235580Y-9824070D02*
X8352420D01*
G01X8433700Y-10027270D02*
X8497200Y-9824070D01*
X8560700Y-10027270D01*
G01X8537840Y-9956150D02*
X8456560D01*
G01X8649600Y-9824070D02*
Y-10027270D01*
X8751200D01*
G01X9106800Y-9824070D02*
Y-10027270D01*
G01X9048380Y-9824070D02*
X9165220D01*
G01X9256660Y-10027270D02*
Y-9824070D01*
G01X9363340D02*
Y-10027270D01*
G01Y-9925670D02*
X9256660D01*
G01X9482720Y-9824070D02*
X9543680D01*
G01X9513200D02*
Y-10027270D01*
G01X9482720D02*
X9543680D01*
G01X9772280Y-9841010D02*
X9757040Y-9830840D01*
X9739260Y-9824070D01*
X9718940D01*
X9696080Y-9834230D01*
X9678300Y-9851160D01*
X9665600Y-9871490D01*
X9655440Y-9905350D01*
X9652900Y-9935830D01*
X9657980Y-9966310D01*
X9665600Y-9986630D01*
X9680840Y-10006950D01*
X9698620Y-10020500D01*
X9716400Y-10027270D01*
X9734180D01*
X9751960Y-10020500D01*
X9767200Y-10010340D01*
X9779900Y-9996800D01*
G01X9863720Y-10027270D02*
Y-9824070D01*
G01X9960240D02*
X9863720Y-9949380D01*
G01X9975480Y-10027270D02*
X9906900Y-9891810D01*
G01X10064380Y-10027270D02*
Y-9824070D01*
X10181220Y-10027270D01*
Y-9824070D01*
G01X10376800Y-10027270D02*
X10275200D01*
Y-9824070D01*
X10376800D01*
G01X10336160Y-9922280D02*
X10275200D01*
G01X10475860Y-10000180D02*
X10496180Y-10017110D01*
X10519040Y-10027270D01*
X10539360D01*
X10559680Y-10017110D01*
X10574920Y-10000180D01*
X10582540Y-9976470D01*
X10577460Y-9952770D01*
X10564760Y-9932440D01*
X10541900Y-9918900D01*
X10511420Y-9912120D01*
X10493640Y-9898580D01*
X10486020Y-9874870D01*
X10491100Y-9851160D01*
X10503800Y-9834230D01*
X10521580Y-9824070D01*
X10539360D01*
X10557140Y-9830840D01*
X10572380Y-9847780D01*
G01X10679060Y-10000180D02*
X10699380Y-10017110D01*
X10722240Y-10027270D01*
X10742560D01*
X10762880Y-10017110D01*
X10778120Y-10000180D01*
X10785740Y-9976470D01*
X10780660Y-9952770D01*
X10767960Y-9932440D01*
X10745100Y-9918900D01*
X10714620Y-9912120D01*
X10696840Y-9898580D01*
X10689220Y-9874870D01*
X10694300Y-9851160D01*
X10707000Y-9834230D01*
X10724780Y-9824070D01*
X10742560D01*
X10760340Y-9830840D01*
X10775580Y-9847780D01*
G01X11138800Y-10027270D02*
Y-9824070D01*
X11108320Y-9864710D01*
G01Y-10027270D02*
X11169280D01*
G01X11342000Y-10034040D02*
X11336920Y-10030660D01*
Y-10023880D01*
X11342000Y-10020500D01*
X11347080Y-10023880D01*
Y-10030660D01*
X11342000Y-10034040D01*
G01X11496940Y-9942610D02*
X11514720Y-9918900D01*
X11529960Y-9905350D01*
X11550280Y-9898580D01*
X11568060Y-9905350D01*
X11580760Y-9918900D01*
X11590920Y-9939220D01*
X11593460Y-9962920D01*
X11590920Y-9983250D01*
X11580760Y-10003570D01*
X11565520Y-10020500D01*
X11547740Y-10027270D01*
X11527420Y-10020500D01*
X11509640Y-10000180D01*
X11499480Y-9969700D01*
X11496940Y-9935830D01*
X11502020Y-9891810D01*
X11509640Y-9868090D01*
X11522340Y-9844390D01*
X11540120Y-9827460D01*
X11557900Y-9824070D01*
X11575680Y-9830840D01*
X11588380Y-9847780D01*
G01X11743320Y-10027270D02*
X11748400Y-9983250D01*
X11756020Y-9945990D01*
X11766180Y-9912120D01*
X11778880Y-9874870D01*
X11799200Y-9824070D01*
X11697600D01*
G01X12088760Y-10027270D02*
Y-9824070D01*
X12154800Y-9993400D01*
X12220840Y-9824070D01*
Y-10027270D01*
G01X12291960D02*
Y-9824070D01*
X12358000Y-9993400D01*
X12424040Y-9824070D01*
Y-10027270D01*
G01X10059300Y-3456120D02*
X9856100D01*
X9896740Y-3486600D01*
G01X10059300D02*
Y-3425640D01*
G01X9991570Y-3285940D02*
Y-3219900D01*
G01X10059300Y-3019240D02*
X9856100D01*
X10001730Y-3113220D01*
Y-2986220D01*
G01X11514720Y-9189150D02*
X11626480Y-9040140D01*
G01X11570600Y-9013050D02*
Y-9216250D01*
G01X11626480Y-9189150D02*
X11514720Y-9040140D01*
G01X11494400Y-9114650D02*
X11646800D01*
G01X12126860Y-9155290D02*
X12147180Y-9172220D01*
X12170040Y-9182380D01*
X12190360D01*
X12210680Y-9172220D01*
X12225920Y-9155290D01*
X12233540Y-9131580D01*
X12228460Y-9107880D01*
X12215760Y-9087550D01*
X12192900Y-9074010D01*
X12162420Y-9067230D01*
X12144640Y-9053690D01*
X12137020Y-9029980D01*
X12142100Y-9006270D01*
X12154800Y-8989340D01*
X12172580Y-8979180D01*
X12190360D01*
X12208140Y-8985950D01*
X12223380Y-9002890D01*
G01X12327520Y-8979180D02*
Y-9124810D01*
X12337680Y-9155290D01*
X12358000Y-9175610D01*
X12383400Y-9182380D01*
X12408800Y-9175610D01*
X12429120Y-9155290D01*
X12439280Y-9124810D01*
Y-8979180D01*
G01X12535800Y-9182380D02*
Y-8979180D01*
X12599300D01*
X12619620Y-8989340D01*
X12632320Y-9002890D01*
X12637400Y-9029980D01*
X12632320Y-9057080D01*
X12617080Y-9074010D01*
X12599300Y-9084170D01*
X12535800D01*
G01X12599300D02*
X12637400Y-9182380D01*
G01X12741540D02*
Y-8979180D01*
X12838060D01*
G01X12802500Y-9077390D02*
X12741540D01*
G01X12929500Y-9182380D02*
X12993000Y-8979180D01*
X13056500Y-9182380D01*
G01X13033640Y-9111260D02*
X12952360D01*
G01X13252080Y-8996120D02*
X13236840Y-8985950D01*
X13219060Y-8979180D01*
X13198740D01*
X13175880Y-8989340D01*
X13158100Y-9006270D01*
X13145400Y-9026600D01*
X13135240Y-9060460D01*
X13132700Y-9090940D01*
X13137780Y-9121420D01*
X13145400Y-9141740D01*
X13160640Y-9162060D01*
X13178420Y-9175610D01*
X13196200Y-9182380D01*
X13213980D01*
X13231760Y-9175610D01*
X13247000Y-9165450D01*
X13259700Y-9151910D01*
G01X13450200Y-9182380D02*
X13348600D01*
Y-8979180D01*
X13450200D01*
G01X13409560Y-9077390D02*
X13348600D01*
G01X11113400Y-8708250D02*
Y-8911450D01*
X11215000D01*
G01X11397880D02*
Y-8708250D01*
X11303900Y-8853880D01*
X11430900D01*
G01X11794120Y-8803080D02*
X11804280Y-8792920D01*
X11811900Y-8775990D01*
X11816980Y-8752270D01*
X11811900Y-8731960D01*
X11801740Y-8718410D01*
X11783960Y-8708250D01*
X11715380D01*
Y-8911450D01*
X11799200D01*
X11816980Y-8897910D01*
X11827140Y-8877580D01*
X11832220Y-8853880D01*
X11827140Y-8830170D01*
X11811900Y-8809850D01*
X11794120Y-8803080D01*
X11715380D01*
G01X11977000Y-8911450D02*
X11956680Y-8908060D01*
X11938900Y-8894520D01*
X11923660Y-8874200D01*
X11913500Y-8850490D01*
X11908420Y-8823400D01*
Y-8796300D01*
X11913500Y-8769210D01*
X11923660Y-8745500D01*
X11938900Y-8725190D01*
X11956680Y-8711640D01*
X11977000Y-8708250D01*
X11997320Y-8711640D01*
X12015100Y-8725190D01*
X12030340Y-8745500D01*
X12040500Y-8769210D01*
X12045580Y-8796300D01*
Y-8823400D01*
X12040500Y-8850490D01*
X12030340Y-8874200D01*
X12015100Y-8894520D01*
X11997320Y-8908060D01*
X11977000Y-8911450D01*
G01X12180200Y-8708250D02*
Y-8911450D01*
G01X12121780Y-8708250D02*
X12238620D01*
G01X12383400D02*
Y-8911450D01*
G01X12324980Y-8708250D02*
X12441820D01*
G01X12586600Y-8911450D02*
X12566280Y-8908060D01*
X12548500Y-8894520D01*
X12533260Y-8874200D01*
X12523100Y-8850490D01*
X12518020Y-8823400D01*
Y-8796300D01*
X12523100Y-8769210D01*
X12533260Y-8745500D01*
X12548500Y-8725190D01*
X12566280Y-8711640D01*
X12586600Y-8708250D01*
X12606920Y-8711640D01*
X12624700Y-8725190D01*
X12639940Y-8745500D01*
X12650100Y-8769210D01*
X12655180Y-8796300D01*
Y-8823400D01*
X12650100Y-8850490D01*
X12639940Y-8874200D01*
X12624700Y-8894520D01*
X12606920Y-8908060D01*
X12586600Y-8911450D01*
G01X12723760D02*
Y-8708250D01*
X12789800Y-8877580D01*
X12855840Y-8708250D01*
Y-8911450D01*
G01X13252080Y-8725190D02*
X13236840Y-8715020D01*
X13219060Y-8708250D01*
X13198740D01*
X13175880Y-8718410D01*
X13158100Y-8735340D01*
X13145400Y-8755670D01*
X13135240Y-8789530D01*
X13132700Y-8820010D01*
X13137780Y-8850490D01*
X13145400Y-8870810D01*
X13160640Y-8891130D01*
X13178420Y-8904680D01*
X13196200Y-8911450D01*
X13213980D01*
X13231760Y-8904680D01*
X13247000Y-8894520D01*
X13259700Y-8880980D01*
G01X13399400Y-8911450D02*
X13379080Y-8908060D01*
X13361300Y-8894520D01*
X13346060Y-8874200D01*
X13335900Y-8850490D01*
X13330820Y-8823400D01*
Y-8796300D01*
X13335900Y-8769210D01*
X13346060Y-8745500D01*
X13361300Y-8725190D01*
X13379080Y-8711640D01*
X13399400Y-8708250D01*
X13419720Y-8711640D01*
X13437500Y-8725190D01*
X13452740Y-8745500D01*
X13462900Y-8769210D01*
X13467980Y-8796300D01*
Y-8823400D01*
X13462900Y-8850490D01*
X13452740Y-8874200D01*
X13437500Y-8894520D01*
X13419720Y-8908060D01*
X13399400Y-8911450D01*
G01X13544180D02*
Y-8708250D01*
X13661020Y-8911450D01*
Y-8708250D01*
G01X13749920Y-8911450D02*
Y-8708250D01*
X13800720D01*
X13821040Y-8718410D01*
X13836280Y-8731960D01*
X13848980Y-8752270D01*
X13859140Y-8775990D01*
X13861680Y-8809850D01*
X13859140Y-8843720D01*
X13848980Y-8867430D01*
X13836280Y-8887750D01*
X13821040Y-8901290D01*
X13800720Y-8911450D01*
X13749920D01*
G01X13953120Y-8708250D02*
Y-8853880D01*
X13963280Y-8884360D01*
X13983600Y-8904680D01*
X14009000Y-8911450D01*
X14034400Y-8904680D01*
X14054720Y-8884360D01*
X14064880Y-8853880D01*
Y-8708250D01*
G01X14268080Y-8725190D02*
X14252840Y-8715020D01*
X14235060Y-8708250D01*
X14214740D01*
X14191880Y-8718410D01*
X14174100Y-8735340D01*
X14161400Y-8755670D01*
X14151240Y-8789530D01*
X14148700Y-8820010D01*
X14153780Y-8850490D01*
X14161400Y-8870810D01*
X14176640Y-8891130D01*
X14194420Y-8904680D01*
X14212200Y-8911450D01*
X14229980D01*
X14247760Y-8904680D01*
X14263000Y-8894520D01*
X14275700Y-8880980D01*
G01X14415400Y-8708250D02*
Y-8911450D01*
G01X14356980Y-8708250D02*
X14473820D01*
G01X14618600Y-8911450D02*
X14598280Y-8908060D01*
X14580500Y-8894520D01*
X14565260Y-8874200D01*
X14555100Y-8850490D01*
X14550020Y-8823400D01*
Y-8796300D01*
X14555100Y-8769210D01*
X14565260Y-8745500D01*
X14580500Y-8725190D01*
X14598280Y-8711640D01*
X14618600Y-8708250D01*
X14638920Y-8711640D01*
X14656700Y-8725190D01*
X14671940Y-8745500D01*
X14682100Y-8769210D01*
X14687180Y-8796300D01*
Y-8823400D01*
X14682100Y-8850490D01*
X14671940Y-8874200D01*
X14656700Y-8894520D01*
X14638920Y-8908060D01*
X14618600Y-8911450D01*
G01X14771000D02*
Y-8708250D01*
X14834500D01*
X14854820Y-8718410D01*
X14867520Y-8731960D01*
X14872600Y-8759050D01*
X14867520Y-8786150D01*
X14852280Y-8803080D01*
X14834500Y-8813240D01*
X14771000D01*
G01X14834500D02*
X14872600Y-8911450D01*
G01X11514720Y-8032290D02*
X11626480Y-7883280D01*
G01X11570600Y-7856190D02*
Y-8059390D01*
G01X11626480Y-8032290D02*
X11514720Y-7883280D01*
G01X11494400Y-7957790D02*
X11646800D01*
G01X12124320Y-8025520D02*
Y-7822320D01*
X12175120D01*
X12195440Y-7832480D01*
X12210680Y-7846030D01*
X12223380Y-7866340D01*
X12233540Y-7890060D01*
X12236080Y-7923920D01*
X12233540Y-7957790D01*
X12223380Y-7981500D01*
X12210680Y-8001820D01*
X12195440Y-8015360D01*
X12175120Y-8025520D01*
X12124320D01*
G01X12352920Y-7822320D02*
X12413880D01*
G01X12383400D02*
Y-8025520D01*
G01X12352920D02*
X12413880D01*
G01X12637400D02*
X12535800D01*
Y-7822320D01*
X12637400D01*
G01X12596760Y-7920530D02*
X12535800D01*
G01X12739000Y-7822320D02*
Y-8025520D01*
X12840600D01*
G01X13043800D02*
X12942200D01*
Y-7822320D01*
X13043800D01*
G01X13003160Y-7920530D02*
X12942200D01*
G01X13252080Y-7839260D02*
X13236840Y-7829090D01*
X13219060Y-7822320D01*
X13198740D01*
X13175880Y-7832480D01*
X13158100Y-7849410D01*
X13145400Y-7869740D01*
X13135240Y-7903600D01*
X13132700Y-7934080D01*
X13137780Y-7964560D01*
X13145400Y-7984880D01*
X13160640Y-8005200D01*
X13178420Y-8018750D01*
X13196200Y-8025520D01*
X13213980D01*
X13231760Y-8018750D01*
X13247000Y-8008590D01*
X13259700Y-7995050D01*
G01X13399400Y-7822320D02*
Y-8025520D01*
G01X13340980Y-7822320D02*
X13457820D01*
G01X13551800Y-8025520D02*
Y-7822320D01*
X13615300D01*
X13635620Y-7832480D01*
X13648320Y-7846030D01*
X13653400Y-7873120D01*
X13648320Y-7900220D01*
X13633080Y-7917150D01*
X13615300Y-7927310D01*
X13551800D01*
G01X13615300D02*
X13653400Y-8025520D01*
G01X13775320Y-7822320D02*
X13836280D01*
G01X13805800D02*
Y-8025520D01*
G01X13775320D02*
X13836280D01*
G01X14064880Y-7839260D02*
X14049640Y-7829090D01*
X14031860Y-7822320D01*
X14011540D01*
X13988680Y-7832480D01*
X13970900Y-7849410D01*
X13958200Y-7869740D01*
X13948040Y-7903600D01*
X13945500Y-7934080D01*
X13950580Y-7964560D01*
X13958200Y-7984880D01*
X13973440Y-8005200D01*
X13991220Y-8018750D01*
X14009000Y-8025520D01*
X14026780D01*
X14044560Y-8018750D01*
X14059800Y-8008590D01*
X14072500Y-7995050D01*
G01X11113400Y-7373250D02*
Y-7576450D01*
X11215000D01*
G01X11311520Y-7535810D02*
X11326760Y-7559520D01*
X11347080Y-7573060D01*
X11369940Y-7576450D01*
X11390260Y-7573060D01*
X11410580Y-7556130D01*
X11423280Y-7535810D01*
X11425820Y-7515490D01*
X11420740Y-7491790D01*
X11402960Y-7474850D01*
X11385180Y-7468080D01*
X11362320D01*
G01X11385180D02*
X11400420Y-7457920D01*
X11413120Y-7440990D01*
X11418200Y-7420670D01*
X11413120Y-7400340D01*
X11400420Y-7383410D01*
X11377560Y-7373250D01*
X11354700Y-7376640D01*
X11331840Y-7390190D01*
G01X11789040Y-7474850D02*
X11839840D01*
Y-7535810D01*
X11824600Y-7556130D01*
X11806820Y-7569680D01*
X11781420Y-7576450D01*
X11756020Y-7569680D01*
X11738240Y-7556130D01*
X11723000Y-7535810D01*
X11712840Y-7512100D01*
X11707760Y-7485010D01*
Y-7461300D01*
X11712840Y-7440990D01*
X11723000Y-7417270D01*
X11738240Y-7396960D01*
X11753480Y-7383410D01*
X11773800Y-7373250D01*
X11791580D01*
X11811900Y-7380020D01*
X11827140Y-7393570D01*
G01X11918580Y-7576450D02*
Y-7373250D01*
X12035420Y-7576450D01*
Y-7373250D01*
G01X12124320Y-7576450D02*
Y-7373250D01*
X12175120D01*
X12195440Y-7383410D01*
X12210680Y-7396960D01*
X12223380Y-7417270D01*
X12233540Y-7440990D01*
X12236080Y-7474850D01*
X12233540Y-7508720D01*
X12223380Y-7532430D01*
X12210680Y-7552750D01*
X12195440Y-7566290D01*
X12175120Y-7576450D01*
X12124320D01*
G01X12535800D02*
Y-7373250D01*
X12596760D01*
X12617080Y-7383410D01*
X12632320Y-7407120D01*
X12637400Y-7434210D01*
X12632320Y-7461300D01*
X12619620Y-7481620D01*
X12596760Y-7491790D01*
X12535800D01*
G01X12739000Y-7373250D02*
Y-7576450D01*
X12840600D01*
G01X12929500D02*
X12993000Y-7373250D01*
X13056500Y-7576450D01*
G01X13033640Y-7505330D02*
X12952360D01*
G01X13137780Y-7576450D02*
Y-7373250D01*
X13254620Y-7576450D01*
Y-7373250D01*
G01X13450200Y-7576450D02*
X13348600D01*
Y-7373250D01*
X13450200D01*
G01X13409560Y-7471460D02*
X13348600D01*
G01X11514720Y-6247290D02*
X11626480Y-6098280D01*
G01X11570600Y-6071190D02*
Y-6274390D01*
G01X11626480Y-6247290D02*
X11514720Y-6098280D01*
G01X11494400Y-6172790D02*
X11646800D01*
G01X12124320Y-6240520D02*
Y-6037320D01*
X12175120D01*
X12195440Y-6047480D01*
X12210680Y-6061030D01*
X12223380Y-6081340D01*
X12233540Y-6105060D01*
X12236080Y-6138920D01*
X12233540Y-6172790D01*
X12223380Y-6196500D01*
X12210680Y-6216820D01*
X12195440Y-6230360D01*
X12175120Y-6240520D01*
X12124320D01*
G01X12352920Y-6037320D02*
X12413880D01*
G01X12383400D02*
Y-6240520D01*
G01X12352920D02*
X12413880D01*
G01X12637400D02*
X12535800D01*
Y-6037320D01*
X12637400D01*
G01X12596760Y-6135530D02*
X12535800D01*
G01X12739000Y-6037320D02*
Y-6240520D01*
X12840600D01*
G01X13043800D02*
X12942200D01*
Y-6037320D01*
X13043800D01*
G01X13003160Y-6135530D02*
X12942200D01*
G01X13252080Y-6054260D02*
X13236840Y-6044090D01*
X13219060Y-6037320D01*
X13198740D01*
X13175880Y-6047480D01*
X13158100Y-6064410D01*
X13145400Y-6084740D01*
X13135240Y-6118600D01*
X13132700Y-6149080D01*
X13137780Y-6179560D01*
X13145400Y-6199880D01*
X13160640Y-6220200D01*
X13178420Y-6233750D01*
X13196200Y-6240520D01*
X13213980D01*
X13231760Y-6233750D01*
X13247000Y-6223590D01*
X13259700Y-6210050D01*
G01X13399400Y-6037320D02*
Y-6240520D01*
G01X13340980Y-6037320D02*
X13457820D01*
G01X13551800Y-6240520D02*
Y-6037320D01*
X13615300D01*
X13635620Y-6047480D01*
X13648320Y-6061030D01*
X13653400Y-6088120D01*
X13648320Y-6115220D01*
X13633080Y-6132150D01*
X13615300Y-6142310D01*
X13551800D01*
G01X13615300D02*
X13653400Y-6240520D01*
G01X13775320Y-6037320D02*
X13836280D01*
G01X13805800D02*
Y-6240520D01*
G01X13775320D02*
X13836280D01*
G01X14064880Y-6054260D02*
X14049640Y-6044090D01*
X14031860Y-6037320D01*
X14011540D01*
X13988680Y-6047480D01*
X13970900Y-6064410D01*
X13958200Y-6084740D01*
X13948040Y-6118600D01*
X13945500Y-6149080D01*
X13950580Y-6179560D01*
X13958200Y-6199880D01*
X13973440Y-6220200D01*
X13991220Y-6233750D01*
X14009000Y-6240520D01*
X14026780D01*
X14044560Y-6233750D01*
X14059800Y-6223590D01*
X14072500Y-6210050D01*
G01X11113400Y-5138250D02*
Y-5341450D01*
X11215000D01*
G01X11319140Y-5172120D02*
X11334380Y-5151800D01*
X11352160Y-5141640D01*
X11372480Y-5138250D01*
X11397880Y-5145020D01*
X11415660Y-5161960D01*
X11420740Y-5182270D01*
X11418200Y-5202600D01*
X11408040Y-5219530D01*
X11357240Y-5253400D01*
X11334380Y-5277100D01*
X11319140Y-5310980D01*
X11314060Y-5341450D01*
X11420740D01*
G01X11723000D02*
Y-5138250D01*
X11783960D01*
X11804280Y-5148410D01*
X11819520Y-5172120D01*
X11824600Y-5199210D01*
X11819520Y-5226300D01*
X11806820Y-5246620D01*
X11783960Y-5256790D01*
X11723000D01*
G01X11977000Y-5341450D02*
X11956680Y-5338060D01*
X11938900Y-5324520D01*
X11923660Y-5304200D01*
X11913500Y-5280490D01*
X11908420Y-5253400D01*
Y-5226300D01*
X11913500Y-5199210D01*
X11923660Y-5175500D01*
X11938900Y-5155190D01*
X11956680Y-5141640D01*
X11977000Y-5138250D01*
X11997320Y-5141640D01*
X12015100Y-5155190D01*
X12030340Y-5175500D01*
X12040500Y-5199210D01*
X12045580Y-5226300D01*
Y-5253400D01*
X12040500Y-5280490D01*
X12030340Y-5304200D01*
X12015100Y-5324520D01*
X11997320Y-5338060D01*
X11977000Y-5341450D01*
G01X12104000Y-5138250D02*
X12139560Y-5341450D01*
X12180200Y-5138250D01*
X12220840Y-5341450D01*
X12256400Y-5138250D01*
G01X12434200Y-5341450D02*
X12332600D01*
Y-5138250D01*
X12434200D01*
G01X12393560Y-5236460D02*
X12332600D01*
G01X12535800Y-5341450D02*
Y-5138250D01*
X12599300D01*
X12619620Y-5148410D01*
X12632320Y-5161960D01*
X12637400Y-5189050D01*
X12632320Y-5216150D01*
X12617080Y-5233080D01*
X12599300Y-5243240D01*
X12535800D01*
G01X12599300D02*
X12637400Y-5341450D01*
G01X13048880Y-5155190D02*
X13033640Y-5145020D01*
X13015860Y-5138250D01*
X12995540D01*
X12972680Y-5148410D01*
X12954900Y-5165340D01*
X12942200Y-5185670D01*
X12932040Y-5219530D01*
X12929500Y-5250010D01*
X12934580Y-5280490D01*
X12942200Y-5300810D01*
X12957440Y-5321130D01*
X12975220Y-5334680D01*
X12993000Y-5341450D01*
X13010780D01*
X13028560Y-5334680D01*
X13043800Y-5324520D01*
X13056500Y-5310980D01*
G01X13196200Y-5341450D02*
X13175880Y-5338060D01*
X13158100Y-5324520D01*
X13142860Y-5304200D01*
X13132700Y-5280490D01*
X13127620Y-5253400D01*
Y-5226300D01*
X13132700Y-5199210D01*
X13142860Y-5175500D01*
X13158100Y-5155190D01*
X13175880Y-5141640D01*
X13196200Y-5138250D01*
X13216520Y-5141640D01*
X13234300Y-5155190D01*
X13249540Y-5175500D01*
X13259700Y-5199210D01*
X13264780Y-5226300D01*
Y-5253400D01*
X13259700Y-5280490D01*
X13249540Y-5304200D01*
X13234300Y-5324520D01*
X13216520Y-5338060D01*
X13196200Y-5341450D01*
G01X13340980D02*
Y-5138250D01*
X13457820Y-5341450D01*
Y-5138250D01*
G01X13546720Y-5341450D02*
Y-5138250D01*
X13597520D01*
X13617840Y-5148410D01*
X13633080Y-5161960D01*
X13645780Y-5182270D01*
X13655940Y-5205990D01*
X13658480Y-5239850D01*
X13655940Y-5273720D01*
X13645780Y-5297430D01*
X13633080Y-5317750D01*
X13617840Y-5331290D01*
X13597520Y-5341450D01*
X13546720D01*
G01X13749920Y-5138250D02*
Y-5283880D01*
X13760080Y-5314360D01*
X13780400Y-5334680D01*
X13805800Y-5341450D01*
X13831200Y-5334680D01*
X13851520Y-5314360D01*
X13861680Y-5283880D01*
Y-5138250D01*
G01X14064880Y-5155190D02*
X14049640Y-5145020D01*
X14031860Y-5138250D01*
X14011540D01*
X13988680Y-5148410D01*
X13970900Y-5165340D01*
X13958200Y-5185670D01*
X13948040Y-5219530D01*
X13945500Y-5250010D01*
X13950580Y-5280490D01*
X13958200Y-5300810D01*
X13973440Y-5321130D01*
X13991220Y-5334680D01*
X14009000Y-5341450D01*
X14026780D01*
X14044560Y-5334680D01*
X14059800Y-5324520D01*
X14072500Y-5310980D01*
G01X14212200Y-5138250D02*
Y-5341450D01*
G01X14153780Y-5138250D02*
X14270620D01*
G01X14415400Y-5341450D02*
X14395080Y-5338060D01*
X14377300Y-5324520D01*
X14362060Y-5304200D01*
X14351900Y-5280490D01*
X14346820Y-5253400D01*
Y-5226300D01*
X14351900Y-5199210D01*
X14362060Y-5175500D01*
X14377300Y-5155190D01*
X14395080Y-5141640D01*
X14415400Y-5138250D01*
X14435720Y-5141640D01*
X14453500Y-5155190D01*
X14468740Y-5175500D01*
X14478900Y-5199210D01*
X14483980Y-5226300D01*
Y-5253400D01*
X14478900Y-5280490D01*
X14468740Y-5304200D01*
X14453500Y-5324520D01*
X14435720Y-5338060D01*
X14415400Y-5341450D01*
G01X14567800D02*
Y-5138250D01*
X14631300D01*
X14651620Y-5148410D01*
X14664320Y-5161960D01*
X14669400Y-5189050D01*
X14664320Y-5216150D01*
X14649080Y-5233080D01*
X14631300Y-5243240D01*
X14567800D01*
G01X14631300D02*
X14669400Y-5341450D01*
G01X11514720Y-4462290D02*
X11626480Y-4313280D01*
G01X11570600Y-4286190D02*
Y-4489390D01*
G01X11626480Y-4462290D02*
X11514720Y-4313280D01*
G01X11494400Y-4387790D02*
X11646800D01*
G01X12124320Y-4455520D02*
Y-4252320D01*
X12175120D01*
X12195440Y-4262480D01*
X12210680Y-4276030D01*
X12223380Y-4296340D01*
X12233540Y-4320060D01*
X12236080Y-4353920D01*
X12233540Y-4387790D01*
X12223380Y-4411500D01*
X12210680Y-4431820D01*
X12195440Y-4445360D01*
X12175120Y-4455520D01*
X12124320D01*
G01X12352920Y-4252320D02*
X12413880D01*
G01X12383400D02*
Y-4455520D01*
G01X12352920D02*
X12413880D01*
G01X12637400D02*
X12535800D01*
Y-4252320D01*
X12637400D01*
G01X12596760Y-4350530D02*
X12535800D01*
G01X12739000Y-4252320D02*
Y-4455520D01*
X12840600D01*
G01X13043800D02*
X12942200D01*
Y-4252320D01*
X13043800D01*
G01X13003160Y-4350530D02*
X12942200D01*
G01X13252080Y-4269260D02*
X13236840Y-4259090D01*
X13219060Y-4252320D01*
X13198740D01*
X13175880Y-4262480D01*
X13158100Y-4279410D01*
X13145400Y-4299740D01*
X13135240Y-4333600D01*
X13132700Y-4364080D01*
X13137780Y-4394560D01*
X13145400Y-4414880D01*
X13160640Y-4435200D01*
X13178420Y-4448750D01*
X13196200Y-4455520D01*
X13213980D01*
X13231760Y-4448750D01*
X13247000Y-4438590D01*
X13259700Y-4425050D01*
G01X13399400Y-4252320D02*
Y-4455520D01*
G01X13340980Y-4252320D02*
X13457820D01*
G01X13551800Y-4455520D02*
Y-4252320D01*
X13615300D01*
X13635620Y-4262480D01*
X13648320Y-4276030D01*
X13653400Y-4303120D01*
X13648320Y-4330220D01*
X13633080Y-4347150D01*
X13615300Y-4357310D01*
X13551800D01*
G01X13615300D02*
X13653400Y-4455520D01*
G01X13775320Y-4252320D02*
X13836280D01*
G01X13805800D02*
Y-4455520D01*
G01X13775320D02*
X13836280D01*
G01X14064880Y-4269260D02*
X14049640Y-4259090D01*
X14031860Y-4252320D01*
X14011540D01*
X13988680Y-4262480D01*
X13970900Y-4279410D01*
X13958200Y-4299740D01*
X13948040Y-4333600D01*
X13945500Y-4364080D01*
X13950580Y-4394560D01*
X13958200Y-4414880D01*
X13973440Y-4435200D01*
X13991220Y-4448750D01*
X14009000Y-4455520D01*
X14026780D01*
X14044560Y-4448750D01*
X14059800Y-4438590D01*
X14072500Y-4425050D01*
G01X11113400Y-3803250D02*
Y-4006450D01*
X11215000D01*
G01X11367400D02*
Y-3803250D01*
X11336920Y-3843890D01*
G01Y-4006450D02*
X11397880D01*
G01X11773800Y-3803250D02*
Y-4006450D01*
G01X11715380Y-3803250D02*
X11832220D01*
G01X11977000Y-4006450D02*
X11956680Y-4003060D01*
X11938900Y-3989520D01*
X11923660Y-3969200D01*
X11913500Y-3945490D01*
X11908420Y-3918400D01*
Y-3891300D01*
X11913500Y-3864210D01*
X11923660Y-3840500D01*
X11938900Y-3820190D01*
X11956680Y-3806640D01*
X11977000Y-3803250D01*
X11997320Y-3806640D01*
X12015100Y-3820190D01*
X12030340Y-3840500D01*
X12040500Y-3864210D01*
X12045580Y-3891300D01*
Y-3918400D01*
X12040500Y-3945490D01*
X12030340Y-3969200D01*
X12015100Y-3989520D01*
X11997320Y-4003060D01*
X11977000Y-4006450D01*
G01X12129400D02*
Y-3803250D01*
X12190360D01*
X12210680Y-3813410D01*
X12225920Y-3837120D01*
X12231000Y-3864210D01*
X12225920Y-3891300D01*
X12213220Y-3911620D01*
X12190360Y-3921790D01*
X12129400D01*
G01X12642480Y-3820190D02*
X12627240Y-3810020D01*
X12609460Y-3803250D01*
X12589140D01*
X12566280Y-3813410D01*
X12548500Y-3830340D01*
X12535800Y-3850670D01*
X12525640Y-3884530D01*
X12523100Y-3915010D01*
X12528180Y-3945490D01*
X12535800Y-3965810D01*
X12551040Y-3986130D01*
X12568820Y-3999680D01*
X12586600Y-4006450D01*
X12604380D01*
X12622160Y-3999680D01*
X12637400Y-3989520D01*
X12650100Y-3975980D01*
G01X12789800Y-4006450D02*
X12769480Y-4003060D01*
X12751700Y-3989520D01*
X12736460Y-3969200D01*
X12726300Y-3945490D01*
X12721220Y-3918400D01*
Y-3891300D01*
X12726300Y-3864210D01*
X12736460Y-3840500D01*
X12751700Y-3820190D01*
X12769480Y-3806640D01*
X12789800Y-3803250D01*
X12810120Y-3806640D01*
X12827900Y-3820190D01*
X12843140Y-3840500D01*
X12853300Y-3864210D01*
X12858380Y-3891300D01*
Y-3918400D01*
X12853300Y-3945490D01*
X12843140Y-3969200D01*
X12827900Y-3989520D01*
X12810120Y-4003060D01*
X12789800Y-4006450D01*
G01X12934580D02*
Y-3803250D01*
X13051420Y-4006450D01*
Y-3803250D01*
G01X13140320Y-4006450D02*
Y-3803250D01*
X13191120D01*
X13211440Y-3813410D01*
X13226680Y-3826960D01*
X13239380Y-3847270D01*
X13249540Y-3870990D01*
X13252080Y-3904850D01*
X13249540Y-3938720D01*
X13239380Y-3962430D01*
X13226680Y-3982750D01*
X13211440Y-3996290D01*
X13191120Y-4006450D01*
X13140320D01*
G01X13343520Y-3803250D02*
Y-3948880D01*
X13353680Y-3979360D01*
X13374000Y-3999680D01*
X13399400Y-4006450D01*
X13424800Y-3999680D01*
X13445120Y-3979360D01*
X13455280Y-3948880D01*
Y-3803250D01*
G01X13658480Y-3820190D02*
X13643240Y-3810020D01*
X13625460Y-3803250D01*
X13605140D01*
X13582280Y-3813410D01*
X13564500Y-3830340D01*
X13551800Y-3850670D01*
X13541640Y-3884530D01*
X13539100Y-3915010D01*
X13544180Y-3945490D01*
X13551800Y-3965810D01*
X13567040Y-3986130D01*
X13584820Y-3999680D01*
X13602600Y-4006450D01*
X13620380D01*
X13638160Y-3999680D01*
X13653400Y-3989520D01*
X13666100Y-3975980D01*
G01X13805800Y-3803250D02*
Y-4006450D01*
G01X13747380Y-3803250D02*
X13864220D01*
G01X14009000Y-4006450D02*
X13988680Y-4003060D01*
X13970900Y-3989520D01*
X13955660Y-3969200D01*
X13945500Y-3945490D01*
X13940420Y-3918400D01*
Y-3891300D01*
X13945500Y-3864210D01*
X13955660Y-3840500D01*
X13970900Y-3820190D01*
X13988680Y-3806640D01*
X14009000Y-3803250D01*
X14029320Y-3806640D01*
X14047100Y-3820190D01*
X14062340Y-3840500D01*
X14072500Y-3864210D01*
X14077580Y-3891300D01*
Y-3918400D01*
X14072500Y-3945490D01*
X14062340Y-3969200D01*
X14047100Y-3989520D01*
X14029320Y-4003060D01*
X14009000Y-4006450D01*
G01X14161400D02*
Y-3803250D01*
X14224900D01*
X14245220Y-3813410D01*
X14257920Y-3826960D01*
X14263000Y-3854050D01*
X14257920Y-3881150D01*
X14242680Y-3898080D01*
X14224900Y-3908240D01*
X14161400D01*
G01X14224900D02*
X14263000Y-4006450D01*
G01X11514720Y-3674560D02*
X11626480Y-3525550D01*
G01X11570600Y-3498460D02*
Y-3701660D01*
G01X11626480Y-3674560D02*
X11514720Y-3525550D01*
G01X11494400Y-3600060D02*
X11646800D01*
G01X12126860Y-3640700D02*
X12147180Y-3657630D01*
X12170040Y-3667790D01*
X12190360D01*
X12210680Y-3657630D01*
X12225920Y-3640700D01*
X12233540Y-3616990D01*
X12228460Y-3593290D01*
X12215760Y-3572960D01*
X12192900Y-3559420D01*
X12162420Y-3552640D01*
X12144640Y-3539100D01*
X12137020Y-3515390D01*
X12142100Y-3491680D01*
X12154800Y-3474750D01*
X12172580Y-3464590D01*
X12190360D01*
X12208140Y-3471360D01*
X12223380Y-3488300D01*
G01X12327520Y-3464590D02*
Y-3610220D01*
X12337680Y-3640700D01*
X12358000Y-3661020D01*
X12383400Y-3667790D01*
X12408800Y-3661020D01*
X12429120Y-3640700D01*
X12439280Y-3610220D01*
Y-3464590D01*
G01X12535800Y-3667790D02*
Y-3464590D01*
X12599300D01*
X12619620Y-3474750D01*
X12632320Y-3488300D01*
X12637400Y-3515390D01*
X12632320Y-3542490D01*
X12617080Y-3559420D01*
X12599300Y-3569580D01*
X12535800D01*
G01X12599300D02*
X12637400Y-3667790D01*
G01X12741540D02*
Y-3464590D01*
X12838060D01*
G01X12802500Y-3562800D02*
X12741540D01*
G01X12929500Y-3667790D02*
X12993000Y-3464590D01*
X13056500Y-3667790D01*
G01X13033640Y-3596670D02*
X12952360D01*
G01X13252080Y-3481530D02*
X13236840Y-3471360D01*
X13219060Y-3464590D01*
X13198740D01*
X13175880Y-3474750D01*
X13158100Y-3491680D01*
X13145400Y-3512010D01*
X13135240Y-3545870D01*
X13132700Y-3576350D01*
X13137780Y-3606830D01*
X13145400Y-3627150D01*
X13160640Y-3647470D01*
X13178420Y-3661020D01*
X13196200Y-3667790D01*
X13213980D01*
X13231760Y-3661020D01*
X13247000Y-3650860D01*
X13259700Y-3637320D01*
G01X13450200Y-3667790D02*
X13348600D01*
Y-3464590D01*
X13450200D01*
G01X13409560Y-3562800D02*
X13348600D01*
G01X-16600000Y11690000D02*
Y-16250000D01*
G01D02*
X26580000D01*
Y11690000D01*
X-16600000D01*
G01X25310000Y7880000D02*
Y-15488000D01*
X-15330000D01*
G01Y10928000D02*
Y-15488000D01*
G01Y10928000D02*
X-15076000D01*
G01D02*
X25310000D01*
G01X-11200000Y-8015000D02*
Y5100000D01*
X3800000D01*
Y-8015000D01*
X-11200000D01*
G01X9360800Y-8640520D02*
Y-7410520D01*
X10884800D01*
Y-8640520D01*
X9360800D01*
G01Y-7305520D02*
Y-5175520D01*
X10884800D01*
Y-7305520D01*
X9360800D01*
G01Y-5070520D02*
Y-3840520D01*
X10884800D01*
Y-5070520D01*
X9360800D01*
G01X12610000Y8642000D02*
Y7880000D01*
G01Y10928000D02*
Y8642000D01*
G01Y9404000D02*
X25310000D01*
G01X12610000Y10166000D02*
X25310000D01*
G01X12768750Y9658000D02*
Y9912000D01*
X12848120D01*
X12873520Y9899290D01*
X12889400Y9882370D01*
X12895750Y9848500D01*
X12889400Y9814630D01*
X12870350Y9793470D01*
X12848120Y9780760D01*
X12768750D01*
G01X12848120D02*
X12895750Y9658000D01*
G01X13149750D02*
X13022750D01*
Y9912000D01*
X13149750D01*
G01X13098950Y9789240D02*
X13022750D01*
G01X13260870Y9912000D02*
X13340250Y9658000D01*
X13419630Y9912000D01*
G01X13626000Y8642000D02*
Y7880000D01*
G01Y8642000D02*
Y10166000D01*
G01X14642000Y-10916000D02*
Y-15488000D01*
G01X20992000Y-14726000D02*
X14642000D01*
G01X25310000Y-13710000D02*
X14642000D01*
G01X25310000Y-12186000D02*
X14642000D01*
G01Y-10916000D02*
X25300230D01*
X25310000Y-10906230D01*
G01X14797570Y-15073140D02*
X14822980Y-15094300D01*
X14851550Y-15107000D01*
X14876950D01*
X14902350Y-15094300D01*
X14921400Y-15073140D01*
X14930930Y-15043500D01*
X14924580Y-15013870D01*
X14908700Y-14988470D01*
X14880120Y-14971530D01*
X14842030Y-14963070D01*
X14819800Y-14946140D01*
X14810270Y-14916500D01*
X14816630Y-14886870D01*
X14832500Y-14865710D01*
X14854720Y-14853000D01*
X14876950D01*
X14899180Y-14861460D01*
X14918230Y-14882630D01*
G01X15188100Y-14874170D02*
X15169050Y-14861460D01*
X15146830Y-14853000D01*
X15121430D01*
X15092850Y-14865710D01*
X15070630Y-14886870D01*
X15054750Y-14912270D01*
X15042050Y-14954600D01*
X15038870Y-14992700D01*
X15045230Y-15030800D01*
X15054750Y-15056200D01*
X15073800Y-15081610D01*
X15096030Y-15098540D01*
X15118250Y-15107000D01*
X15140470D01*
X15162700Y-15098540D01*
X15181750Y-15085840D01*
X15197630Y-15068910D01*
G01X15292870Y-15107000D02*
X15372250Y-14853000D01*
X15451630Y-15107000D01*
G01X15423050Y-15018100D02*
X15321450D01*
G01X15562750Y-14853000D02*
Y-15107000D01*
X15689750D01*
G01X15943750D02*
X15816750D01*
Y-14853000D01*
X15943750D01*
G01X15892950Y-14975760D02*
X15816750D01*
G01X14797570Y-14057140D02*
X14822980Y-14078300D01*
X14851550Y-14091000D01*
X14876950D01*
X14902350Y-14078300D01*
X14921400Y-14057140D01*
X14930930Y-14027500D01*
X14924580Y-13997870D01*
X14908700Y-13972470D01*
X14880120Y-13955530D01*
X14842030Y-13947070D01*
X14819800Y-13930140D01*
X14810270Y-13900500D01*
X14816630Y-13870870D01*
X14832500Y-13849710D01*
X14854720Y-13837000D01*
X14876950D01*
X14899180Y-13845460D01*
X14918230Y-13866630D01*
G01X15080150Y-13837000D02*
X15156340D01*
G01X15118250D02*
Y-14091000D01*
G01X15080150D02*
X15156340D01*
G01X15311920Y-13837000D02*
X15432580D01*
X15311920Y-14091000D01*
X15432580D01*
G01X15689750D02*
X15562750D01*
Y-13837000D01*
X15689750D01*
G01X15638950Y-13959760D02*
X15562750D01*
G01X15429400Y9658000D02*
Y9912000D01*
X15492900D01*
X15518300Y9899290D01*
X15537350Y9882370D01*
X15553230Y9856970D01*
X15565930Y9827330D01*
X15569100Y9785000D01*
X15565930Y9742660D01*
X15553230Y9713030D01*
X15537350Y9687630D01*
X15518300Y9670700D01*
X15492900Y9658000D01*
X15429400D01*
G01X15816750D02*
X15689750D01*
Y9912000D01*
X15816750D01*
G01X15765950Y9789240D02*
X15689750D01*
G01X15940570Y9691860D02*
X15965980Y9670700D01*
X15994550Y9658000D01*
X16019950D01*
X16045350Y9670700D01*
X16064400Y9691860D01*
X16073930Y9721500D01*
X16067580Y9751130D01*
X16051700Y9776530D01*
X16023120Y9793470D01*
X15985030Y9801930D01*
X15962800Y9818860D01*
X15953270Y9848500D01*
X15959630Y9878130D01*
X15975500Y9899290D01*
X15997720Y9912000D01*
X16019950D01*
X16042180Y9903540D01*
X16061230Y9882370D01*
G01X16331100Y9890830D02*
X16312050Y9903540D01*
X16289830Y9912000D01*
X16264430D01*
X16235850Y9899290D01*
X16213630Y9878130D01*
X16197750Y9852730D01*
X16185050Y9810400D01*
X16181870Y9772300D01*
X16188230Y9734200D01*
X16197750Y9708800D01*
X16216800Y9683390D01*
X16239030Y9666460D01*
X16261250Y9658000D01*
X16283470D01*
X16305700Y9666460D01*
X16324750Y9679160D01*
X16340630Y9696090D01*
G01X16451750Y9658000D02*
Y9912000D01*
X16531120D01*
X16556520Y9899290D01*
X16572400Y9882370D01*
X16578750Y9848500D01*
X16572400Y9814630D01*
X16553350Y9793470D01*
X16531120Y9780760D01*
X16451750D01*
G01X16531120D02*
X16578750Y9658000D01*
G01X16731150Y9912000D02*
X16807340D01*
G01X16769250D02*
Y9658000D01*
G01X16731150D02*
X16807340D01*
G01X16959750D02*
Y9912000D01*
X17035950D01*
X17061350Y9899290D01*
X17080400Y9869670D01*
X17086750Y9835800D01*
X17080400Y9801930D01*
X17064520Y9776530D01*
X17035950Y9763830D01*
X16959750D01*
G01X17277250Y9912000D02*
Y9658000D01*
G01X17204230Y9912000D02*
X17350270D01*
G01X17493150D02*
X17569340D01*
G01X17531250D02*
Y9658000D01*
G01X17493150D02*
X17569340D01*
G01X17785250D02*
X17759850Y9662230D01*
X17737630Y9679160D01*
X17718570Y9704560D01*
X17705870Y9734200D01*
X17699520Y9768070D01*
Y9801930D01*
X17705870Y9835800D01*
X17718570Y9865440D01*
X17737630Y9890830D01*
X17759850Y9907770D01*
X17785250Y9912000D01*
X17810650Y9907770D01*
X17832870Y9890830D01*
X17851930Y9865440D01*
X17864630Y9835800D01*
X17870980Y9801930D01*
Y9768070D01*
X17864630Y9734200D01*
X17851930Y9704560D01*
X17832870Y9679160D01*
X17810650Y9662230D01*
X17785250Y9658000D01*
G01X17966230D02*
Y9912000D01*
X18112270Y9658000D01*
Y9912000D01*
G01X15912000Y-14726000D02*
Y-13710000D01*
G01X16200920Y-14091000D02*
Y-13837000D01*
X16321580D01*
G01X16277120Y-13959760D02*
X16200920D01*
G01X16448570Y-14057140D02*
X16473980Y-14078300D01*
X16502550Y-14091000D01*
X16527950D01*
X16553350Y-14078300D01*
X16572400Y-14057140D01*
X16581930Y-14027500D01*
X16575580Y-13997870D01*
X16559700Y-13972470D01*
X16531120Y-13955530D01*
X16493030Y-13947070D01*
X16470800Y-13930140D01*
X16461270Y-13900500D01*
X16467630Y-13870870D01*
X16483500Y-13849710D01*
X16505720Y-13837000D01*
X16527950D01*
X16550180Y-13845460D01*
X16569230Y-13866630D01*
G01X16839100Y-13858170D02*
X16820050Y-13845460D01*
X16797830Y-13837000D01*
X16772430D01*
X16743850Y-13849710D01*
X16721630Y-13870870D01*
X16705750Y-13896270D01*
X16693050Y-13938600D01*
X16689870Y-13976700D01*
X16696230Y-14014800D01*
X16705750Y-14040200D01*
X16724800Y-14065610D01*
X16747030Y-14082540D01*
X16769250Y-14091000D01*
X16791470D01*
X16813700Y-14082540D01*
X16832750Y-14069840D01*
X16848630Y-14052910D01*
G01X16940700Y-14091000D02*
Y-13837000D01*
X17023250Y-14048670D01*
X17105800Y-13837000D01*
Y-14091000D01*
G01X17458230D02*
Y-13837000D01*
X17604270Y-14091000D01*
Y-13837000D01*
G01X17785250Y-14091000D02*
X17759850Y-14086770D01*
X17737630Y-14069840D01*
X17718570Y-14044440D01*
X17705870Y-14014800D01*
X17699520Y-13980930D01*
Y-13947070D01*
X17705870Y-13913200D01*
X17718570Y-13883560D01*
X17737630Y-13858170D01*
X17759850Y-13841230D01*
X17785250Y-13837000D01*
X17810650Y-13841230D01*
X17832870Y-13858170D01*
X17851930Y-13883560D01*
X17864630Y-13913200D01*
X17870980Y-13947070D01*
Y-13980930D01*
X17864630Y-14014800D01*
X17851930Y-14044440D01*
X17832870Y-14069840D01*
X17810650Y-14086770D01*
X17785250Y-14091000D01*
G01X16928000Y-14726000D02*
Y-15488000D01*
G01X17022230Y-11650000D02*
Y-11396000D01*
X17168270Y-11650000D01*
Y-11396000D01*
G01X17349250Y-11650000D02*
Y-11535700D01*
X17285750Y-11396000D01*
G01X17412750D02*
X17349250Y-11535700D01*
G01X17533400Y-11396000D02*
Y-11578030D01*
X17546100Y-11616140D01*
X17571500Y-11641540D01*
X17603250Y-11650000D01*
X17635000Y-11641540D01*
X17660400Y-11616140D01*
X17673100Y-11578030D01*
Y-11396000D01*
G01X18038230Y-11650000D02*
Y-11396000D01*
X18184270Y-11650000D01*
Y-11396000D01*
G01X18285870Y-11650000D02*
X18365250Y-11396000D01*
X18444630Y-11650000D01*
G01X18416050Y-11561100D02*
X18314450D01*
G01X18546230Y-11650000D02*
Y-11396000D01*
X18692270Y-11650000D01*
Y-11396000D01*
G01X18873250Y-11650000D02*
X18847850Y-11645770D01*
X18825630Y-11628840D01*
X18806570Y-11603440D01*
X18793870Y-11573800D01*
X18787520Y-11539930D01*
Y-11506070D01*
X18793870Y-11472200D01*
X18806570Y-11442560D01*
X18825630Y-11417170D01*
X18847850Y-11400230D01*
X18873250Y-11396000D01*
X18898650Y-11400230D01*
X18920870Y-11417170D01*
X18939930Y-11442560D01*
X18952630Y-11472200D01*
X18958980Y-11506070D01*
Y-11539930D01*
X18952630Y-11573800D01*
X18939930Y-11603440D01*
X18920870Y-11628840D01*
X18898650Y-11645770D01*
X18873250Y-11650000D01*
G01X19444750D02*
X19317750D01*
Y-11396000D01*
X19444750D01*
G01X19393950Y-11518760D02*
X19317750D01*
G01X19571750Y-11396000D02*
Y-11650000D01*
X19698750D01*
G01X19952750D02*
X19825750D01*
Y-11396000D01*
X19952750D01*
G01X19901950Y-11518760D02*
X19825750D01*
G01X20213100Y-11417170D02*
X20194050Y-11404460D01*
X20171830Y-11396000D01*
X20146430D01*
X20117850Y-11408710D01*
X20095630Y-11429870D01*
X20079750Y-11455270D01*
X20067050Y-11497600D01*
X20063870Y-11535700D01*
X20070230Y-11573800D01*
X20079750Y-11599200D01*
X20098800Y-11624610D01*
X20121030Y-11641540D01*
X20143250Y-11650000D01*
X20165470D01*
X20187700Y-11641540D01*
X20206750Y-11628840D01*
X20222630Y-11611910D01*
G01X20397250Y-11396000D02*
Y-11650000D01*
G01X20324230Y-11396000D02*
X20470270D01*
G01X20587750Y-11650000D02*
Y-11396000D01*
X20667120D01*
X20692520Y-11408710D01*
X20708400Y-11425630D01*
X20714750Y-11459500D01*
X20708400Y-11493370D01*
X20689350Y-11514530D01*
X20667120Y-11527240D01*
X20587750D01*
G01X20667120D02*
X20714750Y-11650000D01*
G01X20905250D02*
X20879850Y-11645770D01*
X20857630Y-11628840D01*
X20838570Y-11603440D01*
X20825870Y-11573800D01*
X20819520Y-11539930D01*
Y-11506070D01*
X20825870Y-11472200D01*
X20838570Y-11442560D01*
X20857630Y-11417170D01*
X20879850Y-11400230D01*
X20905250Y-11396000D01*
X20930650Y-11400230D01*
X20952870Y-11417170D01*
X20971930Y-11442560D01*
X20984630Y-11472200D01*
X20990980Y-11506070D01*
Y-11539930D01*
X20984630Y-11573800D01*
X20971930Y-11603440D01*
X20952870Y-11628840D01*
X20930650Y-11645770D01*
X20905250Y-11650000D01*
G01X21086230D02*
Y-11396000D01*
X21232270Y-11650000D01*
Y-11396000D01*
G01X21375150D02*
X21451340D01*
G01X21413250D02*
Y-11650000D01*
G01X21375150D02*
X21451340D01*
G01X21737100Y-11417170D02*
X21718050Y-11404460D01*
X21695830Y-11396000D01*
X21670430D01*
X21641850Y-11408710D01*
X21619630Y-11429870D01*
X21603750Y-11455270D01*
X21591050Y-11497600D01*
X21587870Y-11535700D01*
X21594230Y-11573800D01*
X21603750Y-11599200D01*
X21622800Y-11624610D01*
X21645030Y-11641540D01*
X21667250Y-11650000D01*
X21689470D01*
X21711700Y-11641540D01*
X21730750Y-11628840D01*
X21746630Y-11611910D01*
G01X21854570Y-11616140D02*
X21879980Y-11637300D01*
X21908550Y-11650000D01*
X21933950D01*
X21959350Y-11637300D01*
X21978400Y-11616140D01*
X21987930Y-11586500D01*
X21981580Y-11556870D01*
X21965700Y-11531470D01*
X21937120Y-11514530D01*
X21899030Y-11506070D01*
X21876800Y-11489140D01*
X21867270Y-11459500D01*
X21873630Y-11429870D01*
X21889500Y-11408710D01*
X21911720Y-11396000D01*
X21933950D01*
X21956180Y-11404460D01*
X21975230Y-11425630D01*
G01X22365750Y-11396000D02*
Y-11650000D01*
X22492750D01*
G01X22603870D02*
X22683250Y-11396000D01*
X22762630Y-11650000D01*
G01X22734050Y-11561100D02*
X22632450D01*
G01X22962650Y-11514530D02*
X22975350Y-11501830D01*
X22984870Y-11480670D01*
X22991230Y-11451030D01*
X22984870Y-11425630D01*
X22972180Y-11408710D01*
X22949950Y-11396000D01*
X22864230D01*
Y-11650000D01*
X22969000D01*
X22991230Y-11633070D01*
X23003930Y-11607670D01*
X23010270Y-11578030D01*
X23003930Y-11548410D01*
X22984870Y-11523000D01*
X22962650Y-11514530D01*
X22864230D01*
G01X17634920Y-13000000D02*
Y-12746000D01*
X17755580D01*
G01X17711120Y-12868760D02*
X17634920D01*
G01X17882570Y-12966140D02*
X17907980Y-12987300D01*
X17936550Y-13000000D01*
X17961950D01*
X17987350Y-12987300D01*
X18006400Y-12966140D01*
X18015930Y-12936500D01*
X18009580Y-12906870D01*
X17993700Y-12881470D01*
X17965120Y-12864530D01*
X17927030Y-12856070D01*
X17904800Y-12839140D01*
X17895270Y-12809500D01*
X17901630Y-12779870D01*
X17917500Y-12758710D01*
X17939720Y-12746000D01*
X17961950D01*
X17984180Y-12754460D01*
X18003230Y-12775630D01*
G01X18273100Y-12767170D02*
X18254050Y-12754460D01*
X18231830Y-12746000D01*
X18206430D01*
X18177850Y-12758710D01*
X18155630Y-12779870D01*
X18139750Y-12805270D01*
X18127050Y-12847600D01*
X18123870Y-12885700D01*
X18130230Y-12923800D01*
X18139750Y-12949200D01*
X18158800Y-12974610D01*
X18181030Y-12991540D01*
X18203250Y-13000000D01*
X18225470D01*
X18247700Y-12991540D01*
X18266750Y-12978840D01*
X18282630Y-12961910D01*
G01X18377870Y-12746000D02*
X18457250Y-13000000D01*
X18536630Y-12746000D01*
G01X18882700Y-13000000D02*
Y-12746000D01*
X18965250Y-12957670D01*
X19047800Y-12746000D01*
Y-13000000D01*
G01X19219250D02*
X19193850Y-12995770D01*
X19171630Y-12978840D01*
X19152570Y-12953440D01*
X19139870Y-12923800D01*
X19133520Y-12889930D01*
Y-12856070D01*
X19139870Y-12822200D01*
X19152570Y-12792560D01*
X19171630Y-12767170D01*
X19193850Y-12750230D01*
X19219250Y-12746000D01*
X19244650Y-12750230D01*
X19266870Y-12767170D01*
X19285930Y-12792560D01*
X19298630Y-12822200D01*
X19304980Y-12856070D01*
Y-12889930D01*
X19298630Y-12923800D01*
X19285930Y-12953440D01*
X19266870Y-12978840D01*
X19244650Y-12995770D01*
X19219250Y-13000000D01*
G01X19473250Y-12746000D02*
Y-13000000D01*
G01X19400230Y-12746000D02*
X19546270D01*
G01X19660570Y-13000000D02*
Y-12746000D01*
G01X19793930D02*
Y-13000000D01*
G01Y-12873000D02*
X19660570D01*
G01X20044750Y-13000000D02*
X19917750D01*
Y-12746000D01*
X20044750D01*
G01X19993950Y-12868760D02*
X19917750D01*
G01X20171750Y-13000000D02*
Y-12746000D01*
X20251120D01*
X20276520Y-12758710D01*
X20292400Y-12775630D01*
X20298750Y-12809500D01*
X20292400Y-12843370D01*
X20273350Y-12864530D01*
X20251120Y-12877240D01*
X20171750D01*
G01X20251120D02*
X20298750Y-13000000D01*
G01X20514650Y-12864530D02*
X20527350Y-12851830D01*
X20536870Y-12830670D01*
X20543230Y-12801030D01*
X20536870Y-12775630D01*
X20524180Y-12758710D01*
X20501950Y-12746000D01*
X20416230D01*
Y-13000000D01*
X20521000D01*
X20543230Y-12983070D01*
X20555930Y-12957670D01*
X20562270Y-12928030D01*
X20555930Y-12898410D01*
X20536870Y-12873000D01*
X20514650Y-12864530D01*
X20416230D01*
G01X20743250Y-13000000D02*
X20717850Y-12995770D01*
X20695630Y-12978840D01*
X20676570Y-12953440D01*
X20663870Y-12923800D01*
X20657520Y-12889930D01*
Y-12856070D01*
X20663870Y-12822200D01*
X20676570Y-12792560D01*
X20695630Y-12767170D01*
X20717850Y-12750230D01*
X20743250Y-12746000D01*
X20768650Y-12750230D01*
X20790870Y-12767170D01*
X20809930Y-12792560D01*
X20822630Y-12822200D01*
X20828980Y-12856070D01*
Y-12889930D01*
X20822630Y-12923800D01*
X20809930Y-12953440D01*
X20790870Y-12978840D01*
X20768650Y-12995770D01*
X20743250Y-13000000D01*
G01X20917870D02*
X20997250Y-12746000D01*
X21076630Y-13000000D01*
G01X21048050Y-12911100D02*
X20946450D01*
G01X21187750Y-13000000D02*
Y-12746000D01*
X21267120D01*
X21292520Y-12758710D01*
X21308400Y-12775630D01*
X21314750Y-12809500D01*
X21308400Y-12843370D01*
X21289350Y-12864530D01*
X21267120Y-12877240D01*
X21187750D01*
G01X21267120D02*
X21314750Y-13000000D01*
G01X21435400D02*
Y-12746000D01*
X21498900D01*
X21524300Y-12758710D01*
X21543350Y-12775630D01*
X21559230Y-12801030D01*
X21571930Y-12830670D01*
X21575100Y-12873000D01*
X21571930Y-12915340D01*
X21559230Y-12944970D01*
X21543350Y-12970370D01*
X21524300Y-12987300D01*
X21498900Y-13000000D01*
X21435400D01*
G01X21933870Y-12746000D02*
X22013250Y-13000000D01*
X22092630Y-12746000D01*
G01X22206920Y-12788330D02*
X22225980Y-12762940D01*
X22248200Y-12750230D01*
X22273600Y-12746000D01*
X22305350Y-12754460D01*
X22327580Y-12775630D01*
X22333930Y-12801030D01*
X22330750Y-12826440D01*
X22318050Y-12847600D01*
X22254550Y-12889930D01*
X22225980Y-12919570D01*
X22206920Y-12961910D01*
X22200570Y-13000000D01*
X22333930D01*
G01X18102750Y10420000D02*
Y10674000D01*
X18182120D01*
X18207520Y10661290D01*
X18223400Y10644370D01*
X18229750Y10610500D01*
X18223400Y10576630D01*
X18204350Y10555470D01*
X18182120Y10542760D01*
X18102750D01*
G01X18182120D02*
X18229750Y10420000D01*
G01X18483750D02*
X18356750D01*
Y10674000D01*
X18483750D01*
G01X18432950Y10551240D02*
X18356750D01*
G01X18594870Y10674000D02*
X18674250Y10420000D01*
X18753630Y10674000D01*
G01X18890150D02*
X18966340D01*
G01X18928250D02*
Y10420000D01*
G01X18890150D02*
X18966340D01*
G01X19115570Y10453860D02*
X19140980Y10432700D01*
X19169550Y10420000D01*
X19194950D01*
X19220350Y10432700D01*
X19239400Y10453860D01*
X19248930Y10483500D01*
X19242580Y10513130D01*
X19226700Y10538530D01*
X19198120Y10555470D01*
X19160030Y10563930D01*
X19137800Y10580860D01*
X19128270Y10610500D01*
X19134630Y10640130D01*
X19150500Y10661290D01*
X19172720Y10674000D01*
X19194950D01*
X19217180Y10665540D01*
X19236230Y10644370D01*
G01X19398150Y10674000D02*
X19474340D01*
G01X19436250D02*
Y10420000D01*
G01X19398150D02*
X19474340D01*
G01X19690250D02*
X19664850Y10424230D01*
X19642630Y10441160D01*
X19623570Y10466560D01*
X19610870Y10496200D01*
X19604520Y10530070D01*
Y10563930D01*
X19610870Y10597800D01*
X19623570Y10627440D01*
X19642630Y10652830D01*
X19664850Y10669770D01*
X19690250Y10674000D01*
X19715650Y10669770D01*
X19737870Y10652830D01*
X19756930Y10627440D01*
X19769630Y10597800D01*
X19775980Y10563930D01*
Y10530070D01*
X19769630Y10496200D01*
X19756930Y10466560D01*
X19737870Y10441160D01*
X19715650Y10424230D01*
X19690250Y10420000D01*
G01X19871230D02*
Y10674000D01*
X20017270Y10420000D01*
Y10674000D01*
G01X20131570Y10453860D02*
X20156980Y10432700D01*
X20185550Y10420000D01*
X20210950D01*
X20236350Y10432700D01*
X20255400Y10453860D01*
X20264930Y10483500D01*
X20258580Y10513130D01*
X20242700Y10538530D01*
X20214120Y10555470D01*
X20176030Y10563930D01*
X20153800Y10580860D01*
X20144270Y10610500D01*
X20150630Y10640130D01*
X20166500Y10661290D01*
X20188720Y10674000D01*
X20210950D01*
X20233180Y10665540D01*
X20252230Y10644370D01*
G01X18960000Y-14726000D02*
Y-13710000D01*
G01X19239400Y-14091000D02*
Y-13837000D01*
X19302900D01*
X19328300Y-13849710D01*
X19347350Y-13866630D01*
X19363230Y-13892030D01*
X19375930Y-13921670D01*
X19379100Y-13964000D01*
X19375930Y-14006340D01*
X19363230Y-14035970D01*
X19347350Y-14061370D01*
X19328300Y-14078300D01*
X19302900Y-14091000D01*
X19239400D01*
G01X19468000Y-13837000D02*
X19512450Y-14091000D01*
X19563250Y-13837000D01*
X19614050Y-14091000D01*
X19658500Y-13837000D01*
G01X19836300Y-13964000D02*
X19899800D01*
Y-14040200D01*
X19880750Y-14065610D01*
X19858520Y-14082540D01*
X19826780Y-14091000D01*
X19795030Y-14082540D01*
X19772800Y-14065610D01*
X19753750Y-14040200D01*
X19741050Y-14010570D01*
X19734700Y-13976700D01*
Y-13947070D01*
X19741050Y-13921670D01*
X19753750Y-13892030D01*
X19772800Y-13866630D01*
X19791850Y-13849710D01*
X19817250Y-13837000D01*
X19839470D01*
X19864870Y-13845460D01*
X19883930Y-13862400D01*
G01X20252230Y-14091000D02*
Y-13837000D01*
X20398270Y-14091000D01*
Y-13837000D01*
G01X20579250Y-14091000D02*
X20553850Y-14086770D01*
X20531630Y-14069840D01*
X20512570Y-14044440D01*
X20499870Y-14014800D01*
X20493520Y-13980930D01*
Y-13947070D01*
X20499870Y-13913200D01*
X20512570Y-13883560D01*
X20531630Y-13858170D01*
X20553850Y-13841230D01*
X20579250Y-13837000D01*
X20604650Y-13841230D01*
X20626870Y-13858170D01*
X20645930Y-13883560D01*
X20658630Y-13913200D01*
X20664980Y-13947070D01*
Y-13980930D01*
X20658630Y-14014800D01*
X20645930Y-14044440D01*
X20626870Y-14069840D01*
X20604650Y-14086770D01*
X20579250Y-14091000D01*
G01X20484000Y8642000D02*
Y7880000D01*
G01Y8388000D02*
Y9404000D01*
G01D02*
Y10166000D01*
G01X20992000Y-15488000D02*
Y-14726000D01*
X25310000D01*
G01X21144400Y9658000D02*
Y9912000D01*
X21207900D01*
X21233300Y9899290D01*
X21252350Y9882370D01*
X21268230Y9856970D01*
X21280930Y9827330D01*
X21284100Y9785000D01*
X21280930Y9742660D01*
X21268230Y9713030D01*
X21252350Y9687630D01*
X21233300Y9670700D01*
X21207900Y9658000D01*
X21144400D01*
G01X21388870D02*
X21468250Y9912000D01*
X21547630Y9658000D01*
G01X21519050Y9746900D02*
X21417450D01*
G01X21722250Y9912000D02*
Y9658000D01*
G01X21649230Y9912000D02*
X21795270D01*
G01X22039750Y9658000D02*
X21912750D01*
Y9912000D01*
X22039750D01*
G01X21988950Y9789240D02*
X21912750D01*
G01X21274570Y-15073140D02*
X21299980Y-15094300D01*
X21328550Y-15107000D01*
X21353950D01*
X21379350Y-15094300D01*
X21398400Y-15073140D01*
X21407930Y-15043500D01*
X21401580Y-15013870D01*
X21385700Y-14988470D01*
X21357120Y-14971530D01*
X21319030Y-14963070D01*
X21296800Y-14946140D01*
X21287270Y-14916500D01*
X21293630Y-14886870D01*
X21309500Y-14865710D01*
X21331720Y-14853000D01*
X21353950D01*
X21376180Y-14861460D01*
X21395230Y-14882630D01*
G01X21528570Y-15107000D02*
Y-14853000D01*
G01X21661930D02*
Y-15107000D01*
G01Y-14980000D02*
X21528570D01*
G01X21912750Y-15107000D02*
X21785750D01*
Y-14853000D01*
X21912750D01*
G01X21861950Y-14975760D02*
X21785750D01*
G01X22166750Y-15107000D02*
X22039750D01*
Y-14853000D01*
X22166750D01*
G01X22115950Y-14975760D02*
X22039750D01*
G01X22357250Y-14853000D02*
Y-15107000D01*
G01X22284230Y-14853000D02*
X22430270D01*
G01X22770000Y8642000D02*
Y7880000D01*
G01Y8642000D02*
Y9404000D01*
G01D02*
Y10166000D01*
G01X23039870Y9658000D02*
X23119250Y9912000D01*
X23198630Y9658000D01*
G01X23170050Y9746900D02*
X23068450D01*
G01X23309750Y9658000D02*
Y9912000D01*
X23385950D01*
X23411350Y9899290D01*
X23430400Y9869670D01*
X23436750Y9835800D01*
X23430400Y9801930D01*
X23414520Y9776530D01*
X23385950Y9763830D01*
X23309750D01*
G01X23563750Y9658000D02*
Y9912000D01*
X23639950D01*
X23665350Y9899290D01*
X23684400Y9869670D01*
X23690750Y9835800D01*
X23684400Y9801930D01*
X23668520Y9776530D01*
X23639950Y9763830D01*
X23563750D01*
G01X23817750Y9658000D02*
Y9912000D01*
X23897120D01*
X23922520Y9899290D01*
X23938400Y9882370D01*
X23944750Y9848500D01*
X23938400Y9814630D01*
X23919350Y9793470D01*
X23897120Y9780760D01*
X23817750D01*
G01X23897120D02*
X23944750Y9658000D01*
G01X24135250D02*
X24109850Y9662230D01*
X24087630Y9679160D01*
X24068570Y9704560D01*
X24055870Y9734200D01*
X24049520Y9768070D01*
Y9801930D01*
X24055870Y9835800D01*
X24068570Y9865440D01*
X24087630Y9890830D01*
X24109850Y9907770D01*
X24135250Y9912000D01*
X24160650Y9907770D01*
X24182870Y9890830D01*
X24201930Y9865440D01*
X24214630Y9835800D01*
X24220980Y9801930D01*
Y9768070D01*
X24214630Y9734200D01*
X24201930Y9704560D01*
X24182870Y9679160D01*
X24160650Y9662230D01*
X24135250Y9658000D01*
G01X24309870Y9912000D02*
X24389250Y9658000D01*
X24468630Y9912000D01*
G01X24706750Y9658000D02*
X24579750D01*
Y9912000D01*
X24706750D01*
G01X24655950Y9789240D02*
X24579750D01*
G01X24827400Y9658000D02*
Y9912000D01*
X24890900D01*
X24916300Y9899290D01*
X24935350Y9882370D01*
X24951230Y9856970D01*
X24963930Y9827330D01*
X24967100Y9785000D01*
X24963930Y9742660D01*
X24951230Y9713030D01*
X24935350Y9687630D01*
X24916300Y9670700D01*
X24890900Y9658000D01*
X24827400D01*
G01X25310000Y10928000D02*
Y7880000D01*
G54D15*
X-10400000Y-3500000D03*
X-10096500Y-127000D03*
X-9207500Y-825500D03*
X-9017000Y-4064000D03*
X-8600000Y-6900000D03*
X-8000000Y-5200000D03*
X-6750000Y-6400000D03*
X-6550000Y-7400000D03*
X-1016000Y-190500D03*
X-254000D03*
X-127000Y-6477000D03*
X508000Y3492500D03*
X825500Y3048000D03*
X1650000Y-3700000D03*
G54D25*
G01X-10541000Y-2408800D02*
Y-2348500D01*
G01D02*
Y-2288200D01*
G01X-10601300Y-2348500D02*
X-10541000D01*
G01D02*
X-10480700D01*
G01X-10541000Y-1900800D02*
Y-1840500D01*
G01D02*
Y-1780200D01*
G01X-10601300Y-1840500D02*
X-10541000D01*
G01D02*
X-10480700D01*
G01X-10494300Y-3500000D02*
X-10400000D01*
G01X-10443800Y2070500D02*
X-10343500D01*
G01X-10400000Y-3594300D02*
Y-3500000D01*
G01D02*
Y-3405700D01*
G01Y-3500000D02*
X-10305700D01*
G01X-10343500Y1970200D02*
Y2070500D01*
G01D02*
Y2170800D01*
G01Y2070500D02*
X-10243200D01*
G01X-9471800Y-2348500D02*
X-9411500D01*
G01X-9471800Y-1840500D02*
X-9411500D01*
G01Y-2408800D02*
Y-2348500D01*
G01D02*
Y-2288200D01*
G01Y-2348500D02*
X-9351200D01*
G01X-9411500Y-1900800D02*
Y-1840500D01*
G01D02*
Y-1780200D01*
G01Y-1840500D02*
X-9351200D01*
G01X-8442300Y-2094500D02*
X-8382000D01*
G01Y-2154800D02*
Y-2094500D01*
G01D02*
Y-2034200D01*
G01Y-2094500D02*
X-8321700D01*
G01X-8347800Y4450000D02*
X-8287500D01*
G01Y4389700D02*
Y4450000D01*
G01D02*
Y4510300D01*
G01Y4450000D02*
X-8227200D01*
G01X-7787500Y4389700D02*
Y4450000D01*
G01D02*
Y4510300D01*
G01X-7847800Y4450000D02*
X-7787500D01*
G01D02*
X-7727200D01*
G01X-7347800D02*
X-7287500D01*
G01Y4389700D02*
Y4450000D01*
G01D02*
Y4510300D01*
G01Y4450000D02*
X-7227200D01*
G01X-6847800D02*
X-6787500D01*
G01Y4389700D02*
Y4450000D01*
G01D02*
Y4510300D01*
G01Y4450000D02*
X-6727200D01*
G01X-5947800D02*
X-5887500D01*
G01X-5903300Y190500D02*
X-5843000D01*
G01X-5887500Y4389700D02*
Y4450000D01*
G01D02*
Y4510300D01*
G01Y4450000D02*
X-5827200D01*
G01X-5843000Y130200D02*
Y190500D01*
G01D02*
Y250800D01*
G01Y190500D02*
X-5782700D01*
G01X-5515050Y-7425300D02*
Y-7365000D01*
G01D02*
Y-7304700D01*
G01X-5575350Y-7365000D02*
X-5515050D01*
G01D02*
X-5454750D01*
G01X-5447800Y4450000D02*
X-5387500D01*
G01X-5395300Y190500D02*
X-5335000D01*
G01X-5387500Y4389700D02*
Y4450000D01*
G01D02*
Y4510300D01*
G01Y4450000D02*
X-5327200D01*
G01X-5335000Y130200D02*
Y190500D01*
G01D02*
Y250800D01*
G01Y190500D02*
X-5274700D01*
G01X-5067350Y-7365000D02*
X-5007050D01*
G01Y-7425300D02*
Y-7365000D01*
G01D02*
Y-7304700D01*
G01Y-7365000D02*
X-4946750D01*
G01X-4947800Y4450000D02*
X-4887500D01*
G01X-4827000Y130200D02*
Y190500D01*
G01D02*
Y250800D01*
G01X-4887300Y190500D02*
X-4827000D01*
G01D02*
X-4766700D01*
G01X-4887500Y4389700D02*
Y4450000D01*
G01D02*
Y4510300D01*
G01Y4450000D02*
X-4827200D01*
G01X-4559350Y-7365000D02*
X-4499050D01*
G01Y-7425300D02*
Y-7365000D01*
G01D02*
Y-7304700D01*
G01Y-7365000D02*
X-4438750D01*
G01X-4447800Y4450000D02*
X-4387500D01*
G01Y4389700D02*
Y4450000D01*
G01D02*
Y4510300D01*
G01Y4450000D02*
X-4327200D01*
G01X-3702700Y-7366000D02*
X-3619500D01*
G01Y-7449200D02*
Y-7366000D01*
G01D02*
Y-7282800D01*
G01Y-7366000D02*
X-3536300D01*
G01X-2847800Y4450000D02*
X-2787500D01*
G01Y4389700D02*
Y4450000D01*
G01D02*
Y4510300D01*
G01Y4450000D02*
X-2727200D01*
G01X-2339080Y-7425300D02*
Y-7365000D01*
G01D02*
Y-7304700D01*
G01X-2399380Y-7365000D02*
X-2339080D01*
G01D02*
X-2278780D01*
G01X-2347800Y4450000D02*
X-2287500D01*
G01Y4389700D02*
Y4450000D01*
G01D02*
Y4510300D01*
G01Y4450000D02*
X-2227200D01*
G01X-1237500Y4389700D02*
Y4450000D01*
G01D02*
Y4510300D01*
G01X-1297800Y4450000D02*
X-1237500D01*
G01D02*
X-1177200D01*
G01X-797800D02*
X-737500D01*
G01Y4389700D02*
Y4450000D01*
G01D02*
Y4510300D01*
G01Y4450000D02*
X-677200D01*
G54D16*
X-10022500Y-6183730D03*
G54D17*
X-9779000Y190500D03*
Y635000D03*
X-9715500Y254000D03*
Y571500D03*
X-9652000Y190500D03*
Y508000D03*
X-9589740Y254000D03*
Y571500D03*
X-9525000Y190500D03*
Y508000D03*
X-9461500Y-127000D03*
Y571500D03*
X-9017000Y-127000D03*
X-9080500Y190500D03*
Y571500D03*
Y698500D03*
X-8572500Y-70000D03*
Y190500D03*
X-8509000Y-127000D03*
Y317500D03*
X-8445500Y-190500D03*
Y190500D03*
X-8382000Y-127000D03*
Y317500D03*
X-8318500Y-190500D03*
Y190500D03*
X-8191500Y-190500D03*
X-8255000Y-127000D03*
X-8191500Y190500D03*
X-8255000Y317500D03*
X-8128000Y-127000D03*
Y381000D03*
X-8064500Y-190500D03*
Y317500D03*
X-8001000Y-127000D03*
Y381000D03*
X-7937500Y-190500D03*
Y444500D03*
X-2857500Y3183260D03*
Y3878740D03*
X-2267500Y3183260D03*
Y3878740D03*
X-2222500Y508000D03*
X-2159000Y571500D03*
X-2095500Y635000D03*
X-2032000Y698500D03*
X-1079500Y3183260D03*
Y3878740D03*
X-930000Y530000D03*
Y610000D03*
X-920000Y680000D03*
X-820000Y761000D03*
X-489500Y3183260D03*
Y3878740D03*
X641750Y-2088750D03*
X1843000Y-4870000D03*
G54D18*
X-7683500Y-3746500D03*
Y-1271000D03*
Y-1079500D03*
Y-952500D03*
X-7494000Y-2223500D03*
X-7185940Y2840000D03*
X-7000000Y3039000D03*
Y3700000D03*
X-6876500Y2781260D03*
Y3491740D03*
X-6731000Y3177770D03*
X-6600000Y2520000D03*
X-6604000Y3740000D03*
X-6590000Y2710000D03*
X-6540500Y3492500D03*
X-6477000Y-3746500D03*
Y3740000D03*
X-6413500Y2476500D03*
Y3175000D03*
X-6420000Y3330000D03*
X-6286500Y2730500D03*
Y3491740D03*
X-6159500Y-889000D03*
X-6150000Y-762000D03*
X-6096000Y-952500D03*
X-5905500Y-2223500D03*
X-5715000Y3810000D03*
X-5330000Y3060000D03*
X-5270000Y2476500D03*
X-5214000Y2802260D03*
Y3512740D03*
X-5080000Y3255000D03*
X-5016500Y2650000D03*
Y3720000D03*
X-4727480Y2413000D03*
Y3255000D03*
X-4624000Y2802260D03*
Y3512740D03*
X-3810000Y4381500D03*
Y4699000D03*
X-2984500Y-6159500D03*
Y-5524500D03*
Y2095500D03*
X-2820000Y-6190000D03*
Y-5450000D03*
X-2667000Y1905000D03*
X-2622750Y742750D03*
X-2603500Y1778000D03*
X-2540000Y2032000D03*
Y3492500D03*
Y4127500D03*
X-2400000Y3628500D03*
Y4180000D03*
X-1524000Y3810000D03*
X-1270000Y3831530D03*
X-883000Y3689000D03*
X-825500Y-6180000D03*
Y-5524500D03*
Y3175000D03*
X-762000Y3873500D03*
X-698500Y-1143000D03*
Y3683000D03*
X-635000Y-1079500D03*
X-571500Y-1016000D03*
X-63500Y4699000D03*
X190500Y3619500D03*
Y4762500D03*
X952500Y3683000D03*
X1016000Y-6223000D03*
Y-5715000D03*
X1079500Y-6350000D03*
X1180250Y2820250D03*
X1493000Y3525000D03*
X1651000Y3619500D03*
X1968500Y-4000500D03*
X2020000Y1470000D03*
X2080640Y-3985640D03*
X2032000Y4127500D03*
X2286000Y-7175500D03*
X2260000Y2970000D03*
X2286000Y4127500D03*
X2349500Y2476500D03*
X2413000Y-900000D03*
X2370000Y3092060D03*
X2413000Y3410000D03*
Y3873500D03*
Y4254500D03*
X2400000Y4350000D03*
X2476500Y-3480000D03*
X2444750Y984250D03*
X2476500Y2540000D03*
X2470470Y2809530D03*
X2540000Y-6921500D03*
Y-6731000D03*
Y-6520000D03*
Y-6286500D03*
Y-3400000D03*
Y2667000D03*
X2510000Y3220000D03*
X2512850Y3456150D03*
X2540000Y4000500D03*
X2603500Y-3720000D03*
Y-3560000D03*
Y-825500D03*
X2610000Y-580000D03*
X2603500Y-475000D03*
Y-315000D03*
Y-75000D03*
Y952500D03*
Y3525000D03*
Y4405000D03*
X2680000Y-3800000D03*
X2669060Y85000D03*
X2667000Y3160000D03*
Y3873500D03*
Y4245000D03*
X2857500Y-1714500D03*
Y-1270000D03*
X2984500Y-1841500D03*
Y-1397000D03*
X3120000Y85000D03*
Y245000D03*
Y485000D03*
Y645000D03*
X3111500Y889000D03*
X3120000Y1125000D03*
Y2165000D03*
Y2965000D03*
Y3525000D03*
X3115290Y4245000D03*
X3175000Y-7000000D03*
Y-6840000D03*
Y-6600000D03*
Y-6280000D03*
Y-6120000D03*
Y-5800000D03*
X3180000Y-5610000D03*
X3175000Y405000D03*
X3190000Y550000D03*
X3175000Y805000D03*
Y965000D03*
Y1285000D03*
X3143250Y1365250D03*
X3150000Y1970000D03*
X3175000Y2565000D03*
Y2805000D03*
Y3045000D03*
Y3285000D03*
Y3445000D03*
X3160000Y3910000D03*
X3175000Y4005000D03*
Y4165000D03*
X3210000Y-6440000D03*
X3238500Y-2159000D03*
Y-635000D03*
X3211250Y281250D03*
X3238500Y1206500D03*
X3220000Y2085000D03*
X3230000Y2325000D03*
X3238500Y2725000D03*
X3250000Y2885000D03*
X3240000Y3830000D03*
X3239700Y4085000D03*
X3247000Y4325000D03*
X3302000Y-6520000D03*
Y-5880000D03*
X3300000Y-5720000D03*
X3290000Y-5560000D03*
X3302000Y-1587500D03*
Y-190500D03*
X3330000Y2710000D03*
X3302000Y3765000D03*
X3340000Y-6360000D03*
Y2245000D03*
G54D19*
X-5905500Y1333500D03*
X-5651500Y1079500D03*
Y1333500D03*
Y1587500D03*
X-5588000Y-391500D03*
X-5397500Y1333500D03*
X-5334000Y-391500D03*
X-4635500Y1333500D03*
X-4381500Y1079500D03*
Y1333500D03*
Y1587500D03*
X-4127500Y1333500D03*
X-3365500D03*
X-3111500Y127000D03*
Y381000D03*
Y635000D03*
Y1079500D03*
Y1333500D03*
Y1587500D03*
X-2857500Y381000D03*
Y1333500D03*
M02*
