G04 ================== begin FILE IDENTIFICATION RECORD ==================*
G04 Layout Name:  D:/Projects/PCB/FSCV Board V2/PCBEditor/V7/fscvmotherboardv2.brd*
G04 Film Name:    8_CONDUCTOR_TRACE*
G04 File Format:  Gerber RS274X*
G04 File Origin:  Cadence Allegro 23.1-S002*
G04 Origin Date:  Thu Mar 14 18:46:53 2024*
G04 *
G04 Layer:  VIA CLASS/POWER*
G04 Layer:  PIN/POWER*
G04 Layer:  ETCH/POWER*
G04 Layer:  DRAWING FORMAT/TITLE_DATA*
G04 Layer:  DRAWING FORMAT/TITLE_BLOCK*
G04 Layer:  DRAWING FORMAT/REVISION_DATA*
G04 Layer:  DRAWING FORMAT/REVISION_BLOCK*
G04 Layer:  DRAWING FORMAT/OUTLINE*
G04 Layer:  BOARD GEOMETRY/DESIGN_OUTLINE*
G04 *
G04 Offset:    (0.0000 0.0000)*
G04 Mirror:    No*
G04 Mode:      Positive*
G04 Rotation:  0*
G04 FullContactRelief:  No*
G04 UndefLineWidth:     0.1000*
G04 ================== end FILE IDENTIFICATION RECORD ====================*
%FSLAX25Y25*MOMM*%
%IR0*IPPOS*OFA0.00000B0.00000*MIA0B0*SFA1.00000B1.00000*%
%ADD18C,.5*%
%ADD11C,.6*%
%ADD17C,.35*%
%ADD14C,.85*%
%ADD22C,1.4001*%
%ADD15C,1.53*%
%ADD13C,1.7001*%
%ADD16C,1.8001*%
%ADD10C,4.6*%
%ADD19C,1.37*%
%ADD20C,1.308*%
%ADD12C,1.65*%
%ADD23C,1.318*%
%ADD21R,1.308X1.308*%
%ADD24C,.15*%
%ADD25C,.125*%
%ADD26C,.127*%
%ADD27C,.1*%
G75*
%LPD*%
G75*
G54D10*
X-10800000Y-7615000D03*
Y4700000D03*
X1100000Y-7615000D03*
Y4700000D03*
G54D20*
X-3619500Y-7366000D03*
X-3111500D03*
G54D11*
X-10849000Y-4572000D03*
Y-4318000D03*
X-10577500Y819500D03*
X-10472500Y-6583730D03*
Y-5443730D03*
X-10133000Y819500D03*
X-10150000Y1150000D03*
X-10096500Y-4545800D03*
X-9862500Y-6583730D03*
Y-5443730D03*
X-9700000Y944000D03*
Y1586000D03*
X-9652000Y3292500D03*
X-9588500Y-4073500D03*
X-9461500Y-4334500D03*
X-9460000Y1350000D03*
X-9398000Y3307500D03*
X-9298940Y-60000D03*
X-9172420Y472500D03*
X-9175000Y3333000D03*
X-9080500Y-5041000D03*
X-9138940Y-60000D03*
X-9110000Y1520000D03*
X-9017000Y-7547000D03*
X-9015000Y3333000D03*
X-8890000Y381000D03*
X-8735060Y1060280D03*
X-8560000Y2310000D03*
X-8445500Y-5468000D03*
Y-5106000D03*
X-8332500Y-7562500D03*
Y-7200500D03*
X-8318500Y820000D03*
X-8040000Y2309500D03*
X-7810500Y-7293000D03*
Y-5851500D03*
X-7781760Y472500D03*
X-7625500Y-7429500D03*
Y-6350000D03*
X-7647940Y-60000D03*
X-7610500Y-6794500D03*
Y-5715000D03*
X-7487940Y-60000D03*
X-7349500Y-6671000D03*
Y-5591500D03*
X-7153000Y3063000D03*
Y3435000D03*
X-7084060Y1060280D03*
X-6950240Y342500D03*
X-6731000Y3048000D03*
X-6286430Y-4635570D03*
X-6076500Y-5076400D03*
Y-3165200D03*
Y-1626000D03*
Y-1254000D03*
X-6020000Y-5460000D03*
Y-3540000D03*
X-6032500Y-571500D03*
Y-190500D03*
X-6010000Y3275000D03*
X-5950000Y-2470000D03*
X-5840000Y3070000D03*
X-5651500Y-6985000D03*
X-5679790Y-5442400D03*
Y-5312400D03*
Y-5117400D03*
Y-4987400D03*
Y-3531200D03*
Y-3401200D03*
Y-3206200D03*
Y-3076200D03*
Y-1620000D03*
Y-1490000D03*
Y-1295000D03*
Y-1165000D03*
X-5490500Y3048000D03*
Y3456000D03*
X-5330200Y-5442400D03*
Y-5312400D03*
Y-5117400D03*
Y-4987400D03*
Y-3531200D03*
Y-3401200D03*
Y-3206200D03*
Y-3076200D03*
Y-1620000D03*
Y-1490000D03*
Y-1295000D03*
Y-1165000D03*
X-5250000Y2050000D03*
X-5075470Y-5329470D03*
X-5080000Y3080000D03*
X-5016500Y-3492500D03*
Y-1524000D03*
X-4933500Y-5288400D03*
Y-4916400D03*
Y-3377200D03*
Y-3005200D03*
Y-1466000D03*
Y-1094000D03*
X-4347500Y2924000D03*
Y3296000D03*
X-4150500Y-5448400D03*
Y-5076400D03*
Y-3537200D03*
Y-3165200D03*
Y-1626000D03*
Y-1254000D03*
X-3870000Y-4300000D03*
X-3753800Y-5442400D03*
Y-5312400D03*
Y-5117400D03*
Y-4987400D03*
X-3753790Y-3531200D03*
Y-3401200D03*
Y-3206200D03*
Y-3076200D03*
Y-1620000D03*
Y-1490000D03*
Y-1295000D03*
Y-1165000D03*
X-3720000Y1110000D03*
X-3580000Y3546500D03*
X-3460000Y-5220000D03*
X-3404210Y-5442400D03*
Y-5312400D03*
Y-5117400D03*
Y-4987400D03*
X-3404200Y-3531200D03*
Y-3401200D03*
Y-3206200D03*
Y-3076200D03*
Y-1620000D03*
Y-1490000D03*
Y-1295000D03*
Y-1165000D03*
X-3093370Y-3474370D03*
X-3111500Y-1524000D03*
X-3134000Y3392500D03*
Y3764500D03*
X-3007500Y-5288400D03*
Y-4916400D03*
Y-3377200D03*
Y-3005200D03*
Y-1466000D03*
Y-1094000D03*
X-2620000Y-4940000D03*
X-2603500Y-4300000D03*
X-2224500Y-5448400D03*
Y-5076400D03*
Y-3537200D03*
Y-3165200D03*
Y-1626000D03*
Y-1254000D03*
X-2120000Y-320000D03*
X-2140000Y3563500D03*
X-2068210Y-4987400D03*
X-2082140Y-1620000D03*
X-2068200Y-1295000D03*
Y-1165000D03*
X-1991000Y3232500D03*
Y3604500D03*
X-1820000Y-5740000D03*
X-1827800Y-5442400D03*
Y-5312400D03*
Y-5117400D03*
X-1827790Y-3531200D03*
Y-3401200D03*
Y-3206200D03*
X-1810000Y-3076200D03*
Y-1490000D03*
X-1587500Y-1397000D03*
X-1492140Y-1620000D03*
X-1478210Y-5442400D03*
Y-5312400D03*
Y-5117400D03*
Y-4987400D03*
X-1478200Y-3531200D03*
Y-3401200D03*
X-1478210Y-3206200D03*
Y-3076200D03*
Y-1490000D03*
X-1478200Y-1295000D03*
Y-1165000D03*
X-1356000Y3365500D03*
Y3764500D03*
X-1206500Y-5334000D03*
X-1209620Y-3429000D03*
X-1081500Y-5288400D03*
Y-4916400D03*
Y-3377200D03*
Y-3005200D03*
Y-1466000D03*
Y-1094000D03*
X-890000Y354000D03*
X-735000Y-6598000D03*
X-710000Y-4880000D03*
X-670000Y3490000D03*
X-647000Y-7416000D03*
X-630000Y-70000D03*
X-375000Y354000D03*
X-298500Y-5448400D03*
Y-5076400D03*
Y-3537200D03*
Y-3165200D03*
Y874000D03*
Y1246000D03*
X-213000Y3232500D03*
Y3604500D03*
X10000Y-5730000D03*
X51500Y-7416000D03*
X98210Y-5312400D03*
Y-5117400D03*
Y-4987400D03*
Y-3531200D03*
Y-3401200D03*
Y-3206200D03*
Y-3076200D03*
X97500Y-1953500D03*
Y-1591500D03*
X98210Y880000D03*
Y1010000D03*
Y1205000D03*
Y1335000D03*
X200000Y-5442400D03*
X216500Y-2222500D03*
X318500Y3872500D03*
X380000Y-5442400D03*
X447800Y-5312400D03*
Y-5117400D03*
Y-4987400D03*
Y-3531200D03*
Y-3401200D03*
Y-3206200D03*
Y-3076200D03*
X444500Y1075000D03*
X578500Y-2222500D03*
X688200Y880000D03*
Y1010000D03*
Y1205000D03*
Y1335000D03*
X734530Y-5361460D03*
X762000Y-3429000D03*
X844500Y-5288400D03*
Y-4916400D03*
Y-3377200D03*
Y-3005200D03*
Y1034000D03*
Y1406000D03*
X952500Y635000D03*
X1010500Y-4064000D03*
X1220000Y-4410000D03*
X1206500Y3498000D03*
X1367500Y-4747500D03*
X1470000Y-5750000D03*
X1465000Y-4889500D03*
X1702500Y-223000D03*
X1853000Y-5016500D03*
X2222500Y952500D03*
X2272700Y-3238500D03*
X2510000Y-280000D03*
X2603500Y2005000D03*
Y3285000D03*
X2675000Y-3160000D03*
Y-2920000D03*
Y-155000D03*
Y1205000D03*
X2667000Y3365000D03*
X2807500Y-2205000D03*
X3125000Y-6680000D03*
Y-4440000D03*
Y-3320000D03*
Y-75000D03*
Y3125000D03*
X3238500Y-6760000D03*
Y1045000D03*
Y1445000D03*
Y3205000D03*
G54D21*
X-3365500Y-7366000D03*
G54D12*
X-10597500Y1562500D03*
Y1816500D03*
Y2070500D03*
Y2324500D03*
Y2578500D03*
Y2832500D03*
Y3086500D03*
X-10343500Y1562500D03*
Y1816500D03*
Y2070500D03*
Y2324500D03*
Y2578500D03*
Y2832500D03*
Y3086500D03*
G54D13*
X-10472500Y-6183730D03*
G54D22*
X2900000Y-7630000D03*
Y-1970000D03*
Y-945000D03*
Y4715000D03*
G54D23*
X3600000Y-7535000D03*
Y-2065000D03*
Y-850000D03*
Y4620000D03*
G54D14*
X-10541000Y-2348500D03*
Y-2223500D03*
Y-1840500D03*
Y-1715500D03*
X-9411500Y-2348500D03*
Y-2223500D03*
Y-1840500D03*
Y-1715500D03*
X-8382000Y-2094500D03*
Y-1969500D03*
X-8412500Y4450000D03*
X-8287500D03*
X-7912500D03*
X-7787500D03*
X-7412500D03*
X-7287500D03*
X-6912500D03*
X-6787500D03*
X-5968000Y190500D03*
X-6012500Y4450000D03*
X-5887500D03*
X-5843000Y190500D03*
X-5515050Y-7365000D03*
X-5512500Y4450000D03*
X-5460000Y190500D03*
X-5390050Y-7365000D03*
X-5335000Y190500D03*
X-5387500Y4450000D03*
X-5007050Y-7365000D03*
X-5012500Y4450000D03*
X-4952000Y190500D03*
X-4882050Y-7365000D03*
X-4887500Y4450000D03*
X-4827000Y190500D03*
X-4499050Y-7365000D03*
X-4512500Y4450000D03*
X-4374050Y-7365000D03*
X-4387500Y4450000D03*
X-2912500D03*
X-2787500D03*
X-2412500D03*
X-2339080Y-7365000D03*
X-2287500Y4450000D03*
X-2214080Y-7365000D03*
X-1362500Y4450000D03*
X-1237500D03*
X-862500D03*
X-737500D03*
G54D24*
G01X-10597500Y2832500D02*
X-10858500Y2571500D01*
Y1100500D01*
X-10577500Y819500D01*
G01D02*
X-10133000D01*
G01X-9700000Y944000D02*
X-9824500Y819500D01*
X-10133000D01*
G01X-9461500Y-4334500D02*
X-9398000Y-4271000D01*
Y-3937000D01*
X-9842500Y-3492500D01*
Y-825500D01*
X-9298940Y-281940D01*
Y-60000D01*
G01X-9700000Y1570000D02*
Y944000D01*
G01Y1586000D02*
Y1570000D01*
G01D02*
X-9659500Y1529500D01*
X-9169700D01*
X-9160200Y1520000D01*
X-9110000D01*
G01X-9398000Y3307500D02*
X-9337000Y3368500D01*
X-9210500D01*
X-9175000Y3333000D01*
G01X-8318500Y820000D02*
X-9149500D01*
X-9298940Y670560D01*
Y-60000D01*
G01X-9110000Y1520000D02*
Y1686000D01*
X-9175000Y1751000D01*
Y3333000D01*
G01X-8318500Y820000D02*
Y894500D01*
X-8944000Y1520000D01*
X-9110000D01*
G01X-8890000Y381000D02*
X-8636000D01*
X-8318500Y698500D01*
Y820000D01*
G01X-6508770Y-254000D02*
X-6572270Y-317500D01*
X-7239000D01*
X-8826500Y-1905000D01*
Y-6032500D01*
X-8332500Y-6526500D01*
Y-7200500D01*
G01X-8445500Y-5106000D02*
X-8356000Y-5016500D01*
X-6136400D01*
X-6076500Y-5076400D01*
G01Y-3165200D02*
X-8181700D01*
X-8445500Y-3429000D01*
Y-5106000D01*
G01X-4933500Y-5288400D02*
X-6845600Y-7200500D01*
X-8332500D01*
G01X-7647940Y-60000D02*
X-7556500Y31440D01*
Y698500D01*
X-7678000Y820000D01*
X-8318500D01*
G01X-5679790Y-5312400D02*
X-7344400D01*
X-7493000Y-5461000D01*
Y-5715000D01*
X-7349500Y-5858500D01*
Y-6671000D01*
G01Y-5591500D02*
X-7235500D01*
X-7172000Y-5655000D01*
X-5892390D01*
X-5679790Y-5442400D01*
G01X-6508770Y-254000D02*
X-6604000Y-158770D01*
Y1333500D01*
X-7058850Y1788350D01*
Y2968850D01*
X-7153000Y3063000D01*
G01D02*
X-6952500Y3263500D01*
X-6362770D01*
X-6260770Y3365500D01*
X-5905510D01*
X-5588010Y3048000D01*
X-5490500D01*
G01X-6508770Y-254000D02*
X-5207000D01*
X-5080000Y-381000D01*
Y-1319500D01*
X-4933500Y-1466000D01*
G01X-6286430Y-4635570D02*
Y-3555930D01*
X-5778500Y-3048000D01*
Y-1524000D01*
X-5744500Y-1490000D01*
X-5679790D01*
G01X-6010000Y3275000D02*
X-6060200D01*
X-6159500Y3175700D01*
Y3000D01*
X-6032500Y-124000D01*
Y-190500D01*
G01X-6076500Y-5076400D02*
Y-4806500D01*
X-5147000Y-3877000D01*
Y-3432500D01*
X-4953000Y-3238500D01*
X-4699000D01*
X-4572000Y-3365500D01*
G01X-6076500Y-3165200D02*
X-5842000Y-2930700D01*
Y-1488500D01*
X-6076500Y-1254000D01*
G01X-6032500Y-571500D02*
Y-1210000D01*
X-6076500Y-1254000D01*
G01X-4347500Y3296000D02*
X-4417000Y3365500D01*
X-4700210D01*
X-4889500Y3176210D01*
Y2540000D01*
X-5016500Y2413000D01*
X-5397500D01*
X-6010000Y3025500D01*
Y3275000D01*
G01X-5679790Y-1295000D02*
X-5842000Y-1132790D01*
Y-1016000D01*
X-5334000Y-508000D01*
Y-391500D01*
G01X-5679790Y-3076200D02*
X-5778500Y-3174910D01*
Y-3432490D01*
X-5679790Y-3531200D01*
G01X2272700Y-3238500D02*
Y-4839300D01*
X1651000Y-5461000D01*
X952500D01*
X473500Y-5940000D01*
X-290000D01*
X-1335000Y-6985000D01*
X-5651500D01*
G01X-5330200Y-5442400D02*
X-5679790D01*
G01X-5330200Y-5312400D02*
X-5679790D01*
G01Y-5117400D02*
X-5330200D01*
G01X-5679790Y-4987400D02*
X-5330200D01*
G01X-5679790Y-3531200D02*
X-5330200D01*
G01X-5679790Y-3206200D02*
Y-3401200D01*
G01X-5330200Y-3206200D02*
X-5679790D01*
G01Y-3012790D02*
Y-3076200D01*
G01D02*
X-5330200D01*
G01X-5679790Y-1620000D02*
Y-3012790D01*
G01X-3753790Y-3076200D02*
X-3972490Y-2857500D01*
X-5524500D01*
X-5679790Y-3012790D01*
G01Y-1620000D02*
X-5330200D01*
G01X-5679790Y-1490000D02*
X-5330200D01*
G01X-5679790Y-1295000D02*
X-5330200D01*
G01X-5679790Y-1165000D02*
X-5330200D01*
G01X-5490500Y3048000D02*
X-5086000Y3452500D01*
X-3008000D01*
X-2897800Y3342300D01*
X-2253200D01*
X-1991000Y3604500D01*
G01X-5330200Y-5442400D02*
X-5207000Y-5319200D01*
Y-5110600D01*
X-5330200Y-4987400D01*
G01Y-5117400D02*
Y-5312400D01*
G01Y-3401200D02*
Y-3206200D01*
G01X-3753790Y-3401200D02*
X-4049790Y-3105200D01*
X-5010200D01*
X-5111200Y-3206200D01*
X-5330200D01*
G01Y-1620000D02*
X-5207000Y-1496800D01*
Y-1288200D01*
X-5330200Y-1165000D01*
G01Y-1620000D02*
X-4539500D01*
X-4318000Y-1841500D01*
X-3975290D01*
X-3753790Y-1620000D01*
G01X-5330200Y-1295000D02*
Y-1490000D01*
G01X-3007500Y-5288400D02*
Y-5420500D01*
X-3238500Y-5651500D01*
X-4570400D01*
X-4933500Y-5288400D01*
G01D02*
X-4699000Y-5053900D01*
Y-3611700D01*
X-4933500Y-3377200D01*
G01X-3870000Y-4300000D02*
X-4572000Y-3598000D01*
Y-3365500D01*
G01D02*
X-4371700Y-3165200D01*
X-4150500D01*
G01X-3134000Y3392500D02*
X-4251000D01*
X-4347500Y3296000D01*
G01X-2068200Y-1165000D02*
Y-662300D01*
X-2413000Y-317500D01*
X-3810000D01*
X-4314500Y-822000D01*
Y-1597880D01*
X-4197880Y-1714500D01*
X-4000510D01*
X-3906010Y-1620000D01*
X-3753790D01*
G01X-2068200Y-1295000D02*
X-2410700Y-952500D01*
X-4000500D01*
X-4254500Y-1206500D01*
Y-1333500D01*
X-4191000Y-1397000D01*
X-3855790D01*
X-3753790Y-1295000D01*
G01X-4150500Y-5076400D02*
X-3873500Y-4799400D01*
Y-4353700D01*
X-3870000Y-4350200D01*
Y-4300000D01*
G01X-2224500Y-1254000D02*
X-2334300Y-1144200D01*
X-3340140D01*
X-3379340Y-1105000D01*
X-4001500D01*
X-4150500Y-1254000D01*
G01X-3404210Y-5442400D02*
X-3753800D01*
G01Y-5312400D02*
X-3404210D01*
G01Y-5117400D02*
X-3753800D01*
G01Y-4987400D02*
X-3404210D01*
G01X-3753790Y-3531200D02*
X-3404200D01*
G01Y-3401200D02*
X-3753790D01*
G01X-3404200Y-3206200D02*
X-3753790D01*
G01Y-3076200D02*
X-3404200D01*
G01X-3753790Y-1620000D02*
X-3404200D01*
G01X-3753790Y-1490000D02*
X-3404200D01*
G01Y-1295000D02*
X-3753790D01*
G01Y-1165000D02*
X-3404200D01*
G01X-3580000Y3546500D02*
X-2721000D01*
X-2603500Y3429000D01*
X-2391000D01*
X-2137000Y3683000D01*
X-1714500D01*
X-1587500Y3556000D01*
X-1270000D01*
X-1016000Y3810000D01*
X-190500D01*
X127000Y3492500D01*
X239000D01*
X318500Y3572000D01*
G01X-3404210Y-5442400D02*
X-3302000Y-5340190D01*
Y-5089610D01*
X-3404210Y-4987400D01*
G01Y-5312400D02*
Y-5117400D01*
G01X-3404200Y-3531200D02*
X-3238500Y-3365500D01*
Y-3241900D01*
X-3404200Y-3076200D01*
G01Y-3401200D02*
Y-3206200D01*
G01Y-1165000D02*
X-3302000Y-1267200D01*
Y-1517800D01*
X-3404200Y-1620000D01*
G01Y-1490000D02*
Y-1295000D01*
G01X-1356000Y3365500D02*
X-1737000Y2984500D01*
X-2921000D01*
X-3048000Y3111500D01*
Y3306500D01*
X-3134000Y3392500D01*
G01X-3007500Y-5288400D02*
X-2794000Y-5074900D01*
Y-3590700D01*
X-3007500Y-3377200D01*
G01X-1081500Y-5288400D02*
Y-5717000D01*
X-1270000Y-5905500D01*
X-2222500D01*
X-2839600Y-5288400D01*
X-3007500D01*
G01Y-1466000D02*
X-2799500Y-1674000D01*
Y-3169200D01*
X-3007500Y-3377200D01*
G01X-2224500Y-5076400D02*
X-2603500Y-4697400D01*
Y-4300000D01*
G01D02*
X-2349500Y-4046000D01*
Y-3290200D01*
X-2224500Y-3165200D01*
G01Y-1254000D02*
X-2413000Y-1442500D01*
Y-2976700D01*
X-2224500Y-3165200D01*
G01X-1810000Y-1490000D02*
X-2259700D01*
X-2349500Y-1579800D01*
Y-1714500D01*
X-2286000Y-1778000D01*
X-1460500D01*
X-1333500Y-1651000D01*
Y-1524000D01*
X-1079500Y-1270000D01*
X-635000D01*
X-127000Y-762000D01*
Y825500D01*
X-444500Y1143000D01*
Y1255000D01*
X-302500Y1397000D01*
X-93790D01*
X98210Y1205000D01*
G01X-298500Y-3165200D02*
X-635000Y-2828700D01*
Y-1397000D01*
X-698500Y-1333500D01*
X-1058140D01*
X-1206500Y-1481860D01*
Y-2147200D01*
X-2224500Y-3165200D01*
G01X-2068210Y-4987400D02*
X-1478210D01*
G01X-1492140Y-1620000D02*
X-2082140D01*
G01X-2068200Y-1295000D02*
X-1478200D01*
G01X-2068200Y-1165000D02*
X-1478200D01*
G01X-213000Y3604500D02*
X-355000Y3746500D01*
X-972230D01*
X-1226230Y3492500D01*
X-1879000D01*
X-1991000Y3604500D01*
G01X-1827790Y-3531200D02*
X-1935000Y-3423990D01*
Y-3151000D01*
X-1860200Y-3076200D01*
X-1810000D01*
G01X-1827800Y-5442400D02*
X-1478210D01*
G01X-1827800Y-5117400D02*
Y-5312400D01*
G01D02*
X-1478210D01*
G01X-1827800Y-5117400D02*
X-1478210D01*
G01X-1827790Y-3531200D02*
X-1478200D01*
G01X-1827790Y-3401200D02*
X-1478200D01*
G01X-1827790Y-3206200D02*
Y-3401200D01*
G01X-1478210Y-1490000D02*
X-1810000D01*
G01X-1478210Y-5442400D02*
X-1333500Y-5297690D01*
Y-5132110D01*
X-1478210Y-4987400D01*
G01X-1478200Y-3531200D02*
X-1333500Y-3386500D01*
Y-3220910D01*
X-1478210Y-3076200D01*
G01Y-3206200D02*
Y-3350990D01*
X-1478200Y-3351000D01*
Y-3401200D01*
G01X-1492140Y-1620000D02*
X-1396570Y-1524430D01*
Y-1246630D01*
X-1478200Y-1165000D01*
G01Y-1295000D02*
Y-1439790D01*
X-1478210Y-1439800D01*
Y-1490000D01*
G01X-890000Y354000D02*
Y220000D01*
X-1478200Y-368200D01*
Y-1165000D01*
G01X-1081500Y-3377200D02*
X-825500Y-3633200D01*
Y-5032400D01*
X-1081500Y-5288400D01*
G01X844500D02*
Y-5378500D01*
X635000Y-5588000D01*
X-508000D01*
X-807600Y-5288400D01*
X-1081500D01*
G01Y-3377200D02*
X-889000Y-3184700D01*
Y-1587500D01*
X-1010500Y-1466000D01*
X-1081500D01*
G01X-647000Y-7416000D02*
Y-6686000D01*
X-735000Y-6598000D01*
G01X-647000Y-7416000D02*
X51500D01*
G01X-298500Y-5076400D02*
X-635000Y-4739900D01*
Y-3429000D01*
X-371200Y-3165200D01*
X-298500D01*
G01X-375000Y354000D02*
X-508000Y487000D01*
Y1315000D01*
X-299000Y1524000D01*
X-90790D01*
X98210Y1335000D01*
G01X1220000Y-4410000D02*
X-155500D01*
X-298500Y-4553000D01*
Y-5076400D01*
G01Y-3165200D02*
Y-1987500D01*
X97500Y-1591500D01*
G01D02*
X-63500Y-1430500D01*
Y1011000D01*
X-298500Y1246000D01*
G01X-213000Y3604500D02*
X1016000Y2375500D01*
Y1205500D01*
X844500Y1034000D01*
G01X98210Y-3401200D02*
X-127000Y-3626410D01*
Y-4127500D01*
X25500Y-4280000D01*
X1260000D01*
X1310000Y-4330000D01*
Y-4460000D01*
X1261500Y-4508500D01*
X-63500D01*
X-127000Y-4572000D01*
Y-4847050D01*
X73350Y-5047400D01*
X94400D01*
X98210Y-5051210D01*
Y-5117400D01*
G01X3125000Y-6680000D02*
X3074800D01*
X3062300Y-6667500D01*
X952500D01*
X204000Y-7416000D01*
X51500D01*
G01D02*
X863500Y-6604000D01*
X2032000D01*
X3125000Y-5511000D01*
Y-4440000D01*
G01X98210Y-5312400D02*
X447800D01*
G01Y-5117400D02*
X98210D01*
G01Y-4987400D02*
X447800D01*
G01X98210Y-3590710D02*
Y-3908210D01*
X254000Y-4064000D01*
X1010500D01*
G01X98210Y-3590710D02*
Y-3531200D01*
G01Y-3590710D02*
X317500Y-3810000D01*
X1270000D01*
X1520500Y-4060500D01*
Y-4448500D01*
X1397000Y-4572000D01*
X863200D01*
X447800Y-4987400D01*
G01X98210Y-3531200D02*
X254000Y-3375410D01*
Y-3175000D01*
X155200Y-3076200D01*
X98210D01*
G01Y-3206200D02*
Y-3401200D01*
G01Y880000D02*
X688200D01*
G01X98210Y1205000D02*
Y1010000D01*
G01Y1205000D02*
X688200D01*
G01Y1335000D02*
X579300Y1443900D01*
X207110D01*
X98210Y1335000D01*
G01X380000Y-5442400D02*
X200000D01*
G01X211500Y-2167300D02*
X216500Y-2172300D01*
Y-2222500D01*
G01D02*
Y-2749200D01*
X844500Y-3377200D01*
G01X2222500Y952500D02*
X2095500Y825500D01*
X1841500D01*
X1524000Y1143000D01*
Y2095500D01*
X318500Y3301000D01*
Y3572000D01*
G01Y3872500D02*
Y3572000D01*
G01Y3872500D02*
X636000D01*
X1010500Y3498000D01*
X1206500D01*
G01X447800Y-4987400D02*
X508000Y-5047600D01*
Y-5382200D01*
X447800Y-5442400D01*
X380000D01*
G01X447800Y-5312400D02*
Y-5117400D01*
G01X688200Y880000D02*
X723700Y844500D01*
X743000D01*
X952500Y635000D01*
G01X688200Y880000D02*
X753200Y945000D01*
Y1270000D01*
X688200Y1335000D01*
G01Y1205000D02*
Y1010000D01*
G01X844500Y-5288400D02*
X934600D01*
X1333500Y-4889500D01*
X1465000D01*
G01D02*
X1580500Y-4774000D01*
Y-3930000D01*
X1027700Y-3377200D01*
X844500D01*
G01X1702500Y-223000D02*
Y-115000D01*
X952500Y635000D01*
G01X2510000Y-280000D02*
Y-940000D01*
X2420000Y-1030000D01*
X2020000D01*
X1702500Y-712500D01*
Y-223000D01*
G01X2222500Y952500D02*
Y297000D01*
X1702500Y-223000D01*
G01X3125000Y3125000D02*
X3089500Y3089500D01*
X2480500D01*
X2370000Y3200000D01*
X1910000D01*
X1778000Y3068000D01*
Y1397000D01*
X1970000Y1205000D01*
X2675000D01*
G01X2222500Y952500D02*
Y1016000D01*
X2349500Y1143000D01*
X2613000D01*
X2675000Y1205000D01*
G01X2510000Y-280000D02*
X2550000Y-240000D01*
X2960000D01*
X3125000Y-75000D01*
G01X2603500Y2005000D02*
Y1276500D01*
X2675000Y1205000D01*
G01Y-3160000D02*
X2965000D01*
X3125000Y-3320000D01*
G01X2807500Y-2205000D02*
Y-3027500D01*
X2675000Y-3160000D01*
G01Y1205000D02*
X2732010D01*
X2892010Y1045000D01*
X3238500D01*
G01X2667000Y3365000D02*
X2885000D01*
X3125000Y3125000D01*
G01Y-3320000D02*
Y-4440000D01*
G54D15*
X-10400000Y-3500000D03*
X-10096500Y-127000D03*
X-9207500Y-825500D03*
X-9017000Y-4064000D03*
X-8600000Y-6900000D03*
X-8000000Y-5200000D03*
X-6750000Y-6400000D03*
X-6550000Y-7400000D03*
X-1016000Y-190500D03*
X-254000D03*
X-127000Y-6477000D03*
X508000Y3492500D03*
X825500Y3048000D03*
X1650000Y-3700000D03*
G54D25*
G01X-9779000Y635000D02*
Y190500D01*
G01X-9715500Y254000D02*
Y571500D01*
G01X-9652000Y190500D02*
Y508000D01*
G01X-9589740Y571500D02*
Y254000D01*
G01X-9525000Y190500D02*
Y508000D01*
G01X-9461500Y-127000D02*
Y571500D01*
G01X-9080500D02*
Y190500D01*
G01X-9017000Y-127000D02*
Y635000D01*
X-9080500Y698500D01*
G01X-8572500Y190500D02*
Y-70000D01*
G01X-8509000Y317500D02*
Y-127000D01*
G01X-8445500Y190500D02*
Y-190500D01*
G01X-8382000Y317500D02*
Y-127000D01*
G01X-8318500Y190500D02*
Y-190500D01*
G01X-8255000Y317500D02*
Y-127000D01*
G01X-8191500Y190500D02*
Y-190500D01*
G01X-8064500D02*
Y317500D01*
G01X-8128000Y381000D02*
Y-127000D01*
G01X-8001000Y381000D02*
Y-127000D01*
G01X-7937500Y444500D02*
Y-190500D01*
G01X-2222500Y508000D02*
X-1272000D01*
X-1250000Y530000D01*
X-930000D01*
G01X-2159000Y571500D02*
X-1488500D01*
X-1450000Y610000D01*
X-930000D01*
G01X-2095500Y635000D02*
X-1755000D01*
X-1710000Y680000D01*
X-920000D01*
G01X-820000Y761000D02*
X-1969500D01*
X-2032000Y698500D01*
G01X1843000Y-4870000D02*
Y-3290000D01*
X641750Y-2088750D01*
G54D16*
X-10022500Y-6183730D03*
G54D26*
G01X-7185940Y2840000D02*
X-8412500Y4066560D01*
Y4450000D01*
G01X-7000000Y3700000D02*
X-7162500D01*
X-7912500Y4450000D01*
G01X-7683500Y-3746500D02*
X-6477000D01*
G01X-6096000Y-952500D02*
X-6414500Y-1271000D01*
X-7683500D01*
G01X-6159500Y-889000D02*
X-6350000Y-1079500D01*
X-7683500D01*
G01X-6150000Y-762000D02*
X-6223000D01*
X-6413500Y-952500D01*
X-7683500D01*
G01X-7494000Y-2223500D02*
X-5905500D01*
G01X-6540500Y3492500D02*
X-6584560D01*
X-7412500Y4320440D01*
Y4450000D01*
G01X-7000000Y3039000D02*
Y2710000D01*
X-6810000Y2520000D01*
X-6600000D01*
G01X-6420000Y3330000D02*
Y3435500D01*
X-6912500Y3928000D01*
Y4450000D01*
G01X-6590000Y2710000D02*
Y3036770D01*
X-6731000Y3177770D01*
G01X-6604000Y3740000D02*
Y4390700D01*
X-6121940Y4872760D01*
X334240D01*
X1027000Y4180000D01*
X2529000D01*
X2594000Y4245000D01*
X2667000D01*
G01X-6477000Y3740000D02*
Y4445000D01*
X-6100640Y4821360D01*
X258640D01*
X1143000Y3937000D01*
X3107000D01*
X3175000Y4005000D01*
G01X-6413500Y2476500D02*
Y3175000D01*
G01X-5715000Y3810000D02*
Y4152500D01*
X-6012500Y4450000D01*
G01X-5651500Y1333500D02*
X-5968000Y1017000D01*
Y190500D01*
G01X-2984500Y2095500D02*
X-4826000D01*
X-5334000Y1587500D01*
X-5651500D01*
G01X-4381500Y1333500D02*
X-4572000Y1143000D01*
X-4762500D01*
X-5080000Y1460500D01*
X-5461000D01*
X-5524500Y1397000D01*
Y255000D01*
X-5460000Y190500D01*
G01X-5016500Y3720000D02*
Y3954000D01*
X-5512500Y4450000D01*
G01X-2622750Y742750D02*
X-4489250D01*
X-5080000Y1333500D01*
X-5397500D01*
G01X-5330000Y3060000D02*
Y2536500D01*
X-5270000Y2476500D01*
G01X-5016500Y2650000D02*
Y3191500D01*
X-5080000Y3255000D01*
G01X-4952000Y190500D02*
X-4890450Y128950D01*
X-3363550D01*
X-3111500Y381000D01*
G01X-4727480Y2413000D02*
Y3255000D01*
G01X-2540000Y2032000D02*
X-4191000D01*
X-4635500Y1587500D01*
Y1333500D01*
G01X-2667000Y1905000D02*
X-3976440D01*
X-4293940Y1587500D01*
X-4381500D01*
G01X-2603500Y1778000D02*
X-3531940D01*
X-3976440Y1333500D01*
X-4127500D01*
G01X-3810000Y4699000D02*
Y4381500D01*
G01X-2984500Y-6159500D02*
Y-5524500D01*
G01X-2820000Y-6190000D02*
Y-5450000D01*
G01X-2540000Y3492500D02*
Y4127500D01*
G01X-2400000Y4180000D02*
Y3628500D01*
G01X-1524000Y3810000D02*
X-1362500Y3971500D01*
Y4450000D01*
G01X-1270000Y3831530D02*
Y4042500D01*
X-862500Y4450000D01*
G01X-825500Y-6180000D02*
Y-5524500D01*
G01X-698500Y-1143000D02*
Y-1034400D01*
X-740000Y-992900D01*
Y-92070D01*
X-740450Y-91620D01*
Y-8380D01*
X-740000Y-7930D01*
Y3089500D01*
X-825500Y3175000D01*
G01X-883000Y3689000D02*
X-762000Y3568000D01*
Y3184200D01*
X-688600Y3110800D01*
Y-29230D01*
X-689050Y-29680D01*
Y-70320D01*
X-688600Y-70770D01*
Y-971600D01*
X-635000Y-1025200D01*
Y-1079500D01*
G01X-762000Y3873500D02*
X-63500Y4572000D01*
Y4699000D01*
G01X-571500Y-1016000D02*
Y3600060D01*
X-654440Y3683000D01*
X-698500D01*
G01X190500Y3619500D02*
Y4762500D01*
G01X508000Y3492500D02*
X825500D01*
X988000Y3330000D01*
X2504500D01*
X2699500Y3525000D01*
X3120000D01*
G01X1180250Y2820250D02*
X952500Y3048000D01*
X825500D01*
G01X2413000Y3873500D02*
X2349500D01*
X2159000Y3683000D01*
X952500D01*
G01X1016000Y-6223000D02*
Y-5715000D01*
G01X1079500Y-6350000D02*
X1123560D01*
X2470000Y-5003560D01*
Y-3803960D01*
X2553960Y-3720000D01*
X2603500D01*
G01X1493000Y3525000D02*
X2603500D01*
G01X3330000Y2710000D02*
Y3464500D01*
X3175000Y3619500D01*
X1651000D01*
G01X3211250Y281250D02*
X3416900Y75600D01*
Y-565200D01*
X1968500Y-2013600D01*
Y-4000500D01*
G01X2370000Y3092060D02*
X2266560D01*
X2095500Y2921000D01*
Y1545500D01*
X2020000Y1470000D01*
G01X2032000Y4127500D02*
X2079500Y4080000D01*
X2580800D01*
X2628300Y4127500D01*
X2997790D01*
X3115290Y4245000D01*
G01X3175000Y405000D02*
X3219060D01*
X3468300Y155760D01*
Y-586500D01*
X2080640Y-1974160D01*
Y-3985640D01*
G01X2260000Y2970000D02*
X2304060D01*
X2309060Y2965000D01*
X3120000D01*
G01X3150000Y1970000D02*
X3115000Y2005000D01*
X2821000D01*
X2349500Y2476500D01*
G01X2413000Y-900000D02*
Y444500D01*
X2667000Y698500D01*
X3141200D01*
X3365500Y922800D01*
Y1079500D01*
X3238500Y1206500D01*
G01X3247000Y4325000D02*
X2469060D01*
X2444060Y4350000D01*
X2400000D01*
G01X2444750Y984250D02*
X2624000Y805000D01*
X3175000D01*
G01X3340000Y2245000D02*
X2835000D01*
X2540000Y2540000D01*
X2476500D01*
G01X3290000Y-5560000D02*
X3304060D01*
X3429000Y-5684940D01*
Y-6667500D01*
X3175000Y-6921500D01*
X2540000D01*
G01Y-6731000D02*
X2603500Y-6794500D01*
X3111500D01*
X3302000Y-6604000D01*
Y-6520000D01*
G01X2540000D02*
X3030000D01*
X3238500Y-6311500D01*
Y-5863500D01*
X3175000Y-5800000D01*
G01X2540000Y-6286500D02*
X3124440D01*
X3130940Y-6280000D01*
X3175000D01*
G01X2540000Y2667000D02*
X3180500D01*
X3238500Y2725000D01*
G01X2540000Y4000500D02*
X2603500D01*
X2667000Y4064000D01*
X3074000D01*
X3175000Y4165000D01*
G01X3120000Y85000D02*
X3238500Y-33500D01*
Y-562300D01*
X3187090Y-613710D01*
Y-622910D01*
X2984500Y-825500D01*
X2603500D01*
G01Y952500D02*
X2667000Y889000D01*
X3111500D01*
G01X2857500Y-1270000D02*
Y-1714500D01*
G01X2984500Y-1841500D02*
Y-1397000D01*
G01X3238500Y-635000D02*
X3365500Y-508000D01*
Y-500D01*
X3120000Y245000D01*
G01X3238500Y-2159000D02*
Y-1651000D01*
X3302000Y-1587500D01*
G54D17*
X-9779000Y190500D03*
Y635000D03*
X-9715500Y254000D03*
Y571500D03*
X-9652000Y190500D03*
Y508000D03*
X-9589740Y254000D03*
Y571500D03*
X-9525000Y190500D03*
Y508000D03*
X-9461500Y-127000D03*
Y571500D03*
X-9017000Y-127000D03*
X-9080500Y190500D03*
Y571500D03*
Y698500D03*
X-8572500Y-70000D03*
Y190500D03*
X-8509000Y-127000D03*
Y317500D03*
X-8445500Y-190500D03*
Y190500D03*
X-8382000Y-127000D03*
Y317500D03*
X-8318500Y-190500D03*
Y190500D03*
X-8191500Y-190500D03*
X-8255000Y-127000D03*
X-8191500Y190500D03*
X-8255000Y317500D03*
X-8128000Y-127000D03*
Y381000D03*
X-8064500Y-190500D03*
Y317500D03*
X-8001000Y-127000D03*
Y381000D03*
X-7937500Y-190500D03*
Y444500D03*
X-2857500Y3183260D03*
Y3878740D03*
X-2267500Y3183260D03*
Y3878740D03*
X-2222500Y508000D03*
X-2159000Y571500D03*
X-2095500Y635000D03*
X-2032000Y698500D03*
X-1079500Y3183260D03*
Y3878740D03*
X-930000Y530000D03*
Y610000D03*
X-920000Y680000D03*
X-820000Y761000D03*
X-489500Y3183260D03*
Y3878740D03*
X641750Y-2088750D03*
X1843000Y-4870000D03*
G54D27*
G01X-16600000Y11690000D02*
Y-16250000D01*
G01D02*
X26580000D01*
Y11690000D01*
X-16600000D01*
G01X25310000Y7880000D02*
Y-15488000D01*
X-15330000D01*
G01Y10928000D02*
Y-15488000D01*
G01Y10928000D02*
X-15076000D01*
G01D02*
X25310000D01*
G01X-11200000Y-8015000D02*
Y5100000D01*
X3800000D01*
Y-8015000D01*
X-11200000D01*
G01X12610000Y8642000D02*
Y7880000D01*
G01Y10928000D02*
Y8642000D01*
G01Y9404000D02*
X25310000D01*
G01X12610000Y10166000D02*
X25310000D01*
G01X12768750Y9658000D02*
Y9912000D01*
X12848120D01*
X12873520Y9899290D01*
X12889400Y9882370D01*
X12895750Y9848500D01*
X12889400Y9814630D01*
X12870350Y9793470D01*
X12848120Y9780760D01*
X12768750D01*
G01X12848120D02*
X12895750Y9658000D01*
G01X13149750D02*
X13022750D01*
Y9912000D01*
X13149750D01*
G01X13098950Y9789240D02*
X13022750D01*
G01X13260870Y9912000D02*
X13340250Y9658000D01*
X13419630Y9912000D01*
G01X13626000Y8642000D02*
Y7880000D01*
G01Y8642000D02*
Y10166000D01*
G01X14642000Y-10916000D02*
Y-15488000D01*
G01X20992000Y-14726000D02*
X14642000D01*
G01X25310000Y-13710000D02*
X14642000D01*
G01X25310000Y-12186000D02*
X14642000D01*
G01Y-10916000D02*
X25300230D01*
X25310000Y-10906230D01*
G01X14797570Y-15073140D02*
X14822980Y-15094300D01*
X14851550Y-15107000D01*
X14876950D01*
X14902350Y-15094300D01*
X14921400Y-15073140D01*
X14930930Y-15043500D01*
X14924580Y-15013870D01*
X14908700Y-14988470D01*
X14880120Y-14971530D01*
X14842030Y-14963070D01*
X14819800Y-14946140D01*
X14810270Y-14916500D01*
X14816630Y-14886870D01*
X14832500Y-14865710D01*
X14854720Y-14853000D01*
X14876950D01*
X14899180Y-14861460D01*
X14918230Y-14882630D01*
G01X15188100Y-14874170D02*
X15169050Y-14861460D01*
X15146830Y-14853000D01*
X15121430D01*
X15092850Y-14865710D01*
X15070630Y-14886870D01*
X15054750Y-14912270D01*
X15042050Y-14954600D01*
X15038870Y-14992700D01*
X15045230Y-15030800D01*
X15054750Y-15056200D01*
X15073800Y-15081610D01*
X15096030Y-15098540D01*
X15118250Y-15107000D01*
X15140470D01*
X15162700Y-15098540D01*
X15181750Y-15085840D01*
X15197630Y-15068910D01*
G01X15292870Y-15107000D02*
X15372250Y-14853000D01*
X15451630Y-15107000D01*
G01X15423050Y-15018100D02*
X15321450D01*
G01X15562750Y-14853000D02*
Y-15107000D01*
X15689750D01*
G01X15943750D02*
X15816750D01*
Y-14853000D01*
X15943750D01*
G01X15892950Y-14975760D02*
X15816750D01*
G01X14797570Y-14057140D02*
X14822980Y-14078300D01*
X14851550Y-14091000D01*
X14876950D01*
X14902350Y-14078300D01*
X14921400Y-14057140D01*
X14930930Y-14027500D01*
X14924580Y-13997870D01*
X14908700Y-13972470D01*
X14880120Y-13955530D01*
X14842030Y-13947070D01*
X14819800Y-13930140D01*
X14810270Y-13900500D01*
X14816630Y-13870870D01*
X14832500Y-13849710D01*
X14854720Y-13837000D01*
X14876950D01*
X14899180Y-13845460D01*
X14918230Y-13866630D01*
G01X15080150Y-13837000D02*
X15156340D01*
G01X15118250D02*
Y-14091000D01*
G01X15080150D02*
X15156340D01*
G01X15311920Y-13837000D02*
X15432580D01*
X15311920Y-14091000D01*
X15432580D01*
G01X15689750D02*
X15562750D01*
Y-13837000D01*
X15689750D01*
G01X15638950Y-13959760D02*
X15562750D01*
G01X15429400Y9658000D02*
Y9912000D01*
X15492900D01*
X15518300Y9899290D01*
X15537350Y9882370D01*
X15553230Y9856970D01*
X15565930Y9827330D01*
X15569100Y9785000D01*
X15565930Y9742660D01*
X15553230Y9713030D01*
X15537350Y9687630D01*
X15518300Y9670700D01*
X15492900Y9658000D01*
X15429400D01*
G01X15816750D02*
X15689750D01*
Y9912000D01*
X15816750D01*
G01X15765950Y9789240D02*
X15689750D01*
G01X15940570Y9691860D02*
X15965980Y9670700D01*
X15994550Y9658000D01*
X16019950D01*
X16045350Y9670700D01*
X16064400Y9691860D01*
X16073930Y9721500D01*
X16067580Y9751130D01*
X16051700Y9776530D01*
X16023120Y9793470D01*
X15985030Y9801930D01*
X15962800Y9818860D01*
X15953270Y9848500D01*
X15959630Y9878130D01*
X15975500Y9899290D01*
X15997720Y9912000D01*
X16019950D01*
X16042180Y9903540D01*
X16061230Y9882370D01*
G01X16331100Y9890830D02*
X16312050Y9903540D01*
X16289830Y9912000D01*
X16264430D01*
X16235850Y9899290D01*
X16213630Y9878130D01*
X16197750Y9852730D01*
X16185050Y9810400D01*
X16181870Y9772300D01*
X16188230Y9734200D01*
X16197750Y9708800D01*
X16216800Y9683390D01*
X16239030Y9666460D01*
X16261250Y9658000D01*
X16283470D01*
X16305700Y9666460D01*
X16324750Y9679160D01*
X16340630Y9696090D01*
G01X16451750Y9658000D02*
Y9912000D01*
X16531120D01*
X16556520Y9899290D01*
X16572400Y9882370D01*
X16578750Y9848500D01*
X16572400Y9814630D01*
X16553350Y9793470D01*
X16531120Y9780760D01*
X16451750D01*
G01X16531120D02*
X16578750Y9658000D01*
G01X16731150Y9912000D02*
X16807340D01*
G01X16769250D02*
Y9658000D01*
G01X16731150D02*
X16807340D01*
G01X16959750D02*
Y9912000D01*
X17035950D01*
X17061350Y9899290D01*
X17080400Y9869670D01*
X17086750Y9835800D01*
X17080400Y9801930D01*
X17064520Y9776530D01*
X17035950Y9763830D01*
X16959750D01*
G01X17277250Y9912000D02*
Y9658000D01*
G01X17204230Y9912000D02*
X17350270D01*
G01X17493150D02*
X17569340D01*
G01X17531250D02*
Y9658000D01*
G01X17493150D02*
X17569340D01*
G01X17785250D02*
X17759850Y9662230D01*
X17737630Y9679160D01*
X17718570Y9704560D01*
X17705870Y9734200D01*
X17699520Y9768070D01*
Y9801930D01*
X17705870Y9835800D01*
X17718570Y9865440D01*
X17737630Y9890830D01*
X17759850Y9907770D01*
X17785250Y9912000D01*
X17810650Y9907770D01*
X17832870Y9890830D01*
X17851930Y9865440D01*
X17864630Y9835800D01*
X17870980Y9801930D01*
Y9768070D01*
X17864630Y9734200D01*
X17851930Y9704560D01*
X17832870Y9679160D01*
X17810650Y9662230D01*
X17785250Y9658000D01*
G01X17966230D02*
Y9912000D01*
X18112270Y9658000D01*
Y9912000D01*
G01X15912000Y-14726000D02*
Y-13710000D01*
G01X16200920Y-14091000D02*
Y-13837000D01*
X16321580D01*
G01X16277120Y-13959760D02*
X16200920D01*
G01X16448570Y-14057140D02*
X16473980Y-14078300D01*
X16502550Y-14091000D01*
X16527950D01*
X16553350Y-14078300D01*
X16572400Y-14057140D01*
X16581930Y-14027500D01*
X16575580Y-13997870D01*
X16559700Y-13972470D01*
X16531120Y-13955530D01*
X16493030Y-13947070D01*
X16470800Y-13930140D01*
X16461270Y-13900500D01*
X16467630Y-13870870D01*
X16483500Y-13849710D01*
X16505720Y-13837000D01*
X16527950D01*
X16550180Y-13845460D01*
X16569230Y-13866630D01*
G01X16839100Y-13858170D02*
X16820050Y-13845460D01*
X16797830Y-13837000D01*
X16772430D01*
X16743850Y-13849710D01*
X16721630Y-13870870D01*
X16705750Y-13896270D01*
X16693050Y-13938600D01*
X16689870Y-13976700D01*
X16696230Y-14014800D01*
X16705750Y-14040200D01*
X16724800Y-14065610D01*
X16747030Y-14082540D01*
X16769250Y-14091000D01*
X16791470D01*
X16813700Y-14082540D01*
X16832750Y-14069840D01*
X16848630Y-14052910D01*
G01X16940700Y-14091000D02*
Y-13837000D01*
X17023250Y-14048670D01*
X17105800Y-13837000D01*
Y-14091000D01*
G01X17458230D02*
Y-13837000D01*
X17604270Y-14091000D01*
Y-13837000D01*
G01X17785250Y-14091000D02*
X17759850Y-14086770D01*
X17737630Y-14069840D01*
X17718570Y-14044440D01*
X17705870Y-14014800D01*
X17699520Y-13980930D01*
Y-13947070D01*
X17705870Y-13913200D01*
X17718570Y-13883560D01*
X17737630Y-13858170D01*
X17759850Y-13841230D01*
X17785250Y-13837000D01*
X17810650Y-13841230D01*
X17832870Y-13858170D01*
X17851930Y-13883560D01*
X17864630Y-13913200D01*
X17870980Y-13947070D01*
Y-13980930D01*
X17864630Y-14014800D01*
X17851930Y-14044440D01*
X17832870Y-14069840D01*
X17810650Y-14086770D01*
X17785250Y-14091000D01*
G01X16928000Y-14726000D02*
Y-15488000D01*
G01X17022230Y-11650000D02*
Y-11396000D01*
X17168270Y-11650000D01*
Y-11396000D01*
G01X17349250Y-11650000D02*
Y-11535700D01*
X17285750Y-11396000D01*
G01X17412750D02*
X17349250Y-11535700D01*
G01X17533400Y-11396000D02*
Y-11578030D01*
X17546100Y-11616140D01*
X17571500Y-11641540D01*
X17603250Y-11650000D01*
X17635000Y-11641540D01*
X17660400Y-11616140D01*
X17673100Y-11578030D01*
Y-11396000D01*
G01X18038230Y-11650000D02*
Y-11396000D01*
X18184270Y-11650000D01*
Y-11396000D01*
G01X18285870Y-11650000D02*
X18365250Y-11396000D01*
X18444630Y-11650000D01*
G01X18416050Y-11561100D02*
X18314450D01*
G01X18546230Y-11650000D02*
Y-11396000D01*
X18692270Y-11650000D01*
Y-11396000D01*
G01X18873250Y-11650000D02*
X18847850Y-11645770D01*
X18825630Y-11628840D01*
X18806570Y-11603440D01*
X18793870Y-11573800D01*
X18787520Y-11539930D01*
Y-11506070D01*
X18793870Y-11472200D01*
X18806570Y-11442560D01*
X18825630Y-11417170D01*
X18847850Y-11400230D01*
X18873250Y-11396000D01*
X18898650Y-11400230D01*
X18920870Y-11417170D01*
X18939930Y-11442560D01*
X18952630Y-11472200D01*
X18958980Y-11506070D01*
Y-11539930D01*
X18952630Y-11573800D01*
X18939930Y-11603440D01*
X18920870Y-11628840D01*
X18898650Y-11645770D01*
X18873250Y-11650000D01*
G01X19444750D02*
X19317750D01*
Y-11396000D01*
X19444750D01*
G01X19393950Y-11518760D02*
X19317750D01*
G01X19571750Y-11396000D02*
Y-11650000D01*
X19698750D01*
G01X19952750D02*
X19825750D01*
Y-11396000D01*
X19952750D01*
G01X19901950Y-11518760D02*
X19825750D01*
G01X20213100Y-11417170D02*
X20194050Y-11404460D01*
X20171830Y-11396000D01*
X20146430D01*
X20117850Y-11408710D01*
X20095630Y-11429870D01*
X20079750Y-11455270D01*
X20067050Y-11497600D01*
X20063870Y-11535700D01*
X20070230Y-11573800D01*
X20079750Y-11599200D01*
X20098800Y-11624610D01*
X20121030Y-11641540D01*
X20143250Y-11650000D01*
X20165470D01*
X20187700Y-11641540D01*
X20206750Y-11628840D01*
X20222630Y-11611910D01*
G01X20397250Y-11396000D02*
Y-11650000D01*
G01X20324230Y-11396000D02*
X20470270D01*
G01X20587750Y-11650000D02*
Y-11396000D01*
X20667120D01*
X20692520Y-11408710D01*
X20708400Y-11425630D01*
X20714750Y-11459500D01*
X20708400Y-11493370D01*
X20689350Y-11514530D01*
X20667120Y-11527240D01*
X20587750D01*
G01X20667120D02*
X20714750Y-11650000D01*
G01X20905250D02*
X20879850Y-11645770D01*
X20857630Y-11628840D01*
X20838570Y-11603440D01*
X20825870Y-11573800D01*
X20819520Y-11539930D01*
Y-11506070D01*
X20825870Y-11472200D01*
X20838570Y-11442560D01*
X20857630Y-11417170D01*
X20879850Y-11400230D01*
X20905250Y-11396000D01*
X20930650Y-11400230D01*
X20952870Y-11417170D01*
X20971930Y-11442560D01*
X20984630Y-11472200D01*
X20990980Y-11506070D01*
Y-11539930D01*
X20984630Y-11573800D01*
X20971930Y-11603440D01*
X20952870Y-11628840D01*
X20930650Y-11645770D01*
X20905250Y-11650000D01*
G01X21086230D02*
Y-11396000D01*
X21232270Y-11650000D01*
Y-11396000D01*
G01X21375150D02*
X21451340D01*
G01X21413250D02*
Y-11650000D01*
G01X21375150D02*
X21451340D01*
G01X21737100Y-11417170D02*
X21718050Y-11404460D01*
X21695830Y-11396000D01*
X21670430D01*
X21641850Y-11408710D01*
X21619630Y-11429870D01*
X21603750Y-11455270D01*
X21591050Y-11497600D01*
X21587870Y-11535700D01*
X21594230Y-11573800D01*
X21603750Y-11599200D01*
X21622800Y-11624610D01*
X21645030Y-11641540D01*
X21667250Y-11650000D01*
X21689470D01*
X21711700Y-11641540D01*
X21730750Y-11628840D01*
X21746630Y-11611910D01*
G01X21854570Y-11616140D02*
X21879980Y-11637300D01*
X21908550Y-11650000D01*
X21933950D01*
X21959350Y-11637300D01*
X21978400Y-11616140D01*
X21987930Y-11586500D01*
X21981580Y-11556870D01*
X21965700Y-11531470D01*
X21937120Y-11514530D01*
X21899030Y-11506070D01*
X21876800Y-11489140D01*
X21867270Y-11459500D01*
X21873630Y-11429870D01*
X21889500Y-11408710D01*
X21911720Y-11396000D01*
X21933950D01*
X21956180Y-11404460D01*
X21975230Y-11425630D01*
G01X22365750Y-11396000D02*
Y-11650000D01*
X22492750D01*
G01X22603870D02*
X22683250Y-11396000D01*
X22762630Y-11650000D01*
G01X22734050Y-11561100D02*
X22632450D01*
G01X22962650Y-11514530D02*
X22975350Y-11501830D01*
X22984870Y-11480670D01*
X22991230Y-11451030D01*
X22984870Y-11425630D01*
X22972180Y-11408710D01*
X22949950Y-11396000D01*
X22864230D01*
Y-11650000D01*
X22969000D01*
X22991230Y-11633070D01*
X23003930Y-11607670D01*
X23010270Y-11578030D01*
X23003930Y-11548410D01*
X22984870Y-11523000D01*
X22962650Y-11514530D01*
X22864230D01*
G01X17634920Y-13000000D02*
Y-12746000D01*
X17755580D01*
G01X17711120Y-12868760D02*
X17634920D01*
G01X17882570Y-12966140D02*
X17907980Y-12987300D01*
X17936550Y-13000000D01*
X17961950D01*
X17987350Y-12987300D01*
X18006400Y-12966140D01*
X18015930Y-12936500D01*
X18009580Y-12906870D01*
X17993700Y-12881470D01*
X17965120Y-12864530D01*
X17927030Y-12856070D01*
X17904800Y-12839140D01*
X17895270Y-12809500D01*
X17901630Y-12779870D01*
X17917500Y-12758710D01*
X17939720Y-12746000D01*
X17961950D01*
X17984180Y-12754460D01*
X18003230Y-12775630D01*
G01X18273100Y-12767170D02*
X18254050Y-12754460D01*
X18231830Y-12746000D01*
X18206430D01*
X18177850Y-12758710D01*
X18155630Y-12779870D01*
X18139750Y-12805270D01*
X18127050Y-12847600D01*
X18123870Y-12885700D01*
X18130230Y-12923800D01*
X18139750Y-12949200D01*
X18158800Y-12974610D01*
X18181030Y-12991540D01*
X18203250Y-13000000D01*
X18225470D01*
X18247700Y-12991540D01*
X18266750Y-12978840D01*
X18282630Y-12961910D01*
G01X18377870Y-12746000D02*
X18457250Y-13000000D01*
X18536630Y-12746000D01*
G01X18882700Y-13000000D02*
Y-12746000D01*
X18965250Y-12957670D01*
X19047800Y-12746000D01*
Y-13000000D01*
G01X19219250D02*
X19193850Y-12995770D01*
X19171630Y-12978840D01*
X19152570Y-12953440D01*
X19139870Y-12923800D01*
X19133520Y-12889930D01*
Y-12856070D01*
X19139870Y-12822200D01*
X19152570Y-12792560D01*
X19171630Y-12767170D01*
X19193850Y-12750230D01*
X19219250Y-12746000D01*
X19244650Y-12750230D01*
X19266870Y-12767170D01*
X19285930Y-12792560D01*
X19298630Y-12822200D01*
X19304980Y-12856070D01*
Y-12889930D01*
X19298630Y-12923800D01*
X19285930Y-12953440D01*
X19266870Y-12978840D01*
X19244650Y-12995770D01*
X19219250Y-13000000D01*
G01X19473250Y-12746000D02*
Y-13000000D01*
G01X19400230Y-12746000D02*
X19546270D01*
G01X19660570Y-13000000D02*
Y-12746000D01*
G01X19793930D02*
Y-13000000D01*
G01Y-12873000D02*
X19660570D01*
G01X20044750Y-13000000D02*
X19917750D01*
Y-12746000D01*
X20044750D01*
G01X19993950Y-12868760D02*
X19917750D01*
G01X20171750Y-13000000D02*
Y-12746000D01*
X20251120D01*
X20276520Y-12758710D01*
X20292400Y-12775630D01*
X20298750Y-12809500D01*
X20292400Y-12843370D01*
X20273350Y-12864530D01*
X20251120Y-12877240D01*
X20171750D01*
G01X20251120D02*
X20298750Y-13000000D01*
G01X20514650Y-12864530D02*
X20527350Y-12851830D01*
X20536870Y-12830670D01*
X20543230Y-12801030D01*
X20536870Y-12775630D01*
X20524180Y-12758710D01*
X20501950Y-12746000D01*
X20416230D01*
Y-13000000D01*
X20521000D01*
X20543230Y-12983070D01*
X20555930Y-12957670D01*
X20562270Y-12928030D01*
X20555930Y-12898410D01*
X20536870Y-12873000D01*
X20514650Y-12864530D01*
X20416230D01*
G01X20743250Y-13000000D02*
X20717850Y-12995770D01*
X20695630Y-12978840D01*
X20676570Y-12953440D01*
X20663870Y-12923800D01*
X20657520Y-12889930D01*
Y-12856070D01*
X20663870Y-12822200D01*
X20676570Y-12792560D01*
X20695630Y-12767170D01*
X20717850Y-12750230D01*
X20743250Y-12746000D01*
X20768650Y-12750230D01*
X20790870Y-12767170D01*
X20809930Y-12792560D01*
X20822630Y-12822200D01*
X20828980Y-12856070D01*
Y-12889930D01*
X20822630Y-12923800D01*
X20809930Y-12953440D01*
X20790870Y-12978840D01*
X20768650Y-12995770D01*
X20743250Y-13000000D01*
G01X20917870D02*
X20997250Y-12746000D01*
X21076630Y-13000000D01*
G01X21048050Y-12911100D02*
X20946450D01*
G01X21187750Y-13000000D02*
Y-12746000D01*
X21267120D01*
X21292520Y-12758710D01*
X21308400Y-12775630D01*
X21314750Y-12809500D01*
X21308400Y-12843370D01*
X21289350Y-12864530D01*
X21267120Y-12877240D01*
X21187750D01*
G01X21267120D02*
X21314750Y-13000000D01*
G01X21435400D02*
Y-12746000D01*
X21498900D01*
X21524300Y-12758710D01*
X21543350Y-12775630D01*
X21559230Y-12801030D01*
X21571930Y-12830670D01*
X21575100Y-12873000D01*
X21571930Y-12915340D01*
X21559230Y-12944970D01*
X21543350Y-12970370D01*
X21524300Y-12987300D01*
X21498900Y-13000000D01*
X21435400D01*
G01X21933870Y-12746000D02*
X22013250Y-13000000D01*
X22092630Y-12746000D01*
G01X22206920Y-12788330D02*
X22225980Y-12762940D01*
X22248200Y-12750230D01*
X22273600Y-12746000D01*
X22305350Y-12754460D01*
X22327580Y-12775630D01*
X22333930Y-12801030D01*
X22330750Y-12826440D01*
X22318050Y-12847600D01*
X22254550Y-12889930D01*
X22225980Y-12919570D01*
X22206920Y-12961910D01*
X22200570Y-13000000D01*
X22333930D01*
G01X18102750Y10420000D02*
Y10674000D01*
X18182120D01*
X18207520Y10661290D01*
X18223400Y10644370D01*
X18229750Y10610500D01*
X18223400Y10576630D01*
X18204350Y10555470D01*
X18182120Y10542760D01*
X18102750D01*
G01X18182120D02*
X18229750Y10420000D01*
G01X18483750D02*
X18356750D01*
Y10674000D01*
X18483750D01*
G01X18432950Y10551240D02*
X18356750D01*
G01X18594870Y10674000D02*
X18674250Y10420000D01*
X18753630Y10674000D01*
G01X18890150D02*
X18966340D01*
G01X18928250D02*
Y10420000D01*
G01X18890150D02*
X18966340D01*
G01X19115570Y10453860D02*
X19140980Y10432700D01*
X19169550Y10420000D01*
X19194950D01*
X19220350Y10432700D01*
X19239400Y10453860D01*
X19248930Y10483500D01*
X19242580Y10513130D01*
X19226700Y10538530D01*
X19198120Y10555470D01*
X19160030Y10563930D01*
X19137800Y10580860D01*
X19128270Y10610500D01*
X19134630Y10640130D01*
X19150500Y10661290D01*
X19172720Y10674000D01*
X19194950D01*
X19217180Y10665540D01*
X19236230Y10644370D01*
G01X19398150Y10674000D02*
X19474340D01*
G01X19436250D02*
Y10420000D01*
G01X19398150D02*
X19474340D01*
G01X19690250D02*
X19664850Y10424230D01*
X19642630Y10441160D01*
X19623570Y10466560D01*
X19610870Y10496200D01*
X19604520Y10530070D01*
Y10563930D01*
X19610870Y10597800D01*
X19623570Y10627440D01*
X19642630Y10652830D01*
X19664850Y10669770D01*
X19690250Y10674000D01*
X19715650Y10669770D01*
X19737870Y10652830D01*
X19756930Y10627440D01*
X19769630Y10597800D01*
X19775980Y10563930D01*
Y10530070D01*
X19769630Y10496200D01*
X19756930Y10466560D01*
X19737870Y10441160D01*
X19715650Y10424230D01*
X19690250Y10420000D01*
G01X19871230D02*
Y10674000D01*
X20017270Y10420000D01*
Y10674000D01*
G01X20131570Y10453860D02*
X20156980Y10432700D01*
X20185550Y10420000D01*
X20210950D01*
X20236350Y10432700D01*
X20255400Y10453860D01*
X20264930Y10483500D01*
X20258580Y10513130D01*
X20242700Y10538530D01*
X20214120Y10555470D01*
X20176030Y10563930D01*
X20153800Y10580860D01*
X20144270Y10610500D01*
X20150630Y10640130D01*
X20166500Y10661290D01*
X20188720Y10674000D01*
X20210950D01*
X20233180Y10665540D01*
X20252230Y10644370D01*
G01X18960000Y-14726000D02*
Y-13710000D01*
G01X19239400Y-14091000D02*
Y-13837000D01*
X19302900D01*
X19328300Y-13849710D01*
X19347350Y-13866630D01*
X19363230Y-13892030D01*
X19375930Y-13921670D01*
X19379100Y-13964000D01*
X19375930Y-14006340D01*
X19363230Y-14035970D01*
X19347350Y-14061370D01*
X19328300Y-14078300D01*
X19302900Y-14091000D01*
X19239400D01*
G01X19468000Y-13837000D02*
X19512450Y-14091000D01*
X19563250Y-13837000D01*
X19614050Y-14091000D01*
X19658500Y-13837000D01*
G01X19836300Y-13964000D02*
X19899800D01*
Y-14040200D01*
X19880750Y-14065610D01*
X19858520Y-14082540D01*
X19826780Y-14091000D01*
X19795030Y-14082540D01*
X19772800Y-14065610D01*
X19753750Y-14040200D01*
X19741050Y-14010570D01*
X19734700Y-13976700D01*
Y-13947070D01*
X19741050Y-13921670D01*
X19753750Y-13892030D01*
X19772800Y-13866630D01*
X19791850Y-13849710D01*
X19817250Y-13837000D01*
X19839470D01*
X19864870Y-13845460D01*
X19883930Y-13862400D01*
G01X20252230Y-14091000D02*
Y-13837000D01*
X20398270Y-14091000D01*
Y-13837000D01*
G01X20579250Y-14091000D02*
X20553850Y-14086770D01*
X20531630Y-14069840D01*
X20512570Y-14044440D01*
X20499870Y-14014800D01*
X20493520Y-13980930D01*
Y-13947070D01*
X20499870Y-13913200D01*
X20512570Y-13883560D01*
X20531630Y-13858170D01*
X20553850Y-13841230D01*
X20579250Y-13837000D01*
X20604650Y-13841230D01*
X20626870Y-13858170D01*
X20645930Y-13883560D01*
X20658630Y-13913200D01*
X20664980Y-13947070D01*
Y-13980930D01*
X20658630Y-14014800D01*
X20645930Y-14044440D01*
X20626870Y-14069840D01*
X20604650Y-14086770D01*
X20579250Y-14091000D01*
G01X20484000Y8642000D02*
Y7880000D01*
G01Y8388000D02*
Y9404000D01*
G01D02*
Y10166000D01*
G01X20992000Y-15488000D02*
Y-14726000D01*
X25310000D01*
G01X21144400Y9658000D02*
Y9912000D01*
X21207900D01*
X21233300Y9899290D01*
X21252350Y9882370D01*
X21268230Y9856970D01*
X21280930Y9827330D01*
X21284100Y9785000D01*
X21280930Y9742660D01*
X21268230Y9713030D01*
X21252350Y9687630D01*
X21233300Y9670700D01*
X21207900Y9658000D01*
X21144400D01*
G01X21388870D02*
X21468250Y9912000D01*
X21547630Y9658000D01*
G01X21519050Y9746900D02*
X21417450D01*
G01X21722250Y9912000D02*
Y9658000D01*
G01X21649230Y9912000D02*
X21795270D01*
G01X22039750Y9658000D02*
X21912750D01*
Y9912000D01*
X22039750D01*
G01X21988950Y9789240D02*
X21912750D01*
G01X21274570Y-15073140D02*
X21299980Y-15094300D01*
X21328550Y-15107000D01*
X21353950D01*
X21379350Y-15094300D01*
X21398400Y-15073140D01*
X21407930Y-15043500D01*
X21401580Y-15013870D01*
X21385700Y-14988470D01*
X21357120Y-14971530D01*
X21319030Y-14963070D01*
X21296800Y-14946140D01*
X21287270Y-14916500D01*
X21293630Y-14886870D01*
X21309500Y-14865710D01*
X21331720Y-14853000D01*
X21353950D01*
X21376180Y-14861460D01*
X21395230Y-14882630D01*
G01X21528570Y-15107000D02*
Y-14853000D01*
G01X21661930D02*
Y-15107000D01*
G01Y-14980000D02*
X21528570D01*
G01X21912750Y-15107000D02*
X21785750D01*
Y-14853000D01*
X21912750D01*
G01X21861950Y-14975760D02*
X21785750D01*
G01X22166750Y-15107000D02*
X22039750D01*
Y-14853000D01*
X22166750D01*
G01X22115950Y-14975760D02*
X22039750D01*
G01X22357250Y-14853000D02*
Y-15107000D01*
G01X22284230Y-14853000D02*
X22430270D01*
G01X22770000Y8642000D02*
Y7880000D01*
G01Y8642000D02*
Y9404000D01*
G01D02*
Y10166000D01*
G01X23039870Y9658000D02*
X23119250Y9912000D01*
X23198630Y9658000D01*
G01X23170050Y9746900D02*
X23068450D01*
G01X23309750Y9658000D02*
Y9912000D01*
X23385950D01*
X23411350Y9899290D01*
X23430400Y9869670D01*
X23436750Y9835800D01*
X23430400Y9801930D01*
X23414520Y9776530D01*
X23385950Y9763830D01*
X23309750D01*
G01X23563750Y9658000D02*
Y9912000D01*
X23639950D01*
X23665350Y9899290D01*
X23684400Y9869670D01*
X23690750Y9835800D01*
X23684400Y9801930D01*
X23668520Y9776530D01*
X23639950Y9763830D01*
X23563750D01*
G01X23817750Y9658000D02*
Y9912000D01*
X23897120D01*
X23922520Y9899290D01*
X23938400Y9882370D01*
X23944750Y9848500D01*
X23938400Y9814630D01*
X23919350Y9793470D01*
X23897120Y9780760D01*
X23817750D01*
G01X23897120D02*
X23944750Y9658000D01*
G01X24135250D02*
X24109850Y9662230D01*
X24087630Y9679160D01*
X24068570Y9704560D01*
X24055870Y9734200D01*
X24049520Y9768070D01*
Y9801930D01*
X24055870Y9835800D01*
X24068570Y9865440D01*
X24087630Y9890830D01*
X24109850Y9907770D01*
X24135250Y9912000D01*
X24160650Y9907770D01*
X24182870Y9890830D01*
X24201930Y9865440D01*
X24214630Y9835800D01*
X24220980Y9801930D01*
Y9768070D01*
X24214630Y9734200D01*
X24201930Y9704560D01*
X24182870Y9679160D01*
X24160650Y9662230D01*
X24135250Y9658000D01*
G01X24309870Y9912000D02*
X24389250Y9658000D01*
X24468630Y9912000D01*
G01X24706750Y9658000D02*
X24579750D01*
Y9912000D01*
X24706750D01*
G01X24655950Y9789240D02*
X24579750D01*
G01X24827400Y9658000D02*
Y9912000D01*
X24890900D01*
X24916300Y9899290D01*
X24935350Y9882370D01*
X24951230Y9856970D01*
X24963930Y9827330D01*
X24967100Y9785000D01*
X24963930Y9742660D01*
X24951230Y9713030D01*
X24935350Y9687630D01*
X24916300Y9670700D01*
X24890900Y9658000D01*
X24827400D01*
G01X25310000Y10928000D02*
Y7880000D01*
G54D18*
X-7683500Y-3746500D03*
Y-1271000D03*
Y-1079500D03*
Y-952500D03*
X-7494000Y-2223500D03*
X-7185940Y2840000D03*
X-7000000Y3039000D03*
Y3700000D03*
X-6876500Y2781260D03*
Y3491740D03*
X-6731000Y3177770D03*
X-6600000Y2520000D03*
X-6604000Y3740000D03*
X-6590000Y2710000D03*
X-6540500Y3492500D03*
X-6477000Y-3746500D03*
Y3740000D03*
X-6413500Y2476500D03*
Y3175000D03*
X-6420000Y3330000D03*
X-6286500Y2730500D03*
Y3491740D03*
X-6159500Y-889000D03*
X-6150000Y-762000D03*
X-6096000Y-952500D03*
X-5905500Y-2223500D03*
X-5715000Y3810000D03*
X-5330000Y3060000D03*
X-5270000Y2476500D03*
X-5214000Y2802260D03*
Y3512740D03*
X-5080000Y3255000D03*
X-5016500Y2650000D03*
Y3720000D03*
X-4727480Y2413000D03*
Y3255000D03*
X-4624000Y2802260D03*
Y3512740D03*
X-3810000Y4381500D03*
Y4699000D03*
X-2984500Y-6159500D03*
Y-5524500D03*
Y2095500D03*
X-2820000Y-6190000D03*
Y-5450000D03*
X-2667000Y1905000D03*
X-2622750Y742750D03*
X-2603500Y1778000D03*
X-2540000Y2032000D03*
Y3492500D03*
Y4127500D03*
X-2400000Y3628500D03*
Y4180000D03*
X-1524000Y3810000D03*
X-1270000Y3831530D03*
X-883000Y3689000D03*
X-825500Y-6180000D03*
Y-5524500D03*
Y3175000D03*
X-762000Y3873500D03*
X-698500Y-1143000D03*
Y3683000D03*
X-635000Y-1079500D03*
X-571500Y-1016000D03*
X-63500Y4699000D03*
X190500Y3619500D03*
Y4762500D03*
X952500Y3683000D03*
X1016000Y-6223000D03*
Y-5715000D03*
X1079500Y-6350000D03*
X1180250Y2820250D03*
X1493000Y3525000D03*
X1651000Y3619500D03*
X1968500Y-4000500D03*
X2020000Y1470000D03*
X2080640Y-3985640D03*
X2032000Y4127500D03*
X2286000Y-7175500D03*
X2260000Y2970000D03*
X2286000Y4127500D03*
X2349500Y2476500D03*
X2413000Y-900000D03*
X2370000Y3092060D03*
X2413000Y3410000D03*
Y3873500D03*
Y4254500D03*
X2400000Y4350000D03*
X2476500Y-3480000D03*
X2444750Y984250D03*
X2476500Y2540000D03*
X2470470Y2809530D03*
X2540000Y-6921500D03*
Y-6731000D03*
Y-6520000D03*
Y-6286500D03*
Y-3400000D03*
Y2667000D03*
X2510000Y3220000D03*
X2512850Y3456150D03*
X2540000Y4000500D03*
X2603500Y-3720000D03*
Y-3560000D03*
Y-825500D03*
X2610000Y-580000D03*
X2603500Y-475000D03*
Y-315000D03*
Y-75000D03*
Y952500D03*
Y3525000D03*
Y4405000D03*
X2680000Y-3800000D03*
X2669060Y85000D03*
X2667000Y3160000D03*
Y3873500D03*
Y4245000D03*
X2857500Y-1714500D03*
Y-1270000D03*
X2984500Y-1841500D03*
Y-1397000D03*
X3120000Y85000D03*
Y245000D03*
Y485000D03*
Y645000D03*
X3111500Y889000D03*
X3120000Y1125000D03*
Y2165000D03*
Y2965000D03*
Y3525000D03*
X3115290Y4245000D03*
X3175000Y-7000000D03*
Y-6840000D03*
Y-6600000D03*
Y-6280000D03*
Y-6120000D03*
Y-5800000D03*
X3180000Y-5610000D03*
X3175000Y405000D03*
X3190000Y550000D03*
X3175000Y805000D03*
Y965000D03*
Y1285000D03*
X3143250Y1365250D03*
X3150000Y1970000D03*
X3175000Y2565000D03*
Y2805000D03*
Y3045000D03*
Y3285000D03*
Y3445000D03*
X3160000Y3910000D03*
X3175000Y4005000D03*
Y4165000D03*
X3210000Y-6440000D03*
X3238500Y-2159000D03*
Y-635000D03*
X3211250Y281250D03*
X3238500Y1206500D03*
X3220000Y2085000D03*
X3230000Y2325000D03*
X3238500Y2725000D03*
X3250000Y2885000D03*
X3240000Y3830000D03*
X3239700Y4085000D03*
X3247000Y4325000D03*
X3302000Y-6520000D03*
Y-5880000D03*
X3300000Y-5720000D03*
X3290000Y-5560000D03*
X3302000Y-1587500D03*
Y-190500D03*
X3330000Y2710000D03*
X3302000Y3765000D03*
X3340000Y-6360000D03*
Y2245000D03*
G54D19*
X-5905500Y1333500D03*
X-5651500Y1079500D03*
Y1333500D03*
Y1587500D03*
X-5588000Y-391500D03*
X-5397500Y1333500D03*
X-5334000Y-391500D03*
X-4635500Y1333500D03*
X-4381500Y1079500D03*
Y1333500D03*
Y1587500D03*
X-4127500Y1333500D03*
X-3365500D03*
X-3111500Y127000D03*
Y381000D03*
Y635000D03*
Y1079500D03*
Y1333500D03*
Y1587500D03*
X-2857500Y381000D03*
Y1333500D03*
M02*
